<svg width="26" height="26" viewBox="0 0 26 26" fill="none" xmlns="http://www.w3.org/2000/svg">
<path d="M16.4637 7.66284H9.26688C8.11817 7.66284 7.18359 8.59741 7.18359 9.74613V16.9429C7.18359 18.0916 8.11817 19.0265 9.26688 19.0265H16.4637C17.6124 19.0265 18.5472 18.0919 18.5472 16.9429V9.74613C18.5472 8.59741 17.6127 7.66284 16.4637 7.66284ZM12.8653 17.0855C10.8027 17.0855 9.12457 15.4074 9.12457 13.3445C9.12457 11.282 10.8027 9.60381 12.8653 9.60381C14.9281 9.60381 16.6063 11.282 16.6063 13.3445C16.6063 15.4071 14.9278 17.0855 12.8653 17.0855ZM16.7265 10.3772C16.2382 10.3772 15.8412 9.98017 15.8412 9.49217C15.8412 9.00417 16.2382 8.6071 16.7265 8.6071C17.2145 8.6071 17.6116 9.00417 17.6116 9.49217C17.6116 9.98017 17.2145 10.3772 16.7265 10.3772Z" fill="white"/>
<path d="M12.8653 11.1846C11.6746 11.1846 10.7051 12.1536 10.7051 13.3443C10.7051 14.5355 11.6746 15.5047 12.8653 15.5047C14.0565 15.5047 15.0253 14.5355 15.0253 13.3443C15.0253 12.1538 14.0562 11.1846 12.8653 11.1846Z" fill="white"/>
</svg>
