<svg width="26" height="26" viewBox="0 0 26 26" fill="none" xmlns="http://www.w3.org/2000/svg">
<path d="M18.8957 14.6293V19.0265H16.3463V14.924C16.3463 13.8939 15.9783 13.1905 15.0552 13.1905C14.3508 13.1905 13.9324 13.6641 13.7476 14.1226C13.6804 14.2865 13.6631 14.5141 13.6631 14.744V19.0263H11.1136C11.1136 19.0263 11.1478 12.0781 11.1136 11.3588H13.6633V12.4454C13.6582 12.4539 13.651 12.4623 13.6464 12.4705H13.6633V12.4454C14.0021 11.9241 14.6063 11.1788 15.961 11.1788C17.6382 11.1788 18.8957 12.2746 18.8957 14.6293ZM8.44656 7.66284C7.57446 7.66284 7.00391 8.2353 7.00391 8.98743C7.00391 9.72358 7.55792 10.3126 8.4131 10.3126H8.42964C9.31884 10.3126 9.87172 9.72358 9.87172 8.98743C9.8548 8.2353 9.31884 7.66284 8.44656 7.66284ZM7.15543 19.0265H9.70403V11.3588H7.15543V19.0265Z" fill="white"/>
</svg>
