<svg width="134" height="118" viewBox="0 0 134 118" fill="none" xmlns="http://www.w3.org/2000/svg">
<ellipse cx="67.6699" cy="38.1612" rx="38.1269" ry="37.5987" fill="#FA5805"/>
<g clip-path="url(#clip0)">
<path d="M85.3146 32.4255L82.7251 29.8975V22.1392C82.7251 21.2247 81.9586 20.4763 81.0216 20.4763H78.4111C77.4741 20.4763 76.7077 21.2247 76.7077 22.1392V24.0231L69.3925 16.8819C68.5005 16.0109 67.0427 16.0109 66.1507 16.8819L50.2288 32.4255C49.3347 33.2962 48.6064 35.0139 48.6064 36.2442V41.4996V56.2898C48.6064 57.5195 49.6384 58.5271 50.8987 58.5271H84.6447C85.9045 58.5271 86.9362 57.5195 86.9362 56.2898V50.5498V48.0327V36.2442C86.9362 35.0139 86.2064 33.2962 85.3146 32.4255Z" fill="white"/>
<path d="M67.771 55.1018C59.1813 55.1018 52.165 48.2526 52.165 39.8677H57.1188C57.1188 45.6394 61.8585 50.2662 67.771 50.2662C73.6834 50.2662 78.4236 45.6393 78.4236 39.8677H83.3774C83.3774 48.2527 76.3606 55.1018 67.771 55.1018Z" fill="#FA5805"/>
</g>
<g clip-path="url(#clip1)">
<path d="M85.3146 32.4255L82.7251 29.8975V22.1392C82.7251 21.2247 81.9586 20.4763 81.0216 20.4763H78.4111C77.4741 20.4763 76.7077 21.2247 76.7077 22.1392V24.0231L69.3925 16.8819C68.5005 16.0109 67.0427 16.0109 66.1507 16.8819L50.2288 32.4255C49.3347 33.2962 48.6064 35.0139 48.6064 36.2442V41.4996V56.2898C48.6064 57.5195 49.6384 58.5271 50.8987 58.5271H84.6447C85.9045 58.5271 86.9362 57.5195 86.9362 56.2898V50.5498V48.0327V36.2442C86.9362 35.0139 86.2064 33.2962 85.3146 32.4255Z" fill="white"/>
</g>
<path d="M67.3734 31.3884C61.0936 31.3884 55.9844 36.4268 55.9844 42.6197C55.9844 50.4035 67.3846 63.6998 67.3846 63.6998C67.3846 63.6998 78.7625 50.0207 78.7625 42.6197C78.7625 36.4268 73.6535 31.3884 67.3734 31.3884ZM70.8098 45.9082C69.8622 46.8424 68.6179 47.3096 67.3734 47.3096C66.1291 47.3096 64.8844 46.8424 63.9373 45.9082C62.0425 44.0398 62.0425 40.9996 63.9373 39.131C64.8549 38.2258 66.0754 37.7272 67.3734 37.7272C68.6715 37.7272 69.8918 38.226 70.8098 39.131C72.7046 40.9996 72.7046 44.0398 70.8098 45.9082Z" fill="#FA5805"/>
<path d="M71.7823 83.8315V87.4941H74.3653V90.4131H71.7823V97.8484C71.7823 98.3991 71.8893 98.7939 72.1034 99.0325C72.3175 99.2712 72.727 99.3905 73.3321 99.3905C73.7789 99.3905 74.1745 99.3584 74.5189 99.2941V102.31C73.7277 102.548 72.9132 102.668 72.0755 102.668C69.2457 102.668 67.8029 101.259 67.7471 98.4405V90.4131H65.541V87.4941H67.7471V83.8315H71.7823Z" fill="white"/>
<path d="M89.8953 102.392C89.7092 102.034 89.5742 101.589 89.4904 101.057C88.5131 102.131 87.2425 102.668 85.6787 102.668C84.1986 102.668 82.9699 102.245 81.9926 101.401C81.0245 100.556 80.5405 99.4915 80.5405 98.2064C80.5405 96.6275 81.1315 95.4159 82.3137 94.5714C83.5052 93.7268 85.2226 93.3 87.4659 93.2908H89.3229V92.4371C89.3229 91.7487 89.1414 91.1979 88.7783 90.7849C88.4246 90.3718 87.8615 90.1653 87.0889 90.1653C86.4094 90.1653 85.8741 90.3259 85.4832 90.6472C85.1015 90.9685 84.9107 91.4091 84.9107 91.969H80.8756C80.8756 91.1061 81.1455 90.3075 81.6854 89.5732C82.2253 88.8388 82.9886 88.2651 83.9752 87.8521C84.9619 87.4298 86.0696 87.2187 87.2983 87.2187C89.16 87.2187 90.6354 87.6822 91.7244 88.6094C92.8228 89.5273 93.372 90.8216 93.372 92.4922V98.9499C93.3813 100.364 93.5814 101.433 93.9724 102.158V102.392H89.8953ZM86.5583 99.6246C87.154 99.6246 87.7032 99.4961 88.2059 99.2391C88.7085 98.9729 89.0809 98.6194 89.3229 98.1788V95.6178H87.8149C85.795 95.6178 84.7199 96.3062 84.5896 97.6832L84.5756 97.9172C84.5756 98.4129 84.7525 98.8214 85.1062 99.1427C85.4599 99.4639 85.944 99.6246 86.5583 99.6246Z" fill="white"/>
<path d="M106.487 96.4164L105.034 97.8484V102.392H100.999V81.2429H105.034V92.9604L105.816 91.969L109.684 87.4941H114.529L109.07 93.7039L115.004 102.392H110.368L106.487 96.4164Z" fill="white"/>
<path d="M129.556 102.392C129.37 102.034 129.235 101.589 129.151 101.057C128.174 102.131 126.903 102.668 125.34 102.668C123.86 102.668 122.631 102.245 121.654 101.401C120.685 100.556 120.201 99.4915 120.201 98.2064C120.201 96.6275 120.792 95.4159 121.975 94.5714C123.166 93.7268 124.883 93.3 127.127 93.2908H128.984V92.4371C128.984 91.7487 128.802 91.1979 128.439 90.7849C128.086 90.3718 127.522 90.1653 126.75 90.1653C126.07 90.1653 125.535 90.3259 125.144 90.6472C124.762 90.9685 124.572 91.4091 124.572 91.969H120.537C120.537 91.1061 120.806 90.3075 121.346 89.5732C121.886 88.8388 122.649 88.2651 123.636 87.8521C124.623 87.4298 125.731 87.2187 126.959 87.2187C128.821 87.2187 130.296 87.6822 131.385 88.6094C132.484 89.5273 133.033 90.8216 133.033 92.4922V98.9499C133.042 100.364 133.242 101.433 133.633 102.158V102.392H129.556ZM126.219 99.6246C126.815 99.6246 127.364 99.4961 127.867 99.2391C128.369 98.9729 128.742 98.6194 128.984 98.1788V95.6178H127.476C125.456 95.6178 124.381 96.3062 124.251 97.6832L124.237 97.9172C124.237 98.4129 124.413 98.8214 124.767 99.1427C125.121 99.4639 125.605 99.6246 126.219 99.6246Z" fill="white"/>
<path d="M7.18948 83.8315V87.4941H9.77254V90.4131H7.18948V97.8484C7.18948 98.3991 7.29653 98.7939 7.51062 99.0325C7.72471 99.2712 8.13428 99.3905 8.73932 99.3905C9.18612 99.3905 9.58172 99.3584 9.92613 99.2941V102.31C9.13492 102.548 8.32044 102.668 7.48269 102.668C4.65296 102.668 3.21017 101.259 3.15432 98.4405V90.4131H0.948242V87.4941H3.15432V83.8315H7.18948Z" fill="#FA5805"/>
<path d="M20.8066 102.392H16.7575V87.4941H20.8066V102.392ZM16.5202 83.6387C16.5202 83.0421 16.7203 82.551 17.1205 82.1654C17.5301 81.7799 18.084 81.5871 18.7821 81.5871C19.4709 81.5871 20.0201 81.7799 20.4297 82.1654C20.8392 82.551 21.044 83.0421 21.044 83.6387C21.044 84.2446 20.8346 84.7403 20.4157 85.1258C20.0061 85.5113 19.4616 85.7041 18.7821 85.7041C18.1026 85.7041 17.5534 85.5113 17.1345 85.1258C16.7249 84.7403 16.5202 84.2446 16.5202 83.6387Z" fill="#FA5805"/>
<path d="M34.1585 96.4164L32.7064 97.8484V102.392H28.6713V81.2429H32.7064V92.9604L33.4883 91.969L37.3559 87.4941H42.2009L36.7416 93.7039L42.6756 102.392H38.0401L34.1585 96.4164Z" fill="#FA5805"/>
<path d="M52.7324 102.392H48.6832V87.4941H52.7324V102.392ZM48.4459 83.6387C48.4459 83.0421 48.646 82.551 49.0463 82.1654C49.4558 81.7799 50.0097 81.5871 50.7078 81.5871C51.3966 81.5871 51.9458 81.7799 52.3554 82.1654C52.7649 82.551 52.9697 83.0421 52.9697 83.6387C52.9697 84.2446 52.7603 84.7403 52.3414 85.1258C51.9318 85.5113 51.3873 85.7041 50.7078 85.7041C50.0283 85.7041 49.4791 85.5113 49.0602 85.1258C48.6507 84.7403 48.4459 84.2446 48.4459 83.6387Z" fill="#FA5805"/>
<path d="M62.8074 92.9924C63.1241 92.9924 63.3994 93.1078 63.6335 93.3387C63.8675 93.5695 63.9846 93.841 63.9846 94.1533V94.8865C63.9846 95.1987 63.8675 95.4703 63.6335 95.7011C63.3994 95.9319 63.1241 96.0473 62.8074 96.0473H57.727C57.4103 96.0473 57.1349 95.9319 56.9009 95.7011C56.6668 95.4703 56.5498 95.1987 56.5498 94.8865V94.1533C56.5498 93.841 56.6668 93.5695 56.9009 93.3387C57.1349 93.1078 57.4103 92.9924 57.727 92.9924H62.8074Z" fill="#FA5805"/>
<path d="M5.06479 115.248C5.06479 114.93 4.95304 114.685 4.72955 114.513C4.50934 114.341 4.11001 114.167 3.53156 113.992C2.95311 113.816 2.49297 113.621 2.15116 113.406C1.49711 112.992 1.17009 112.452 1.17009 111.786C1.17009 111.204 1.40509 110.723 1.87508 110.346C2.34836 109.968 2.96132 109.78 3.71397 109.78C4.21354 109.78 4.65888 109.872 5.05 110.058C5.44111 110.243 5.74841 110.508 5.9719 110.853C6.1954 111.194 6.30714 111.573 6.30714 111.99H5.06479C5.06479 111.613 4.94647 111.318 4.70983 111.106C4.47647 110.891 4.14123 110.783 3.70411 110.783C3.29656 110.783 2.9794 110.871 2.75262 111.046C2.52913 111.222 2.41738 111.467 2.41738 111.781C2.41738 112.046 2.53899 112.268 2.7822 112.447C3.02541 112.622 3.42639 112.795 3.98512 112.964C4.54385 113.129 4.99248 113.32 5.33101 113.535C5.66953 113.747 5.91767 113.992 6.07543 114.27C6.23319 114.545 6.31207 114.868 6.31207 115.238C6.31207 115.841 6.08201 116.321 5.62187 116.679C5.16503 117.033 4.54385 117.21 3.75834 117.21C3.23905 117.21 2.76084 117.114 2.32371 116.922C1.88987 116.727 1.55134 116.459 1.30813 116.118C1.06821 115.777 0.948242 115.379 0.948242 114.925H2.19553C2.19553 115.336 2.33028 115.654 2.59979 115.879C2.8693 116.104 3.25548 116.217 3.75834 116.217C4.19218 116.217 4.51756 116.129 4.73448 115.954C4.95468 115.775 5.06479 115.54 5.06479 115.248Z" fill="white"/>
<path d="M10.498 117.21C9.73881 117.21 9.12256 116.97 8.64928 116.49C8.17929 116.007 7.94429 115.364 7.94429 114.563V114.414C7.94429 113.877 8.04618 113.399 8.24995 112.978C8.45701 112.555 8.74624 112.225 9.11763 111.99C9.48903 111.755 9.90314 111.637 10.36 111.637C11.0863 111.637 11.6467 111.871 12.0411 112.338C12.4388 112.805 12.6376 113.465 12.6376 114.32V114.806H9.15214C9.1883 115.25 9.33455 115.601 9.59091 115.859C9.85056 116.118 10.1759 116.247 10.567 116.247C11.1159 116.247 11.5629 116.023 11.908 115.576L12.5538 116.197C12.3402 116.518 12.0543 116.768 11.696 116.947C11.3411 117.123 10.9417 117.21 10.498 117.21ZM10.3551 112.606C10.0264 112.606 9.76017 112.722 9.5564 112.954C9.35592 113.185 9.22774 113.508 9.17186 113.922H11.4544V113.833C11.4282 113.429 11.3213 113.124 11.134 112.919C10.9467 112.71 10.687 112.606 10.3551 112.606Z" fill="white"/>
<path d="M17.2229 112.839C17.0652 112.813 16.9025 112.8 16.7349 112.8C16.186 112.8 15.8162 113.012 15.6256 113.435V117.111H14.4276V111.737H15.5714L15.601 112.338C15.8902 111.871 16.2912 111.637 16.8039 111.637C16.9748 111.637 17.1161 111.661 17.2279 111.707L17.2229 112.839Z" fill="white"/>
<path d="M20.8074 115.581L21.9364 111.737H23.1738L21.3251 117.111H20.2849L18.4213 111.737H19.6637L20.8074 115.581Z" fill="white"/>
<path d="M26.0583 117.111H24.8603V111.737H26.0583V117.111ZM24.7863 110.341C24.7863 110.156 24.8439 110.002 24.9589 109.879C25.0772 109.757 25.2448 109.695 25.4617 109.695C25.6787 109.695 25.8463 109.757 25.9646 109.879C26.0829 110.002 26.1421 110.156 26.1421 110.341C26.1421 110.523 26.0829 110.675 25.9646 110.798C25.8463 110.917 25.6787 110.977 25.4617 110.977C25.2448 110.977 25.0772 110.917 24.9589 110.798C24.8439 110.675 24.7863 110.523 24.7863 110.341Z" fill="white"/>
<path d="M30.4168 116.247C30.7159 116.247 30.964 116.159 31.1612 115.983C31.3584 115.808 31.4636 115.591 31.4767 115.333H32.6057C32.5925 115.667 32.489 115.98 32.2951 116.272C32.1012 116.56 31.8383 116.788 31.5063 116.957C31.1744 117.126 30.8161 117.21 30.4316 117.21C29.6855 117.21 29.0939 116.967 28.6568 116.48C28.2196 115.993 28.0011 115.321 28.0011 114.464V114.339C28.0011 113.521 28.218 112.868 28.6518 112.377C29.0857 111.884 29.6773 111.637 30.4266 111.637C31.061 111.637 31.577 111.824 31.9747 112.199C32.3756 112.569 32.586 113.058 32.6057 113.664H31.4767C31.4636 113.356 31.3584 113.103 31.1612 112.904C30.9673 112.705 30.7192 112.606 30.4168 112.606C30.029 112.606 29.7299 112.748 29.5195 113.033C29.3092 113.315 29.2024 113.743 29.1991 114.32V114.513C29.1991 115.096 29.3026 115.531 29.5097 115.82C29.72 116.104 30.0224 116.247 30.4168 116.247Z" fill="white"/>
<path d="M35.643 117.111H34.445V111.737H35.643V117.111ZM34.371 110.341C34.371 110.156 34.4285 110.002 34.5436 109.879C34.6619 109.757 34.8295 109.695 35.0464 109.695C35.2634 109.695 35.431 109.757 35.5493 109.879C35.6676 110.002 35.7268 110.156 35.7268 110.341C35.7268 110.523 35.6676 110.675 35.5493 110.798C35.431 110.917 35.2634 110.977 35.0464 110.977C34.8295 110.977 34.6619 110.917 34.5436 110.798C34.4285 110.675 34.371 110.523 34.371 110.341Z" fill="white"/>
<path d="M37.5858 114.374C37.5858 113.848 37.6893 113.374 37.8964 112.954C38.1034 112.53 38.3943 112.205 38.769 111.98C39.1437 111.752 39.5742 111.637 40.0606 111.637C40.7804 111.637 41.3638 111.871 41.8108 112.338C42.2611 112.805 42.5043 113.424 42.5404 114.195L42.5453 114.478C42.5453 115.008 42.4435 115.482 42.2397 115.899C42.0392 116.316 41.75 116.639 41.372 116.868C40.9973 117.096 40.5635 117.21 40.0705 117.21C39.3178 117.21 38.7147 116.959 38.2612 116.455C37.8109 115.949 37.5858 115.275 37.5858 114.434V114.374ZM38.7838 114.478C38.7838 115.031 38.8972 115.465 39.1239 115.78C39.3507 116.091 39.6662 116.247 40.0705 116.247C40.4748 116.247 40.7886 116.088 41.0121 115.77C41.2389 115.452 41.3523 114.987 41.3523 114.374C41.3523 113.831 41.2356 113.401 41.0023 113.083C40.7722 112.765 40.4583 112.606 40.0606 112.606C39.6695 112.606 39.3589 112.763 39.1289 113.078C38.8988 113.389 38.7838 113.856 38.7838 114.478Z" fill="white"/>
<path d="M47.4067 115.651C47.4067 115.435 47.318 115.272 47.1405 115.159C46.9663 115.046 46.6754 114.947 46.2679 114.861C45.8603 114.775 45.5202 114.666 45.2474 114.533C44.6492 114.242 44.3501 113.82 44.3501 113.267C44.3501 112.803 44.544 112.416 44.9319 112.104C45.3197 111.793 45.8127 111.637 46.4109 111.637C47.0485 111.637 47.5628 111.796 47.9539 112.114C48.3484 112.432 48.5455 112.844 48.5455 113.351H47.3476C47.3476 113.119 47.2621 112.927 47.0912 112.775C46.9203 112.619 46.6935 112.541 46.4109 112.541C46.1479 112.541 45.9327 112.603 45.765 112.725C45.6007 112.848 45.5185 113.012 45.5185 113.217C45.5185 113.402 45.5958 113.546 45.7502 113.649C45.9047 113.752 46.2169 113.856 46.6869 113.962C47.1569 114.065 47.525 114.189 47.7913 114.334C48.0608 114.477 48.2596 114.649 48.3878 114.851C48.5193 115.053 48.585 115.298 48.585 115.586C48.585 116.07 48.3861 116.462 47.9885 116.763C47.5908 117.061 47.0698 117.21 46.4257 117.21C45.9885 117.21 45.5991 117.131 45.2572 116.972C44.9154 116.813 44.6492 116.594 44.4586 116.316C44.268 116.038 44.1726 115.738 44.1726 115.417H45.3361C45.3526 115.702 45.4594 115.922 45.6566 116.078C45.8538 116.23 46.1151 116.306 46.4404 116.306C46.756 116.306 46.9959 116.247 47.1602 116.128C47.3246 116.005 47.4067 115.846 47.4067 115.651Z" fill="white"/>
<path d="M54.9898 111.737L55.0243 112.298C55.399 111.858 55.9117 111.637 56.5625 111.637C57.2757 111.637 57.7638 111.912 58.0267 112.462C58.4145 111.912 58.9601 111.637 59.6635 111.637C60.2518 111.637 60.6889 111.801 60.9748 112.129C61.2641 112.457 61.412 112.94 61.4185 113.579V117.111H60.2206V113.614C60.2206 113.273 60.1466 113.023 59.9987 112.864C59.8508 112.705 59.606 112.626 59.2641 112.626C58.9913 112.626 58.7678 112.7 58.5937 112.849C58.4228 112.995 58.3028 113.187 58.2338 113.425L58.2387 117.111H57.0407V113.574C57.0243 112.942 56.7038 112.626 56.0794 112.626C55.5995 112.626 55.2593 112.823 55.0589 113.217V117.111H53.8609V111.737H54.9898Z" fill="white"/>
<path d="M66.694 117.111C66.6414 117.008 66.5954 116.841 66.556 116.609C66.1747 117.01 65.708 117.21 65.1559 117.21C64.6201 117.21 64.183 117.056 63.8445 116.748C63.506 116.44 63.3367 116.06 63.3367 115.606C63.3367 115.033 63.5471 114.594 63.9677 114.29C64.3917 113.982 64.9965 113.828 65.782 113.828H66.5165V113.475C66.5165 113.197 66.4393 112.975 66.2848 112.81C66.1304 112.641 65.8954 112.556 65.5798 112.556C65.3071 112.556 65.0836 112.626 64.9094 112.765C64.7352 112.901 64.6481 113.074 64.6481 113.286H63.4501C63.4501 112.992 63.5471 112.717 63.741 112.462C63.9349 112.204 64.1978 112.002 64.5298 111.856C64.865 111.71 65.238 111.637 65.6489 111.637C66.2733 111.637 66.7713 111.796 67.1427 112.114C67.514 112.429 67.7047 112.872 67.7145 113.445V115.869C67.7145 116.353 67.7819 116.738 67.9167 117.027V117.111H66.694ZM65.3777 116.242C65.6144 116.242 65.8362 116.184 66.0433 116.068C66.2536 115.952 66.4114 115.796 66.5165 115.601V114.588H65.8707C65.427 114.588 65.0934 114.666 64.8699 114.821C64.6464 114.977 64.5347 115.197 64.5347 115.482C64.5347 115.714 64.6103 115.899 64.7615 116.038C64.9159 116.174 65.1214 116.242 65.3777 116.242ZM66.0433 109.482H67.4089L66.0433 110.987H65.0819L66.0433 109.482Z" fill="white"/>
<path d="M72.8175 115.651C72.8175 115.435 72.7287 115.272 72.5513 115.159C72.3771 115.046 72.0862 114.947 71.6786 114.861C71.2711 114.775 70.9309 114.666 70.6581 114.533C70.06 114.242 69.7609 113.82 69.7609 113.267C69.7609 112.803 69.9548 112.416 70.3426 112.104C70.7304 111.793 71.2234 111.637 71.8216 111.637C72.4592 111.637 72.9736 111.796 73.3647 112.114C73.7591 112.432 73.9563 112.844 73.9563 113.351H72.7583C72.7583 113.119 72.6729 112.927 72.502 112.775C72.331 112.619 72.1043 112.541 71.8216 112.541C71.5587 112.541 71.3434 112.603 71.1758 112.725C71.0115 112.848 70.9293 113.012 70.9293 113.217C70.9293 113.402 71.0065 113.546 71.161 113.649C71.3155 113.752 71.6277 113.856 72.0977 113.962C72.5677 114.065 72.9358 114.189 73.202 114.334C73.4715 114.477 73.6704 114.649 73.7985 114.851C73.93 115.053 73.9957 115.298 73.9957 115.586C73.9957 116.07 73.7969 116.462 73.3992 116.763C73.0015 117.061 72.4806 117.21 71.8364 117.21C71.3993 117.21 71.0098 117.131 70.668 116.972C70.3262 116.813 70.06 116.594 69.8693 116.316C69.6787 116.038 69.5834 115.738 69.5834 115.417H70.7469C70.7633 115.702 70.8701 115.922 71.0673 116.078C71.2645 116.23 71.5258 116.306 71.8512 116.306C72.1667 116.306 72.4066 116.247 72.571 116.128C72.7353 116.005 72.8175 115.846 72.8175 115.651Z" fill="white"/>
<path d="M81.4655 116.247C81.7646 116.247 82.0127 116.159 82.2099 115.983C82.4071 115.808 82.5123 115.591 82.5254 115.333H83.6544C83.6412 115.667 83.5377 115.98 83.3438 116.272C83.1499 116.56 82.887 116.788 82.555 116.957C82.2231 117.126 81.8648 117.21 81.4803 117.21C80.7342 117.21 80.1426 116.967 79.7055 116.48C79.2683 115.993 79.0498 115.321 79.0498 114.464V114.339C79.0498 113.521 79.2667 112.868 79.7005 112.377C80.1344 111.884 80.726 111.637 81.4753 111.637C82.1097 111.637 82.6257 111.824 83.0234 112.199C83.4243 112.569 83.6347 113.058 83.6544 113.664H82.5254C82.5123 113.356 82.4071 113.103 82.2099 112.904C82.016 112.705 81.7678 112.606 81.4655 112.606C81.0777 112.606 80.7786 112.748 80.5682 113.033C80.3579 113.315 80.2511 113.743 80.2478 114.32V114.513C80.2478 115.096 80.3513 115.531 80.5584 115.82C80.7687 116.104 81.0711 116.247 81.4655 116.247Z" fill="white"/>
<path d="M87.7664 117.21C87.0072 117.21 86.3909 116.97 85.9176 116.49C85.4477 116.007 85.2127 115.364 85.2127 114.563V114.414C85.2127 113.877 85.3145 113.399 85.5183 112.978C85.7254 112.555 86.0146 112.225 86.386 111.99C86.7574 111.755 87.1715 111.637 87.6284 111.637C88.3547 111.637 88.9151 111.871 89.3095 112.338C89.7072 112.805 89.906 113.465 89.906 114.32V114.806H86.4205C86.4567 115.25 86.6029 115.601 86.8593 115.859C87.1189 116.118 87.4443 116.247 87.8354 116.247C88.3843 116.247 88.8313 116.023 89.1764 115.576L89.8222 116.197C89.6086 116.518 89.3226 116.768 88.9644 116.947C88.6094 117.123 88.2101 117.21 87.7664 117.21ZM87.6234 112.606C87.2948 112.606 87.0285 112.722 86.8248 112.954C86.6243 113.185 86.4961 113.508 86.4402 113.922H88.7228V113.833C88.6965 113.429 88.5897 113.124 88.4024 112.919C88.215 112.71 87.9554 112.606 87.6234 112.606Z" fill="white"/>
<path d="M94.4913 112.839C94.3335 112.813 94.1708 112.8 94.0032 112.8C93.4544 112.8 93.0846 113.012 92.894 113.435V117.111H91.696V111.737H92.8398L92.8693 112.338C93.1586 111.871 93.5595 111.637 94.0723 111.637C94.2432 111.637 94.3845 111.661 94.4962 111.707L94.4913 112.839Z" fill="white"/>
<path d="M98.199 116.247C98.4981 116.247 98.7463 116.159 98.9435 115.983C99.1407 115.808 99.2458 115.591 99.259 115.333H100.388C100.375 115.667 100.271 115.98 100.077 116.272C99.8835 116.56 99.6205 116.788 99.2886 116.957C98.9566 117.126 98.5984 117.21 98.2138 117.21C97.4678 117.21 96.8762 116.967 96.439 116.48C96.0019 115.993 95.7833 115.321 95.7833 114.464V114.339C95.7833 113.521 96.0003 112.868 96.4341 112.377C96.8679 111.884 97.4595 111.637 98.2089 111.637C98.8432 111.637 99.3592 111.824 99.7569 112.199C100.158 112.569 100.368 113.058 100.388 113.664H99.259C99.2458 113.356 99.1407 113.103 98.9435 112.904C98.7496 112.705 98.5014 112.606 98.199 112.606C97.8112 112.606 97.5121 112.748 97.3018 113.033C97.0914 113.315 96.9846 113.743 96.9813 114.32V114.513C96.9813 115.096 97.0849 115.531 97.2919 115.82C97.5023 116.104 97.8046 116.247 98.199 116.247Z" fill="white"/>
<path d="M105.338 117.111C105.285 117.008 105.239 116.841 105.2 116.609C104.819 117.01 104.352 117.21 103.8 117.21C103.264 117.21 102.827 117.056 102.489 116.748C102.15 116.44 101.981 116.06 101.981 115.606C101.981 115.033 102.191 114.594 102.612 114.29C103.036 113.982 103.641 113.828 104.426 113.828H105.161V113.475C105.161 113.197 105.083 112.975 104.929 112.81C104.774 112.641 104.539 112.556 104.224 112.556C103.951 112.556 103.728 112.626 103.553 112.765C103.379 112.901 103.292 113.074 103.292 113.286H102.094C102.094 112.992 102.191 112.717 102.385 112.462C102.579 112.204 102.842 112.002 103.174 111.856C103.509 111.71 103.882 111.637 104.293 111.637C104.917 111.637 105.415 111.796 105.787 112.114C106.158 112.429 106.349 112.872 106.359 113.445V115.869C106.359 116.353 106.426 116.738 106.561 117.027V117.111H105.338ZM104.022 116.242C104.258 116.242 104.48 116.184 104.687 116.068C104.898 115.952 105.055 115.796 105.161 115.601V114.588H104.515C104.071 114.588 103.737 114.666 103.514 114.821C103.29 114.977 103.179 115.197 103.179 115.482C103.179 115.714 103.254 115.899 103.406 116.038C103.56 116.174 103.765 116.242 104.022 116.242Z" fill="white"/>
<path d="M111.62 114.384C111.62 113.556 111.81 112.892 112.192 112.392C112.573 111.889 113.084 111.637 113.725 111.637C114.29 111.637 114.747 111.836 115.095 112.233V109.482H116.293V117.111H115.209L115.15 116.555C114.791 116.992 114.313 117.21 113.715 117.21C113.09 117.21 112.584 116.957 112.196 116.45C111.812 115.944 111.62 115.255 111.62 114.384ZM112.818 114.488C112.818 115.035 112.921 115.462 113.128 115.77C113.339 116.075 113.636 116.227 114.021 116.227C114.51 116.227 114.869 116.007 115.095 115.566V113.271C114.875 112.841 114.52 112.626 114.03 112.626C113.643 112.626 113.344 112.781 113.133 113.093C112.923 113.401 112.818 113.866 112.818 114.488Z" fill="white"/>
<path d="M120.75 117.21C119.991 117.21 119.375 116.97 118.902 116.49C118.432 116.007 118.197 115.364 118.197 114.563V114.414C118.197 113.877 118.299 113.399 118.502 112.978C118.709 112.555 118.999 112.225 119.37 111.99C119.741 111.755 120.156 111.637 120.612 111.637C121.339 111.637 121.899 111.871 122.293 112.338C122.691 112.805 122.89 113.465 122.89 114.32V114.806H119.405C119.441 115.25 119.587 115.601 119.843 115.859C120.103 116.118 120.428 116.247 120.819 116.247C121.368 116.247 121.815 116.023 122.16 115.576L122.806 116.197C122.593 116.518 122.307 116.768 121.948 116.947C121.593 117.123 121.194 117.21 120.75 117.21ZM120.607 112.606C120.279 112.606 120.013 112.722 119.809 112.954C119.608 113.185 119.48 113.508 119.424 113.922H121.707V113.833C121.681 113.429 121.574 113.124 121.386 112.919C121.199 112.71 120.939 112.606 120.607 112.606Z" fill="white"/>
<path d="M129.556 110.43V111.737H130.498V112.631H129.556V115.631C129.556 115.836 129.596 115.985 129.674 116.078C129.757 116.167 129.901 116.212 130.108 116.212C130.246 116.212 130.386 116.195 130.527 116.162V117.096C130.255 117.172 129.992 117.21 129.739 117.21C128.818 117.21 128.358 116.699 128.358 115.676V112.631H127.481V111.737H128.358V110.43H129.556Z" fill="white"/>
<path d="M133.55 117.111H132.352V111.737H133.55V117.111ZM132.278 110.341C132.278 110.156 132.335 110.002 132.45 109.879C132.569 109.757 132.736 109.695 132.953 109.695C133.17 109.695 133.338 109.757 133.456 109.879C133.575 110.002 133.634 110.156 133.634 110.341C133.634 110.523 133.575 110.675 133.456 110.798C133.338 110.917 133.17 110.977 132.953 110.977C132.736 110.977 132.569 110.917 132.45 110.798C132.335 110.675 132.278 110.523 132.278 110.341Z" fill="white"/>
<defs>
<clipPath id="clip0">
<rect width="38.3297" height="42.2985" fill="white" transform="translate(48.6064 16.2285)"/>
</clipPath>
<clipPath id="clip1">
<rect width="38.3297" height="42.2985" fill="white" transform="translate(48.6064 16.2285)"/>
</clipPath>
</defs>
</svg>
