<svg width="143" height="45" viewBox="0 0 143 45" fill="none" xmlns="http://www.w3.org/2000/svg">
<path d="M17.2363 10.6146C17.2643 10.647 17.2695 10.7176 17.2532 10.8259L16.5646 15.4717C16.5633 15.5086 16.5545 15.5449 16.5386 15.5783C16.5228 15.6116 16.5003 15.6414 16.4725 15.6657C16.4447 15.6901 16.4123 15.7084 16.3771 15.7197C16.3419 15.7311 16.3048 15.735 16.2681 15.7315H10.9321L8.37002 33.014C8.35745 33.085 8.31922 33.1489 8.2626 33.1935C8.21173 33.2429 8.14439 33.2718 8.07353 33.2745H3.19018C3.15536 33.278 3.12024 33.2723 3.08826 33.2581C3.05627 33.2439 3.02852 33.2217 3.0077 33.1935C2.97315 33.1405 2.9595 33.0765 2.96942 33.014L5.52629 15.7637H0.222542C0.190607 15.7636 0.1591 15.7563 0.130412 15.7423C0.101724 15.7283 0.0766075 15.7079 0.056969 15.6827C0.0350272 15.6588 0.0187444 15.6302 0.00932313 15.5991C-9.81263e-05 15.5681 -0.00241678 15.5353 0.00253887 15.5032L0.696357 10.8259C0.699891 10.7875 0.711507 10.7503 0.730443 10.7166C0.749379 10.683 0.775208 10.6538 0.806232 10.6309C0.859879 10.5897 0.92545 10.567 0.993104 10.5662H17.0344C17.1419 10.5662 17.2096 10.5823 17.2368 10.6148" fill="white"/>
<path d="M33.4003 33.242C33.3687 33.3068 33.2885 33.3392 33.159 33.3392H27.5322C27.488 33.3444 27.4434 33.3345 27.4057 33.3109C27.3679 33.2874 27.3394 33.2517 27.3247 33.2097L24.4511 24.8922L23.1296 24.8599L21.9303 32.9492C21.9232 33.0067 21.9041 33.0621 21.8743 33.1118C21.8523 33.1478 21.8256 33.1807 21.7949 33.2097C21.7206 33.2847 21.6219 33.3307 21.5167 33.3392H16.6661C16.634 33.3392 16.6024 33.3319 16.5736 33.3178C16.5448 33.3038 16.5195 33.2834 16.4997 33.2582C16.4781 33.2341 16.4621 33.2055 16.4528 33.1744C16.4435 33.1434 16.4412 33.1107 16.4461 33.0787L19.7439 10.8248C19.7479 10.7866 19.7597 10.7496 19.7786 10.7161C19.7975 10.6827 19.8231 10.6535 19.8538 10.6304C19.9078 10.5893 19.9736 10.5666 20.0414 10.5656H29.2577C30.385 10.5223 31.3862 10.7496 32.2613 11.2477C33.1342 11.7437 33.8498 12.4756 34.3259 13.3594C34.8263 14.2688 35.0779 15.2975 35.0809 16.4453C35.0595 16.8787 35.0328 17.2037 35.0007 17.4202C34.7887 18.8912 34.2041 20.2835 33.3024 21.4649C32.4225 22.6437 31.2096 23.532 29.8202 24.0152L33.4433 32.9488C33.4606 32.9705 33.4733 32.9955 33.4806 33.0223C33.4878 33.049 33.4895 33.077 33.4856 33.1044C33.4816 33.1319 33.4721 33.1582 33.4575 33.1818C33.443 33.2054 33.4238 33.2258 33.401 33.2417L33.4003 33.242ZM29.7736 17.7772L29.7831 17.7124C29.8572 17.4599 29.872 17.1936 29.8263 16.9344C29.7806 16.6752 29.6757 16.43 29.5197 16.218C29.3622 15.9995 29.1534 15.823 28.9117 15.7041C28.67 15.5852 28.4028 15.5274 28.1336 15.536H24.5111L23.8467 20.0192H27.4691C27.7664 20.0198 28.0607 19.9596 28.334 19.8423C28.6072 19.725 28.8536 19.5531 29.058 19.3371C29.4317 18.8904 29.6789 18.3518 29.774 17.7772" fill="white"/>
<path d="M58.2357 33.1443C58.193 33.2098 58.1614 33.2414 58.1408 33.2414C58.0789 33.2714 58.0097 33.2829 57.9414 33.2745H52.832C52.7966 33.2727 52.7621 33.2631 52.7309 33.2463C52.6997 33.2295 52.6726 33.206 52.6517 33.1774L52.6017 33.0795L51.395 29.4411H43.2129L40.9276 33.0795C40.9239 33.1016 40.8974 33.134 40.8481 33.1774C40.7924 33.2334 40.7186 33.2678 40.6398 33.2745H35.5298C35.4867 33.2789 35.4432 33.2722 35.4033 33.2553C35.3634 33.2383 35.3284 33.2115 35.3016 33.1774C35.2575 33.1119 35.2774 33.0148 35.3612 32.8846L49.8682 10.5002C49.8946 10.4487 49.9354 10.4061 49.9855 10.3774C50.0357 10.3486 50.0931 10.3351 50.1508 10.3383C50.1862 10.3397 50.2209 10.3492 50.2521 10.3661C50.2833 10.3829 50.3103 10.4066 50.3311 10.4354L50.3811 10.5325L58.2256 32.8846C58.2494 32.9234 58.2628 32.9676 58.2646 33.0131C58.2664 33.0585 58.2566 33.1037 58.2359 33.1443H58.2357ZM48.663 20.3767L46.4387 23.8202H49.8344L48.663 20.3767Z" fill="white"/>
<path d="M60.1182 33.3068C60.0762 33.251 60.0577 33.181 60.0667 33.1118L63.3424 10.7922C63.3525 10.7108 63.3923 10.6359 63.4541 10.582C63.505 10.5321 63.5727 10.503 63.644 10.5003H68.6246C68.6566 10.5005 68.6881 10.5079 68.7168 10.5221C68.7454 10.5362 68.7705 10.5567 68.7902 10.582C68.8133 10.6113 68.8297 10.6453 68.8384 10.6817C68.847 10.718 68.8476 10.7558 68.8402 10.7924L65.5646 33.1118C65.5495 33.1869 65.5108 33.2552 65.4542 33.3068C65.4304 33.3351 65.4012 33.3584 65.3682 33.3751C65.3351 33.3918 65.2991 33.4016 65.2622 33.4039H60.2815C60.2483 33.4029 60.2158 33.3935 60.1873 33.3765C60.1587 33.3595 60.1349 33.3355 60.1182 33.3068Z" fill="white"/>
<path d="M88.0174 0.260032L84.7743 22.1448L73.3526 10.8393C73.3232 10.7994 73.2819 10.77 73.2347 10.7553C73.1874 10.7406 73.1367 10.7414 73.0899 10.7577C72.9876 10.7908 72.9258 10.8827 72.903 11.0343L68.7009 40.0695C68.6947 40.1046 68.697 40.1407 68.7077 40.1748C68.7183 40.2089 68.7369 40.2399 68.762 40.2653L72.9759 44.4364C73.123 44.5822 73.4012 44.4607 73.4328 44.2385L76.5879 22.1779L88.042 33.4834C88.0607 33.5052 88.0842 33.5224 88.1105 33.5337C88.1369 33.5451 88.1655 33.5503 88.1941 33.5489C88.2309 33.5524 88.268 33.5484 88.3032 33.5371C88.3383 33.5257 88.3708 33.5074 88.3986 33.483C88.4265 33.4587 88.449 33.429 88.465 33.3957C88.4809 33.3624 88.4899 33.3261 88.4914 33.2892L92.7674 4.43714C92.7737 4.40178 92.7714 4.36543 92.7608 4.33112C92.7501 4.29681 92.7315 4.26555 92.7063 4.23996L88.4746 0.0628487C88.3275 -0.081341 88.0509 0.0385918 88.0177 0.260032" fill="#FDAD34"/>
<path d="M110.796 4.82059C110.815 4.84867 110.829 4.88058 110.835 4.9142C110.841 4.94782 110.84 4.98238 110.832 5.01558L110.129 9.75854C110.125 9.79681 110.114 9.83384 110.095 9.86737C110.076 9.9009 110.05 9.93022 110.02 9.95352C109.966 9.99496 109.9 10.0179 109.832 10.019H101.423L100.908 13.4949L107.511 13.4625C107.543 13.4626 107.574 13.47 107.603 13.484C107.631 13.498 107.657 13.5183 107.676 13.5435C107.698 13.5675 107.714 13.5961 107.724 13.6271C107.733 13.6582 107.735 13.6909 107.731 13.723L107.022 18.4976C107.009 18.5683 106.972 18.6321 106.915 18.6771C106.864 18.7264 106.797 18.7552 106.726 18.758L100.123 18.7904L98.8769 27.205C98.8728 27.2433 98.8609 27.2804 98.8419 27.3139C98.8229 27.3474 98.7973 27.3767 98.7665 27.4C98.7128 27.4412 98.6473 27.4641 98.5796 27.4655H93.5988C93.5363 27.4663 93.4759 27.4428 93.4304 27.4C93.4058 27.3746 93.388 27.3434 93.3789 27.3093C93.3697 27.2751 93.3695 27.2392 93.3782 27.205L96.6671 5.01575C96.671 4.97742 96.6828 4.94031 96.7017 4.90675C96.7206 4.87319 96.7462 4.84391 96.777 4.82076C96.831 4.77953 96.8968 4.75682 96.9647 4.75602H110.612C110.645 4.75267 110.679 4.75674 110.711 4.76793C110.743 4.77911 110.772 4.79715 110.796 4.82076" fill="white"/>
<path d="M118.275 13.4948L124.359 13.4625C124.396 13.4603 124.433 13.4664 124.468 13.4804C124.502 13.4944 124.533 13.516 124.557 13.5434C124.579 13.5673 124.595 13.5957 124.605 13.6267C124.614 13.6576 124.617 13.6902 124.612 13.7222L123.904 18.4982C123.886 18.5758 123.842 18.6448 123.779 18.6932C123.732 18.7355 123.67 18.7585 123.607 18.7579L117.49 18.7911L116.979 22.2345H124.257C124.45 22.2345 124.535 22.3213 124.509 22.4943L123.805 27.2372C123.78 27.4116 123.67 27.4977 123.476 27.4977H110.993C110.93 27.4989 110.87 27.4753 110.825 27.4322C110.8 27.4069 110.782 27.3757 110.773 27.3415C110.764 27.3073 110.764 27.2714 110.773 27.2372L114.066 5.01571C114.079 4.94513 114.117 4.88171 114.174 4.83763C114.225 4.78763 114.292 4.7585 114.364 4.75598H126.846C126.884 4.75379 126.921 4.75999 126.955 4.77413C126.989 4.78826 127.02 4.80997 127.045 4.83763C127.067 4.86152 127.083 4.88985 127.092 4.92062C127.102 4.95139 127.104 4.98385 127.1 5.01571L126.391 9.79172C126.378 9.86212 126.34 9.92552 126.284 9.97048C126.223 10.0242 126.144 10.0531 126.062 10.0514H118.785L118.275 13.4948Z" fill="white"/>
<path d="M140.604 24.2971C139.842 25.3699 138.806 26.2526 137.496 26.9453C136.186 27.6379 134.657 27.9844 132.911 27.9848C130.733 27.9848 128.777 27.5083 127.043 26.5552C126.991 26.5318 126.944 26.4959 126.909 26.4506C126.873 26.4054 126.849 26.3521 126.839 26.2955C126.819 26.2199 126.825 26.1396 126.857 26.0681L129.051 22.3965C129.101 22.3373 129.143 22.272 129.177 22.2021C129.252 22.0796 129.369 21.9874 129.505 21.9416C129.614 21.9416 129.86 22.0181 130.249 22.169C130.906 22.386 131.495 22.5594 132.015 22.6892C132.588 22.8255 133.175 22.891 133.764 22.8842C134.446 22.8892 135.124 22.7792 135.769 22.559C136.394 22.3426 136.75 21.9421 136.837 21.3574C136.855 21.2609 136.858 21.1622 136.848 21.0646C136.844 20.654 136.616 20.2643 136.164 19.8954C135.712 19.5266 134.981 19.039 133.972 18.4326C132.994 17.8774 132.054 17.2591 131.157 16.5817C130.426 16.012 129.806 15.3126 129.329 14.5185C128.835 13.7061 128.645 12.7695 128.758 11.7085C129.028 9.30389 130.002 7.50081 131.679 6.29923C133.356 5.09765 135.358 4.49675 137.686 4.49652C139.42 4.49799 141.138 4.82883 142.748 5.47145C142.795 5.47873 142.839 5.49725 142.878 5.52544C142.916 5.55362 142.947 5.59063 142.967 5.63331C142.987 5.6736 142.998 5.71764 143 5.76253C143.002 5.80742 142.994 5.85215 142.977 5.89379L141.091 9.88986C140.97 10.1275 140.884 10.2688 140.834 10.3114C140.785 10.3541 140.686 10.3659 140.538 10.3438C139.903 10.0446 139.239 9.81061 138.556 9.64552C137.867 9.46785 137.158 9.37518 136.447 9.36956C135.777 9.36956 135.22 9.48851 134.776 9.7264C134.562 9.83669 134.379 9.99819 134.242 10.1965C134.106 10.3948 134.02 10.6239 133.994 10.8632C133.968 11.0136 133.956 11.1661 133.958 11.3187C133.98 11.752 134.214 12.1417 134.659 12.4878C135.102 12.8351 135.829 13.3117 136.839 13.9175C137.841 14.4573 138.804 15.0652 139.723 15.7371C140.48 16.3129 141.105 17.0439 141.556 17.8812C142.03 18.7479 142.181 19.766 142.008 20.9354C141.835 22.1048 141.367 23.2254 140.604 24.2971Z" fill="white"/>
</svg>
