<svg width="253" height="65" viewBox="0 0 253 65" fill="none" xmlns="http://www.w3.org/2000/svg">
<path d="M17.2363 30.6146C17.2643 30.647 17.2695 30.7176 17.2532 30.8259L16.5646 35.4717C16.5633 35.5086 16.5545 35.5449 16.5386 35.5783C16.5228 35.6116 16.5003 35.6414 16.4725 35.6657C16.4447 35.6901 16.4123 35.7084 16.3771 35.7197C16.3419 35.7311 16.3048 35.735 16.2681 35.7315H10.9321L8.37002 53.014C8.35745 53.085 8.31922 53.1489 8.2626 53.1935C8.21173 53.2429 8.14439 53.2718 8.07353 53.2745H3.19018C3.15536 53.278 3.12024 53.2723 3.08826 53.2581C3.05627 53.2439 3.02852 53.2217 3.0077 53.1935C2.97315 53.1405 2.9595 53.0765 2.96942 53.014L5.52629 35.7637H0.222542C0.190607 35.7636 0.1591 35.7563 0.130412 35.7423C0.101724 35.7283 0.0766075 35.7079 0.056969 35.6827C0.0350272 35.6588 0.0187444 35.6302 0.00932313 35.5991C-9.81263e-05 35.5681 -0.00241678 35.5353 0.00253887 35.5032L0.696357 30.8259C0.699891 30.7875 0.711507 30.7503 0.730443 30.7166C0.749379 30.683 0.775208 30.6538 0.806232 30.6309C0.859879 30.5897 0.92545 30.567 0.993104 30.5662H17.0344C17.1419 30.5662 17.2096 30.5823 17.2368 30.6148" fill="#172269"/>
<path d="M33.4003 53.242C33.3687 53.3068 33.2885 53.3392 33.159 53.3392H27.5322C27.488 53.3444 27.4434 53.3345 27.4057 53.3109C27.3679 53.2874 27.3394 53.2517 27.3247 53.2097L24.4511 44.8922L23.1296 44.8599L21.9303 52.9492C21.9232 53.0067 21.9041 53.0621 21.8743 53.1118C21.8523 53.1478 21.8256 53.1807 21.7949 53.2097C21.7206 53.2847 21.6219 53.3307 21.5167 53.3392H16.6661C16.634 53.3392 16.6024 53.3319 16.5736 53.3178C16.5448 53.3038 16.5195 53.2834 16.4997 53.2582C16.4781 53.2341 16.4621 53.2055 16.4528 53.1744C16.4435 53.1434 16.4412 53.1107 16.4461 53.0787L19.7439 30.8248C19.7479 30.7866 19.7597 30.7496 19.7786 30.7161C19.7975 30.6827 19.8231 30.6535 19.8538 30.6304C19.9078 30.5893 19.9736 30.5666 20.0414 30.5656H29.2577C30.385 30.5223 31.3862 30.7496 32.2613 31.2477C33.1342 31.7437 33.8498 32.4756 34.3259 33.3594C34.8263 34.2688 35.0779 35.2975 35.0809 36.4453C35.0595 36.8787 35.0328 37.2037 35.0007 37.4202C34.7887 38.8912 34.2041 40.2835 33.3024 41.4649C32.4225 42.6437 31.2096 43.532 29.8202 44.0152L33.4433 52.9488C33.4606 52.9705 33.4733 52.9955 33.4806 53.0223C33.4878 53.049 33.4895 53.077 33.4856 53.1044C33.4816 53.1319 33.4721 53.1582 33.4575 53.1818C33.443 53.2054 33.4238 53.2258 33.401 53.2417L33.4003 53.242ZM29.7736 37.7772L29.7831 37.7124C29.8572 37.4599 29.872 37.1936 29.8263 36.9344C29.7806 36.6752 29.6757 36.43 29.5197 36.218C29.3622 35.9995 29.1534 35.823 28.9117 35.7041C28.67 35.5852 28.4028 35.5274 28.1336 35.536H24.5111L23.8467 40.0192H27.4691C27.7664 40.0198 28.0607 39.9596 28.334 39.8423C28.6072 39.725 28.8536 39.5531 29.058 39.3371C29.4317 38.8904 29.6789 38.3518 29.774 37.7772" fill="#172269"/>
<path d="M58.2357 53.1442C58.193 53.2097 58.1614 53.2413 58.1408 53.2413C58.0789 53.2714 58.0097 53.2829 57.9414 53.2745H52.832C52.7966 53.2727 52.7621 53.263 52.7309 53.2462C52.6997 53.2294 52.6726 53.2059 52.6517 53.1773L52.6017 53.0795L51.395 49.441H43.2129L40.9276 53.0795C40.9239 53.1015 40.8974 53.1339 40.8481 53.1773C40.7924 53.2334 40.7186 53.2678 40.6398 53.2745H35.5298C35.4867 53.2788 35.4432 53.2722 35.4033 53.2552C35.3634 53.2382 35.3284 53.2114 35.3016 53.1773C35.2575 53.1118 35.2774 53.0147 35.3612 52.8845L49.8682 30.5001C49.8946 30.4487 49.9354 30.406 49.9855 30.3773C50.0357 30.3486 50.0931 30.335 50.1508 30.3382C50.1862 30.3397 50.2209 30.3492 50.2521 30.366C50.2833 30.3828 50.3103 30.4065 50.3311 30.4353L50.3811 30.5325L58.2256 52.8845C58.2494 52.9233 58.2628 52.9675 58.2646 53.013C58.2664 53.0585 58.2566 53.1036 58.2359 53.1442H58.2357ZM48.663 40.3767L46.4387 43.8201H49.8344L48.663 40.3767Z" fill="#172269"/>
<path d="M60.1182 53.3067C60.0762 53.251 60.0577 53.181 60.0667 53.1117L63.3424 30.7922C63.3525 30.7107 63.3923 30.6358 63.4541 30.5819C63.505 30.532 63.5727 30.5029 63.644 30.5002H68.6246C68.6566 30.5004 68.6881 30.5079 68.7168 30.522C68.7454 30.5362 68.7705 30.5566 68.7902 30.5819C68.8133 30.6112 68.8297 30.6453 68.8384 30.6816C68.847 30.7179 68.8476 30.7557 68.8402 30.7923L65.5646 53.1117C65.5495 53.1868 65.5108 53.2552 65.4542 53.3067C65.4304 53.3351 65.4012 53.3583 65.3682 53.375C65.3351 53.3917 65.2991 53.4015 65.2622 53.4038H60.2815C60.2483 53.4029 60.2158 53.3935 60.1873 53.3765C60.1587 53.3595 60.1349 53.3355 60.1182 53.3067Z" fill="#172269"/>
<path d="M88.0174 20.26L84.7743 42.1448L73.3526 30.8393C73.3232 30.7994 73.2819 30.77 73.2347 30.7553C73.1874 30.7406 73.1367 30.7414 73.0899 30.7577C72.9876 30.7908 72.9258 30.8827 72.903 31.0343L68.7009 60.0695C68.6947 60.1046 68.697 60.1407 68.7077 60.1748C68.7183 60.2089 68.7369 60.2399 68.762 60.2653L72.9759 64.4364C73.123 64.5822 73.4012 64.4607 73.4328 64.2385L76.5879 42.1779L88.042 53.4834C88.0607 53.5052 88.0842 53.5224 88.1105 53.5337C88.1369 53.5451 88.1655 53.5503 88.1941 53.5489C88.2309 53.5524 88.268 53.5484 88.3032 53.5371C88.3383 53.5257 88.3708 53.5074 88.3986 53.483C88.4265 53.4587 88.449 53.429 88.465 53.3957C88.4809 53.3624 88.4899 53.3261 88.4914 53.2892L92.7674 24.4371C92.7737 24.4018 92.7714 24.3654 92.7608 24.3311C92.7501 24.2968 92.7315 24.2656 92.7063 24.24L88.4746 20.0628C88.3275 19.9187 88.0509 20.0386 88.0177 20.26" fill="#FDAD34"/>
<path d="M110.796 24.8206C110.815 24.8487 110.829 24.8806 110.835 24.9142C110.841 24.9478 110.84 24.9824 110.832 25.0156L110.129 29.7585C110.125 29.7968 110.114 29.8338 110.095 29.8674C110.076 29.9009 110.05 29.9302 110.02 29.9535C109.966 29.995 109.9 30.0179 109.832 30.019H101.423L100.908 33.4949L107.511 33.4625C107.543 33.4626 107.574 33.47 107.603 33.484C107.631 33.498 107.657 33.5183 107.676 33.5435C107.698 33.5675 107.714 33.5961 107.724 33.6271C107.733 33.6582 107.735 33.6909 107.731 33.723L107.022 38.4976C107.009 38.5683 106.972 38.6321 106.915 38.6771C106.864 38.7264 106.797 38.7552 106.726 38.758L100.123 38.7904L98.8769 47.205C98.8728 47.2433 98.8609 47.2804 98.8419 47.3139C98.8229 47.3474 98.7973 47.3767 98.7665 47.4C98.7128 47.4412 98.6473 47.4641 98.5796 47.4655H93.5988C93.5363 47.4663 93.4759 47.4428 93.4304 47.4C93.4058 47.3746 93.388 47.3434 93.3789 47.3093C93.3697 47.2751 93.3695 47.2392 93.3782 47.205L96.6671 25.0157C96.671 24.9774 96.6828 24.9403 96.7017 24.9067C96.7206 24.8732 96.7462 24.8439 96.777 24.8208C96.831 24.7795 96.8968 24.7568 96.9647 24.756H110.612C110.645 24.7527 110.679 24.7567 110.711 24.7679C110.743 24.7791 110.772 24.7972 110.796 24.8208" fill="#172269"/>
<path d="M118.275 33.4949L124.359 33.4625C124.396 33.4603 124.433 33.4665 124.468 33.4805C124.502 33.4945 124.533 33.516 124.557 33.5435C124.579 33.5674 124.595 33.5958 124.605 33.6267C124.614 33.6577 124.617 33.6903 124.612 33.7223L123.904 38.4983C123.886 38.5759 123.842 38.6449 123.779 38.6933C123.732 38.7355 123.67 38.7586 123.607 38.758L117.49 38.7911L116.979 42.2346H124.257C124.45 42.2346 124.535 42.3214 124.509 42.4943L123.805 47.2373C123.78 47.4117 123.67 47.4978 123.476 47.4978H110.993C110.93 47.4989 110.87 47.4754 110.825 47.4323C110.8 47.407 110.782 47.3757 110.773 47.3416C110.764 47.3074 110.764 47.2715 110.773 47.2373L114.066 25.0158C114.079 24.9452 114.117 24.8818 114.174 24.8377C114.225 24.7877 114.292 24.7586 114.364 24.756H126.846C126.884 24.7539 126.921 24.7601 126.955 24.7742C126.989 24.7883 127.02 24.81 127.045 24.8377C127.067 24.8616 127.083 24.8899 127.092 24.9207C127.102 24.9515 127.104 24.9839 127.1 25.0158L126.391 29.7918C126.378 29.8622 126.34 29.9256 126.284 29.9705C126.223 30.0243 126.144 30.0532 126.062 30.0515H118.785L118.275 33.4949Z" fill="#172269"/>
<path d="M140.604 44.297C139.842 45.3698 138.806 46.2525 137.496 46.9452C136.186 47.6379 134.657 47.9844 132.911 47.9848C130.733 47.9848 128.777 47.5082 127.043 46.5551C126.991 46.5317 126.944 46.4959 126.909 46.4506C126.873 46.4053 126.849 46.352 126.839 46.2954C126.819 46.2199 126.825 46.1395 126.857 46.0681L129.051 42.3965C129.101 42.3373 129.143 42.272 129.177 42.2021C129.252 42.0795 129.369 41.9874 129.505 41.9416C129.614 41.9416 129.86 42.0181 130.249 42.1689C130.906 42.386 131.495 42.5594 132.015 42.6891C132.588 42.8254 133.175 42.8909 133.764 42.8841C134.446 42.8891 135.124 42.7792 135.769 42.5589C136.394 42.3426 136.75 41.9421 136.837 41.3574C136.855 41.2608 136.858 41.1621 136.848 41.0645C136.844 40.6539 136.616 40.2642 136.164 39.8954C135.712 39.5265 134.981 39.0389 133.972 38.4326C132.994 37.8773 132.054 37.259 131.157 36.5816C130.426 36.0119 129.806 35.3125 129.329 34.5184C128.835 33.7061 128.645 32.7694 128.758 31.7084C129.028 29.3038 130.002 27.5008 131.679 26.2992C133.356 25.0976 135.358 24.4967 137.686 24.4965C139.42 24.4979 141.138 24.8288 142.748 25.4714C142.795 25.4787 142.839 25.4972 142.878 25.5254C142.916 25.5536 142.947 25.5906 142.967 25.6332C142.987 25.6735 142.998 25.7176 143 25.7625C143.002 25.8074 142.994 25.8521 142.977 25.8937L141.091 29.8898C140.97 30.1275 140.884 30.2687 140.834 30.3114C140.785 30.3541 140.686 30.3658 140.538 30.3438C139.903 30.0445 139.239 29.8105 138.556 29.6455C137.867 29.4678 137.158 29.3751 136.447 29.3695C135.777 29.3695 135.22 29.4884 134.776 29.7263C134.562 29.8366 134.379 29.9981 134.242 30.1965C134.106 30.3948 134.02 30.6238 133.994 30.8631C133.968 31.0136 133.956 31.166 133.958 31.3186C133.98 31.752 134.214 32.1417 134.659 32.4878C135.102 32.8351 135.829 33.3116 136.839 33.9174C137.841 34.4572 138.804 35.0652 139.723 35.737C140.48 36.3128 141.105 37.0439 141.556 37.8811C142.03 38.7479 142.181 39.766 142.008 40.9354C141.835 42.1048 141.367 43.2253 140.604 44.297Z" fill="#172269"/>
<g clip-path="url(#clip0_170:1173)">
<path d="M225.74 2.09808e-05C227.74 0.660021 229.62 1.51002 231.39 2.65002L233.4 0.35002L234.91 4.91002C236.67 6.11002 238.4 7.57002 240.08 9.25002L235.59 8.94002L236 16.27L232.32 9.09002L226.35 9.68002L229.87 5.23002C228.75 3.25002 227.37 1.50002 225.74 2.09808e-05Z" fill="#F6A016"/>
<path d="M244.27 22.54L241.47 23.22L239.21 19.33C239.42 20.86 239.45 22.36 239.4 23.78L236.21 24.94L239.33 26.76L238.9 31.23L241.24 27.97L243.82 30.2L242.41 25.84L244.27 22.54Z" fill="#F6A016"/>
<path d="M243.99 14.64L242.09 15.21L244.48 16.25L245.35 19.12L245.72 17.43L247.28 18.78L246 15.88L246.49 13.94L244.84 14.38L242.87 12.25L243.99 14.64Z" fill="#F6A016"/>
<path d="M250.56 32.38L252.48 29.64L250.47 28.43C250.34 25.83 249.95 23.61 249.3 21.84C249.4 23.81 248.77 27.7 248.77 27.7C247.78 27.16 246.63 26.84 245.34 26.69C246.43 27.83 247.3 29.35 247.92 31.23C247.35 33.45 246.62 35.24 245.71 36.55L248.97 34.15C248.97 34.15 249.79 36.96 249.82 38.52C250.31 36.82 250.56 34.77 250.56 32.38Z" fill="#F6A016"/>
<path d="M246.52 42.63C246.16 43.22 245.47 43.8 244.52 44.41C245.28 44.26 245.8 44.25 246.14 44.32C245.99 45.28 245.76 46.16 245.47 46.97L247.01 44.25L248.32 44.02L247.86 42.26L249.09 39.42C248.63 40.16 248.15 40.81 247.54 41.43L246.73 39.97L246.52 42.63Z" fill="#F6A016"/>
<path d="M231.73 18.6901L232.8 21.5601L233.36 19.7801C234.31 20.3301 235.15 20.9301 235.89 21.5701L233.64 18.8201L233.92 17.3201L232.3 17.3201L229.72 15.0001L231.13 17.3101L229 17.3901L231.73 18.6901Z" fill="#F6A016"/>
<path d="M193.39 47.03C188.26 47.03 185 43.33 185 38.07C185 32.81 188.26 29.12 193.39 29.12C196.62 29.12 198.78 30.27 200.14 32.37L197.5 33.81C196.48 32.4 195.43 31.72 193.39 31.72C189.93 31.72 188.06 34.18 188.06 38.07C188.06 41.96 189.93 44.42 193.39 44.42C195.46 44.42 196.74 43.67 197.76 42.26L200.23 43.7C198.8 45.84 196.4 47.03 193.39 47.03Z" fill="#F6A016"/>
<path d="M211.18 46.76L211.18 39.4C211.18 36.77 210.05 35.83 208.12 35.83C206.16 35.83 205.06 37.05 205.06 39.15L205.06 46.76L202.14 46.76L202.14 30.02L205.06 28.68L205.06 34.98C205.79 34.04 207.27 33.47 208.8 33.47C212.26 33.47 214.1 35.45 214.1 39.29L214.1 46.76L211.18 46.76Z" fill="#F6A016"/>
<path d="M221.75 46.76L221.75 30.02L224.67 28.68L224.67 46.76L221.75 46.76Z" fill="#F6A016"/>
<path d="M216.5 33.8L216.5 32.53L219.42 31.19L219.42 33.8L216.5 33.8Z" fill="#F6A016"/>
<path d="M232.79 35.77C230.83 35.77 229.64 36.96 229.39 39.04L236.31 39.04C236.16 37.25 235.2 35.77 232.79 35.77ZM239.17 41.15L229.33 41.15C229.64 43.66 231.26 44.72 233.07 44.72C234.32 44.72 235.31 44.32 236.3 43.68L238.03 45.31C236.73 46.41 235.17 47.03 232.9 47.03C229.41 47.03 226.46 44.57 226.46 40.26C226.46 35.85 229.13 33.47 232.98 33.47C237.2 33.47 239.24 36.47 239.24 39.99C239.25 40.45 239.2 40.88 239.17 41.15Z" fill="#F6A016"/>
<path d="M216.5 34.74L216.5 46.76L219.42 46.76L219.42 34.74L216.5 34.74Z" fill="#F6A016"/>
</g>
<defs>
<clipPath id="clip0_170:1173">
<rect width="47.03" height="67.48" fill="white" transform="translate(185 47.03) rotate(-90)"/>
</clipPath>
</defs>
</svg>
