<svg width="141" height="30" viewBox="0 0 141 30" fill="none" xmlns="http://www.w3.org/2000/svg">
<path d="M94.4795 7.92178V11.0535H96.6576V13.5495H94.4795V19.9071C94.4795 20.378 94.5698 20.7156 94.7503 20.9196C94.9308 21.1237 95.2762 21.2257 95.7864 21.2257C96.1631 21.2257 96.4967 21.1983 96.7871 21.1433V23.7217C96.1199 23.9258 95.4332 24.0278 94.7268 24.0278C92.3407 24.0278 91.1241 22.823 91.077 20.4134V13.5495H89.2168V11.0535H91.077V7.92178H94.4795Z" fill="black"/>
<path d="M107.81 23.7923C107.653 23.4862 107.54 23.1056 107.469 22.6503C106.645 23.5686 105.573 24.0278 104.255 24.0278C103.007 24.0278 101.971 23.6668 101.147 22.9447C100.33 22.2225 99.9222 21.3121 99.9222 20.2132C99.9222 18.8632 100.421 17.8271 101.417 17.105C102.422 16.3829 103.87 16.018 105.762 16.0101H107.328V15.2802C107.328 14.6915 107.175 14.2206 106.869 13.8673C106.57 13.5141 106.095 13.3375 105.444 13.3375C104.871 13.3375 104.42 13.4749 104.09 13.7496C103.768 14.0243 103.607 14.4011 103.607 14.8799H100.205C100.205 14.1421 100.432 13.4592 100.888 12.8313C101.343 12.2034 101.987 11.7128 102.818 11.3596C103.65 10.9986 104.585 10.818 105.621 10.818C107.19 10.818 108.434 11.2144 109.353 12.0072C110.279 12.792 110.742 13.8987 110.742 15.3273V20.849C110.75 22.0577 110.919 22.9721 111.248 23.5922V23.7923H107.81ZM104.997 21.4259C105.499 21.4259 105.962 21.316 106.386 21.0962C106.81 20.8686 107.124 20.5664 107.328 20.1897V17.9998H106.056C104.353 17.9998 103.446 18.5885 103.337 19.7658L103.325 19.966C103.325 20.3898 103.474 20.7391 103.772 21.0138C104.07 21.2885 104.479 21.4259 104.997 21.4259Z" fill="black"/>
<path d="M119.858 18.6827L118.634 19.9071V23.7923H115.231V5.70837H118.634V15.7275L119.293 14.8799L122.554 11.0535H126.639L122.036 16.3633L127.04 23.7923H123.131L119.858 18.6827Z" fill="black"/>
<path d="M137.368 23.7923C137.212 23.4862 137.098 23.1056 137.027 22.6503C136.203 23.5686 135.132 24.0278 133.813 24.0278C132.565 24.0278 131.529 23.6668 130.705 22.9447C129.888 22.2225 129.48 21.3121 129.48 20.2132C129.48 18.8632 129.979 17.8271 130.976 17.105C131.98 16.3829 133.428 16.018 135.32 16.0101H136.886V15.2802C136.886 14.6915 136.733 14.2206 136.427 13.8673C136.128 13.5141 135.653 13.3375 135.002 13.3375C134.429 13.3375 133.978 13.4749 133.648 13.7496C133.326 14.0243 133.165 14.4011 133.165 14.8799H129.763C129.763 14.1421 129.99 13.4592 130.446 12.8313C130.901 12.2034 131.545 11.7128 132.377 11.3596C133.209 10.9986 134.143 10.818 135.179 10.818C136.748 10.818 137.992 11.2144 138.911 12.0072C139.837 12.792 140.3 13.8987 140.3 15.3273V20.849C140.308 22.0577 140.477 22.9721 140.806 23.5922V23.7923H137.368ZM134.555 21.4259C135.057 21.4259 135.52 21.316 135.944 21.0962C136.368 20.8686 136.682 20.5664 136.886 20.1897V17.9998H135.614C133.911 17.9998 133.004 18.5885 132.895 19.7658L132.883 19.966C132.883 20.3898 133.032 20.7391 133.33 21.0138C133.628 21.2885 134.037 21.4259 134.555 21.4259Z" fill="black"/>
<path d="M40.8975 7.92178V11.0535H43.0756V13.5495H40.8975V19.9071C40.8975 20.378 40.9877 20.7156 41.1683 20.9196C41.3488 21.1237 41.6941 21.2257 42.2043 21.2257C42.5811 21.2257 42.9147 21.1983 43.2051 21.1433V23.7217C42.5379 23.9258 41.8511 24.0278 41.1447 24.0278C38.7586 24.0278 37.5421 22.823 37.495 20.4134V13.5495H35.6348V11.0535H37.495V7.92178H40.8975Z" fill="#FA5805"/>
<path d="M52.3797 23.7923H48.9654V11.0535H52.3797V23.7923ZM48.7653 7.75695C48.7653 7.24677 48.934 6.82685 49.2715 6.49719C49.6169 6.16754 50.0839 6.00271 50.6726 6.00271C51.2534 6.00271 51.7165 6.16754 52.0618 6.49719C52.4072 6.82685 52.5798 7.24677 52.5798 7.75695C52.5798 8.27498 52.4032 8.69882 52.05 9.02848C51.7047 9.35813 51.2455 9.52296 50.6726 9.52296C50.0996 9.52296 49.6365 9.35813 49.2833 9.02848C48.9379 8.69882 48.7653 8.27498 48.7653 7.75695Z" fill="#FA5805"/>
<path d="M63.6382 18.6827L62.4138 19.9071V23.7923H59.0113V5.70837H62.4138V15.7275L63.0731 14.8799L66.3343 11.0535H70.4197L65.8163 16.3633L70.82 23.7923H66.9112L63.6382 18.6827Z" fill="#FA5805"/>
<path d="M79.3 23.7923H75.8857V11.0535H79.3V23.7923ZM75.6856 7.75695C75.6856 7.24677 75.8543 6.82685 76.1918 6.49719C76.5372 6.16754 77.0042 6.00271 77.5929 6.00271C78.1737 6.00271 78.6368 6.16754 78.9821 6.49719C79.3275 6.82685 79.5001 7.24677 79.5001 7.75695C79.5001 8.27498 79.3235 8.69882 78.9703 9.02848C78.625 9.35813 78.1658 9.52296 77.5929 9.52296C77.0199 9.52296 76.5568 9.35813 76.2036 9.02848C75.8582 8.69882 75.6856 8.27498 75.6856 7.75695Z" fill="#FA5805"/>
<rect x="87.877" y="17.7646" width="5.74089" height="3.34887" rx="1.67443" transform="rotate(-180 87.877 17.7646)" fill="#FA5805"/>
<circle cx="15.5417" cy="15.0853" r="14.7351" fill="#FA5805"/>
<g clip-path="url(#clip0)">
<path d="M22.1526 11.963L21.1665 10.9868V7.99086C21.1665 7.63775 20.8746 7.34874 20.5177 7.34874H19.5237C19.1668 7.34874 18.875 7.63775 18.875 7.99086V8.71835L16.0893 5.96072C15.7496 5.62438 15.1945 5.62438 14.8548 5.96072L8.79165 11.963C8.45114 12.2993 8.17383 12.9625 8.17383 13.4376V15.467V21.1784C8.17383 21.6533 8.56681 22.0424 9.04675 22.0424H21.8975C22.3772 22.0424 22.7701 21.6533 22.7701 21.1784V18.9619V17.9898V13.4376C22.7701 12.9625 22.4922 12.2993 22.1526 11.963Z" fill="white"/>
</g>
<g clip-path="url(#clip1)">
<path d="M15.564 11.7384C13.2052 11.7384 11.2861 13.6575 11.2861 16.0163C11.2861 18.9811 15.5682 24.0455 15.5682 24.0455C15.5682 24.0455 19.8419 18.8353 19.8419 16.0163C19.8419 13.6575 17.9229 11.7384 15.564 11.7384ZM16.8548 17.2689C16.4989 17.6247 16.0315 17.8027 15.564 17.8027C15.0967 17.8027 14.6291 17.6247 14.2734 17.2689C13.5616 16.5572 13.5616 15.3992 14.2734 14.6875C14.618 14.3427 15.0765 14.1528 15.564 14.1528C16.0516 14.1528 16.51 14.3428 16.8548 14.6875C17.5665 15.3992 17.5665 16.5572 16.8548 17.2689Z" fill="#FA5805"/>
</g>
<defs>
<clipPath id="clip0">
<rect width="14.5963" height="16.3339" fill="white" transform="translate(8.17383 5.70837)"/>
</clipPath>
<clipPath id="clip1">
<rect width="13.1276" height="13.1276" fill="white" transform="translate(9.11133 11.3346)"/>
</clipPath>
</defs>
</svg>
