<svg width="1280" height="689" viewBox="0 0 1280 689" fill="none" xmlns="http://www.w3.org/2000/svg">
<path d="M854.36 507.75C872.716 513.724 893.128 515.098 911.149 508.181C942.106 496.297 959.955 461.74 960.73 428.591C961.143 410.983 957.614 393.061 961.671 375.923C968.542 346.889 995.405 326.637 1005.97 298.735C1015.53 273.481 1010.07 243.615 993.756 222.095C977.441 200.575 951.211 187.441 924.303 185.154C897.396 182.867 870.081 190.953 847.479 205.733L825.07 227.537C803.502 248.524 786.361 273.717 775.395 301.741C764.545 329.471 759.623 359.253 762.99 388.781C768.975 441.275 804.12 491.399 854.36 507.75Z" fill="#F0EDFF"/>
</svg>
