<svg width="1280" height="690" viewBox="0 0 1280 690" fill="none" xmlns="http://www.w3.org/2000/svg">
<path d="M839.096 103.288C810.233 117.42 784.242 139.433 770.719 168.585C747.489 218.666 766.203 280.655 803.692 321.177C823.605 342.701 848.592 360.033 863.605 385.219C889.039 427.885 880.4 483.223 900.106 528.819C917.943 570.088 959.085 599.454 1003.52 606.269C1047.96 613.084 1094.54 598.384 1129.35 569.935C1164.16 541.486 1187.44 500.164 1197.33 456.307L1198.84 404.274C1200.3 354.195 1191.59 304.218 1172.22 258.013C1153.06 212.294 1124.42 170.992 1086.18 139.599C1018.19 83.791 918.096 64.6091 839.096 103.288Z" fill="#F0EDFF"/>
</svg>
