<svg width="1281" height="690" viewBox="0 0 1281 690" fill="none" xmlns="http://www.w3.org/2000/svg">
<g clip-path="url(#clip0_400_447)">
<rect width="1280" height="689" transform="translate(0.307861 0.286621)" fill="white"/>
<path d="M975.999 -104.415L903.702 383.549L649.081 131.47C648.428 130.581 647.506 129.925 646.453 129.597C645.399 129.27 644.268 129.288 643.226 129.65C640.946 130.388 639.568 132.439 639.06 135.818L545.383 783.215C545.245 783.998 545.297 784.803 545.534 785.563C545.771 786.322 546.186 787.014 546.746 787.579L640.684 880.584C643.964 883.833 650.165 881.125 650.87 876.171L721.205 384.286L976.547 636.365C976.965 636.85 977.487 637.233 978.075 637.486C978.662 637.739 979.299 637.855 979.939 637.826C980.758 637.904 981.586 637.814 982.37 637.561C983.154 637.309 983.878 636.899 984.498 636.357C985.118 635.815 985.621 635.152 985.977 634.409C986.332 633.666 986.532 632.858 986.565 632.035L1081.89 -11.2787C1082.03 -12.067 1081.98 -12.8776 1081.74 -13.6426C1081.5 -14.4075 1081.09 -15.1045 1080.53 -15.6752L986.192 -108.812C982.912 -112.027 976.745 -109.353 976.006 -104.415" fill="#F6A016"/>
</g>
<defs>
<clipPath id="clip0_400_447">
<rect width="1280" height="689" fill="white" transform="translate(0.307861 0.286621)"/>
</clipPath>
</defs>
</svg>
