<svg width="1280" height="689" viewBox="0 0 1280 689" fill="none" xmlns="http://www.w3.org/2000/svg">
<g clip-path="url(#clip0_334_3)">
<rect width="1280" height="689" fill="white"/>
<path d="M828.181 -223.78L744.388 341.783L449.276 49.6171C448.518 48.5868 447.451 47.8261 446.229 47.4465C445.008 47.0668 443.697 47.0881 442.489 47.5071C439.847 48.3634 438.25 50.7397 437.661 54.656L329.088 805.005C328.928 805.913 328.987 806.846 329.262 807.727C329.537 808.607 330.018 809.408 330.666 810.064L439.543 917.859C443.345 921.625 450.532 918.486 451.349 912.744L532.869 342.637L828.817 634.803C829.301 635.365 829.906 635.809 830.587 636.103C831.268 636.396 832.007 636.53 832.748 636.496C833.698 636.586 834.657 636.482 835.565 636.189C836.474 635.897 837.313 635.422 838.032 634.793C838.751 634.165 839.334 633.397 839.746 632.536C840.158 631.674 840.39 630.738 840.428 629.784L950.91 -115.832C951.073 -116.746 951.014 -117.685 950.74 -118.572C950.465 -119.459 949.982 -120.266 949.331 -120.928L839.996 -228.876C836.194 -232.602 829.046 -229.503 828.19 -223.78" fill="#1C2878"/>
</g>
<defs>
<clipPath id="clip0_334_3">
<rect width="1280" height="689" fill="white"/>
</clipPath>
</defs>
</svg>
