<svg width="1118" height="421" viewBox="0 0 1118 421" fill="none" xmlns="http://www.w3.org/2000/svg">
<g clip-path="url(#clip0)">
<path d="M292.158 131.984C302.001 79.4787 267.262 29.8092 214.567 21.0438C161.872 12.2785 111.175 47.7365 101.333 100.242C91.49 152.747 126.229 202.416 178.924 211.182C231.619 219.947 282.316 184.489 292.158 131.984Z" fill="#98C1FF" fill-opacity="0.31"/>
<path d="M1189.21 295.617C1199.38 255.043 1174.52 214.789 1133.69 205.707C1092.86 196.625 1051.52 222.154 1041.35 262.727C1031.18 303.301 1056.03 343.554 1096.86 352.637C1137.69 361.719 1179.04 336.19 1189.21 295.617Z" fill="#98C1FF" fill-opacity="0.31"/>
<g opacity="0.2">
<g opacity="0.2">
<path opacity="0.2" d="M1035.84 336.192C897.106 336.192 784.263 229.874 784.263 99.2129C784.263 -31.4693 897.128 -137.766 1035.84 -137.766C1174.57 -137.766 1287.41 -31.4484 1287.41 99.2129C1287.41 229.895 1174.57 336.192 1035.84 336.192ZM1035.84 -136.199C898.037 -136.199 785.927 -30.5917 785.927 99.2129C785.927 229.018 898.037 334.625 1035.84 334.625C1173.63 334.625 1285.74 229.018 1285.74 99.2129C1285.74 -30.5917 1173.63 -136.199 1035.84 -136.199Z" fill="#2178FC" fill-opacity="0.39"/>
</g>
<g opacity="0.2">
<path opacity="0.2" d="M1035.84 296.824C920.153 296.824 826.055 208.164 826.055 99.2129C826.055 -9.75855 920.176 -98.3984 1035.84 -98.3984C1151.5 -98.3984 1245.62 -9.75855 1245.62 99.2129C1245.64 208.184 1151.52 296.824 1035.84 296.824ZM1035.84 -96.8313C921.085 -96.8313 827.719 -8.88092 827.719 99.2129C827.719 207.307 921.085 295.257 1035.84 295.257C1150.59 295.257 1243.95 207.307 1243.95 99.2129C1243.97 -8.88092 1150.61 -96.8313 1035.84 -96.8313Z" fill="#2178FC" fill-opacity="0.39"/>
</g>
<g opacity="0.2">
<path opacity="0.2" d="M1035.84 257.457C943.201 257.457 867.847 186.474 867.847 99.213C867.847 11.9522 943.201 -59.0308 1035.84 -59.0308C1128.47 -59.0308 1203.82 11.9522 1203.82 99.213C1203.85 186.474 1128.47 257.457 1035.84 257.457ZM1035.84 -57.4636C944.111 -57.4636 869.511 12.8298 869.511 99.213C869.511 185.596 944.133 255.89 1035.84 255.89C1127.56 255.89 1202.16 185.596 1202.16 99.213C1202.16 12.8298 1127.56 -57.4636 1035.84 -57.4636Z" fill="#2178FC" fill-opacity="0.39"/>
</g>
<g opacity="0.2">
<path opacity="0.2" d="M1035.84 218.089C966.249 218.089 909.639 164.763 909.639 99.213C909.639 33.6629 966.249 -19.6631 1035.84 -19.6631C1105.42 -19.6631 1162.03 33.6629 1162.03 99.213C1162.03 164.763 1105.42 218.089 1035.84 218.089ZM1035.84 -18.0959C967.158 -18.0959 911.303 34.5406 911.303 99.213C911.303 163.885 967.18 216.522 1035.84 216.522C1104.49 216.522 1160.37 163.885 1160.37 99.213C1160.37 34.5406 1104.51 -18.0959 1035.84 -18.0959Z" fill="#2178FC" fill-opacity="0.39"/>
</g>
<g opacity="0.2">
<path opacity="0.2" d="M1035.84 178.742C989.297 178.742 951.431 143.073 951.431 99.234C951.431 55.3947 989.297 19.7256 1035.84 19.7256C1082.37 19.7256 1120.24 55.3947 1120.24 99.234C1120.26 143.052 1082.4 178.742 1035.84 178.742ZM1035.84 21.2719C990.206 21.2719 953.095 56.2305 953.095 99.2131C953.095 142.196 990.206 177.154 1035.84 177.154C1081.47 177.154 1118.58 142.196 1118.58 99.2131C1118.6 56.2305 1081.47 21.2719 1035.84 21.2719Z" fill="#2178FC" fill-opacity="0.39"/>
</g>
<g opacity="0.2">
<path opacity="0.2" d="M1035.84 139.375C1012.32 139.375 993.223 121.363 993.223 99.2341C993.223 77.1054 1012.34 59.0933 1035.84 59.0933C1059.33 59.0933 1078.45 77.1054 1078.45 99.2341C1078.47 121.363 1059.35 139.375 1035.84 139.375ZM1035.84 60.6395C1013.25 60.6395 994.886 77.9412 994.886 99.2132C994.886 120.485 1013.25 137.787 1035.84 137.787C1058.42 137.787 1076.78 120.485 1076.78 99.2132C1076.81 77.9412 1058.42 60.6395 1035.84 60.6395Z" fill="#2178FC" fill-opacity="0.39"/>
</g>
</g>
<path d="M440.45 475.521C439.847 475.485 439.404 474.954 439.47 474.383C439.535 473.812 440.08 473.391 440.686 473.448C441.291 473.504 441.732 474.014 441.666 474.585C441.618 475.092 441.182 475.483 440.651 475.526C440.585 475.531 440.518 475.536 440.45 475.521ZM443.645 459.209C443.077 459.066 442.719 458.486 442.897 457.927C443.053 457.37 443.673 457.048 444.264 457.21C444.854 457.352 445.19 457.933 445.034 458.49C444.89 458.921 444.492 459.225 444.049 459.261C443.917 459.271 443.782 459.261 443.645 459.209ZM449.724 443.632C449.17 443.382 448.941 442.751 449.213 442.247C449.46 441.724 450.131 441.482 450.685 441.731C451.239 441.981 451.466 442.591 451.218 443.114C451.023 443.465 450.662 443.683 450.286 443.713C450.11 443.727 449.907 443.701 449.724 443.632ZM458.335 429.11C457.818 428.774 457.701 428.133 458.04 427.645C458.381 427.178 459.082 427.038 459.574 427.355C460.089 427.67 460.231 428.33 459.869 428.82L459.868 428.799C459.69 429.086 459.368 429.237 459.037 429.264C458.794 429.283 458.545 429.24 458.335 429.11ZM469.146 415.943C468.691 415.539 468.661 414.892 469.072 414.461C469.505 414.028 470.192 413.994 470.645 414.377C471.1 414.781 471.13 415.428 470.719 415.86C470.513 416.065 470.256 416.19 469.99 416.211C469.681 416.236 469.383 416.134 469.146 415.943ZM650.86 391.348C650.771 390.79 651.196 390.253 651.789 390.163C652.405 390.072 652.971 390.467 653.061 391.047C653.128 391.608 652.726 392.143 652.11 392.234C652.088 392.236 652.066 392.237 652.044 392.239C651.469 392.285 650.949 391.907 650.86 391.348ZM634.357 393.126C633.755 393.111 633.271 392.625 633.314 392.056C633.336 391.488 633.833 391.029 634.458 391.042C635.06 391.057 635.543 391.543 635.524 392.131C635.499 392.657 635.044 393.092 634.491 393.136C634.447 393.139 634.401 393.122 634.357 393.126ZM481.865 404.385C481.497 403.953 481.556 403.298 482.038 402.925C482.52 402.551 483.215 402.621 483.607 403.072C483.977 403.525 483.918 404.179 483.434 404.532C483.245 404.673 483.029 404.753 482.83 404.769C482.476 404.797 482.111 404.68 481.865 404.385ZM667.889 387.224C667.668 386.696 667.954 386.086 668.515 385.874C669.077 385.661 669.719 385.904 669.963 386.45C670.183 386.978 669.898 387.587 669.336 387.8C669.229 387.85 669.12 387.88 669.01 387.889C668.523 387.927 668.08 387.669 667.889 387.224ZM616.74 391.554C616.132 391.456 615.733 390.921 615.821 390.348C615.909 389.775 616.479 389.395 617.086 389.472C617.693 389.549 618.114 390.082 618.004 390.657C617.932 391.144 617.494 391.515 617.008 391.553C616.919 391.561 616.829 391.547 616.74 391.554ZM599.396 388.64C598.807 388.519 598.407 387.964 598.541 387.408C598.673 386.832 599.245 386.472 599.855 386.591C600.442 386.691 600.842 387.246 600.71 387.822C600.612 388.27 600.195 388.618 599.708 388.657C599.598 388.666 599.508 388.652 599.396 388.64ZM496.274 394.767C495.968 394.267 496.161 393.623 496.672 393.331C497.205 393.037 497.886 393.213 498.193 393.713C498.498 394.191 498.327 394.834 497.794 395.128C497.646 395.224 497.471 395.259 497.316 395.271C496.918 395.303 496.503 395.126 496.274 394.767ZM683.471 379.483C683.122 379.007 683.247 378.348 683.755 378.014C684.24 377.681 684.939 377.793 685.288 378.269C685.638 378.744 685.512 379.404 685.005 379.738C684.835 379.835 684.639 379.893 684.462 379.907C684.086 379.937 683.697 379.8 683.471 379.483ZM582.182 385.422C581.572 385.303 581.195 384.767 581.305 384.192C581.417 383.638 582.009 383.255 582.618 383.354C583.206 383.474 583.605 384.009 583.473 384.585C583.377 385.054 582.959 385.402 582.473 385.441C582.385 385.448 582.272 385.436 582.182 385.422ZM512.085 387.364C511.864 386.837 512.15 386.227 512.733 386.013C513.297 385.821 513.941 386.084 514.161 386.612C514.36 387.162 514.074 387.751 513.512 387.963C513.405 388.014 513.296 388.043 513.207 388.05C512.721 388.089 512.254 387.812 512.085 387.364ZM564.906 382.817C564.299 382.739 563.88 382.228 563.946 381.656C564.034 381.083 564.579 380.663 565.208 380.738C565.815 380.816 566.234 381.327 566.146 381.9C566.076 382.409 565.638 382.779 565.129 382.82C565.063 382.825 564.974 382.832 564.906 382.817ZM528.927 382.583C528.816 382.026 529.217 381.47 529.831 381.358C530.423 381.248 531.009 381.621 531.12 382.178C531.233 382.756 530.832 383.312 530.24 383.422C530.196 383.426 530.152 383.429 530.107 383.433C529.555 383.477 529.037 383.12 528.927 382.583ZM547.512 381.793C546.912 381.799 546.407 381.336 546.405 380.749C546.405 380.184 546.922 379.702 547.523 379.696C548.123 379.69 548.627 380.153 548.63 380.74C548.629 381.285 548.175 381.74 547.6 381.786C547.578 381.788 547.556 381.79 547.512 381.793ZM697.021 368.843C696.588 368.438 696.601 367.766 697.015 367.376C697.015 367.376 697.015 367.376 697.037 367.375C697.47 366.942 698.16 366.95 698.593 367.355C699.026 367.761 699.033 368.41 698.599 368.822C698.391 369.007 698.154 369.109 697.889 369.13C697.58 369.155 697.26 369.055 697.021 368.843ZM708.662 356.323C708.188 355.962 708.092 355.32 708.455 354.851C708.841 354.38 709.547 354.303 710.019 354.643C710.515 355.001 710.588 355.645 710.225 356.114C710.022 356.361 709.721 356.49 709.434 356.513C709.168 356.534 708.896 356.472 708.662 356.323ZM718.812 342.685C718.297 342.369 718.157 341.731 718.475 341.244C718.814 340.756 719.493 340.618 720.006 340.913C720.521 341.228 720.683 341.865 720.343 342.353C720.144 342.641 719.824 342.814 719.492 342.84C719.271 342.858 719.023 342.815 718.812 342.685ZM727.979 328.433C727.445 328.161 727.261 327.526 727.554 327.021C727.87 326.513 728.546 326.334 729.081 326.626C729.614 326.898 729.798 327.533 729.483 328.041C729.285 328.35 728.967 328.543 728.613 328.571C728.392 328.589 728.165 328.544 727.979 328.433ZM736.636 313.929C736.1 313.636 735.916 313.001 736.21 312.495C736.503 311.99 737.179 311.81 737.712 312.082C738.246 312.354 738.43 312.989 738.136 313.495C737.94 313.825 737.622 314.018 737.246 314.048C737.047 314.064 736.821 314.019 736.636 313.929ZM745.36 299.44C744.847 299.145 744.685 298.509 745.003 298.022C745.34 297.513 746.017 297.354 746.53 297.649C747.045 297.964 747.207 298.601 746.89 299.087C746.714 299.395 746.372 299.569 746.04 299.595C745.819 299.613 745.571 299.57 745.36 299.44ZM939.445 282.348C939.378 281.788 939.827 281.27 940.444 281.2C941.039 281.131 941.585 281.549 941.653 282.13C941.722 282.712 941.273 283.23 940.654 283.279C940.654 283.279 940.654 283.279 940.632 283.281C940.035 283.329 939.514 282.93 939.445 282.348ZM922.822 282.626C922.236 282.526 921.835 281.971 921.947 281.417C922.079 280.841 922.649 280.46 923.26 280.579C923.868 280.677 924.247 281.234 924.135 281.788C924.039 282.256 923.622 282.604 923.135 282.643C923.024 282.652 922.934 282.638 922.822 282.626ZM956.549 278.616C956.328 278.067 956.635 277.456 957.197 277.244C957.782 277.05 958.402 277.294 958.624 277.842C958.844 278.37 958.559 278.98 957.997 279.192C957.89 279.242 957.779 279.251 957.691 279.258C957.205 279.297 956.739 279.041 956.549 278.616ZM905.929 277.559C905.376 277.33 905.126 276.7 905.373 276.178C905.621 275.655 906.269 275.414 906.844 275.641C907.396 275.87 907.645 276.479 907.399 277.022C907.228 277.392 906.867 277.61 906.469 277.641C906.292 277.655 906.09 277.63 905.929 277.559ZM972.259 271.074C971.932 270.597 972.08 269.936 972.589 269.623C973.098 269.31 973.798 269.442 974.126 269.919C974.453 270.396 974.304 271.037 973.796 271.371C973.648 271.467 973.452 271.524 973.276 271.538C972.9 271.568 972.485 271.392 972.259 271.074ZM755.089 285.542C754.595 285.204 754.498 284.541 754.861 284.072C755.224 283.603 755.906 283.506 756.4 283.844C756.895 284.182 757.012 284.822 756.649 285.292C756.448 285.559 756.149 285.709 755.839 285.734C755.574 285.755 755.324 285.691 755.089 285.542ZM890.292 269.834C889.757 269.541 889.595 268.904 889.91 268.397C890.227 267.91 890.903 267.731 891.438 268.024C891.951 268.318 892.135 268.953 891.82 269.46C891.622 269.77 891.28 269.944 890.948 269.97C890.727 269.988 890.501 269.943 890.292 269.834ZM986.221 260.863C985.81 260.456 985.823 259.784 986.282 259.391C986.74 258.998 987.432 259.027 987.844 259.455C988.277 259.861 988.242 260.534 987.784 260.927C987.596 261.089 987.358 261.171 987.115 261.19C986.783 261.217 986.464 261.117 986.221 260.863ZM766.087 272.486C765.634 272.103 765.603 271.434 766.015 271.024C766.424 270.572 767.133 270.537 767.587 270.92C768.04 271.303 768.071 271.971 767.66 272.402C767.454 272.607 767.197 272.733 766.932 272.754C766.622 272.779 766.326 272.697 766.087 272.486ZM875.356 261.131C874.843 260.836 874.679 260.179 875.018 259.69C875.336 259.204 876.035 259.043 876.55 259.359C877.063 259.653 877.204 260.313 876.887 260.799C876.688 261.088 876.368 261.26 876.036 261.286C875.815 261.304 875.567 261.261 875.356 261.131ZM998.436 248.842C997.962 248.482 997.887 247.817 998.274 247.367C998.683 246.915 999.369 246.86 999.842 247.221C1000.32 247.581 1000.37 248.248 999.982 248.698C999.8 248.922 999.521 249.049 999.211 249.074C998.946 249.095 998.65 249.014 998.436 248.842ZM778.613 260.733C778.223 260.303 778.282 259.649 778.764 259.275C779.222 258.882 779.917 258.952 780.33 259.381C780.7 259.833 780.64 260.488 780.181 260.86C779.992 261.001 779.775 261.081 779.554 261.098C779.201 261.127 778.857 261.007 778.613 260.733ZM860.317 252.813C859.784 252.541 859.577 251.908 859.871 251.403C860.163 250.876 860.838 250.697 861.372 250.968C861.905 251.24 862.11 251.853 861.818 252.379C861.644 252.708 861.281 252.904 860.928 252.932C860.728 252.948 860.502 252.903 860.317 252.813ZM1008.96 235.467C1008.45 235.152 1008.31 234.513 1008.65 234.025C1008.97 233.539 1009.67 233.399 1010.18 233.714C1010.69 234.009 1010.84 234.668 1010.5 235.156C1010.3 235.445 1009.98 235.596 1009.64 235.623C1009.42 235.64 1009.17 235.597 1008.96 235.467ZM792.926 251.018C792.641 250.517 792.834 249.873 793.369 249.6C793.902 249.306 794.583 249.482 794.868 249.983C795.175 250.483 794.982 251.127 794.449 251.421C794.299 251.496 794.146 251.529 793.991 251.541C793.571 251.575 793.155 251.378 792.926 251.018ZM844.443 246.302C843.872 246.117 843.559 245.534 843.738 244.996C843.938 244.435 844.56 244.134 845.153 244.317C845.724 244.502 846.038 245.085 845.858 245.623C845.713 246.033 845.312 246.317 844.892 246.35C844.738 246.363 844.603 246.352 844.443 246.302ZM809.091 244.447C808.936 243.893 809.291 243.32 809.902 243.166C810.49 243.015 811.097 243.365 811.23 243.92C811.385 244.474 811.031 245.047 810.442 245.199C810.376 245.204 810.311 245.23 810.245 245.235C809.736 245.276 809.22 244.94 809.091 244.447ZM827.542 243.374C826.94 243.359 826.457 242.873 826.5 242.304C826.52 241.715 827.041 241.276 827.643 241.29C828.269 241.324 828.729 241.791 828.709 242.379C828.684 242.905 828.23 243.34 827.677 243.384C827.633 243.388 827.588 243.391 827.542 243.374ZM1017.99 221.164C1017.46 220.871 1017.25 220.259 1017.55 219.753C1017.84 219.248 1018.51 219.047 1019.05 219.319C1019.58 219.591 1019.79 220.224 1019.49 220.73C1019.3 221.06 1018.96 221.255 1018.6 221.283C1018.4 221.299 1018.18 221.254 1017.99 221.164ZM1026.21 206.422C1025.68 206.171 1025.45 205.54 1025.72 205.015C1026.01 204.509 1026.66 204.29 1027.22 204.56C1027.77 204.809 1027.98 205.443 1027.71 205.967C1027.51 206.297 1027.17 206.492 1026.79 206.522C1026.6 206.538 1026.39 206.512 1026.21 206.422ZM1034.21 191.571C1033.66 191.322 1033.45 190.689 1033.72 190.164C1034.02 189.659 1034.69 189.437 1035.22 189.709C1035.78 189.979 1035.98 190.592 1035.69 191.118C1035.52 191.447 1035.16 191.664 1034.8 191.692C1034.6 191.708 1034.4 191.662 1034.21 191.571ZM1042.55 176.904C1042.01 176.612 1041.83 175.976 1042.12 175.471C1042.44 174.964 1043.11 174.784 1043.65 175.077C1044.18 175.349 1044.34 175.985 1044.05 176.491C1043.85 176.821 1043.53 176.993 1043.18 177.022C1042.96 177.039 1042.73 176.994 1042.55 176.904ZM1051.76 162.712C1051.27 162.374 1051.15 161.733 1051.49 161.245C1051.49 161.245 1051.49 161.245 1051.49 161.266C1051.83 160.778 1052.53 160.638 1053.03 160.976C1053.54 161.291 1053.66 161.932 1053.32 162.42C1053.12 162.687 1052.8 162.86 1052.49 162.884C1052.24 162.904 1051.99 162.84 1051.76 162.712ZM1062.43 149.43C1061.95 149.049 1061.92 148.381 1062.31 147.952C1062.72 147.52 1063.43 147.464 1063.88 147.847C1064.34 148.23 1064.39 148.876 1063.98 149.328C1063.8 149.531 1063.52 149.658 1063.23 149.681C1062.94 149.704 1062.65 149.623 1062.43 149.43ZM1075.03 137.798C1074.66 137.345 1074.74 136.689 1075.25 136.334C1075.71 135.962 1076.41 136.053 1076.8 136.504C1077.17 136.957 1077.09 137.613 1076.6 137.966C1076.41 138.107 1076.22 138.164 1076 138.182C1075.64 138.21 1075.28 138.092 1075.03 137.798ZM1089.74 128.596C1089.46 128.074 1089.67 127.449 1090.23 127.174C1090.77 126.921 1091.43 127.099 1091.71 127.622C1092 128.123 1091.78 128.769 1091.24 129.021C1091.09 129.096 1090.96 129.128 1090.81 129.14C1090.39 129.173 1089.95 128.978 1089.74 128.596ZM1141.46 122.166C1140.87 122.004 1140.55 121.421 1140.73 120.883C1140.91 120.323 1141.51 120.003 1142.1 120.166C1142.69 120.328 1143.03 120.909 1142.85 121.468C1142.7 121.878 1142.3 122.183 1141.86 122.218C1141.73 122.228 1141.59 122.218 1141.46 122.166ZM1106.01 122.163C1105.83 121.611 1106.19 121.038 1106.77 120.866C1106.77 120.866 1106.77 120.866 1106.77 120.886C1107.36 120.714 1107.97 121.043 1108.14 121.595C1108.3 122.148 1107.97 122.72 1107.38 122.892L1107.36 122.894C1107.29 122.899 1107.23 122.926 1107.16 122.931C1106.63 122.973 1106.14 122.656 1106.01 122.163ZM1123.31 119.232C1123.29 118.668 1123.76 118.169 1124.38 118.162C1125 118.133 1125.51 118.596 1125.51 119.162C1125.53 119.747 1125.06 120.225 1124.44 120.253C1123.81 120.261 1123.31 119.819 1123.31 119.232Z" fill="#9DA6B8"/>
<path d="M549.528 454.333C532.381 424.515 551.28 386.192 579.696 369.12C604.629 354.138 637.57 349.29 680.449 354.305C692.628 355.726 704.939 357.774 716.851 359.759C738.324 363.332 760.528 367.01 782.622 367.156C783.021 367.156 783.398 367.156 783.798 367.156C823.061 367.156 855.891 354.41 873.992 332.114C883.641 320.224 889.365 305.472 894.888 291.221C902.208 272.352 909.772 252.856 926.52 240.194C956.533 217.501 1000.1 227.886 1028.29 243.662C1042.56 251.644 1055.8 261.528 1068.6 271.098C1083.37 282.131 1098.66 293.54 1115.49 301.982C1145.4 316.965 1188.83 321.75 1213.56 296.905L1215.18 298.326C1189.65 323.986 1145.06 319.159 1114.45 303.821C1097.44 295.296 1082.06 283.824 1067.22 272.728C1054.49 263.221 1041.31 253.358 1027.16 245.459C999.589 230.038 957.043 219.82 927.918 241.823C911.636 254.131 904.515 272.498 896.973 291.952C891.383 306.35 885.616 321.248 875.744 333.389C857.045 356.437 823.172 369.518 782.622 369.246C760.351 369.1 738.035 365.401 716.474 361.828C704.606 359.864 692.317 357.816 680.183 356.395C637.837 351.443 605.361 356.186 580.894 370.897C553.299 387.467 534.91 424.578 551.48 453.351L549.528 454.333Z" fill="#2178FC" fill-opacity="0.39"/>
<path d="M730.537 53.5134C730.249 53.5134 729.983 53.4089 729.761 53.1999C729.65 53.1163 729.584 52.991 729.517 52.8656C729.473 52.7402 729.428 52.6148 729.428 52.4686C729.428 52.3432 729.473 52.1969 729.517 52.0715C729.584 51.9462 729.65 51.8208 729.761 51.7372C730.182 51.3402 730.914 51.3402 731.336 51.7372C731.425 51.8208 731.513 51.9462 731.58 52.0715C731.624 52.1969 731.646 52.3432 731.646 52.4686C731.646 52.6148 731.624 52.7402 731.58 52.8656C731.513 52.991 731.425 53.1163 731.336 53.1999C731.225 53.3044 731.114 53.388 730.959 53.4298C730.826 53.4925 730.693 53.5134 730.537 53.5134Z" fill="#9DA6B8"/>
<path d="M1081.73 53.514C1081.58 53.514 1081.42 53.4931 1081.29 53.4304C1081.15 53.3886 1081.04 53.305 1080.93 53.2006C1080.73 53.0125 1080.62 52.7409 1080.62 52.4692C1080.62 52.3229 1080.64 52.1976 1080.69 52.0722C1080.76 51.9468 1080.84 51.8214 1080.93 51.7379C1081.04 51.6334 1081.15 51.5498 1081.29 51.508C1081.71 51.3408 1082.2 51.4453 1082.51 51.7379C1082.6 51.8214 1082.69 51.9468 1082.75 52.0722C1082.8 52.1976 1082.82 52.3438 1082.82 52.4692C1082.82 52.7409 1082.71 53.0125 1082.51 53.2006C1082.29 53.4095 1082.02 53.514 1081.73 53.514Z" fill="#9DA6B8"/>
</g>
<defs>
<clipPath id="clip0">
<rect width="1118" height="420.997" fill="white"/>
</clipPath>
</defs>
</svg>
