<svg width="1280" height="482" viewBox="0 0 1280 482" fill="none" xmlns="http://www.w3.org/2000/svg">
<g clip-path="url(#clip0)">
<path d="M589.43 538.338C600.699 478.225 560.926 421.358 500.596 411.323C440.265 401.287 382.222 441.883 370.953 501.996C359.685 562.109 399.457 618.976 459.788 629.012C520.119 639.047 578.162 598.451 589.43 538.338Z" fill="#98C1FF" fill-opacity="0.31"/>
<path d="M1207.01 9.10867C1218.66 -37.344 1190.2 -83.4307 1143.45 -93.8289C1096.7 -104.227 1049.37 -74.9991 1037.72 -28.5465C1026.08 17.9062 1054.54 63.9929 1101.28 74.3911C1148.03 84.7892 1195.37 55.5613 1207.01 9.10867Z" fill="#98C1FF" fill-opacity="0.31"/>
<g opacity="0.2">
<g opacity="0.2">
<path opacity="0.2" d="M1185.93 384.907C1027.1 384.907 897.904 263.184 897.904 113.589C897.904 -36.0291 1027.12 -157.729 1185.93 -157.729C1344.76 -157.729 1473.96 -36.0052 1473.96 113.589C1473.96 263.207 1344.76 384.907 1185.93 384.907ZM1185.93 -155.934C1028.16 -155.934 899.809 -35.0243 899.809 113.589C899.809 262.203 1028.16 383.113 1185.93 383.113C1343.69 383.113 1472.05 262.203 1472.05 113.589C1472.05 -35.0243 1343.69 -155.934 1185.93 -155.934Z" fill="#2178FC" fill-opacity="0.39"/>
</g>
<g opacity="0.2">
<path opacity="0.2" d="M1185.93 339.835C1053.49 339.835 945.752 238.327 945.752 113.589C945.752 -11.1723 1053.51 -112.656 1185.93 -112.656C1318.35 -112.656 1426.11 -11.1723 1426.11 113.589C1426.13 238.351 1318.37 339.835 1185.93 339.835ZM1185.93 -110.862C1054.55 -110.862 947.657 -10.1675 947.657 113.589C947.657 237.346 1054.55 338.041 1185.93 338.041C1317.31 338.041 1424.2 237.346 1424.2 113.589C1424.23 -10.1675 1317.33 -110.862 1185.93 -110.862Z" fill="#2178FC" fill-opacity="0.39"/>
</g>
<g opacity="0.2">
<path opacity="0.2" d="M1185.93 294.763C1079.87 294.763 993.6 213.494 993.6 113.589C993.6 13.684 1079.87 -67.5845 1185.93 -67.5845C1291.99 -67.5845 1378.26 13.684 1378.26 113.589C1378.29 213.494 1291.99 294.763 1185.93 294.763ZM1185.93 -65.7902C1080.91 -65.7902 995.504 14.6888 995.504 113.589C995.504 212.489 1080.94 292.968 1185.93 292.968C1290.95 292.968 1376.36 212.489 1376.36 113.589C1376.36 14.6888 1290.95 -65.7902 1185.93 -65.7902Z" fill="#2178FC" fill-opacity="0.39"/>
</g>
<g opacity="0.2">
<path opacity="0.2" d="M1185.93 249.691C1106.26 249.691 1041.45 188.638 1041.45 113.589C1041.45 38.5408 1106.26 -22.5122 1185.93 -22.5122C1265.6 -22.5122 1330.41 38.5408 1330.41 113.589C1330.41 188.638 1265.6 249.691 1185.93 249.691ZM1185.93 -20.7179C1107.3 -20.7179 1043.35 39.5456 1043.35 113.589C1043.35 187.633 1107.33 247.896 1185.93 247.896C1264.53 247.896 1328.51 187.633 1328.51 113.589C1328.51 39.5456 1264.56 -20.7179 1185.93 -20.7179Z" fill="#2178FC" fill-opacity="0.39"/>
</g>
<g opacity="0.2">
<path opacity="0.2" d="M1185.93 204.643C1132.65 204.643 1089.29 163.805 1089.29 113.613C1089.29 63.4216 1132.65 22.584 1185.93 22.584C1239.21 22.584 1282.56 63.4216 1282.56 113.613C1282.59 163.781 1239.24 204.643 1185.93 204.643ZM1185.93 24.3543C1133.69 24.3543 1091.2 64.3785 1091.2 113.589C1091.2 162.8 1133.69 202.824 1185.93 202.824C1238.17 202.824 1280.66 162.8 1280.66 113.589C1280.69 64.3785 1238.17 24.3543 1185.93 24.3543Z" fill="#2178FC" fill-opacity="0.39"/>
</g>
<g opacity="0.2">
<path opacity="0.2" d="M1185.93 159.57C1159.01 159.57 1137.14 138.948 1137.14 113.613C1137.14 88.2779 1159.03 67.6558 1185.93 67.6558C1212.82 67.6558 1234.72 88.2779 1234.72 113.613C1234.74 138.948 1212.85 159.57 1185.93 159.57ZM1185.93 69.4261C1160.08 69.4261 1139.05 89.2349 1139.05 113.589C1139.05 137.943 1160.08 157.752 1185.93 157.752C1211.78 157.752 1232.81 137.943 1232.81 113.589C1232.84 89.2349 1211.78 69.4261 1185.93 69.4261Z" fill="#2178FC" fill-opacity="0.39"/>
</g>
</g>
<path d="M489.219 511.866C488.533 511.771 488.076 511.125 488.203 510.479C488.33 509.833 488.99 509.402 489.676 509.522C490.362 509.641 490.819 510.263 490.692 510.909C490.59 511.483 490.057 511.89 489.448 511.89C489.371 511.89 489.295 511.89 489.219 511.866ZM494.349 493.541C493.714 493.325 493.359 492.632 493.613 492.01C493.841 491.388 494.578 491.077 495.238 491.316C495.898 491.531 496.229 492.225 496 492.847C495.797 493.325 495.314 493.636 494.806 493.636C494.654 493.636 494.502 493.613 494.349 493.541ZM502.705 476.316C502.095 475.981 501.892 475.239 502.248 474.689C502.578 474.115 503.365 473.899 503.975 474.234C504.584 474.569 504.787 475.287 504.457 475.861C504.203 476.244 503.771 476.459 503.34 476.459C503.136 476.459 502.908 476.411 502.705 476.316ZM513.854 460.526C513.295 460.095 513.219 459.354 513.651 458.828C514.083 458.325 514.895 458.23 515.429 458.636C515.987 459.043 516.089 459.808 515.632 460.335V460.311C515.403 460.622 515.022 460.765 514.641 460.765C514.362 460.765 514.083 460.694 513.854 460.526ZM527.39 446.483C526.908 445.981 526.933 445.239 527.441 444.784C527.975 444.33 528.762 444.354 529.244 444.832C529.727 445.335 529.702 446.076 529.194 446.531C528.94 446.746 528.635 446.866 528.33 446.866C527.975 446.866 527.644 446.722 527.39 446.483ZM737.016 434.952C736.965 434.306 737.498 433.732 738.184 433.684C738.895 433.636 739.505 434.138 739.556 434.808C739.581 435.454 739.073 436.028 738.362 436.076C738.336 436.076 738.311 436.076 738.286 436.076C737.625 436.076 737.067 435.598 737.016 434.952ZM718.019 435.478C717.333 435.406 716.825 434.808 716.927 434.162C717.003 433.516 717.613 433.038 718.324 433.11C719.009 433.181 719.517 433.78 719.441 434.449C719.365 435.047 718.806 435.502 718.171 435.502C718.121 435.502 718.07 435.478 718.019 435.478ZM542.959 434.449C542.578 433.923 542.705 433.181 543.289 432.799C543.873 432.416 544.66 432.559 545.067 433.11C545.448 433.66 545.321 434.402 544.736 434.76C544.508 434.904 544.254 434.976 544.025 434.976C543.619 434.976 543.213 434.808 542.959 434.449ZM756.825 431.794C756.622 431.172 757.003 430.502 757.663 430.311C758.324 430.119 759.035 430.454 759.263 431.1C759.467 431.722 759.086 432.392 758.425 432.583C758.298 432.631 758.171 432.655 758.044 432.655C757.486 432.655 757.003 432.32 756.825 431.794ZM698.057 432.081C697.371 431.914 696.965 431.268 697.117 430.622C697.27 429.976 697.955 429.593 698.641 429.736C699.327 429.88 699.759 430.526 699.581 431.172C699.454 431.722 698.921 432.105 698.362 432.105C698.26 432.105 698.159 432.081 698.057 432.081ZM678.527 427.177C677.867 426.985 677.46 426.315 677.663 425.693C677.867 425.047 678.552 424.689 679.238 424.88C679.898 425.047 680.305 425.717 680.102 426.363C679.949 426.866 679.441 427.224 678.882 427.224C678.755 427.224 678.654 427.201 678.527 427.177ZM560.279 424.784C559.975 424.186 560.254 423.468 560.863 423.181C561.498 422.894 562.26 423.157 562.565 423.756C562.87 424.33 562.616 425.047 561.981 425.335C561.803 425.43 561.6 425.454 561.422 425.454C560.965 425.454 560.508 425.215 560.279 424.784ZM775.314 424.378C774.959 423.803 775.162 423.062 775.771 422.727C776.355 422.392 777.143 422.583 777.498 423.157C777.854 423.732 777.651 424.473 777.041 424.808C776.838 424.904 776.609 424.952 776.406 424.952C775.974 424.952 775.543 424.76 775.314 424.378ZM659.175 421.937C658.489 421.746 658.108 421.1 658.286 420.454C658.463 419.832 659.175 419.449 659.86 419.617C660.521 419.808 660.927 420.454 660.724 421.1C660.571 421.626 660.063 421.985 659.505 421.985C659.403 421.985 659.276 421.961 659.175 421.937ZM578.997 417.775C578.794 417.153 579.175 416.483 579.86 416.291C580.521 416.124 581.232 416.483 581.435 417.105C581.613 417.751 581.232 418.397 580.571 418.588C580.444 418.636 580.317 418.66 580.216 418.66C579.657 418.66 579.149 418.301 578.997 417.775ZM639.695 417.392C639.009 417.248 638.578 416.626 638.705 415.98C638.857 415.334 639.517 414.904 640.229 415.047C640.914 415.191 641.346 415.813 641.194 416.459C641.067 417.033 640.533 417.416 639.949 417.416C639.873 417.416 639.771 417.416 639.695 417.392ZM598.654 413.851C598.578 413.205 599.086 412.607 599.797 412.535C600.482 412.464 601.117 412.942 601.194 413.588C601.27 414.258 600.762 414.856 600.076 414.928C600.025 414.928 599.975 414.928 599.924 414.928C599.289 414.928 598.73 414.473 598.654 413.851ZM619.936 414.641C619.251 414.593 618.717 414.019 618.768 413.349C618.819 412.703 619.454 412.2 620.14 412.248C620.825 412.296 621.359 412.87 621.308 413.54C621.257 414.162 620.698 414.641 620.038 414.641C620.013 414.641 619.987 414.641 619.936 414.641ZM791.746 413.468C791.289 412.966 791.365 412.2 791.873 411.794C791.873 411.794 791.873 411.794 791.898 411.794C792.432 411.339 793.219 411.411 793.676 411.913C794.133 412.416 794.082 413.157 793.549 413.588C793.295 413.779 793.016 413.875 792.711 413.875C792.355 413.875 792 413.732 791.746 413.468ZM806.171 400.239C805.663 399.784 805.613 399.042 806.07 398.54C806.552 398.038 807.365 398.014 807.873 398.444C808.406 398.899 808.432 399.641 807.975 400.143C807.721 400.406 807.365 400.526 807.035 400.526C806.73 400.526 806.425 400.43 806.171 400.239ZM818.997 385.597C818.438 385.191 818.336 384.449 818.743 383.923C819.175 383.396 819.962 383.301 820.521 383.683C821.079 384.09 821.206 384.832 820.775 385.358C820.521 385.669 820.14 385.837 819.759 385.837C819.505 385.837 819.225 385.765 818.997 385.597ZM830.755 370.167C830.171 369.808 830.019 369.066 830.4 368.516C830.806 367.966 831.594 367.822 832.178 368.205C832.762 368.564 832.914 369.305 832.508 369.856C832.254 370.191 831.873 370.382 831.467 370.382C831.213 370.382 830.959 370.31 830.755 370.167ZM841.955 354.401C841.371 354.018 841.219 353.277 841.6 352.726C841.981 352.176 842.768 352.033 843.352 352.391C843.936 352.75 844.089 353.492 843.708 354.042C843.454 354.401 843.073 354.592 842.641 354.592C842.413 354.592 842.159 354.521 841.955 354.401ZM853.232 338.659C852.673 338.277 852.546 337.535 852.952 337.009C853.384 336.458 854.171 336.339 854.73 336.721C855.289 337.128 855.416 337.87 855.009 338.396C854.781 338.731 854.375 338.898 853.994 338.898C853.74 338.898 853.46 338.827 853.232 338.659ZM1076.29 336.817C1076.27 336.171 1076.83 335.621 1077.54 335.597C1078.22 335.573 1078.81 336.099 1078.83 336.769C1078.86 337.439 1078.3 337.989 1077.59 337.989C1077.59 337.989 1077.59 337.989 1077.56 337.989C1076.88 337.989 1076.32 337.487 1076.29 336.817ZM1057.3 335.621C1056.63 335.454 1056.23 334.784 1056.41 334.162C1056.61 333.516 1057.3 333.133 1057.98 333.324C1058.67 333.492 1059.05 334.162 1058.87 334.784C1058.72 335.31 1058.21 335.669 1057.65 335.669C1057.52 335.669 1057.42 335.645 1057.3 335.621ZM1096.15 334.114C1095.95 333.468 1096.36 332.798 1097.02 332.607C1097.7 332.439 1098.39 332.774 1098.59 333.42C1098.79 334.042 1098.41 334.712 1097.75 334.903C1097.63 334.951 1097.5 334.951 1097.4 334.951C1096.84 334.951 1096.33 334.616 1096.15 334.114ZM1038.48 328.3C1037.87 327.989 1037.64 327.248 1037.97 326.674C1038.3 326.099 1039.06 325.884 1039.7 326.195C1040.3 326.506 1040.53 327.224 1040.2 327.822C1039.97 328.229 1039.54 328.444 1039.09 328.444C1038.88 328.444 1038.65 328.396 1038.48 328.3ZM1114.77 326.937C1114.44 326.363 1114.67 325.621 1115.28 325.31C1115.89 324.999 1116.67 325.214 1117 325.788C1117.33 326.363 1117.1 327.08 1116.5 327.415C1116.32 327.511 1116.09 327.559 1115.89 327.559C1115.45 327.559 1115 327.319 1114.77 326.937ZM865.6 323.683C865.067 323.252 865.016 322.487 865.473 321.985C865.93 321.482 866.717 321.434 867.251 321.865C867.784 322.296 867.86 323.037 867.403 323.54C867.149 323.827 866.794 323.97 866.438 323.97C866.133 323.97 865.854 323.874 865.6 323.683ZM1021.33 318.061C1020.75 317.678 1020.62 316.937 1021.03 316.386C1021.43 315.86 1022.22 315.717 1022.81 316.099C1023.37 316.482 1023.52 317.224 1023.11 317.774C1022.86 318.109 1022.45 318.276 1022.07 318.276C1021.82 318.276 1021.56 318.205 1021.33 318.061ZM1131.63 316.554C1131.2 316.051 1131.28 315.286 1131.83 314.879C1132.39 314.473 1133.18 314.568 1133.61 315.095C1134.07 315.597 1133.97 316.362 1133.41 316.769C1133.18 316.937 1132.9 317.008 1132.62 317.008C1132.24 317.008 1131.89 316.865 1131.63 316.554ZM879.34 309.783C878.857 309.305 878.882 308.539 879.39 308.109C879.898 307.63 880.711 307.654 881.194 308.133C881.676 308.611 881.651 309.377 881.143 309.831C880.889 310.047 880.584 310.166 880.279 310.166C879.924 310.166 879.594 310.047 879.34 309.783ZM1005.08 306.769C1004.52 306.386 1004.39 305.621 1004.83 305.094C1005.23 304.568 1006.04 304.449 1006.6 304.855C1007.16 305.238 1007.26 306.004 1006.86 306.53C1006.6 306.841 1006.22 307.008 1005.84 307.008C1005.59 307.008 1005.31 306.937 1005.08 306.769ZM1146.67 303.946C1146.16 303.492 1146.13 302.726 1146.62 302.248C1147.12 301.769 1147.91 301.769 1148.42 302.224C1148.93 302.678 1148.93 303.444 1148.44 303.922C1148.22 304.161 1147.89 304.281 1147.53 304.281C1147.23 304.281 1146.9 304.161 1146.67 303.946ZM894.705 297.511C894.298 296.984 894.425 296.243 895.009 295.86C895.568 295.453 896.355 295.597 896.787 296.123C897.168 296.673 897.041 297.415 896.482 297.798C896.254 297.941 896 298.013 895.746 298.013C895.34 298.013 894.959 297.846 894.705 297.511ZM988.673 295.908C988.089 295.549 987.911 294.807 988.292 294.257C988.673 293.683 989.46 293.539 990.044 293.898C990.628 294.257 990.806 294.975 990.425 295.549C990.197 295.908 989.765 296.099 989.359 296.099C989.13 296.099 988.876 296.027 988.673 295.908ZM1159.9 289.64C1159.34 289.233 1159.24 288.491 1159.67 287.965C1160.08 287.439 1160.89 287.343 1161.45 287.75C1162.01 288.133 1162.11 288.898 1161.68 289.424C1161.42 289.735 1161.04 289.879 1160.66 289.879C1160.41 289.879 1160.13 289.807 1159.9 289.64ZM911.924 287.726C911.644 287.128 911.924 286.41 912.559 286.147C913.194 285.86 913.955 286.123 914.235 286.721C914.54 287.319 914.26 288.037 913.625 288.324C913.448 288.396 913.27 288.42 913.092 288.42C912.609 288.42 912.152 288.157 911.924 287.726ZM971.149 287.032C970.514 286.769 970.209 286.075 970.463 285.477C970.743 284.855 971.479 284.568 972.14 284.831C972.775 285.094 973.079 285.788 972.825 286.386C972.622 286.841 972.14 287.128 971.657 287.128C971.479 287.128 971.327 287.104 971.149 287.032ZM930.971 281.697C930.844 281.051 931.302 280.429 932.013 280.31C932.698 280.19 933.359 280.644 933.46 281.29C933.587 281.936 933.13 282.558 932.444 282.678C932.368 282.678 932.292 282.702 932.216 282.702C931.632 282.702 931.073 282.271 930.971 281.697ZM952.127 282.152C951.441 282.08 950.933 281.482 951.035 280.836C951.111 280.166 951.746 279.712 952.432 279.783C953.143 279.879 953.625 280.453 953.549 281.123C953.473 281.721 952.914 282.176 952.279 282.176C952.228 282.176 952.178 282.176 952.127 282.152ZM1171.5 274.137C1170.92 273.755 1170.74 273.037 1171.12 272.487C1171.5 271.936 1172.29 271.769 1172.88 272.128C1173.46 272.487 1173.64 273.228 1173.26 273.778C1173 274.137 1172.6 274.329 1172.19 274.329C1171.96 274.329 1171.71 274.257 1171.5 274.137ZM1182.22 258.061C1181.64 257.726 1181.43 256.984 1181.79 256.41C1182.17 255.86 1182.93 255.668 1183.54 256.027C1184.15 256.362 1184.33 257.104 1183.97 257.678C1183.72 258.037 1183.31 258.228 1182.88 258.228C1182.65 258.228 1182.43 258.18 1182.22 258.061ZM1192.71 241.84C1192.1 241.505 1191.92 240.764 1192.28 240.19C1192.66 239.639 1193.45 239.448 1194.03 239.807C1194.64 240.166 1194.82 240.883 1194.44 241.458C1194.21 241.816 1193.78 242.032 1193.37 242.032C1193.14 242.032 1192.91 241.96 1192.71 241.84ZM1203.56 225.859C1202.97 225.477 1202.82 224.735 1203.2 224.185C1203.61 223.635 1204.39 223.491 1204.98 223.874C1205.56 224.233 1205.69 224.974 1205.31 225.525C1205.05 225.883 1204.67 226.051 1204.27 226.051C1204.01 226.051 1203.76 225.979 1203.56 225.859ZM1215.36 210.5C1214.83 210.07 1214.76 209.328 1215.19 208.802C1215.19 208.802 1215.19 208.802 1215.19 208.826C1215.62 208.3 1216.43 208.204 1216.96 208.634C1217.52 209.041 1217.6 209.783 1217.17 210.309C1216.91 210.596 1216.53 210.764 1216.18 210.764C1215.9 210.764 1215.62 210.668 1215.36 210.5ZM1228.75 196.314C1228.24 195.835 1228.27 195.07 1228.75 194.615C1229.26 194.161 1230.07 194.161 1230.55 194.639C1231.03 195.118 1231.03 195.859 1230.53 196.338C1230.3 196.553 1229.97 196.673 1229.64 196.673C1229.31 196.673 1228.98 196.553 1228.75 196.314ZM1244.19 184.185C1243.81 183.634 1243.96 182.893 1244.57 182.534C1245.13 182.151 1245.92 182.318 1246.32 182.869C1246.7 183.419 1246.55 184.161 1245.97 184.519C1245.74 184.663 1245.51 184.711 1245.26 184.711C1244.85 184.711 1244.44 184.543 1244.19 184.185ZM1261.82 175.022C1261.54 174.4 1261.84 173.706 1262.5 173.443C1263.14 173.204 1263.87 173.467 1264.15 174.089C1264.43 174.687 1264.13 175.405 1263.49 175.644C1263.31 175.716 1263.16 175.739 1262.98 175.739C1262.5 175.739 1262.02 175.476 1261.82 175.022ZM1321.42 172.39C1320.76 172.151 1320.46 171.457 1320.71 170.859C1320.97 170.237 1321.68 169.926 1322.34 170.165C1323 170.405 1323.33 171.098 1323.07 171.72C1322.87 172.175 1322.39 172.486 1321.88 172.486C1321.73 172.486 1321.57 172.462 1321.42 172.39ZM1280.96 169.16C1280.81 168.515 1281.27 167.893 1281.96 167.749C1281.96 167.749 1281.96 167.749 1281.96 167.773C1282.64 167.629 1283.3 168.06 1283.45 168.706C1283.58 169.352 1283.15 169.974 1282.46 170.117H1282.44C1282.36 170.117 1282.29 170.141 1282.21 170.141C1281.6 170.141 1281.07 169.735 1280.96 169.16ZM1300.98 167.39C1301 166.744 1301.59 166.218 1302.3 166.266C1303.01 166.29 1303.54 166.864 1303.49 167.51C1303.47 168.18 1302.88 168.682 1302.17 168.658C1301.46 168.61 1300.93 168.06 1300.98 167.39Z" fill="#9DA6B8"/>
<path d="M-24.381 324.906C-25.0921 324.906 -25.6508 324.356 -25.6508 323.71C-25.6508 323.04 -25.0667 322.514 -24.381 322.514C-23.6698 322.514 -23.1111 323.064 -23.1111 323.71C-23.1111 324.38 -23.6952 324.906 -24.381 324.906ZM-5.48572 321.533C-5.66349 320.887 -5.25714 320.241 -4.59683 320.073C-3.91111 319.882 -3.2254 320.265 -3.02223 320.911C-2.84445 321.533 -3.2254 322.203 -3.91111 322.37C-4.0381 322.394 -4.13969 322.418 -4.24127 322.418C-4.8 322.418 -5.30794 322.059 -5.48572 321.533ZM-44.8254 321.963C-45.4857 321.772 -45.8667 321.102 -45.6635 320.456C-45.4349 319.834 -44.7238 319.475 -44.0635 319.691C-43.4032 319.882 -43.0222 320.552 -43.2254 321.174C-43.4032 321.7 -43.9111 322.011 -44.4444 322.011C-44.5714 322.011 -44.6984 321.987 -44.8254 321.963ZM13.2317 314.14C12.8508 313.566 13.0286 312.825 13.6381 312.49C14.2222 312.131 15.0095 312.298 15.3905 312.849C15.746 313.423 15.5683 314.14 14.9841 314.499C14.7809 314.619 14.5524 314.691 14.2984 314.691C13.8921 314.691 13.4857 314.499 13.2317 314.14ZM-63.0603 312.657C-63.5937 312.227 -63.6444 311.461 -63.1873 310.959C-62.7302 310.456 -61.9429 310.408 -61.4095 310.839C-60.8762 311.246 -60.8254 312.011 -61.2571 312.514C-61.5111 312.801 -61.8667 312.944 -62.2476 312.944C-62.527 312.944 -62.8317 312.849 -63.0603 312.657ZM29.3841 302.514C28.9016 302.035 28.927 301.269 29.4349 300.815C29.9429 300.36 30.7556 300.384 31.2381 300.863C31.7206 301.341 31.6952 302.107 31.1873 302.561C30.9333 302.777 30.6286 302.896 30.3238 302.896C29.9682 302.896 29.6381 302.753 29.3841 302.514ZM43.2 288.422C42.6413 288.016 42.5397 287.25 42.9714 286.748C43.4286 286.222 44.2159 286.126 44.7746 286.556C45.3079 286.963 45.4095 287.705 44.9778 288.231C44.7238 288.518 44.3429 288.686 43.9873 288.686C43.7079 288.686 43.4286 288.59 43.2 288.422ZM55.1365 272.896C54.5524 272.513 54.3746 271.772 54.781 271.221H54.7556C55.1619 270.671 55.9492 270.528 56.5333 270.886C57.1175 271.245 57.2698 271.987 56.8889 272.537C56.6349 272.896 56.254 273.087 55.8222 273.087C55.5936 273.087 55.3397 273.016 55.1365 272.896ZM65.9556 256.628C65.3714 256.293 65.1683 255.551 65.5238 255.001C65.8794 254.427 66.6667 254.236 67.2762 254.594C67.8857 254.929 68.0635 255.647 67.7079 256.221C67.4794 256.604 67.0476 256.795 66.6159 256.795C66.3873 256.795 66.1587 256.748 65.9556 256.628ZM76.4698 240.192C75.8603 239.858 75.6825 239.116 76.0381 238.542C76.4191 237.992 77.2064 237.8 77.7905 238.159C78.4 238.494 78.5778 239.236 78.2222 239.81C77.9683 240.169 77.5619 240.36 77.1302 240.36C76.9016 240.36 76.673 240.312 76.4698 240.192ZM343.543 232.609C342.832 232.633 342.248 232.106 342.222 231.46C342.197 230.791 342.73 230.24 343.441 230.216C344.152 230.192 344.737 230.695 344.762 231.365C344.787 232.011 344.254 232.585 343.543 232.609ZM322.997 231.389C322.311 231.293 321.829 230.671 321.956 230.025C322.057 229.379 322.692 228.924 323.403 229.02C324.089 229.14 324.571 229.738 324.444 230.408C324.368 230.982 323.81 231.413 323.2 231.413C323.124 231.413 323.073 231.413 322.997 231.389ZM362.286 228.518C362.057 227.896 362.438 227.226 363.098 227.011C363.759 226.819 364.495 227.154 364.698 227.776C364.927 228.422 364.546 229.092 363.886 229.283C363.759 229.331 363.632 229.355 363.505 229.355C362.971 229.355 362.463 229.02 362.286 228.518ZM303.01 227.034C302.324 226.843 301.943 226.173 302.171 225.551C302.349 224.905 303.06 224.546 303.746 224.738C304.406 224.929 304.787 225.599 304.584 226.221C304.432 226.747 303.924 227.082 303.365 227.082C303.263 227.082 303.137 227.058 303.01 227.034ZM87.5937 224.116C87.0349 223.733 86.9079 222.991 87.3143 222.465V222.441C87.7206 221.915 88.5079 221.795 89.0667 222.178C89.6508 222.561 89.7778 223.302 89.3714 223.853C89.3714 223.853 89.3714 223.853 89.3714 223.829C89.1175 224.164 88.7365 224.331 88.3302 224.331C88.0762 224.331 87.8222 224.259 87.5937 224.116ZM283.733 220.408C283.098 220.144 282.794 219.451 283.073 218.829C283.352 218.231 284.089 217.944 284.749 218.207C285.384 218.47 285.689 219.164 285.41 219.762C285.206 220.24 284.749 220.503 284.241 220.503C284.089 220.503 283.911 220.479 283.733 220.408ZM380.419 220.001C379.987 219.475 380.089 218.733 380.648 218.326C381.206 217.92 381.994 218.015 382.425 218.542C382.857 219.068 382.756 219.81 382.197 220.216C381.968 220.384 381.714 220.456 381.435 220.456C381.054 220.456 380.673 220.312 380.419 220.001ZM265.295 212.034C264.686 211.699 264.457 210.982 264.787 210.408C265.117 209.809 265.879 209.594 266.514 209.905L266.489 209.929C267.124 210.24 267.352 210.958 267.022 211.532C266.794 211.939 266.362 212.154 265.905 212.154C265.702 212.154 265.498 212.13 265.295 212.034ZM100.114 208.972C99.5809 208.542 99.5302 207.8 99.9873 207.298C100.47 206.795 101.257 206.747 101.79 207.178C102.324 207.632 102.349 208.398 101.892 208.876C101.638 209.14 101.308 209.283 100.952 209.283C100.648 209.283 100.343 209.187 100.114 208.972ZM394.438 206.221C393.829 205.862 393.676 205.12 394.057 204.57C394.438 203.996 395.225 203.853 395.81 204.211C396.394 204.57 396.571 205.312 396.19 205.862C395.937 206.221 395.53 206.412 395.124 206.412C394.87 206.412 394.641 206.341 394.438 206.221ZM247.39 202.872C246.781 202.561 246.527 201.843 246.883 201.269C247.213 200.671 247.975 200.455 248.584 200.79C249.219 201.101 249.448 201.819 249.117 202.393C248.863 202.8 248.432 203.015 248 203.015C247.797 203.015 247.568 202.991 247.39 202.872ZM114.54 195.479C114.083 194.953 114.184 194.211 114.717 193.781C115.251 193.374 116.064 193.446 116.495 193.948C116.952 194.451 116.876 195.216 116.317 195.647C116.089 195.814 115.81 195.91 115.505 195.91C115.149 195.91 114.794 195.766 114.54 195.479ZM229.333 194.068C228.724 193.781 228.444 193.063 228.775 192.465C229.079 191.867 229.841 191.628 230.451 191.915H230.476C231.086 192.202 231.365 192.919 231.035 193.518C230.832 193.948 230.375 194.187 229.892 194.187C229.714 194.187 229.537 194.163 229.333 194.068ZM403.2 188.996C402.54 188.805 402.159 188.135 402.387 187.489C402.59 186.867 403.302 186.508 403.962 186.723C404.648 186.915 405.003 187.584 404.8 188.206C404.622 188.733 404.114 189.044 403.581 189.044C403.454 189.044 403.327 189.02 403.2 188.996ZM210.844 186.269C210.184 186.029 209.879 185.336 210.133 184.714C210.387 184.092 211.124 183.805 211.784 184.044C212.444 184.283 212.749 184.977 212.495 185.599C212.292 186.077 211.81 186.364 211.327 186.364C211.149 186.364 210.997 186.34 210.844 186.269ZM131.327 184.69C131.022 184.116 131.276 183.398 131.886 183.087C132.521 182.8 133.283 183.039 133.613 183.613C133.917 184.211 133.664 184.929 133.029 185.216C132.851 185.312 132.673 185.36 132.47 185.36C132.013 185.36 131.556 185.12 131.327 184.69ZM191.644 180.36C190.984 180.216 190.578 179.57 190.73 178.924C190.908 178.278 191.594 177.895 192.279 178.063V178.039C192.94 178.206 193.371 178.852 193.194 179.498C193.067 180.049 192.533 180.407 191.975 180.407C191.873 180.407 191.746 180.383 191.644 180.36ZM150.375 178.039C150.222 177.393 150.654 176.747 151.365 176.627H151.34C152.051 176.484 152.711 176.891 152.864 177.56C152.99 178.182 152.559 178.828 151.873 178.972C151.771 178.972 151.695 178.996 151.619 178.996C151.035 178.996 150.502 178.613 150.375 178.039ZM171.81 177.537C171.098 177.489 170.565 176.938 170.59 176.269C170.616 175.623 171.225 175.096 171.937 175.144C172.622 175.168 173.156 175.718 173.13 176.388C173.105 177.034 172.546 177.537 171.86 177.537C171.835 177.537 171.835 177.537 171.81 177.537ZM407.822 170.336C407.111 170.216 406.654 169.618 406.756 168.972C406.857 168.302 407.517 167.871 408.203 167.967C408.889 168.063 409.371 168.661 409.27 169.331C409.168 169.905 408.635 170.336 408 170.336C407.949 170.336 407.873 170.336 407.822 170.336ZM410.21 151.268C409.524 151.221 409.016 150.622 409.067 149.977C409.143 149.307 409.752 148.828 410.463 148.9C411.149 148.948 411.657 149.522 411.606 150.192C411.53 150.814 410.971 151.268 410.337 151.268C410.286 151.268 410.26 151.268 410.21 151.268ZM412.14 132.153C411.429 132.082 410.921 131.484 410.997 130.838C411.073 130.168 411.708 129.689 412.419 129.785C413.105 129.833 413.613 130.431 413.537 131.101C413.46 131.699 412.902 132.153 412.267 132.153C412.216 132.153 412.165 132.153 412.14 132.153ZM415.086 113.182C414.375 113.038 413.943 112.393 414.095 111.747C414.248 111.125 414.908 110.694 415.594 110.838C416.279 110.981 416.737 111.603 416.584 112.249C416.457 112.823 415.924 113.206 415.34 113.206C415.238 113.206 415.162 113.182 415.086 113.182ZM420.724 94.7609C420.064 94.5216 419.759 93.8278 420.038 93.2058C420.292 92.6077 421.054 92.2967 421.689 92.5599C422.349 92.823 422.654 93.5168 422.375 94.1388C422.171 94.5934 421.689 94.8566 421.206 94.8566C421.029 94.8566 420.876 94.8326 420.724 94.7609ZM430.629 78.11C430.095 77.7033 429.994 76.9378 430.425 76.4354C430.883 75.9091 431.67 75.8134 432.229 76.244C432.762 76.6507 432.864 77.3923 432.432 77.9186C432.178 78.2057 431.797 78.3732 431.441 78.3732C431.162 78.3732 430.883 78.2775 430.629 78.11ZM662.959 76.1722C662.273 76.1244 661.74 75.5502 661.765 74.9043C661.816 74.2344 662.4 73.732 663.111 73.7798C663.797 73.8038 664.33 74.3779 664.305 75.0239C664.254 75.6698 663.695 76.1722 663.035 76.1722C663.01 76.1722 662.984 76.1722 662.959 76.1722ZM682.133 74.9043C682.057 74.2583 682.591 73.6842 683.302 73.6363C683.987 73.5885 684.597 74.0669 684.648 74.7368C684.698 75.3827 684.191 75.9569 683.479 76.0047C683.454 76.0047 683.403 76.0047 683.378 76.0047C682.717 76.0047 682.159 75.5502 682.133 74.9043ZM642.591 74.0669C641.905 73.9473 641.422 73.3492 641.549 72.7033C641.651 72.0334 642.311 71.6028 642.997 71.6985C643.683 71.7942 644.165 72.4162 644.038 73.0621C643.962 73.6602 643.403 74.0669 642.794 74.0669C642.718 74.0669 642.667 74.0669 642.591 74.0669ZM702.248 72.1291C702.07 71.4832 702.502 70.8372 703.187 70.6698C703.848 70.5023 704.533 70.909 704.711 71.531C704.889 72.177 704.457 72.8229 703.797 72.9904C703.695 73.0143 703.594 73.0382 703.492 73.0382C702.908 73.0382 702.4 72.6554 702.248 72.1291ZM622.552 70.2152C621.867 70.0478 621.435 69.4018 621.613 68.7798C621.765 68.1339 622.451 67.7272 623.137 67.8946C623.822 68.0382 624.254 68.6841 624.076 69.3301C623.924 69.8803 623.416 70.2392 622.832 70.2392C622.756 70.2392 622.654 70.2392 622.552 70.2152ZM721.473 65.8611C721.168 65.263 721.422 64.5453 722.057 64.2583C722.667 63.9712 723.429 64.2104 723.733 64.8085C724.064 65.4066 723.784 66.1243 723.175 66.4114C722.971 66.4831 722.794 66.531 722.616 66.531C722.133 66.531 721.676 66.2918 721.473 65.8611ZM602.819 65.3109C602.133 65.1195 601.752 64.4496 601.93 63.8276C602.133 63.1817 602.819 62.8228 603.505 62.9903C604.165 63.1817 604.571 63.8276 604.368 64.4736C604.216 64.9999 603.708 65.3348 603.149 65.3348C603.022 65.3348 602.921 65.3348 602.819 65.3109ZM445.13 64.7128C444.724 64.1865 444.851 63.4209 445.435 63.0381H445.41C445.994 62.6554 446.781 62.775 447.187 63.3252C447.594 63.8515 447.467 64.5932 446.908 64.976C446.908 64.976 446.908 64.976 446.908 64.9999C446.679 65.1434 446.425 65.2152 446.171 65.2152C445.765 65.2152 445.384 65.0477 445.13 64.7128ZM583.213 59.9998C582.552 59.8324 582.146 59.1625 582.349 58.5166C582.552 57.8946 583.238 57.5118 583.924 57.7032C584.61 57.8946 584.99 58.5405 584.787 59.1864C584.635 59.7128 584.127 60.0477 583.568 60.0477C583.467 60.0477 583.34 60.0477 583.213 59.9998ZM738.667 55.6697C738.21 55.1912 738.26 54.4256 738.794 53.995C739.302 53.5644 740.114 53.6122 740.572 54.0907C741.029 54.5931 740.978 55.3587 740.47 55.7893C740.216 55.9807 739.911 56.0764 739.632 56.0764C739.276 56.0764 738.921 55.9568 738.667 55.6697ZM462.781 55.1912C462.502 54.5931 462.806 53.8993 463.441 53.6362C464.102 53.373 464.838 53.6601 465.117 54.2821C465.371 54.8802 465.092 55.5979 464.432 55.8371C464.279 55.9089 464.102 55.9328 463.949 55.9328C463.441 55.9328 462.984 55.6697 462.781 55.1912ZM563.606 54.952C562.921 54.7845 562.514 54.1386 562.692 53.4926C562.87 52.8467 563.556 52.4639 564.241 52.6314C564.927 52.7988 565.333 53.4448 565.156 54.0907C565.003 54.641 564.495 54.9998 563.937 54.9998C563.81 54.9998 563.708 54.9759 563.606 54.952ZM543.822 50.7653C543.137 50.6457 542.679 50.0237 542.806 49.3538C542.933 48.7318 543.594 48.3012 544.279 48.4208C544.99 48.5404 545.422 49.1624 545.295 49.8084C545.194 50.3826 544.66 50.7893 544.051 50.7893C543.975 50.7893 543.898 50.7893 543.822 50.7653ZM482.133 49.3299C481.981 48.684 482.413 48.038 483.098 47.8945H483.124C483.784 47.751 484.47 48.1816 484.622 48.8275C484.775 49.4735 484.317 50.0955 483.632 50.239C483.556 50.2629 483.479 50.2629 483.378 50.2629C482.794 50.2629 482.26 49.8802 482.133 49.3299ZM523.784 48.0859C523.098 48.038 522.565 47.4399 522.641 46.794C522.692 46.1241 523.327 45.6457 524.013 45.7174C524.724 45.7653 525.232 46.3395 525.156 47.0093C525.105 47.6313 524.546 48.0859 523.911 48.0859C523.86 48.0859 523.835 48.0859 523.784 48.0859ZM502.273 46.6265C502.248 45.9567 502.781 45.4064 503.492 45.3586C504.178 45.3347 504.787 45.8371 504.813 46.483C504.864 47.1529 504.33 47.7031 503.619 47.751C503.594 47.751 503.594 47.751 503.568 47.751C502.883 47.751 502.324 47.2725 502.273 46.6265ZM751.949 41.2198C751.34 40.8849 751.162 40.1432 751.543 39.593C751.899 39.0188 752.686 38.8274 753.27 39.1863C753.879 39.5212 754.057 40.2629 753.702 40.837C753.448 41.1959 753.041 41.4112 752.61 41.4112C752.381 41.4112 752.152 41.3394 751.949 41.2198ZM760.381 23.8273C759.721 23.636 759.314 22.99 759.518 22.3441C759.695 21.7221 760.406 21.3393 761.067 21.5307C761.752 21.6981 762.159 22.368 761.956 22.99C761.803 23.5163 761.295 23.8752 760.737 23.8752C760.61 23.8752 760.508 23.8513 760.381 23.8273ZM762.057 3.75543C762.032 3.08557 762.591 2.53533 763.302 2.51141C763.987 2.51141 764.571 3.0138 764.597 3.68366C764.622 4.35353 764.064 4.90377 763.352 4.90377C763.352 4.90377 763.352 4.90377 763.327 4.90377C762.641 4.90377 762.083 4.40137 762.057 3.75543ZM757.968 -14.4744C757.689 -15.0724 757.994 -15.7902 758.629 -16.0294C759.289 -16.3165 760.025 -16.0294 760.305 -15.4074C760.584 -14.8093 760.279 -14.1155 759.644 -13.8523C759.492 -13.7806 759.314 -13.7566 759.137 -13.7566C758.654 -13.7566 758.172 -14.0198 757.968 -14.4744Z" fill="#9DA6B8"/>
<path d="M-43.073 240.169C-45.9429 198.374 -24.8381 155.097 10.6921 129.905C46.1968 104.714 96.2032 97.5843 138.032 111.747C147.632 115.001 156.902 119.307 165.867 123.47C175.873 128.111 186.235 132.919 196.952 136.197C220.749 143.494 243.124 140.934 256.762 129.307C271.771 116.508 273.93 96.1728 275.987 76.5076C276.724 69.5937 277.46 62.4644 278.756 55.718C287.264 11.6746 325.79 -25.0242 372.444 -33.541L372.927 -31.1965C327.289 -22.8711 289.575 13.0382 281.27 56.1247C280 62.7515 279.238 69.8568 278.527 76.7229C276.419 96.8427 274.21 117.632 258.464 131.053C244.14 143.254 220.851 146.03 196.165 138.446C185.27 135.097 174.832 130.264 164.724 125.575C155.81 121.436 146.59 117.178 137.143 113.972C96.0762 100.072 47.0349 107.082 12.1905 131.795C-22.654 156.508 -43.3524 198.973 -40.5587 240.002L-43.073 240.169Z" fill="#2178FC" fill-opacity="0.39"/>
<path d="M629.156 520.167C609.524 486.028 631.162 442.152 663.695 422.607C692.241 405.453 729.956 399.903 779.048 405.645C792.99 407.272 807.086 409.616 820.724 411.889C845.308 415.98 870.73 420.19 896.025 420.358C896.482 420.358 896.914 420.358 897.371 420.358C942.324 420.358 979.911 405.764 1000.63 380.238C1011.68 366.625 1018.23 349.735 1024.56 333.42C1032.94 311.817 1041.6 289.496 1060.77 274.998C1095.14 249.017 1145.02 260.907 1177.3 278.969C1193.63 288.108 1208.79 299.424 1223.44 310.381C1240.36 323.013 1257.85 336.075 1277.13 345.74C1311.37 362.893 1361.09 368.372 1389.41 339.927L1391.26 341.554C1362.03 370.932 1310.98 365.405 1275.94 347.845C1256.46 338.085 1238.86 324.951 1221.87 312.247C1207.29 301.362 1192.2 290.07 1176 281.027C1144.43 263.371 1095.72 251.673 1062.37 276.864C1043.73 290.955 1035.58 311.984 1026.95 334.257C1020.55 350.74 1013.94 367.798 1002.64 381.697C981.232 408.085 942.451 423.061 896.025 422.75C870.527 422.583 844.978 418.348 820.292 414.257C806.705 412.009 792.635 409.664 778.743 408.037C730.26 402.367 693.079 407.798 665.067 424.64C633.473 443.612 612.419 486.1 631.39 519.043L629.156 520.167Z" fill="#2178FC" fill-opacity="0.39"/>
</g>
<defs>
<clipPath id="clip0">
<rect width="1280" height="482" fill="white"/>
</clipPath>
</defs>
</svg>
