<svg width="1280" height="482" viewBox="0 0 1280 482" fill="none" xmlns="http://www.w3.org/2000/svg">
<g clip-path="url(#clip0)">
<path d="M99.7949 306.877C111.064 246.764 71.291 189.897 10.9603 179.862C-49.3704 169.826 -107.413 210.422 -118.682 270.535C-129.951 330.649 -90.178 387.515 -29.8473 397.551C30.4835 407.586 88.5262 366.99 99.7949 306.877Z" fill="#98C1FF" fill-opacity="0.31"/>
<g opacity="0.2">
<g opacity="0.2">
<path opacity="0.2" d="M1185.93 384.907C1027.1 384.907 897.904 263.184 897.904 113.589C897.904 -36.0291 1027.12 -157.729 1185.93 -157.729C1344.76 -157.729 1473.96 -36.0052 1473.96 113.589C1473.96 263.207 1344.76 384.907 1185.93 384.907ZM1185.93 -155.934C1028.16 -155.934 899.809 -35.0243 899.809 113.589C899.809 262.203 1028.16 383.113 1185.93 383.113C1343.69 383.113 1472.05 262.203 1472.05 113.589C1472.05 -35.0243 1343.69 -155.934 1185.93 -155.934Z" fill="#2178FC" fill-opacity="0.39"/>
</g>
<g opacity="0.2">
<path opacity="0.2" d="M1185.93 339.835C1053.49 339.835 945.752 238.327 945.752 113.589C945.752 -11.1723 1053.51 -112.656 1185.93 -112.656C1318.35 -112.656 1426.11 -11.1723 1426.11 113.589C1426.13 238.351 1318.37 339.835 1185.93 339.835ZM1185.93 -110.862C1054.55 -110.862 947.657 -10.1675 947.657 113.589C947.657 237.346 1054.55 338.041 1185.93 338.041C1317.31 338.041 1424.2 237.346 1424.2 113.589C1424.23 -10.1675 1317.33 -110.862 1185.93 -110.862Z" fill="#2178FC" fill-opacity="0.39"/>
</g>
<g opacity="0.2">
<path opacity="0.2" d="M1185.93 294.763C1079.87 294.763 993.6 213.494 993.6 113.589C993.6 13.684 1079.87 -67.5845 1185.93 -67.5845C1291.99 -67.5845 1378.26 13.684 1378.26 113.589C1378.29 213.494 1291.99 294.763 1185.93 294.763ZM1185.93 -65.7902C1080.91 -65.7902 995.504 14.6888 995.504 113.589C995.504 212.489 1080.94 292.968 1185.93 292.968C1290.95 292.968 1376.36 212.489 1376.36 113.589C1376.36 14.6888 1290.95 -65.7902 1185.93 -65.7902Z" fill="#2178FC" fill-opacity="0.39"/>
</g>
<g opacity="0.2">
<path opacity="0.2" d="M1185.93 249.691C1106.26 249.691 1041.45 188.638 1041.45 113.589C1041.45 38.5408 1106.26 -22.5122 1185.93 -22.5122C1265.6 -22.5122 1330.41 38.5408 1330.41 113.589C1330.41 188.638 1265.6 249.691 1185.93 249.691ZM1185.93 -20.7179C1107.3 -20.7179 1043.35 39.5456 1043.35 113.589C1043.35 187.633 1107.33 247.896 1185.93 247.896C1264.53 247.896 1328.51 187.633 1328.51 113.589C1328.51 39.5456 1264.56 -20.7179 1185.93 -20.7179Z" fill="#2178FC" fill-opacity="0.39"/>
</g>
<g opacity="0.2">
<path opacity="0.2" d="M1185.93 204.643C1132.65 204.643 1089.29 163.805 1089.29 113.613C1089.29 63.4216 1132.65 22.584 1185.93 22.584C1239.21 22.584 1282.56 63.4216 1282.56 113.613C1282.59 163.781 1239.24 204.643 1185.93 204.643ZM1185.93 24.3543C1133.69 24.3543 1091.2 64.3785 1091.2 113.589C1091.2 162.8 1133.69 202.824 1185.93 202.824C1238.17 202.824 1280.66 162.8 1280.66 113.589C1280.69 64.3785 1238.17 24.3543 1185.93 24.3543Z" fill="#2178FC" fill-opacity="0.39"/>
</g>
<g opacity="0.2">
<path opacity="0.2" d="M1185.93 159.57C1159.01 159.57 1137.14 138.948 1137.14 113.613C1137.14 88.2779 1159.03 67.6558 1185.93 67.6558C1212.82 67.6558 1234.72 88.2779 1234.72 113.613C1234.74 138.948 1212.85 159.57 1185.93 159.57ZM1185.93 69.4261C1160.08 69.4261 1139.05 89.2349 1139.05 113.589C1139.05 137.943 1160.08 157.752 1185.93 157.752C1211.78 157.752 1232.81 137.943 1232.81 113.589C1232.84 89.2349 1211.78 69.4261 1185.93 69.4261Z" fill="#2178FC" fill-opacity="0.39"/>
</g>
</g>
<path d="M-24.381 324.906C-25.0921 324.906 -25.6509 324.356 -25.6509 323.71C-25.6509 323.04 -25.0667 322.514 -24.381 322.514C-23.6699 322.514 -23.1112 323.064 -23.1112 323.71C-23.1112 324.38 -23.6953 324.906 -24.381 324.906ZM-5.48578 321.533C-5.66356 320.887 -5.25721 320.241 -4.59689 320.073C-3.91117 319.882 -3.22546 320.265 -3.02229 320.911C-2.84451 321.533 -3.22546 322.203 -3.91117 322.37C-4.03816 322.394 -4.13975 322.418 -4.24133 322.418C-4.80006 322.418 -5.308 322.059 -5.48578 321.533ZM-44.8255 321.963C-45.4858 321.772 -45.8667 321.102 -45.6636 320.456C-45.435 319.834 -44.7239 319.475 -44.0636 319.691C-43.4032 319.882 -43.0223 320.552 -43.2255 321.174C-43.4032 321.7 -43.9112 322.011 -44.4445 322.011C-44.5715 322.011 -44.6985 321.987 -44.8255 321.963ZM13.2317 314.14C12.8507 313.566 13.0285 312.825 13.638 312.49C14.2222 312.131 15.0095 312.298 15.3904 312.849C15.746 313.423 15.5682 314.14 14.9841 314.499C14.7809 314.619 14.5523 314.691 14.2984 314.691C13.892 314.691 13.4857 314.499 13.2317 314.14ZM-63.0604 312.657C-63.5937 312.227 -63.6445 311.461 -63.1874 310.959C-62.7302 310.456 -61.9429 310.408 -61.4096 310.839C-60.8763 311.246 -60.8255 312.011 -61.2572 312.514C-61.5112 312.801 -61.8667 312.944 -62.2477 312.944C-62.527 312.944 -62.8318 312.849 -63.0604 312.657ZM29.3841 302.514C28.9015 302.035 28.9269 301.269 29.4349 300.815C29.9428 300.36 30.7555 300.384 31.238 300.863C31.7206 301.341 31.6952 302.107 31.1872 302.561C30.9333 302.777 30.6285 302.896 30.3237 302.896C29.9682 302.896 29.638 302.753 29.3841 302.514ZM43.1999 288.422C42.6412 288.016 42.5396 287.25 42.9714 286.748C43.4285 286.222 44.2158 286.126 44.7745 286.556C45.3079 286.963 45.4095 287.705 44.9777 288.231C44.7237 288.518 44.3428 288.686 43.9872 288.686C43.7079 288.686 43.4285 288.59 43.1999 288.422ZM55.1364 272.896C54.5523 272.513 54.3745 271.772 54.7809 271.221H54.7555C55.1618 270.671 55.9491 270.528 56.5333 270.886C57.1174 271.245 57.2698 271.987 56.8888 272.537C56.6349 272.896 56.2539 273.087 55.8222 273.087C55.5936 273.087 55.3396 273.016 55.1364 272.896ZM65.9555 256.628C65.3714 256.293 65.1682 255.551 65.5237 255.001C65.8793 254.427 66.6666 254.236 67.2761 254.594C67.8857 254.929 68.0634 255.647 67.7079 256.221C67.4793 256.604 67.0476 256.795 66.6158 256.795C66.3872 256.795 66.1587 256.748 65.9555 256.628ZM76.4698 240.192C75.8603 239.858 75.6825 239.116 76.038 238.542C76.419 237.992 77.2063 237.8 77.7904 238.159C78.3999 238.494 78.5777 239.236 78.2222 239.81C77.9682 240.169 77.5619 240.36 77.1301 240.36C76.9015 240.36 76.673 240.312 76.4698 240.192ZM343.543 232.609C342.832 232.633 342.248 232.106 342.222 231.46C342.197 230.791 342.73 230.24 343.441 230.216C344.152 230.192 344.736 230.695 344.762 231.365C344.787 232.011 344.254 232.585 343.543 232.609ZM322.997 231.389C322.311 231.293 321.829 230.671 321.956 230.025C322.057 229.379 322.692 228.924 323.403 229.02C324.089 229.14 324.571 229.738 324.444 230.408C324.368 230.982 323.809 231.413 323.2 231.413C323.124 231.413 323.073 231.413 322.997 231.389ZM362.286 228.518C362.057 227.896 362.438 227.226 363.098 227.011C363.759 226.819 364.495 227.154 364.698 227.776C364.927 228.422 364.546 229.092 363.886 229.283C363.759 229.331 363.632 229.355 363.505 229.355C362.971 229.355 362.463 229.02 362.286 228.518ZM303.009 227.034C302.324 226.843 301.943 226.173 302.171 225.551C302.349 224.905 303.06 224.546 303.746 224.738C304.406 224.929 304.787 225.599 304.584 226.221C304.432 226.747 303.924 227.082 303.365 227.082C303.263 227.082 303.136 227.058 303.009 227.034ZM87.5936 224.116C87.0349 223.733 86.9079 222.991 87.3142 222.465V222.441C87.7206 221.915 88.5079 221.795 89.0666 222.178C89.6507 222.561 89.7777 223.302 89.3714 223.853C89.3714 223.853 89.3714 223.853 89.3714 223.829C89.1174 224.164 88.7364 224.331 88.3301 224.331C88.0761 224.331 87.8222 224.259 87.5936 224.116ZM283.733 220.408C283.098 220.144 282.794 219.451 283.073 218.829C283.352 218.231 284.089 217.944 284.749 218.207C285.384 218.47 285.689 219.164 285.409 219.762C285.206 220.24 284.749 220.503 284.241 220.503C284.089 220.503 283.911 220.479 283.733 220.408ZM380.419 220.001C379.987 219.475 380.089 218.733 380.648 218.326C381.206 217.92 381.994 218.015 382.425 218.542C382.857 219.068 382.756 219.81 382.197 220.216C381.968 220.384 381.714 220.456 381.435 220.456C381.054 220.456 380.673 220.312 380.419 220.001ZM265.295 212.034C264.686 211.699 264.457 210.982 264.787 210.408C265.117 209.809 265.879 209.594 266.514 209.905L266.489 209.929C267.124 210.24 267.352 210.958 267.022 211.532C266.794 211.939 266.362 212.154 265.905 212.154C265.702 212.154 265.498 212.13 265.295 212.034ZM100.114 208.972C99.5809 208.542 99.5301 207.8 99.9872 207.298C100.47 206.795 101.257 206.747 101.79 207.178C102.324 207.632 102.349 208.398 101.892 208.876C101.638 209.14 101.308 209.283 100.952 209.283C100.648 209.283 100.343 209.187 100.114 208.972ZM394.438 206.221C393.829 205.862 393.676 205.12 394.057 204.57C394.438 203.996 395.225 203.853 395.809 204.211C396.394 204.57 396.571 205.312 396.19 205.862C395.936 206.221 395.53 206.412 395.124 206.412C394.87 206.412 394.641 206.341 394.438 206.221ZM247.39 202.872C246.781 202.561 246.527 201.843 246.882 201.269C247.213 200.671 247.975 200.455 248.584 200.79C249.219 201.101 249.448 201.819 249.117 202.393C248.863 202.8 248.432 203.015 248 203.015C247.797 203.015 247.568 202.991 247.39 202.872ZM114.54 195.479C114.082 194.953 114.184 194.211 114.717 193.781C115.251 193.374 116.063 193.446 116.495 193.948C116.952 194.451 116.876 195.216 116.317 195.647C116.089 195.814 115.809 195.91 115.505 195.91C115.149 195.91 114.794 195.766 114.54 195.479ZM229.333 194.068C228.724 193.781 228.444 193.063 228.775 192.465C229.079 191.867 229.841 191.628 230.451 191.915H230.476C231.086 192.202 231.365 192.919 231.035 193.518C230.832 193.948 230.375 194.187 229.892 194.187C229.714 194.187 229.536 194.163 229.333 194.068ZM403.2 188.996C402.54 188.805 402.159 188.135 402.387 187.489C402.59 186.867 403.302 186.508 403.962 186.723C404.648 186.915 405.003 187.584 404.8 188.206C404.622 188.733 404.114 189.044 403.581 189.044C403.454 189.044 403.327 189.02 403.2 188.996ZM210.844 186.269C210.184 186.029 209.879 185.336 210.133 184.714C210.387 184.092 211.124 183.805 211.784 184.044C212.444 184.283 212.749 184.977 212.495 185.599C212.292 186.077 211.809 186.364 211.327 186.364C211.149 186.364 210.997 186.34 210.844 186.269ZM131.327 184.69C131.022 184.116 131.276 183.398 131.886 183.087C132.521 182.8 133.282 183.039 133.613 183.613C133.917 184.211 133.663 184.929 133.029 185.216C132.851 185.312 132.673 185.36 132.47 185.36C132.013 185.36 131.555 185.12 131.327 184.69ZM191.644 180.36C190.984 180.216 190.578 179.57 190.73 178.924C190.908 178.278 191.594 177.895 192.279 178.063V178.039C192.94 178.206 193.371 178.852 193.194 179.498C193.067 180.049 192.533 180.407 191.975 180.407C191.873 180.407 191.746 180.383 191.644 180.36ZM150.375 178.039C150.222 177.393 150.654 176.747 151.365 176.627H151.34C152.051 176.484 152.711 176.891 152.863 177.56C152.99 178.182 152.559 178.828 151.873 178.972C151.771 178.972 151.695 178.996 151.619 178.996C151.035 178.996 150.502 178.613 150.375 178.039ZM171.809 177.537C171.098 177.489 170.565 176.938 170.59 176.269C170.616 175.623 171.225 175.096 171.936 175.144C172.622 175.168 173.155 175.718 173.13 176.388C173.105 177.034 172.546 177.537 171.86 177.537C171.835 177.537 171.835 177.537 171.809 177.537ZM407.822 170.336C407.111 170.216 406.654 169.618 406.756 168.972C406.857 168.302 407.517 167.871 408.203 167.967C408.889 168.063 409.371 168.661 409.27 169.331C409.168 169.905 408.635 170.336 408 170.336C407.949 170.336 407.873 170.336 407.822 170.336ZM410.209 151.268C409.524 151.221 409.016 150.622 409.067 149.977C409.143 149.307 409.752 148.828 410.463 148.9C411.149 148.948 411.657 149.522 411.606 150.192C411.53 150.814 410.971 151.268 410.336 151.268C410.286 151.268 410.26 151.268 410.209 151.268ZM412.14 132.153C411.429 132.082 410.921 131.484 410.997 130.838C411.073 130.168 411.708 129.689 412.419 129.785C413.105 129.833 413.613 130.431 413.536 131.101C413.46 131.699 412.902 132.153 412.267 132.153C412.216 132.153 412.165 132.153 412.14 132.153ZM415.086 113.182C414.375 113.038 413.943 112.393 414.095 111.747C414.248 111.125 414.908 110.694 415.594 110.838C416.279 110.981 416.736 111.603 416.584 112.249C416.457 112.823 415.924 113.206 415.34 113.206C415.238 113.206 415.162 113.182 415.086 113.182ZM420.724 94.7609C420.063 94.5216 419.759 93.8278 420.038 93.2058C420.292 92.6077 421.054 92.2967 421.689 92.5599C422.349 92.823 422.654 93.5168 422.375 94.1388C422.171 94.5934 421.689 94.8566 421.206 94.8566C421.029 94.8566 420.876 94.8326 420.724 94.7609ZM430.629 78.11C430.095 77.7033 429.994 76.9378 430.425 76.4354C430.882 75.9091 431.67 75.8134 432.229 76.244C432.762 76.6507 432.863 77.3923 432.432 77.9186C432.178 78.2057 431.797 78.3732 431.441 78.3732C431.162 78.3732 430.882 78.2775 430.629 78.11ZM662.959 76.1722C662.273 76.1244 661.74 75.5502 661.765 74.9043C661.816 74.2344 662.4 73.732 663.111 73.7798C663.797 73.8038 664.33 74.3779 664.305 75.0239C664.254 75.6698 663.695 76.1722 663.035 76.1722C663.01 76.1722 662.984 76.1722 662.959 76.1722ZM682.133 74.9043C682.057 74.2583 682.59 73.6842 683.302 73.6363C683.987 73.5885 684.597 74.0669 684.648 74.7368C684.698 75.3827 684.19 75.9569 683.479 76.0047C683.454 76.0047 683.403 76.0047 683.378 76.0047C682.717 76.0047 682.159 75.5502 682.133 74.9043ZM642.59 74.0669C641.905 73.9473 641.422 73.3492 641.549 72.7033C641.651 72.0334 642.311 71.6028 642.997 71.6985C643.683 71.7942 644.165 72.4162 644.038 73.0621C643.962 73.6602 643.403 74.0669 642.794 74.0669C642.717 74.0669 642.667 74.0669 642.59 74.0669ZM702.248 72.1291C702.07 71.4832 702.502 70.8372 703.187 70.6698C703.848 70.5023 704.533 70.909 704.711 71.531C704.889 72.177 704.457 72.8229 703.797 72.9904C703.695 73.0143 703.594 73.0382 703.492 73.0382C702.908 73.0382 702.4 72.6554 702.248 72.1291ZM622.552 70.2152C621.867 70.0478 621.435 69.4018 621.613 68.7798C621.765 68.1339 622.451 67.7272 623.136 67.8946C623.822 68.0382 624.254 68.6841 624.076 69.3301C623.924 69.8803 623.416 70.2392 622.832 70.2392C622.756 70.2392 622.654 70.2392 622.552 70.2152ZM721.473 65.8611C721.168 65.263 721.422 64.5453 722.057 64.2583C722.667 63.9712 723.429 64.2104 723.733 64.8085C724.063 65.4066 723.784 66.1243 723.175 66.4114C722.971 66.4831 722.794 66.531 722.616 66.531C722.133 66.531 721.676 66.2918 721.473 65.8611ZM602.819 65.3109C602.133 65.1195 601.752 64.4496 601.93 63.8276C602.133 63.1817 602.819 62.8228 603.505 62.9903C604.165 63.1817 604.571 63.8276 604.368 64.4736C604.216 64.9999 603.708 65.3348 603.149 65.3348C603.022 65.3348 602.921 65.3348 602.819 65.3109ZM445.13 64.7128C444.724 64.1865 444.851 63.4209 445.435 63.0381H445.409C445.994 62.6554 446.781 62.775 447.187 63.3252C447.594 63.8515 447.467 64.5932 446.908 64.976C446.908 64.976 446.908 64.976 446.908 64.9999C446.679 65.1434 446.425 65.2152 446.171 65.2152C445.765 65.2152 445.384 65.0477 445.13 64.7128ZM583.213 59.9998C582.552 59.8324 582.146 59.1625 582.349 58.5166C582.552 57.8946 583.238 57.5118 583.924 57.7032C584.609 57.8946 584.99 58.5405 584.787 59.1864C584.635 59.7128 584.127 60.0477 583.568 60.0477C583.467 60.0477 583.34 60.0477 583.213 59.9998ZM738.667 55.6697C738.21 55.1912 738.26 54.4256 738.794 53.995C739.302 53.5644 740.114 53.6122 740.571 54.0907C741.029 54.5931 740.978 55.3587 740.47 55.7893C740.216 55.9807 739.911 56.0764 739.632 56.0764C739.276 56.0764 738.921 55.9568 738.667 55.6697ZM462.781 55.1912C462.502 54.5931 462.806 53.8993 463.441 53.6362C464.102 53.373 464.838 53.6601 465.117 54.2821C465.371 54.8802 465.092 55.5979 464.432 55.8371C464.279 55.9089 464.102 55.9328 463.949 55.9328C463.441 55.9328 462.984 55.6697 462.781 55.1912ZM563.606 54.952C562.921 54.7845 562.514 54.1386 562.692 53.4926C562.87 52.8467 563.556 52.4639 564.241 52.6314C564.927 52.7988 565.333 53.4448 565.156 54.0907C565.003 54.641 564.495 54.9998 563.936 54.9998C563.809 54.9998 563.708 54.9759 563.606 54.952ZM543.822 50.7653C543.136 50.6457 542.679 50.0237 542.806 49.3538C542.933 48.7318 543.594 48.3012 544.279 48.4208C544.99 48.5404 545.422 49.1624 545.295 49.8084C545.194 50.3826 544.66 50.7893 544.051 50.7893C543.975 50.7893 543.898 50.7893 543.822 50.7653ZM482.133 49.3299C481.981 48.684 482.413 48.038 483.098 47.8945H483.124C483.784 47.751 484.47 48.1816 484.622 48.8275C484.775 49.4735 484.317 50.0955 483.632 50.239C483.555 50.2629 483.479 50.2629 483.378 50.2629C482.794 50.2629 482.26 49.8802 482.133 49.3299ZM523.784 48.0859C523.098 48.038 522.565 47.4399 522.641 46.794C522.692 46.1241 523.327 45.6457 524.013 45.7174C524.724 45.7653 525.232 46.3395 525.156 47.0093C525.105 47.6313 524.546 48.0859 523.911 48.0859C523.86 48.0859 523.835 48.0859 523.784 48.0859ZM502.273 46.6265C502.248 45.9567 502.781 45.4064 503.492 45.3586C504.178 45.3347 504.787 45.8371 504.813 46.483C504.863 47.1529 504.33 47.7031 503.619 47.751C503.594 47.751 503.594 47.751 503.568 47.751C502.882 47.751 502.324 47.2725 502.273 46.6265ZM751.949 41.2198C751.34 40.8849 751.162 40.1432 751.543 39.593C751.898 39.0188 752.686 38.8274 753.27 39.1863C753.879 39.5212 754.057 40.2629 753.702 40.837C753.448 41.1959 753.041 41.4112 752.61 41.4112C752.381 41.4112 752.152 41.3394 751.949 41.2198ZM760.381 23.8273C759.721 23.636 759.314 22.99 759.517 22.3441C759.695 21.7221 760.406 21.3393 761.067 21.5307C761.752 21.6981 762.159 22.368 761.956 22.99C761.803 23.5163 761.295 23.8752 760.737 23.8752C760.61 23.8752 760.508 23.8513 760.381 23.8273ZM762.057 3.75543C762.032 3.08557 762.59 2.53533 763.302 2.51141C763.987 2.51141 764.571 3.0138 764.597 3.68366C764.622 4.35353 764.064 4.90377 763.352 4.90377C763.352 4.90377 763.352 4.90377 763.327 4.90377C762.641 4.90377 762.083 4.40137 762.057 3.75543ZM757.968 -14.4744C757.689 -15.0724 757.994 -15.7902 758.629 -16.0294C759.289 -16.3165 760.025 -16.0294 760.305 -15.4074C760.584 -14.8093 760.279 -14.1155 759.644 -13.8523C759.492 -13.7806 759.314 -13.7566 759.137 -13.7566C758.654 -13.7566 758.171 -14.0198 757.968 -14.4744Z" fill="#9DA6B8"/>
<path d="M-43.073 240.169C-45.9429 198.374 -24.8381 155.097 10.6921 129.905C46.1968 104.714 96.2032 97.5843 138.032 111.747C147.632 115.001 156.902 119.307 165.867 123.47C175.873 128.111 186.235 132.919 196.952 136.197C220.749 143.494 243.124 140.934 256.762 129.307C271.771 116.508 273.93 96.1728 275.987 76.5076C276.724 69.5937 277.46 62.4644 278.756 55.718C287.264 11.6746 325.79 -25.0242 372.444 -33.541L372.927 -31.1965C327.289 -22.8711 289.575 13.0382 281.27 56.1247C280 62.7515 279.238 69.8568 278.527 76.7229C276.419 96.8427 274.21 117.632 258.464 131.053C244.14 143.254 220.851 146.03 196.165 138.446C185.27 135.097 174.832 130.264 164.724 125.575C155.81 121.436 146.59 117.178 137.143 113.972C96.0762 100.072 47.0349 107.082 12.1905 131.795C-22.654 156.508 -43.3524 198.973 -40.5587 240.002L-43.073 240.169Z" fill="#2178FC" fill-opacity="0.39"/>
<path d="M836.393 61.2675C836.063 61.2675 835.759 61.1479 835.505 60.9086C835.378 60.8129 835.301 60.6694 835.225 60.5258C835.174 60.3823 835.124 60.2388 835.124 60.0713C835.124 59.9278 835.174 59.7603 835.225 59.6168C835.301 59.4732 835.378 59.3297 835.505 59.234C835.987 58.7794 836.825 58.7794 837.308 59.234C837.409 59.3297 837.511 59.4732 837.587 59.6168C837.638 59.7603 837.663 59.9278 837.663 60.0713C837.663 60.2388 837.638 60.3823 837.587 60.5258C837.511 60.6694 837.409 60.8129 837.308 60.9086C837.181 61.0282 837.054 61.1239 836.876 61.1718C836.724 61.2436 836.571 61.2675 836.393 61.2675Z" fill="#9DA6B8"/>
<path d="M1217.09 60.0722C1217.09 59.4023 1217.65 58.876 1218.36 58.876C1219.07 58.876 1219.63 59.4023 1219.63 60.0722C1219.63 60.742 1219.07 61.2683 1218.36 61.2683C1217.65 61.2683 1217.09 60.742 1217.09 60.0722ZM1197 60.0722C1197 59.4023 1197.56 58.876 1198.25 58.876C1198.96 58.876 1199.52 59.4023 1199.52 60.0722C1199.52 60.742 1198.96 61.2683 1198.25 61.2683C1197.56 61.2683 1197 60.742 1197 60.0722ZM1176.89 60.0722C1176.89 59.4023 1177.45 58.876 1178.16 58.876C1178.84 58.876 1179.43 59.4023 1179.43 60.0722C1179.43 60.742 1178.84 61.2683 1178.16 61.2683C1177.45 61.2683 1176.89 60.742 1176.89 60.0722ZM1156.77 60.0722C1156.77 59.4023 1157.36 58.876 1158.04 58.876C1158.76 58.876 1159.31 59.4023 1159.31 60.0722C1159.31 60.742 1158.76 61.2683 1158.04 61.2683C1157.36 61.2683 1156.77 60.742 1156.77 60.0722ZM1136.69 60.0722C1136.69 59.4023 1137.24 58.876 1137.96 58.876C1138.64 58.876 1139.23 59.4023 1139.23 60.0722C1139.23 60.742 1138.64 61.2683 1137.96 61.2683C1137.24 61.2683 1136.69 60.742 1136.69 60.0722ZM1116.57 60.0722C1116.57 59.4023 1117.16 58.876 1117.84 58.876C1118.55 58.876 1119.11 59.4023 1119.11 60.0722C1119.11 60.742 1118.55 61.2683 1117.84 61.2683C1117.16 61.2683 1116.57 60.742 1116.57 60.0722ZM1096.48 60.0722C1096.48 59.4023 1097.04 58.876 1097.75 58.876C1098.44 58.876 1099.02 59.4023 1099.02 60.0722C1099.02 60.742 1098.44 61.2683 1097.75 61.2683C1097.04 61.2683 1096.48 60.742 1096.48 60.0722ZM1076.37 60.0722C1076.37 59.4023 1076.93 58.876 1077.64 58.876C1078.35 58.876 1078.91 59.4023 1078.91 60.0722C1078.91 60.742 1078.35 61.2683 1077.64 61.2683C1076.93 61.2683 1076.37 60.742 1076.37 60.0722ZM1056.25 60.0722C1056.25 59.4023 1056.84 58.876 1057.52 58.876C1058.23 58.876 1058.79 59.4023 1058.79 60.0722C1058.79 60.742 1058.23 61.2683 1057.52 61.2683C1056.84 61.2683 1056.25 60.742 1056.25 60.0722ZM1036.17 60.0722C1036.17 59.4023 1036.72 58.876 1037.43 58.876C1038.12 58.876 1038.7 59.4023 1038.7 60.0722C1038.7 60.742 1038.12 61.2683 1037.43 61.2683C1036.72 61.2683 1036.17 60.742 1036.17 60.0722ZM1016.05 60.0722C1016.05 59.4023 1016.63 58.876 1017.32 58.876C1018.03 58.876 1018.59 59.4023 1018.59 60.0722C1018.59 60.742 1018.03 61.2683 1017.32 61.2683C1016.63 61.2683 1016.05 60.742 1016.05 60.0722ZM995.962 60.0722C995.962 59.4023 996.521 58.876 997.232 58.876C997.917 58.876 998.502 59.4023 998.502 60.0722C998.502 60.742 997.917 61.2683 997.232 61.2683C996.521 61.2683 995.962 60.742 995.962 60.0722ZM975.848 60.0722C975.848 59.4023 976.406 58.876 977.117 58.876C977.829 58.876 978.387 59.4023 978.387 60.0722C978.387 60.742 977.829 61.2683 977.117 61.2683C976.406 61.2683 975.848 60.742 975.848 60.0722ZM955.759 60.0722C955.759 59.4023 956.317 58.876 957.028 58.876C957.714 58.876 958.298 59.4023 958.298 60.0722C958.298 60.742 957.714 61.2683 957.028 61.2683C956.317 61.2683 955.759 60.742 955.759 60.0722ZM935.644 60.0722C935.644 59.4023 936.203 58.876 936.914 58.876C937.625 58.876 938.184 59.4023 938.184 60.0722C938.184 60.742 937.625 61.2683 936.914 61.2683C936.203 61.2683 935.644 60.742 935.644 60.0722ZM915.556 60.0722C915.556 59.4023 916.114 58.876 916.825 58.876C917.511 58.876 918.095 59.4023 918.095 60.0722C918.095 60.742 917.511 61.2683 916.825 61.2683C916.114 61.2683 915.556 60.742 915.556 60.0722ZM895.441 60.0722C895.441 59.4023 896 58.876 896.711 58.876C897.422 58.876 897.981 59.4023 897.981 60.0722C897.981 60.742 897.422 61.2683 896.711 61.2683C896 61.2683 895.441 60.742 895.441 60.0722ZM875.327 60.0722C875.327 59.4023 875.911 58.876 876.597 58.876C877.308 58.876 877.867 59.4023 877.867 60.0722C877.867 60.742 877.308 61.2683 876.597 61.2683C875.911 61.2683 875.327 60.742 875.327 60.0722ZM855.238 60.0722C855.238 59.4023 855.797 58.876 856.508 58.876C857.219 58.876 857.778 59.4023 857.778 60.0722C857.778 60.742 857.219 61.2683 856.508 61.2683C855.797 61.2683 855.238 60.742 855.238 60.0722Z" fill="#9DA6B8"/>
<path d="M1238.48 61.2684C1238.3 61.2684 1238.12 61.2445 1237.97 61.1727C1237.82 61.1248 1237.69 61.0291 1237.56 60.9095C1237.33 60.6942 1237.21 60.3832 1237.21 60.0722C1237.21 59.9047 1237.23 59.7612 1237.28 59.6177C1237.36 59.4741 1237.46 59.3306 1237.56 59.2349C1237.69 59.1153 1237.82 59.0196 1237.97 58.9717C1238.45 58.7803 1239.01 58.8999 1239.37 59.2349C1239.47 59.3306 1239.57 59.4741 1239.64 59.6177C1239.7 59.7612 1239.72 59.9287 1239.72 60.0722C1239.72 60.3832 1239.59 60.6942 1239.37 60.9095C1239.11 61.1488 1238.81 61.2684 1238.48 61.2684Z" fill="#9DA6B8"/>
</g>
<defs>
<clipPath id="clip0">
<rect width="1280" height="482" fill="white"/>
</clipPath>
</defs>
</svg>
