<svg width="26" height="26" viewBox="0 0 26 26" fill="none" xmlns="http://www.w3.org/2000/svg">
<path d="M13 25.1626C19.9036 25.1626 25.5 19.5662 25.5 12.6626C25.5 5.75904 19.9036 0.162598 13 0.162598C6.09644 0.162598 0.5 5.75904 0.5 12.6626C0.5 19.5662 6.09644 25.1626 13 25.1626Z" fill="white"/>
<path d="M16.7648 1.297L15.0887 12.6082L9.18529 6.76495C9.17013 6.74434 9.14877 6.72913 9.12434 6.72153C9.09991 6.71394 9.07369 6.71437 9.04952 6.72274C8.99667 6.73987 8.96473 6.78739 8.95293 6.86573L6.78105 21.8727C6.77785 21.8909 6.77905 21.9095 6.78454 21.9271C6.79004 21.9448 6.79967 21.9608 6.81263 21.9739L8.99059 24.1298C9.06664 24.2051 9.21041 24.1423 9.22674 24.0275L10.8574 12.6253L16.7775 18.4687C16.7873 18.4799 16.7994 18.4888 16.813 18.4947C16.8266 18.5006 16.8414 18.5032 16.8563 18.5026C16.8752 18.5043 16.8944 18.5022 16.9126 18.4964C16.9307 18.4905 16.9476 18.481 16.962 18.4685C16.9763 18.4559 16.988 18.4406 16.9962 18.4234C17.0044 18.4061 17.0091 18.3874 17.0098 18.3683L19.22 3.45596C19.2232 3.43768 19.222 3.41889 19.2165 3.40116C19.2111 3.38343 19.2013 3.36727 19.1884 3.35404L17.0012 1.19508C16.9251 1.12056 16.7822 1.18255 16.7651 1.297" fill="#FDAD34"/>
</svg>
