<svg width="25" height="26" viewBox="0 0 25 26" fill="none" xmlns="http://www.w3.org/2000/svg">
<circle cx="12.5" cy="12.9127" r="12.5" fill="#172269"/>
<mask id="mask0_331:2" style="mask-type:alpha" maskUnits="userSpaceOnUse" x="0" y="0" width="25" height="26">
<circle cx="12.5" cy="12.9127" r="12.5" fill="#172269"/>
</mask>
<g mask="url(#mask0_331:2)">
<path d="M17.0294 -0.762827L15.0126 12.8473L7.90939 5.81643C7.89115 5.79163 7.86545 5.77333 7.83605 5.76419C7.80666 5.75505 7.77511 5.75557 7.74603 5.76565C7.68243 5.78626 7.644 5.84344 7.62981 5.93769L5.01651 23.9947C5.01266 24.0166 5.0141 24.039 5.02071 24.0602C5.02733 24.0814 5.03892 24.1007 5.05451 24.1164L7.67512 26.7105C7.76663 26.8011 7.93962 26.7256 7.95927 26.5874L9.92143 12.8679L17.0447 19.8988C17.0564 19.9123 17.071 19.923 17.0874 19.9301C17.1037 19.9372 17.1215 19.9404 17.1394 19.9396C17.1622 19.9417 17.1853 19.9392 17.2072 19.9322C17.229 19.9251 17.2493 19.9137 17.2666 19.8986C17.2839 19.8835 17.2979 19.865 17.3078 19.8443C17.3177 19.8235 17.3233 19.801 17.3242 19.778L19.9835 1.83492C19.9874 1.81293 19.986 1.79032 19.9794 1.76898C19.9728 1.74765 19.9611 1.72821 19.9455 1.71229L17.3138 -0.885456C17.2223 -0.975128 17.0503 -0.900541 17.0297 -0.762827" fill="#FDAD34"/>
</g>
</svg>
