<svg width="100" height="100" viewBox="0 0 100 100" fill="none" xmlns="http://www.w3.org/2000/svg">
<path d="M6.25 11.7188H93.75C97.2015 11.7188 100 14.5172 100 17.9688C100 21.4203 97.2015 24.2188 93.75 24.2188H6.25C2.79846 24.2188 0 21.4203 0 17.9688C0 14.5172 2.79846 11.7188 6.25 11.7188Z" fill="black"/>
<path d="M6.25 43.3594H93.75C97.2015 43.3594 100 46.1578 100 49.6094C100 53.0609 97.2015 55.8594 93.75 55.8594H6.25C2.79846 55.8594 0 53.0609 0 49.6094C0 46.1578 2.79846 43.3594 6.25 43.3594Z" fill="black"/>
<path d="M6.25 75H93.75C97.2015 75 100 77.7985 100 81.25C100 84.7015 97.2015 87.5 93.75 87.5H6.25C2.79846 87.5 0 84.7015 0 81.25C0 77.7985 2.79846 75 6.25 75Z" fill="black"/>
</svg>
