<svg width="542" height="543" viewBox="0 0 542 543" fill="none" xmlns="http://www.w3.org/2000/svg">
<circle cx="197.582" cy="198.374" r="168.978" fill="white"/>
<mask id="mask0" mask-type="alpha" maskUnits="userSpaceOnUse" x="39" y="37" width="317" height="324">
<ellipse cx="197.867" cy="198.557" rx="157.982" ry="161.472" fill="#C4C4C4"/>
</mask>
<g mask="url(#mask0)">
<g filter="url(#filter0_d)">
<rect x="-11.8105" y="99.4431" width="420.623" height="219.728" rx="5" fill="white"/>
</g>
<path d="M365.291 280.627H27.6416" stroke="#B5B8C9" stroke-linecap="round" stroke-linejoin="round" stroke-dasharray="6.12 6.12"/>
<path d="M31.7119 162.405H369.361" stroke="#B5B8C9" stroke-linecap="round" stroke-linejoin="round" stroke-dasharray="6.12 6.12"/>
<path d="M115.415 129.865C114.82 129.865 114.283 129.762 113.807 129.558C113.33 129.345 112.955 129.047 112.683 128.664C112.411 128.281 112.274 127.834 112.274 127.324H113.832C113.866 127.707 114.015 128.022 114.279 128.269C114.551 128.515 114.93 128.639 115.415 128.639C115.918 128.639 116.309 128.52 116.59 128.281C116.871 128.034 117.011 127.72 117.011 127.336C117.011 127.039 116.922 126.796 116.743 126.609C116.573 126.421 116.356 126.277 116.092 126.175C115.837 126.072 115.479 125.962 115.02 125.843C114.441 125.689 113.968 125.536 113.602 125.383C113.245 125.221 112.938 124.974 112.683 124.642C112.428 124.31 112.3 123.868 112.3 123.314C112.3 122.804 112.428 122.357 112.683 121.974C112.938 121.591 113.296 121.297 113.756 121.093C114.215 120.889 114.747 120.786 115.352 120.786C116.211 120.786 116.914 121.003 117.458 121.438C118.012 121.863 118.318 122.451 118.378 123.2H116.769C116.743 122.876 116.59 122.599 116.309 122.37C116.028 122.14 115.658 122.025 115.198 122.025C114.781 122.025 114.441 122.131 114.177 122.344C113.913 122.557 113.781 122.863 113.781 123.263C113.781 123.536 113.862 123.761 114.024 123.94C114.194 124.11 114.407 124.247 114.662 124.349C114.917 124.451 115.266 124.562 115.709 124.681C116.296 124.842 116.773 125.004 117.139 125.166C117.514 125.328 117.829 125.579 118.084 125.919C118.348 126.251 118.48 126.698 118.48 127.26C118.48 127.711 118.356 128.137 118.11 128.537C117.871 128.937 117.518 129.26 117.05 129.507C116.59 129.745 116.045 129.865 115.415 129.865Z" fill="#5A6170"/>
<path d="M126.645 126.085C126.645 126.349 126.628 126.587 126.594 126.8H121.219C121.261 127.362 121.47 127.813 121.844 128.154C122.219 128.494 122.679 128.664 123.223 128.664C124.007 128.664 124.56 128.337 124.883 127.681H126.454C126.241 128.328 125.854 128.86 125.292 129.277C124.739 129.686 124.049 129.89 123.223 129.89C122.551 129.89 121.947 129.741 121.41 129.443C120.883 129.137 120.465 128.711 120.159 128.166C119.861 127.613 119.712 126.975 119.712 126.251C119.712 125.528 119.857 124.894 120.146 124.349C120.444 123.795 120.857 123.37 121.385 123.072C121.921 122.774 122.534 122.625 123.223 122.625C123.887 122.625 124.479 122.77 124.998 123.059C125.517 123.349 125.922 123.757 126.211 124.285C126.501 124.804 126.645 125.404 126.645 126.085ZM125.126 125.626C125.117 125.089 124.926 124.659 124.551 124.336C124.177 124.012 123.713 123.851 123.16 123.851C122.657 123.851 122.227 124.012 121.87 124.336C121.512 124.651 121.3 125.081 121.232 125.626H125.126Z" fill="#5A6170"/>
<path d="M129.533 120.327V129.775H128.078V120.327H129.533Z" fill="#5A6170"/>
<path d="M137.892 126.085C137.892 126.349 137.875 126.587 137.841 126.8H132.466C132.508 127.362 132.717 127.813 133.091 128.154C133.466 128.494 133.926 128.664 134.47 128.664C135.254 128.664 135.807 128.337 136.13 127.681H137.701C137.488 128.328 137.101 128.86 136.539 129.277C135.986 129.686 135.296 129.89 134.47 129.89C133.798 129.89 133.194 129.741 132.657 129.443C132.13 129.137 131.713 128.711 131.406 128.166C131.108 127.613 130.959 126.975 130.959 126.251C130.959 125.528 131.104 124.894 131.393 124.349C131.691 123.795 132.104 123.37 132.632 123.072C133.168 122.774 133.781 122.625 134.47 122.625C135.134 122.625 135.726 122.77 136.245 123.059C136.765 123.349 137.169 123.757 137.458 124.285C137.748 124.804 137.892 125.404 137.892 126.085ZM136.373 125.626C136.364 125.089 136.173 124.659 135.798 124.336C135.424 124.012 134.96 123.851 134.407 123.851C133.904 123.851 133.475 124.012 133.117 124.336C132.76 124.651 132.547 125.081 132.479 125.626H136.373Z" fill="#5A6170"/>
<path d="M138.84 126.251C138.84 125.528 138.984 124.894 139.274 124.349C139.572 123.795 139.98 123.37 140.499 123.072C141.019 122.774 141.615 122.625 142.287 122.625C143.138 122.625 143.841 122.829 144.394 123.238C144.956 123.638 145.334 124.213 145.53 124.962H143.96C143.832 124.613 143.628 124.34 143.347 124.144C143.066 123.949 142.713 123.851 142.287 123.851C141.691 123.851 141.215 124.064 140.857 124.489C140.508 124.906 140.334 125.494 140.334 126.251C140.334 127.009 140.508 127.6 140.857 128.026C141.215 128.452 141.691 128.664 142.287 128.664C143.13 128.664 143.687 128.294 143.96 127.554H145.53C145.326 128.269 144.943 128.839 144.381 129.265C143.819 129.682 143.121 129.89 142.287 129.89C141.615 129.89 141.019 129.741 140.499 129.443C139.98 129.137 139.572 128.711 139.274 128.166C138.984 127.613 138.84 126.975 138.84 126.251Z" fill="#5A6170"/>
<path d="M147.721 121.808C147.457 121.808 147.236 121.718 147.057 121.54C146.879 121.361 146.789 121.14 146.789 120.876C146.789 120.612 146.879 120.391 147.057 120.212C147.236 120.033 147.457 119.944 147.721 119.944C147.977 119.944 148.194 120.033 148.373 120.212C148.551 120.391 148.641 120.612 148.641 120.876C148.641 121.14 148.551 121.361 148.373 121.54C148.194 121.718 147.977 121.808 147.721 121.808ZM148.436 122.74V129.775H146.981V122.74H148.436Z" fill="#5A6170"/>
<path d="M153.399 129.89C152.735 129.89 152.135 129.741 151.599 129.443C151.062 129.137 150.641 128.711 150.335 128.166C150.028 127.613 149.875 126.975 149.875 126.251C149.875 125.536 150.032 124.902 150.347 124.349C150.662 123.795 151.092 123.37 151.637 123.072C152.182 122.774 152.79 122.625 153.463 122.625C154.135 122.625 154.744 122.774 155.289 123.072C155.834 123.37 156.263 123.795 156.578 124.349C156.893 124.902 157.051 125.536 157.051 126.251C157.051 126.966 156.889 127.6 156.566 128.154C156.242 128.707 155.799 129.137 155.238 129.443C154.684 129.741 154.072 129.89 153.399 129.89ZM153.399 128.626C153.774 128.626 154.123 128.537 154.446 128.358C154.778 128.179 155.046 127.911 155.25 127.554C155.455 127.196 155.557 126.762 155.557 126.251C155.557 125.74 155.459 125.311 155.263 124.962C155.067 124.604 154.808 124.336 154.484 124.157C154.161 123.978 153.812 123.889 153.437 123.889C153.063 123.889 152.714 123.978 152.39 124.157C152.075 124.336 151.824 124.604 151.637 124.962C151.45 125.311 151.356 125.74 151.356 126.251C151.356 127.009 151.548 127.596 151.931 128.013C152.322 128.422 152.812 128.626 153.399 128.626Z" fill="#5A6170"/>
<path d="M162.039 122.625C162.593 122.625 163.086 122.74 163.52 122.97C163.963 123.2 164.308 123.54 164.555 123.991C164.801 124.442 164.925 124.987 164.925 125.626V129.775H163.482V125.843C163.482 125.213 163.325 124.732 163.01 124.4C162.695 124.059 162.265 123.889 161.72 123.889C161.175 123.889 160.741 124.059 160.418 124.4C160.103 124.732 159.945 125.213 159.945 125.843V129.775H158.49V122.74H159.945V123.544C160.184 123.255 160.486 123.029 160.852 122.868C161.226 122.706 161.622 122.625 162.039 122.625Z" fill="#5A6170"/>
<path d="M166.296 126.226C166.296 125.519 166.441 124.894 166.731 124.349C167.028 123.804 167.429 123.383 167.931 123.085C168.441 122.778 169.003 122.625 169.616 122.625C170.169 122.625 170.65 122.736 171.059 122.957C171.476 123.17 171.808 123.438 172.055 123.761V122.74H173.523V129.775H172.055V128.728C171.808 129.06 171.472 129.337 171.046 129.558C170.621 129.779 170.135 129.89 169.591 129.89C168.986 129.89 168.433 129.737 167.931 129.43C167.429 129.116 167.028 128.681 166.731 128.128C166.441 127.566 166.296 126.932 166.296 126.226ZM172.055 126.251C172.055 125.766 171.953 125.345 171.748 124.987C171.553 124.63 171.293 124.357 170.97 124.17C170.646 123.983 170.297 123.889 169.923 123.889C169.548 123.889 169.199 123.983 168.876 124.17C168.552 124.349 168.288 124.617 168.084 124.974C167.888 125.323 167.79 125.74 167.79 126.226C167.79 126.711 167.888 127.136 168.084 127.502C168.288 127.869 168.552 128.149 168.876 128.345C169.208 128.532 169.557 128.626 169.923 128.626C170.297 128.626 170.646 128.532 170.97 128.345C171.293 128.158 171.553 127.886 171.748 127.528C171.953 127.162 172.055 126.736 172.055 126.251Z" fill="#5A6170"/>
<path d="M182.391 122.625C182.927 122.625 183.404 122.74 183.821 122.97C184.246 123.2 184.578 123.54 184.817 123.991C185.064 124.442 185.187 124.987 185.187 125.626V129.775H183.744V125.843C183.744 125.213 183.587 124.732 183.272 124.4C182.957 124.059 182.527 123.889 181.982 123.889C181.437 123.889 181.003 124.059 180.68 124.4C180.365 124.732 180.207 125.213 180.207 125.843V129.775H178.752V120.327H180.207V123.557C180.454 123.259 180.765 123.029 181.14 122.868C181.523 122.706 181.94 122.625 182.391 122.625Z" fill="#5A6170"/>
<path d="M186.559 126.226C186.559 125.519 186.703 124.894 186.993 124.349C187.291 123.804 187.691 123.383 188.193 123.085C188.704 122.778 189.265 122.625 189.878 122.625C190.432 122.625 190.913 122.736 191.321 122.957C191.738 123.17 192.07 123.438 192.317 123.761V122.74H193.785V129.775H192.317V128.728C192.07 129.06 191.734 129.337 191.308 129.558C190.883 129.779 190.398 129.89 189.853 129.89C189.248 129.89 188.695 129.737 188.193 129.43C187.691 129.116 187.291 128.681 186.993 128.128C186.703 127.566 186.559 126.932 186.559 126.226ZM192.317 126.251C192.317 125.766 192.215 125.345 192.011 124.987C191.815 124.63 191.555 124.357 191.232 124.17C190.908 123.983 190.559 123.889 190.185 123.889C189.81 123.889 189.461 123.983 189.138 124.17C188.814 124.349 188.55 124.617 188.346 124.974C188.15 125.323 188.052 125.74 188.052 126.226C188.052 126.711 188.15 127.136 188.346 127.502C188.55 127.869 188.814 128.149 189.138 128.345C189.47 128.532 189.819 128.626 190.185 128.626C190.559 128.626 190.908 128.532 191.232 128.345C191.555 128.158 191.815 127.886 192.011 127.528C192.215 127.162 192.317 126.736 192.317 126.251Z" fill="#5A6170"/>
<path d="M198.251 129.89C197.698 129.89 197.2 129.792 196.757 129.596C196.323 129.392 195.978 129.12 195.723 128.779C195.467 128.43 195.331 128.043 195.314 127.617H196.821C196.846 127.915 196.987 128.166 197.242 128.371C197.506 128.567 197.834 128.664 198.225 128.664C198.634 128.664 198.949 128.588 199.17 128.435C199.4 128.273 199.515 128.069 199.515 127.822C199.515 127.558 199.387 127.362 199.132 127.234C198.885 127.107 198.489 126.966 197.944 126.813C197.417 126.668 196.987 126.528 196.655 126.392C196.323 126.255 196.033 126.047 195.787 125.766C195.548 125.485 195.429 125.115 195.429 124.655C195.429 124.281 195.54 123.94 195.761 123.634C195.982 123.319 196.297 123.072 196.706 122.893C197.123 122.714 197.6 122.625 198.136 122.625C198.936 122.625 199.579 122.829 200.064 123.238C200.558 123.638 200.822 124.187 200.856 124.885H199.4C199.375 124.57 199.247 124.319 199.017 124.132C198.787 123.944 198.476 123.851 198.085 123.851C197.702 123.851 197.408 123.923 197.204 124.068C197 124.213 196.897 124.404 196.897 124.642C196.897 124.83 196.966 124.987 197.102 125.115C197.238 125.243 197.404 125.345 197.6 125.421C197.796 125.489 198.085 125.579 198.468 125.689C198.979 125.826 199.396 125.966 199.719 126.111C200.051 126.247 200.336 126.451 200.575 126.724C200.813 126.996 200.937 127.358 200.945 127.809C200.945 128.209 200.834 128.567 200.613 128.881C200.392 129.196 200.077 129.443 199.668 129.622C199.268 129.801 198.796 129.89 198.251 129.89Z" fill="#5A6170"/>
<path d="M204.216 123.927V127.822C204.216 128.086 204.276 128.277 204.395 128.396C204.522 128.507 204.735 128.562 205.033 128.562H205.927V129.775H204.778C204.122 129.775 203.62 129.622 203.271 129.316C202.922 129.009 202.748 128.511 202.748 127.822V123.927H201.918V122.74H202.748V120.991H204.216V122.74H205.927V123.927H204.216Z" fill="#5A6170"/>
<path d="M206.783 126.226C206.783 125.519 206.928 124.894 207.217 124.349C207.515 123.804 207.915 123.383 208.418 123.085C208.928 122.778 209.49 122.625 210.103 122.625C210.656 122.625 211.137 122.736 211.546 122.957C211.963 123.17 212.295 123.438 212.542 123.761V122.74H214.01V129.775H212.542V128.728C212.295 129.06 211.959 129.337 211.533 129.558C211.108 129.779 210.622 129.89 210.078 129.89C209.473 129.89 208.92 129.737 208.418 129.43C207.915 129.116 207.515 128.681 207.217 128.128C206.928 127.566 206.783 126.932 206.783 126.226ZM212.542 126.251C212.542 125.766 212.44 125.345 212.235 124.987C212.04 124.63 211.78 124.357 211.457 124.17C211.133 123.983 210.784 123.889 210.41 123.889C210.035 123.889 209.686 123.983 209.363 124.17C209.039 124.349 208.775 124.617 208.571 124.974C208.375 125.323 208.277 125.74 208.277 126.226C208.277 126.711 208.375 127.136 208.571 127.502C208.775 127.869 209.039 128.149 209.363 128.345C209.694 128.532 210.043 128.626 210.41 128.626C210.784 128.626 211.133 128.532 211.457 128.345C211.78 128.158 212.04 127.886 212.235 127.528C212.44 127.162 212.542 126.736 212.542 126.251Z" fill="#5A6170"/>
<path d="M219.022 122.765C219.073 121.974 219.375 121.357 219.928 120.914C220.49 120.471 221.205 120.25 222.073 120.25C222.669 120.25 223.184 120.357 223.618 120.569C224.052 120.782 224.38 121.072 224.601 121.438C224.823 121.804 224.933 122.216 224.933 122.676C224.933 123.204 224.793 123.655 224.512 124.03C224.231 124.404 223.895 124.655 223.503 124.783V124.834C224.006 124.987 224.397 125.268 224.678 125.677C224.959 126.077 225.099 126.592 225.099 127.222C225.099 127.724 224.984 128.171 224.755 128.562C224.525 128.954 224.184 129.265 223.733 129.494C223.282 129.716 222.742 129.826 222.112 129.826C221.192 129.826 220.435 129.592 219.839 129.124C219.252 128.647 218.937 127.966 218.894 127.081H220.299C220.333 127.532 220.507 127.903 220.822 128.192C221.137 128.473 221.563 128.613 222.099 128.613C222.618 128.613 223.018 128.473 223.299 128.192C223.58 127.903 223.72 127.532 223.72 127.081C223.72 126.485 223.529 126.064 223.146 125.817C222.771 125.562 222.192 125.434 221.409 125.434H221.077V124.234H221.422C222.112 124.225 222.635 124.11 222.993 123.889C223.359 123.668 223.542 123.319 223.542 122.842C223.542 122.433 223.41 122.11 223.146 121.872C222.882 121.625 222.507 121.501 222.022 121.501C221.546 121.501 221.175 121.625 220.911 121.872C220.648 122.11 220.49 122.408 220.439 122.765H219.022Z" fill="#5A6170"/>
<path d="M232.69 129.89C232.137 129.89 231.639 129.792 231.196 129.596C230.762 129.392 230.418 129.12 230.162 128.779C229.907 128.43 229.771 128.043 229.754 127.617H231.26C231.286 127.915 231.426 128.166 231.682 128.371C231.946 128.567 232.273 128.664 232.665 128.664C233.073 128.664 233.388 128.588 233.61 128.435C233.839 128.273 233.954 128.069 233.954 127.822C233.954 127.558 233.827 127.362 233.571 127.234C233.325 127.107 232.929 126.966 232.384 126.813C231.856 126.668 231.426 126.528 231.094 126.392C230.762 126.255 230.473 126.047 230.226 125.766C229.988 125.485 229.869 125.115 229.869 124.655C229.869 124.281 229.979 123.94 230.201 123.634C230.422 123.319 230.737 123.072 231.145 122.893C231.562 122.714 232.039 122.625 232.575 122.625C233.376 122.625 234.018 122.829 234.503 123.238C234.997 123.638 235.261 124.187 235.295 124.885H233.839C233.814 124.57 233.686 124.319 233.456 124.132C233.227 123.944 232.916 123.851 232.524 123.851C232.141 123.851 231.848 123.923 231.643 124.068C231.439 124.213 231.337 124.404 231.337 124.642C231.337 124.83 231.405 124.987 231.541 125.115C231.677 125.243 231.843 125.345 232.039 125.421C232.235 125.489 232.524 125.579 232.907 125.689C233.418 125.826 233.835 125.966 234.159 126.111C234.491 126.247 234.776 126.451 235.014 126.724C235.253 126.996 235.376 127.358 235.384 127.809C235.384 128.209 235.274 128.567 235.052 128.881C234.831 129.196 234.516 129.443 234.108 129.622C233.708 129.801 233.235 129.89 232.69 129.89Z" fill="#5A6170"/>
<path d="M243.405 126.085C243.405 126.349 243.388 126.587 243.354 126.8H237.979C238.021 127.362 238.23 127.813 238.604 128.154C238.979 128.494 239.439 128.664 239.983 128.664C240.766 128.664 241.32 128.337 241.643 127.681H243.214C243.001 128.328 242.614 128.86 242.052 129.277C241.499 129.686 240.809 129.89 239.983 129.89C239.311 129.89 238.707 129.741 238.17 129.443C237.642 129.137 237.225 128.711 236.919 128.166C236.621 127.613 236.472 126.975 236.472 126.251C236.472 125.528 236.617 124.894 236.906 124.349C237.204 123.795 237.617 123.37 238.145 123.072C238.681 122.774 239.294 122.625 239.983 122.625C240.647 122.625 241.239 122.77 241.758 123.059C242.277 123.349 242.682 123.757 242.971 124.285C243.261 124.804 243.405 125.404 243.405 126.085ZM241.886 125.626C241.877 125.089 241.686 124.659 241.311 124.336C240.937 124.012 240.473 123.851 239.919 123.851C239.417 123.851 238.987 124.012 238.63 124.336C238.272 124.651 238.06 125.081 237.991 125.626H241.886Z" fill="#5A6170"/>
<path d="M246.293 123.761C246.506 123.404 246.787 123.127 247.136 122.931C247.493 122.727 247.915 122.625 248.4 122.625V124.132H248.03C247.459 124.132 247.025 124.276 246.727 124.566C246.438 124.855 246.293 125.357 246.293 126.072V129.775H244.838V122.74H246.293V123.761Z" fill="#5A6170"/>
<path d="M252.458 128.473L254.449 122.74H255.994L253.313 129.775H251.577L248.908 122.74H250.466L252.458 128.473Z" fill="#5A6170"/>
<path d="M257.835 121.808C257.571 121.808 257.35 121.718 257.171 121.54C256.993 121.361 256.903 121.14 256.903 120.876C256.903 120.612 256.993 120.391 257.171 120.212C257.35 120.033 257.571 119.944 257.835 119.944C258.091 119.944 258.308 120.033 258.486 120.212C258.665 120.391 258.755 120.612 258.755 120.876C258.755 121.14 258.665 121.361 258.486 121.54C258.308 121.718 258.091 121.808 257.835 121.808ZM258.55 122.74V129.775H257.095V122.74H258.55Z" fill="#5A6170"/>
<path d="M259.976 126.251C259.976 125.528 260.121 124.894 260.41 124.349C260.708 123.795 261.117 123.37 261.636 123.072C262.155 122.774 262.751 122.625 263.424 122.625C264.275 122.625 264.977 122.829 265.53 123.238C266.092 123.638 266.471 124.213 266.667 124.962H265.096C264.969 124.613 264.764 124.34 264.483 124.144C264.202 123.949 263.849 123.851 263.424 123.851C262.828 123.851 262.351 124.064 261.994 124.489C261.645 124.906 261.47 125.494 261.47 126.251C261.47 127.009 261.645 127.6 261.994 128.026C262.351 128.452 262.828 128.664 263.424 128.664C264.266 128.664 264.824 128.294 265.096 127.554H266.667C266.462 128.269 266.079 128.839 265.518 129.265C264.956 129.682 264.258 129.89 263.424 129.89C262.751 129.89 262.155 129.741 261.636 129.443C261.117 129.137 260.708 128.711 260.41 128.166C260.121 127.613 259.976 126.975 259.976 126.251Z" fill="#5A6170"/>
<path d="M268.858 121.808C268.594 121.808 268.373 121.718 268.194 121.54C268.015 121.361 267.926 121.14 267.926 120.876C267.926 120.612 268.015 120.391 268.194 120.212C268.373 120.033 268.594 119.944 268.858 119.944C269.113 119.944 269.33 120.033 269.509 120.212C269.688 120.391 269.777 120.612 269.777 120.876C269.777 121.14 269.688 121.361 269.509 121.54C269.33 121.718 269.113 121.808 268.858 121.808ZM269.573 122.74V129.775H268.117V122.74H269.573Z" fill="#5A6170"/>
<path d="M274.536 129.89C273.872 129.89 273.272 129.741 272.735 129.443C272.199 129.137 271.778 128.711 271.471 128.166C271.165 127.613 271.012 126.975 271.012 126.251C271.012 125.536 271.169 124.902 271.484 124.349C271.799 123.795 272.229 123.37 272.774 123.072C273.318 122.774 273.927 122.625 274.599 122.625C275.272 122.625 275.881 122.774 276.425 123.072C276.97 123.37 277.4 123.795 277.715 124.349C278.03 124.902 278.187 125.536 278.187 126.251C278.187 126.966 278.026 127.6 277.702 128.154C277.379 128.707 276.936 129.137 276.374 129.443C275.821 129.741 275.208 129.89 274.536 129.89ZM274.536 128.626C274.91 128.626 275.259 128.537 275.583 128.358C275.915 128.179 276.183 127.911 276.387 127.554C276.591 127.196 276.693 126.762 276.693 126.251C276.693 125.74 276.596 125.311 276.4 124.962C276.204 124.604 275.944 124.336 275.621 124.157C275.297 123.978 274.948 123.889 274.574 123.889C274.199 123.889 273.85 123.978 273.527 124.157C273.212 124.336 272.961 124.604 272.774 124.962C272.586 125.311 272.493 125.74 272.493 126.251C272.493 127.009 272.684 127.596 273.067 128.013C273.459 128.422 273.948 128.626 274.536 128.626Z" fill="#5A6170"/>
<path d="M282.18 129.89C281.627 129.89 281.129 129.792 280.686 129.596C280.252 129.392 279.907 129.12 279.652 128.779C279.396 128.43 279.26 128.043 279.243 127.617H280.75C280.775 127.915 280.916 128.166 281.171 128.371C281.435 128.567 281.763 128.664 282.154 128.664C282.563 128.664 282.878 128.588 283.099 128.435C283.329 128.273 283.444 128.069 283.444 127.822C283.444 127.558 283.316 127.362 283.061 127.234C282.814 127.107 282.418 126.966 281.873 126.813C281.346 126.668 280.916 126.528 280.584 126.392C280.252 126.255 279.962 126.047 279.716 125.766C279.477 125.485 279.358 125.115 279.358 124.655C279.358 124.281 279.469 123.94 279.69 123.634C279.911 123.319 280.226 123.072 280.635 122.893C281.052 122.714 281.529 122.625 282.065 122.625C282.865 122.625 283.508 122.829 283.993 123.238C284.487 123.638 284.751 124.187 284.785 124.885H283.329C283.304 124.57 283.176 124.319 282.946 124.132C282.716 123.944 282.405 123.851 282.014 123.851C281.631 123.851 281.337 123.923 281.133 124.068C280.929 124.213 280.826 124.404 280.826 124.642C280.826 124.83 280.895 124.987 281.031 125.115C281.167 125.243 281.333 125.345 281.529 125.421C281.725 125.489 282.014 125.579 282.397 125.689C282.908 125.826 283.325 125.966 283.648 126.111C283.98 126.247 284.265 126.451 284.504 126.724C284.742 126.996 284.865 127.358 284.874 127.809C284.874 128.209 284.763 128.567 284.542 128.881C284.321 129.196 284.006 129.443 283.597 129.622C283.197 129.801 282.725 129.89 282.18 129.89Z" fill="#5A6170"/>
<path d="M147.064 138.327C147.064 138.837 146.896 139.249 146.562 139.561C146.227 139.873 145.724 140.029 145.055 140.029H143.855V142.566H143.259V136.616H145.055C145.719 136.616 146.218 136.772 146.553 137.084C146.893 137.396 147.064 137.81 147.064 138.327ZM145.055 139.518C145.986 139.518 146.451 139.121 146.451 138.327C146.451 137.929 146.34 137.629 146.119 137.424C145.898 137.22 145.543 137.118 145.055 137.118H143.855V139.518H145.055Z" fill="#5A6170"/>
<path d="M152.09 137.918V142.566H151.494V141.748C151.358 142.038 151.148 142.259 150.864 142.412C150.58 142.566 150.263 142.642 149.911 142.642C149.355 142.642 148.901 142.472 148.549 142.131C148.197 141.785 148.021 141.286 148.021 140.633V137.918H148.608V140.565C148.608 141.07 148.733 141.456 148.983 141.723C149.238 141.99 149.584 142.123 150.021 142.123C150.47 142.123 150.827 141.981 151.094 141.697C151.361 141.414 151.494 140.997 151.494 140.446V137.918H152.09Z" fill="#5A6170"/>
<path d="M157.655 140.003C157.655 140.208 157.649 140.364 157.638 140.472H153.782C153.799 140.823 153.884 141.124 154.037 141.374C154.191 141.624 154.392 141.814 154.642 141.944C154.892 142.069 155.164 142.131 155.459 142.131C155.845 142.131 156.168 142.038 156.429 141.851C156.696 141.663 156.872 141.411 156.957 141.093H157.587C157.474 141.547 157.23 141.919 156.855 142.208C156.486 142.492 156.021 142.634 155.459 142.634C155.022 142.634 154.63 142.537 154.284 142.344C153.938 142.146 153.666 141.868 153.467 141.51C153.274 141.147 153.178 140.724 153.178 140.242C153.178 139.759 153.274 139.337 153.467 138.973C153.66 138.61 153.93 138.332 154.276 138.139C154.622 137.946 155.016 137.85 155.459 137.85C155.902 137.85 156.288 137.946 156.617 138.139C156.951 138.332 157.207 138.593 157.383 138.922C157.564 139.246 157.655 139.606 157.655 140.003ZM157.051 139.986C157.056 139.64 156.986 139.345 156.838 139.101C156.696 138.857 156.5 138.673 156.251 138.548C156.001 138.423 155.729 138.361 155.433 138.361C154.991 138.361 154.613 138.502 154.301 138.786C153.989 139.07 153.816 139.47 153.782 139.986H157.051Z" fill="#5A6170"/>
<path d="M158.473 140.233C158.473 139.757 158.569 139.339 158.762 138.982C158.955 138.619 159.219 138.341 159.554 138.148C159.894 137.949 160.278 137.85 160.703 137.85C161.112 137.85 161.481 137.949 161.81 138.148C162.139 138.346 162.38 138.605 162.533 138.922V136.267H163.129V142.566H162.533V141.527C162.391 141.851 162.159 142.117 161.835 142.327C161.512 142.532 161.132 142.634 160.695 142.634C160.269 142.634 159.886 142.534 159.545 142.336C159.211 142.137 158.947 141.856 158.754 141.493C158.567 141.13 158.473 140.71 158.473 140.233ZM162.533 140.242C162.533 139.867 162.457 139.538 162.303 139.254C162.15 138.971 161.94 138.752 161.674 138.599C161.412 138.446 161.123 138.369 160.805 138.369C160.476 138.369 160.181 138.443 159.92 138.59C159.659 138.738 159.452 138.954 159.299 139.237C159.151 139.515 159.077 139.847 159.077 140.233C159.077 140.613 159.151 140.948 159.299 141.238C159.452 141.521 159.659 141.74 159.92 141.893C160.181 142.041 160.476 142.114 160.805 142.114C161.123 142.114 161.412 142.038 161.674 141.885C161.94 141.731 162.15 141.513 162.303 141.229C162.457 140.945 162.533 140.616 162.533 140.242Z" fill="#5A6170"/>
<path d="M168.694 140.003C168.694 140.208 168.689 140.364 168.677 140.472H164.821C164.838 140.823 164.923 141.124 165.077 141.374C165.23 141.624 165.431 141.814 165.681 141.944C165.931 142.069 166.203 142.131 166.498 142.131C166.884 142.131 167.208 142.038 167.469 141.851C167.735 141.663 167.911 141.411 167.996 141.093H168.626C168.513 141.547 168.269 141.919 167.894 142.208C167.525 142.492 167.06 142.634 166.498 142.634C166.061 142.634 165.67 142.537 165.324 142.344C164.977 142.146 164.705 141.868 164.506 141.51C164.313 141.147 164.217 140.724 164.217 140.242C164.217 139.759 164.313 139.337 164.506 138.973C164.699 138.61 164.969 138.332 165.315 138.139C165.661 137.946 166.056 137.85 166.498 137.85C166.941 137.85 167.327 137.946 167.656 138.139C167.991 138.332 168.246 138.593 168.422 138.922C168.604 139.246 168.694 139.606 168.694 140.003ZM168.09 139.986C168.096 139.64 168.025 139.345 167.877 139.101C167.735 138.857 167.54 138.673 167.29 138.548C167.04 138.423 166.768 138.361 166.473 138.361C166.03 138.361 165.653 138.502 165.341 138.786C165.028 139.07 164.855 139.47 164.821 139.986H168.09Z" fill="#5A6170"/>
<path d="M171.385 142.634C170.851 142.634 170.414 142.512 170.074 142.268C169.739 142.018 169.552 141.68 169.512 141.255H170.125C170.153 141.516 170.275 141.729 170.491 141.893C170.712 142.052 171.007 142.131 171.376 142.131C171.7 142.131 171.952 142.055 172.134 141.902C172.321 141.748 172.415 141.558 172.415 141.331C172.415 141.172 172.364 141.042 172.262 140.94C172.159 140.838 172.029 140.758 171.87 140.701C171.717 140.639 171.507 140.574 171.24 140.506C170.894 140.415 170.613 140.324 170.397 140.233C170.182 140.142 169.997 140.009 169.844 139.833C169.697 139.652 169.623 139.41 169.623 139.11C169.623 138.883 169.691 138.673 169.827 138.48C169.963 138.287 170.156 138.134 170.406 138.02C170.656 137.907 170.939 137.85 171.257 137.85C171.757 137.85 172.159 137.978 172.466 138.233C172.772 138.483 172.937 138.829 172.96 139.271H172.364C172.347 138.999 172.239 138.781 172.04 138.616C171.847 138.446 171.581 138.361 171.24 138.361C170.939 138.361 170.695 138.432 170.508 138.573C170.321 138.715 170.227 138.891 170.227 139.101C170.227 139.283 170.281 139.433 170.389 139.552C170.502 139.666 170.641 139.757 170.806 139.825C170.971 139.887 171.192 139.958 171.47 140.037C171.805 140.128 172.071 140.216 172.27 140.301C172.469 140.386 172.639 140.511 172.781 140.676C172.923 140.84 172.996 141.059 173.002 141.331C173.002 141.581 172.934 141.805 172.798 142.004C172.662 142.197 172.472 142.35 172.228 142.463C171.984 142.577 171.703 142.634 171.385 142.634Z" fill="#5A6170"/>
<path d="M180.665 140.003C180.665 140.208 180.659 140.364 180.648 140.472H176.792C176.809 140.823 176.894 141.124 177.047 141.374C177.2 141.624 177.402 141.814 177.651 141.944C177.901 142.069 178.173 142.131 178.469 142.131C178.854 142.131 179.178 142.038 179.439 141.851C179.706 141.663 179.882 141.411 179.967 141.093H180.597C180.483 141.547 180.239 141.919 179.865 142.208C179.496 142.492 179.03 142.634 178.469 142.634C178.032 142.634 177.64 142.537 177.294 142.344C176.948 142.146 176.675 141.868 176.477 141.51C176.284 141.147 176.187 140.724 176.187 140.242C176.187 139.759 176.284 139.337 176.477 138.973C176.67 138.61 176.939 138.332 177.285 138.139C177.631 137.946 178.026 137.85 178.469 137.85C178.911 137.85 179.297 137.946 179.626 138.139C179.961 138.332 180.216 138.593 180.392 138.922C180.574 139.246 180.665 139.606 180.665 140.003ZM180.06 139.986C180.066 139.64 179.995 139.345 179.847 139.101C179.706 138.857 179.51 138.673 179.26 138.548C179.01 138.423 178.738 138.361 178.443 138.361C178 138.361 177.623 138.502 177.311 138.786C176.999 139.07 176.826 139.47 176.792 139.986H180.06Z" fill="#5A6170"/>
<path d="M182.351 136.267V142.566H181.755V136.267H182.351Z" fill="#5A6170"/>
<path d="M183.998 137.041C183.879 137.041 183.777 136.999 183.691 136.914C183.606 136.828 183.564 136.723 183.564 136.599C183.564 136.474 183.606 136.372 183.691 136.292C183.777 136.207 183.879 136.164 183.998 136.164C184.117 136.164 184.219 136.207 184.304 136.292C184.389 136.372 184.432 136.474 184.432 136.599C184.432 136.723 184.389 136.828 184.304 136.914C184.219 136.999 184.117 137.041 183.998 137.041ZM184.296 137.918V142.566H183.7V137.918H184.296Z" fill="#5A6170"/>
<path d="M191.178 137.833C191.723 137.833 192.165 138.006 192.506 138.352C192.852 138.693 193.025 139.189 193.025 139.842V142.566H192.438V139.91C192.438 139.405 192.316 139.019 192.072 138.752C191.828 138.485 191.496 138.352 191.076 138.352C190.639 138.352 190.29 138.497 190.029 138.786C189.768 139.076 189.637 139.496 189.637 140.046V142.566H189.05V139.91C189.05 139.405 188.928 139.019 188.684 138.752C188.44 138.485 188.105 138.352 187.68 138.352C187.243 138.352 186.894 138.497 186.633 138.786C186.372 139.076 186.241 139.496 186.241 140.046V142.566H185.645V137.918H186.241V138.718C186.389 138.429 186.599 138.21 186.871 138.063C187.143 137.909 187.447 137.833 187.782 137.833C188.185 137.833 188.536 137.929 188.837 138.122C189.144 138.315 189.365 138.599 189.501 138.973C189.626 138.605 189.839 138.324 190.14 138.131C190.446 137.932 190.792 137.833 191.178 137.833Z" fill="#5A6170"/>
<path d="M194.646 137.041C194.527 137.041 194.425 136.999 194.34 136.914C194.255 136.828 194.212 136.723 194.212 136.599C194.212 136.474 194.255 136.372 194.34 136.292C194.425 136.207 194.527 136.164 194.646 136.164C194.766 136.164 194.868 136.207 194.953 136.292C195.038 136.372 195.081 136.474 195.081 136.599C195.081 136.723 195.038 136.828 194.953 136.914C194.868 136.999 194.766 137.041 194.646 137.041ZM194.944 137.918V142.566H194.349V137.918H194.944Z" fill="#5A6170"/>
<path d="M198.473 137.833C199.029 137.833 199.483 138.006 199.835 138.352C200.187 138.693 200.363 139.189 200.363 139.842V142.566H199.775V139.91C199.775 139.405 199.648 139.019 199.392 138.752C199.142 138.485 198.799 138.352 198.362 138.352C197.914 138.352 197.556 138.494 197.29 138.778C197.023 139.061 196.89 139.479 196.89 140.029V142.566H196.294V137.918H196.89V138.71C197.037 138.426 197.25 138.21 197.528 138.063C197.806 137.909 198.121 137.833 198.473 137.833Z" fill="#5A6170"/>
<path d="M201.408 140.233C201.408 139.757 201.502 139.339 201.689 138.982C201.882 138.619 202.146 138.341 202.48 138.148C202.821 137.949 203.204 137.85 203.63 137.85C204.072 137.85 204.452 137.952 204.77 138.156C205.094 138.361 205.326 138.622 205.468 138.939V137.918H206.064V142.566H205.468V141.536C205.321 141.853 205.085 142.117 204.762 142.327C204.444 142.532 204.064 142.634 203.621 142.634C203.201 142.634 202.821 142.534 202.48 142.336C202.146 142.137 201.882 141.856 201.689 141.493C201.502 141.13 201.408 140.71 201.408 140.233ZM205.468 140.242C205.468 139.867 205.392 139.538 205.238 139.254C205.085 138.971 204.875 138.752 204.609 138.599C204.347 138.446 204.058 138.369 203.74 138.369C203.411 138.369 203.116 138.443 202.855 138.59C202.594 138.738 202.387 138.954 202.234 139.237C202.086 139.515 202.012 139.847 202.012 140.233C202.012 140.613 202.086 140.948 202.234 141.238C202.387 141.521 202.594 141.74 202.855 141.893C203.116 142.041 203.411 142.114 203.74 142.114C204.058 142.114 204.347 142.038 204.609 141.885C204.875 141.731 205.085 141.513 205.238 141.229C205.392 140.945 205.468 140.616 205.468 140.242Z" fill="#5A6170"/>
<path d="M208.02 138.744C208.151 138.454 208.349 138.23 208.616 138.071C208.888 137.912 209.22 137.833 209.612 137.833V138.454H209.45C209.019 138.454 208.673 138.571 208.412 138.803C208.151 139.036 208.02 139.425 208.02 139.969V142.566H207.424V137.918H208.02V138.744Z" fill="#5A6170"/>
<path d="M214.879 142.634C214.442 142.634 214.047 142.537 213.695 142.344C213.349 142.146 213.074 141.868 212.87 141.51C212.671 141.147 212.572 140.724 212.572 140.242C212.572 139.759 212.674 139.339 212.878 138.982C213.083 138.619 213.361 138.341 213.712 138.148C214.064 137.949 214.459 137.85 214.896 137.85C215.333 137.85 215.727 137.949 216.079 138.148C216.436 138.341 216.714 138.619 216.913 138.982C217.117 139.339 217.22 139.759 217.22 140.242C217.22 140.718 217.117 141.138 216.913 141.502C216.709 141.865 216.428 142.146 216.07 142.344C215.713 142.537 215.316 142.634 214.879 142.634ZM214.879 142.114C215.185 142.114 215.469 142.046 215.73 141.91C215.991 141.768 216.201 141.558 216.36 141.28C216.524 140.997 216.607 140.65 216.607 140.242C216.607 139.833 216.527 139.49 216.368 139.212C216.209 138.928 215.999 138.718 215.738 138.582C215.477 138.44 215.194 138.369 214.887 138.369C214.581 138.369 214.297 138.44 214.036 138.582C213.775 138.718 213.565 138.928 213.406 139.212C213.253 139.49 213.176 139.833 213.176 140.242C213.176 140.65 213.253 140.997 213.406 141.28C213.565 141.558 213.772 141.768 214.027 141.91C214.288 142.046 214.572 142.114 214.879 142.114Z" fill="#5A6170"/>
<path d="M220.369 140.233C220.369 139.757 220.463 139.339 220.65 138.982C220.843 138.619 221.107 138.341 221.442 138.148C221.782 137.949 222.165 137.85 222.591 137.85C223.033 137.85 223.414 137.952 223.731 138.156C224.055 138.361 224.288 138.622 224.429 138.939V137.918H225.025V142.566H224.429V141.536C224.282 141.853 224.046 142.117 223.723 142.327C223.405 142.532 223.025 142.634 222.582 142.634C222.162 142.634 221.782 142.534 221.442 142.336C221.107 142.137 220.843 141.856 220.65 141.493C220.463 141.13 220.369 140.71 220.369 140.233ZM224.429 140.242C224.429 139.867 224.353 139.538 224.2 139.254C224.046 138.971 223.836 138.752 223.57 138.599C223.309 138.446 223.019 138.369 222.701 138.369C222.372 138.369 222.077 138.443 221.816 138.59C221.555 138.738 221.348 138.954 221.195 139.237C221.047 139.515 220.974 139.847 220.974 140.233C220.974 140.613 221.047 140.948 221.195 141.238C221.348 141.521 221.555 141.74 221.816 141.893C222.077 142.041 222.372 142.114 222.701 142.114C223.019 142.114 223.309 142.038 223.57 141.885C223.836 141.731 224.046 141.513 224.2 141.229C224.353 140.945 224.429 140.616 224.429 140.242Z" fill="#5A6170"/>
<path d="M228.335 137.85C228.772 137.85 229.152 137.952 229.476 138.156C229.799 138.361 230.032 138.619 230.174 138.931V137.918H230.769V142.685C230.769 143.11 230.676 143.488 230.488 143.817C230.307 144.146 230.052 144.399 229.722 144.574C229.393 144.756 229.019 144.847 228.599 144.847C228.003 144.847 227.506 144.705 227.109 144.421C226.718 144.138 226.474 143.752 226.377 143.264H226.964C227.067 143.587 227.26 143.845 227.543 144.038C227.833 144.231 228.185 144.328 228.599 144.328C228.9 144.328 229.169 144.262 229.407 144.132C229.646 144.007 229.833 143.82 229.969 143.57C230.105 143.32 230.174 143.025 230.174 142.685V141.536C230.026 141.853 229.79 142.117 229.467 142.327C229.149 142.532 228.772 142.634 228.335 142.634C227.909 142.634 227.526 142.534 227.186 142.336C226.851 142.137 226.587 141.856 226.394 141.493C226.207 141.13 226.113 140.71 226.113 140.233C226.113 139.757 226.207 139.339 226.394 138.982C226.587 138.619 226.851 138.341 227.186 138.148C227.526 137.949 227.909 137.85 228.335 137.85ZM230.174 140.242C230.174 139.867 230.097 139.538 229.944 139.254C229.79 138.971 229.581 138.752 229.314 138.599C229.053 138.446 228.763 138.369 228.446 138.369C228.116 138.369 227.821 138.443 227.56 138.59C227.299 138.738 227.092 138.954 226.939 139.237C226.791 139.515 226.718 139.847 226.718 140.233C226.718 140.613 226.791 140.948 226.939 141.238C227.092 141.521 227.299 141.74 227.56 141.893C227.821 142.041 228.116 142.114 228.446 142.114C228.763 142.114 229.053 142.038 229.314 141.885C229.581 141.731 229.79 141.513 229.944 141.229C230.097 140.945 230.174 140.616 230.174 140.242Z" fill="#5A6170"/>
<path d="M232.726 138.744C232.856 138.454 233.055 138.23 233.321 138.071C233.594 137.912 233.926 137.833 234.317 137.833V138.454H234.156C233.724 138.454 233.378 138.571 233.117 138.803C232.856 139.036 232.726 139.425 232.726 139.969V142.566H232.13V137.918H232.726V138.744Z" fill="#5A6170"/>
<path d="M239.419 140.003C239.419 140.208 239.413 140.364 239.402 140.472H235.546C235.563 140.823 235.648 141.124 235.801 141.374C235.954 141.624 236.156 141.814 236.405 141.944C236.655 142.069 236.927 142.131 237.223 142.131C237.608 142.131 237.932 142.038 238.193 141.851C238.46 141.663 238.636 141.411 238.721 141.093H239.351C239.237 141.547 238.993 141.919 238.619 142.208C238.25 142.492 237.784 142.634 237.223 142.634C236.786 142.634 236.394 142.537 236.048 142.344C235.702 142.146 235.429 141.868 235.231 141.51C235.038 141.147 234.941 140.724 234.941 140.242C234.941 139.759 235.038 139.337 235.231 138.973C235.424 138.61 235.693 138.332 236.039 138.139C236.386 137.946 236.78 137.85 237.223 137.85C237.665 137.85 238.051 137.946 238.38 138.139C238.715 138.332 238.97 138.593 239.146 138.922C239.328 139.246 239.419 139.606 239.419 140.003ZM238.814 139.986C238.82 139.64 238.749 139.345 238.602 139.101C238.46 138.857 238.264 138.673 238.014 138.548C237.764 138.423 237.492 138.361 237.197 138.361C236.754 138.361 236.377 138.502 236.065 138.786C235.753 139.07 235.58 139.47 235.546 139.986H238.814Z" fill="#5A6170"/>
<path d="M242.458 137.85C242.895 137.85 243.275 137.952 243.599 138.156C243.922 138.361 244.155 138.619 244.297 138.931V137.918H244.893V142.685C244.893 143.11 244.799 143.488 244.612 143.817C244.43 144.146 244.175 144.399 243.846 144.574C243.516 144.756 243.142 144.847 242.722 144.847C242.126 144.847 241.63 144.705 241.232 144.421C240.841 144.138 240.597 143.752 240.5 143.264H241.088C241.19 143.587 241.383 143.845 241.667 144.038C241.956 144.231 242.308 144.328 242.722 144.328C243.023 144.328 243.292 144.262 243.531 144.132C243.769 144.007 243.956 143.82 244.092 143.57C244.229 143.32 244.297 143.025 244.297 142.685V141.536C244.149 141.853 243.914 142.117 243.59 142.327C243.272 142.532 242.895 142.634 242.458 142.634C242.033 142.634 241.649 142.534 241.309 142.336C240.974 142.137 240.71 141.856 240.517 141.493C240.33 141.13 240.236 140.71 240.236 140.233C240.236 139.757 240.33 139.339 240.517 138.982C240.71 138.619 240.974 138.341 241.309 138.148C241.649 137.949 242.033 137.85 242.458 137.85ZM244.297 140.242C244.297 139.867 244.22 139.538 244.067 139.254C243.914 138.971 243.704 138.752 243.437 138.599C243.176 138.446 242.887 138.369 242.569 138.369C242.24 138.369 241.945 138.443 241.684 138.59C241.423 138.738 241.215 138.954 241.062 139.237C240.915 139.515 240.841 139.847 240.841 140.233C240.841 140.613 240.915 140.948 241.062 141.238C241.215 141.521 241.423 141.74 241.684 141.893C241.945 142.041 242.24 142.114 242.569 142.114C242.887 142.114 243.176 142.038 243.437 141.885C243.704 141.731 243.914 141.513 244.067 141.229C244.22 140.945 244.297 140.616 244.297 140.242Z" fill="#5A6170"/>
<path d="M245.981 140.233C245.981 139.757 246.074 139.339 246.261 138.982C246.454 138.619 246.718 138.341 247.053 138.148C247.394 137.949 247.777 137.85 248.202 137.85C248.645 137.85 249.025 137.952 249.343 138.156C249.666 138.361 249.899 138.622 250.041 138.939V137.918H250.637V142.566H250.041V141.536C249.893 141.853 249.658 142.117 249.334 142.327C249.017 142.532 248.636 142.634 248.194 142.634C247.774 142.634 247.394 142.534 247.053 142.336C246.718 142.137 246.454 141.856 246.261 141.493C246.074 141.13 245.981 140.71 245.981 140.233ZM250.041 140.242C250.041 139.867 249.964 139.538 249.811 139.254C249.658 138.971 249.448 138.752 249.181 138.599C248.92 138.446 248.631 138.369 248.313 138.369C247.984 138.369 247.689 138.443 247.428 138.59C247.167 138.738 246.959 138.954 246.806 139.237C246.659 139.515 246.585 139.847 246.585 140.233C246.585 140.613 246.659 140.948 246.806 141.238C246.959 141.521 247.167 141.74 247.428 141.893C247.689 142.041 247.984 142.114 248.313 142.114C248.631 142.114 248.92 142.038 249.181 141.885C249.448 141.731 249.658 141.513 249.811 141.229C249.964 140.945 250.041 140.616 250.041 140.242Z" fill="#5A6170"/>
<path d="M252.593 138.744C252.723 138.454 252.922 138.23 253.189 138.071C253.461 137.912 253.793 137.833 254.185 137.833V138.454H254.023C253.592 138.454 253.245 138.571 252.984 138.803C252.723 139.036 252.593 139.425 252.593 139.969V142.566H251.997V137.918H252.593V138.744Z" fill="#5A6170"/>
<rect x="62.623" y="184.204" width="126.303" height="27.9601" rx="4" fill="#FF6900"/>
<path d="M89.5996 197.544C89.5996 196.676 89.7996 195.897 90.1997 195.207C90.6083 194.518 91.1573 193.982 91.8468 193.599C92.5448 193.207 93.3067 193.011 94.1323 193.011C95.0772 193.011 95.9157 193.245 96.6477 193.713C97.3883 194.173 97.9245 194.829 98.2565 195.68H96.5072C96.2774 195.212 95.9582 194.863 95.5496 194.633C95.141 194.403 94.6686 194.288 94.1323 194.288C93.545 194.288 93.0215 194.42 92.5619 194.684C92.1022 194.948 91.7404 195.327 91.4765 195.82C91.2212 196.314 91.0935 196.889 91.0935 197.544C91.0935 198.199 91.2212 198.774 91.4765 199.268C91.7404 199.761 92.1022 200.144 92.5619 200.417C93.0215 200.681 93.545 200.813 94.1323 200.813C94.6686 200.813 95.141 200.698 95.5496 200.468C95.9582 200.238 96.2774 199.889 96.5072 199.421H98.2565C97.9245 200.272 97.3883 200.928 96.6477 201.387C95.9157 201.847 95.0772 202.077 94.1323 202.077C93.2982 202.077 92.5363 201.885 91.8468 201.502C91.1573 201.111 90.6083 200.57 90.1997 199.881C89.7996 199.191 89.5996 198.412 89.5996 197.544Z" fill="white"/>
<path d="M99.4751 198.451C99.4751 197.744 99.6198 197.118 99.9092 196.574C100.207 196.029 100.607 195.607 101.109 195.31C101.62 195.003 102.182 194.85 102.795 194.85C103.348 194.85 103.829 194.961 104.238 195.182C104.655 195.395 104.987 195.663 105.234 195.986V194.965H106.702V202H105.234V200.953C104.987 201.285 104.65 201.562 104.225 201.783C103.799 202.004 103.314 202.115 102.769 202.115C102.165 202.115 101.612 201.962 101.109 201.655C100.607 201.34 100.207 200.906 99.9092 200.353C99.6198 199.791 99.4751 199.157 99.4751 198.451ZM105.234 198.476C105.234 197.991 105.131 197.57 104.927 197.212C104.731 196.854 104.472 196.582 104.148 196.395C103.825 196.208 103.476 196.114 103.101 196.114C102.727 196.114 102.378 196.208 102.054 196.395C101.731 196.574 101.467 196.842 101.263 197.199C101.067 197.548 100.969 197.965 100.969 198.451C100.969 198.936 101.067 199.361 101.263 199.727C101.467 200.093 101.731 200.374 102.054 200.57C102.386 200.757 102.735 200.851 103.101 200.851C103.476 200.851 103.825 200.757 104.148 200.57C104.472 200.383 104.731 200.11 104.927 199.753C105.131 199.387 105.234 198.961 105.234 198.476Z" fill="white"/>
<path d="M110.069 195.986C110.282 195.629 110.563 195.352 110.912 195.156C111.27 194.952 111.691 194.85 112.176 194.85V196.357H111.806C111.236 196.357 110.801 196.501 110.503 196.791C110.214 197.08 110.069 197.582 110.069 198.297V202H108.614V194.965H110.069V195.986Z" fill="white"/>
<path d="M114.97 195.999C115.217 195.676 115.553 195.403 115.978 195.182C116.404 194.961 116.885 194.85 117.421 194.85C118.034 194.85 118.592 195.003 119.094 195.31C119.605 195.607 120.005 196.029 120.294 196.574C120.583 197.118 120.728 197.744 120.728 198.451C120.728 199.157 120.583 199.791 120.294 200.353C120.005 200.906 119.605 201.34 119.094 201.655C118.592 201.962 118.034 202.115 117.421 202.115C116.885 202.115 116.408 202.009 115.991 201.796C115.574 201.574 115.234 201.302 114.97 200.979V205.345H113.514V194.965H114.97V195.999ZM119.247 198.451C119.247 197.965 119.145 197.548 118.941 197.199C118.745 196.842 118.481 196.574 118.149 196.395C117.826 196.208 117.477 196.114 117.102 196.114C116.736 196.114 116.387 196.208 116.055 196.395C115.732 196.582 115.468 196.854 115.263 197.212C115.068 197.57 114.97 197.991 114.97 198.476C114.97 198.961 115.068 199.387 115.263 199.753C115.468 200.11 115.732 200.383 116.055 200.57C116.387 200.757 116.736 200.851 117.102 200.851C117.477 200.851 117.826 200.757 118.149 200.57C118.481 200.374 118.745 200.093 118.941 199.727C119.145 199.361 119.247 198.936 119.247 198.451Z" fill="white"/>
<path d="M122.908 194.033C122.644 194.033 122.423 193.943 122.244 193.765C122.065 193.586 121.976 193.364 121.976 193.101C121.976 192.837 122.065 192.615 122.244 192.437C122.423 192.258 122.644 192.169 122.908 192.169C123.164 192.169 123.381 192.258 123.559 192.437C123.738 192.615 123.827 192.837 123.827 193.101C123.827 193.364 123.738 193.586 123.559 193.765C123.381 193.943 123.164 194.033 122.908 194.033ZM123.623 194.965V202H122.168V194.965H123.623Z" fill="white"/>
<path d="M129.084 194.85C129.637 194.85 130.131 194.965 130.565 195.195C131.008 195.424 131.352 195.765 131.599 196.216C131.846 196.667 131.969 197.212 131.969 197.85V202H130.527V198.067C130.527 197.438 130.369 196.957 130.054 196.625C129.739 196.284 129.309 196.114 128.765 196.114C128.22 196.114 127.786 196.284 127.462 196.625C127.147 196.957 126.99 197.438 126.99 198.067V202H125.534V194.965H126.99V195.769C127.228 195.48 127.53 195.254 127.896 195.092C128.271 194.931 128.667 194.85 129.084 194.85Z" fill="white"/>
<path d="M135.524 196.152V200.047C135.524 200.31 135.584 200.502 135.703 200.621C135.831 200.732 136.044 200.787 136.341 200.787H137.235V202H136.086C135.431 202 134.928 201.847 134.579 201.54C134.23 201.234 134.056 200.736 134.056 200.047V196.152H133.226V194.965H134.056V193.216H135.524V194.965H137.235V196.152H135.524Z" fill="white"/>
<path d="M145.025 198.31C145.025 198.574 145.008 198.812 144.974 199.025H139.598C139.641 199.587 139.849 200.038 140.224 200.379C140.598 200.719 141.058 200.889 141.603 200.889C142.386 200.889 142.939 200.562 143.263 199.906H144.833C144.62 200.553 144.233 201.085 143.671 201.502C143.118 201.911 142.429 202.115 141.603 202.115C140.93 202.115 140.326 201.966 139.79 201.668C139.262 201.362 138.845 200.936 138.539 200.391C138.241 199.838 138.092 199.2 138.092 198.476C138.092 197.753 138.236 197.118 138.526 196.574C138.824 196.02 139.237 195.595 139.764 195.297C140.301 194.999 140.913 194.85 141.603 194.85C142.267 194.85 142.858 194.995 143.378 195.284C143.897 195.573 144.301 195.982 144.591 196.51C144.88 197.029 145.025 197.629 145.025 198.31ZM143.505 197.85C143.497 197.314 143.305 196.884 142.931 196.561C142.556 196.237 142.092 196.076 141.539 196.076C141.037 196.076 140.607 196.237 140.249 196.561C139.892 196.876 139.679 197.306 139.611 197.85H143.505Z" fill="white"/>
<path d="M147.913 195.986C148.126 195.629 148.407 195.352 148.756 195.156C149.113 194.952 149.534 194.85 150.02 194.85V196.357H149.649C149.079 196.357 148.645 196.501 148.347 196.791C148.058 197.08 147.913 197.582 147.913 198.297V202H146.457V194.965H147.913V195.986Z" fill="white"/>
<path d="M152.813 194.965V202H151.358V194.965H152.813ZM153.401 193.075L150.579 194.467V193.394L153.401 191.837V193.075Z" fill="white"/>
<path d="M154.239 198.451C154.239 197.744 154.384 197.118 154.673 196.574C154.971 196.029 155.371 195.607 155.873 195.31C156.384 195.003 156.946 194.85 157.559 194.85C158.112 194.85 158.593 194.961 159.002 195.182C159.419 195.395 159.751 195.663 159.998 195.986V194.965H161.466V202H159.998V200.953C159.751 201.285 159.414 201.562 158.989 201.783C158.563 202.004 158.078 202.115 157.533 202.115C156.929 202.115 156.376 201.962 155.873 201.655C155.371 201.34 154.971 200.906 154.673 200.353C154.384 199.791 154.239 199.157 154.239 198.451ZM159.998 198.476C159.998 197.991 159.895 197.57 159.691 197.212C159.495 196.854 159.236 196.582 158.912 196.395C158.589 196.208 158.24 196.114 157.865 196.114C157.491 196.114 157.142 196.208 156.818 196.395C156.495 196.574 156.231 196.842 156.027 197.199C155.831 197.548 155.733 197.965 155.733 198.451C155.733 198.936 155.831 199.361 156.027 199.727C156.231 200.093 156.495 200.374 156.818 200.57C157.15 200.757 157.499 200.851 157.865 200.851C158.24 200.851 158.589 200.757 158.912 200.57C159.236 200.383 159.495 200.11 159.691 199.753C159.895 199.387 159.998 198.961 159.998 198.476Z" fill="white"/>
<rect x="208.076" y="184.204" width="126.303" height="27.9601" rx="4" fill="#FCB900"/>
<path d="M247.353 195.68C247.123 195.237 246.804 194.905 246.395 194.684C245.987 194.454 245.514 194.339 244.978 194.339C244.391 194.339 243.867 194.471 243.408 194.735C242.948 194.999 242.586 195.373 242.322 195.859C242.067 196.344 241.939 196.906 241.939 197.544C241.939 198.182 242.067 198.748 242.322 199.242C242.586 199.727 242.948 200.102 243.408 200.366C243.867 200.63 244.391 200.762 244.978 200.762C245.77 200.762 246.412 200.54 246.906 200.098C247.4 199.655 247.702 199.055 247.813 198.297H244.48V197.135H249.37V198.272C249.277 198.961 249.03 199.595 248.63 200.174C248.238 200.753 247.723 201.217 247.085 201.566C246.455 201.906 245.753 202.077 244.978 202.077C244.144 202.077 243.382 201.885 242.693 201.502C242.003 201.111 241.454 200.57 241.045 199.881C240.645 199.191 240.445 198.412 240.445 197.544C240.445 196.676 240.645 195.897 241.045 195.207C241.454 194.518 242.003 193.982 242.693 193.599C243.391 193.207 244.152 193.011 244.978 193.011C245.923 193.011 246.761 193.245 247.493 193.713C248.234 194.173 248.77 194.829 249.102 195.68H247.353Z" fill="white"/>
<path d="M250.321 198.451C250.321 197.744 250.465 197.118 250.755 196.574C251.053 196.029 251.453 195.607 251.955 195.31C252.466 195.003 253.028 194.85 253.641 194.85C254.194 194.85 254.675 194.961 255.083 195.182C255.5 195.395 255.832 195.663 256.079 195.986V194.965H257.548V202H256.079V200.953C255.832 201.285 255.496 201.562 255.071 201.783C254.645 202.004 254.16 202.115 253.615 202.115C253.011 202.115 252.457 201.962 251.955 201.655C251.453 201.34 251.053 200.906 250.755 200.353C250.465 199.791 250.321 199.157 250.321 198.451ZM256.079 198.476C256.079 197.991 255.977 197.57 255.773 197.212C255.577 196.854 255.317 196.582 254.994 196.395C254.671 196.208 254.322 196.114 253.947 196.114C253.572 196.114 253.223 196.208 252.9 196.395C252.577 196.574 252.313 196.842 252.108 197.199C251.913 197.548 251.815 197.965 251.815 198.451C251.815 198.936 251.913 199.361 252.108 199.727C252.313 200.093 252.577 200.374 252.9 200.57C253.232 200.757 253.581 200.851 253.947 200.851C254.322 200.851 254.671 200.757 254.994 200.57C255.317 200.383 255.577 200.11 255.773 199.753C255.977 199.387 256.079 198.961 256.079 198.476Z" fill="white"/>
<path d="M262.013 202.115C261.46 202.115 260.962 202.017 260.519 201.821C260.085 201.617 259.74 201.345 259.485 201.004C259.23 200.655 259.093 200.268 259.076 199.842H260.583C260.609 200.14 260.749 200.391 261.004 200.596C261.268 200.791 261.596 200.889 261.988 200.889C262.396 200.889 262.711 200.813 262.932 200.659C263.162 200.498 263.277 200.293 263.277 200.047C263.277 199.783 263.15 199.587 262.894 199.459C262.647 199.332 262.251 199.191 261.707 199.038C261.179 198.893 260.749 198.753 260.417 198.617C260.085 198.48 259.796 198.272 259.549 197.991C259.311 197.71 259.191 197.34 259.191 196.88C259.191 196.505 259.302 196.165 259.523 195.859C259.745 195.544 260.06 195.297 260.468 195.118C260.885 194.939 261.362 194.85 261.898 194.85C262.698 194.85 263.341 195.054 263.826 195.463C264.32 195.863 264.584 196.412 264.618 197.11H263.162C263.137 196.795 263.009 196.544 262.779 196.357C262.549 196.169 262.239 196.076 261.847 196.076C261.464 196.076 261.17 196.148 260.966 196.293C260.762 196.437 260.66 196.629 260.66 196.867C260.66 197.055 260.728 197.212 260.864 197.34C261 197.467 261.166 197.57 261.362 197.646C261.558 197.714 261.847 197.804 262.23 197.914C262.741 198.05 263.158 198.191 263.481 198.336C263.813 198.472 264.099 198.676 264.337 198.948C264.575 199.221 264.699 199.583 264.707 200.034C264.707 200.434 264.597 200.791 264.375 201.106C264.154 201.421 263.839 201.668 263.43 201.847C263.03 202.026 262.558 202.115 262.013 202.115Z" fill="white"/>
<path d="M269.23 196.152H267.927V202H266.459V196.152H265.629V194.965H266.459V194.467C266.459 193.658 266.672 193.071 267.097 192.705C267.531 192.33 268.208 192.143 269.127 192.143V193.356C268.685 193.356 268.374 193.441 268.195 193.611C268.017 193.773 267.927 194.058 267.927 194.467V194.965H269.23V196.152Z" fill="white"/>
<path d="M271.26 194.033C270.996 194.033 270.775 193.943 270.596 193.765C270.417 193.586 270.328 193.364 270.328 193.101C270.328 192.837 270.417 192.615 270.596 192.437C270.775 192.258 270.996 192.169 271.26 192.169C271.515 192.169 271.732 192.258 271.911 192.437C272.09 192.615 272.179 192.837 272.179 193.101C272.179 193.364 272.09 193.586 271.911 193.765C271.732 193.943 271.515 194.033 271.26 194.033ZM271.975 194.965V202H270.519V194.965H271.975Z" fill="white"/>
<path d="M275.584 196.152V200.047C275.584 200.31 275.644 200.502 275.763 200.621C275.891 200.732 276.104 200.787 276.401 200.787H277.295V202H276.146C275.491 202 274.988 201.847 274.639 201.54C274.29 201.234 274.116 200.736 274.116 200.047V196.152H273.286V194.965H274.116V193.216H275.584V194.965H277.295V196.152H275.584Z" fill="white"/>
<path d="M285.085 198.31C285.085 198.574 285.068 198.812 285.034 199.025H279.658C279.701 199.587 279.909 200.038 280.284 200.379C280.658 200.719 281.118 200.889 281.663 200.889C282.446 200.889 282.999 200.562 283.323 199.906H284.893C284.68 200.553 284.293 201.085 283.731 201.502C283.178 201.911 282.489 202.115 281.663 202.115C280.99 202.115 280.386 201.966 279.85 201.668C279.322 201.362 278.905 200.936 278.599 200.391C278.301 199.838 278.152 199.2 278.152 198.476C278.152 197.753 278.296 197.118 278.586 196.574C278.884 196.02 279.297 195.595 279.824 195.297C280.361 194.999 280.973 194.85 281.663 194.85C282.327 194.85 282.918 194.995 283.438 195.284C283.957 195.573 284.361 195.982 284.651 196.51C284.94 197.029 285.085 197.629 285.085 198.31ZM283.565 197.85C283.557 197.314 283.365 196.884 282.991 196.561C282.616 196.237 282.152 196.076 281.599 196.076C281.097 196.076 280.667 196.237 280.309 196.561C279.952 196.876 279.739 197.306 279.671 197.85H283.565Z" fill="white"/>
<path d="M287.973 195.986C288.186 195.629 288.467 195.352 288.816 195.156C289.173 194.952 289.594 194.85 290.08 194.85V196.357H289.709C289.139 196.357 288.705 196.501 288.407 196.791C288.118 197.08 287.973 197.582 287.973 198.297V202H286.517V194.965H287.973V195.986Z" fill="white"/>
<path d="M292.873 194.965V202H291.418V194.965H292.873ZM293.461 193.075L290.639 194.467V193.394L293.461 191.837V193.075Z" fill="white"/>
<path d="M294.299 198.451C294.299 197.744 294.444 197.118 294.733 196.574C295.031 196.029 295.431 195.607 295.933 195.31C296.444 195.003 297.006 194.85 297.619 194.85C298.172 194.85 298.653 194.961 299.062 195.182C299.479 195.395 299.811 195.663 300.058 195.986V194.965H301.526V202H300.058V200.953C299.811 201.285 299.474 201.562 299.049 201.783C298.623 202.004 298.138 202.115 297.593 202.115C296.989 202.115 296.436 201.962 295.933 201.655C295.431 201.34 295.031 200.906 294.733 200.353C294.444 199.791 294.299 199.157 294.299 198.451ZM300.058 198.476C300.058 197.991 299.955 197.57 299.751 197.212C299.555 196.854 299.296 196.582 298.972 196.395C298.649 196.208 298.3 196.114 297.925 196.114C297.551 196.114 297.202 196.208 296.878 196.395C296.555 196.574 296.291 196.842 296.087 197.199C295.891 197.548 295.793 197.965 295.793 198.451C295.793 198.936 295.891 199.361 296.087 199.727C296.291 200.093 296.555 200.374 296.878 200.57C297.21 200.757 297.559 200.851 297.925 200.851C298.3 200.851 298.649 200.757 298.972 200.57C299.296 200.383 299.555 200.11 299.751 199.753C299.955 199.387 300.058 198.961 300.058 198.476Z" fill="white"/>
<rect x="135.35" y="230.868" width="126.303" height="27.9601" rx="4" fill="#8ED1FC"/>
<path d="M184.046 248.754C183.45 248.754 182.914 248.652 182.437 248.447C181.961 248.235 181.586 247.937 181.314 247.554C181.041 247.171 180.905 246.724 180.905 246.213H182.463C182.497 246.596 182.646 246.911 182.91 247.158C183.182 247.405 183.561 247.528 184.046 247.528C184.548 247.528 184.94 247.409 185.221 247.171C185.502 246.924 185.642 246.609 185.642 246.226C185.642 245.928 185.553 245.685 185.374 245.498C185.204 245.311 184.987 245.166 184.723 245.064C184.468 244.962 184.11 244.851 183.65 244.732C183.072 244.579 182.599 244.425 182.233 244.272C181.876 244.11 181.569 243.864 181.314 243.532C181.058 243.2 180.931 242.757 180.931 242.204C180.931 241.693 181.058 241.246 181.314 240.863C181.569 240.48 181.927 240.186 182.386 239.982C182.846 239.778 183.378 239.676 183.982 239.676C184.842 239.676 185.544 239.893 186.089 240.327C186.642 240.752 186.949 241.34 187.009 242.089H185.4C185.374 241.765 185.221 241.489 184.94 241.259C184.659 241.029 184.289 240.914 183.829 240.914C183.412 240.914 183.072 241.02 182.808 241.233C182.544 241.446 182.412 241.753 182.412 242.153C182.412 242.425 182.493 242.651 182.655 242.829C182.825 243 183.038 243.136 183.293 243.238C183.548 243.34 183.897 243.451 184.34 243.57C184.927 243.732 185.404 243.893 185.77 244.055C186.145 244.217 186.459 244.468 186.715 244.808C186.979 245.14 187.111 245.587 187.111 246.149C187.111 246.6 186.987 247.026 186.74 247.426C186.502 247.826 186.149 248.149 185.681 248.396C185.221 248.635 184.676 248.754 184.046 248.754Z" fill="white"/>
<path d="M188.343 245.115C188.343 244.408 188.488 243.783 188.777 243.238C189.075 242.693 189.475 242.272 189.977 241.974C190.488 241.667 191.05 241.514 191.663 241.514C192.216 241.514 192.697 241.625 193.106 241.846C193.523 242.059 193.855 242.327 194.101 242.651V241.629H195.57V248.664H194.101V247.617C193.855 247.949 193.518 248.226 193.093 248.447C192.667 248.669 192.182 248.779 191.637 248.779C191.033 248.779 190.48 248.626 189.977 248.32C189.475 248.005 189.075 247.571 188.777 247.017C188.488 246.455 188.343 245.821 188.343 245.115ZM194.101 245.14C194.101 244.655 193.999 244.234 193.795 243.876C193.599 243.519 193.34 243.246 193.016 243.059C192.693 242.872 192.344 242.778 191.969 242.778C191.595 242.778 191.246 242.872 190.922 243.059C190.599 243.238 190.335 243.506 190.131 243.864C189.935 244.213 189.837 244.63 189.837 245.115C189.837 245.6 189.935 246.026 190.131 246.392C190.335 246.758 190.599 247.039 190.922 247.234C191.254 247.422 191.603 247.515 191.969 247.515C192.344 247.515 192.693 247.422 193.016 247.234C193.34 247.047 193.599 246.775 193.795 246.417C193.999 246.051 194.101 245.626 194.101 245.14Z" fill="white"/>
<path d="M198.937 239.216V248.664H197.482V239.216H198.937Z" fill="white"/>
<path d="M207.22 241.629V248.664H205.764V247.834C205.534 248.124 205.232 248.354 204.858 248.524C204.492 248.686 204.1 248.767 203.683 248.767C203.13 248.767 202.632 248.652 202.189 248.422C201.755 248.192 201.41 247.851 201.155 247.4C200.908 246.949 200.784 246.404 200.784 245.766V241.629H202.227V245.549C202.227 246.179 202.385 246.664 202.7 247.005C203.015 247.337 203.445 247.502 203.989 247.502C204.534 247.502 204.964 247.337 205.279 247.005C205.602 246.664 205.764 246.179 205.764 245.549V241.629H207.22Z" fill="white"/>
<path d="M208.655 245.115C208.655 244.408 208.8 243.783 209.089 243.238C209.387 242.693 209.787 242.272 210.289 241.974C210.8 241.667 211.366 241.514 211.988 241.514C212.447 241.514 212.898 241.616 213.341 241.821C213.792 242.016 214.15 242.28 214.414 242.612V239.216H215.882V248.664H214.414V247.605C214.175 247.945 213.843 248.226 213.418 248.447C213.001 248.669 212.52 248.779 211.975 248.779C211.362 248.779 210.8 248.626 210.289 248.32C209.787 248.005 209.387 247.571 209.089 247.017C208.8 246.455 208.655 245.821 208.655 245.115ZM214.414 245.14C214.414 244.655 214.311 244.234 214.107 243.876C213.911 243.519 213.652 243.246 213.328 243.059C213.005 242.872 212.656 242.778 212.281 242.778C211.907 242.778 211.558 242.872 211.234 243.059C210.911 243.238 210.647 243.506 210.443 243.864C210.247 244.213 210.149 244.63 210.149 245.115C210.149 245.6 210.247 246.026 210.443 246.392C210.647 246.758 210.911 247.039 211.234 247.234C211.566 247.422 211.915 247.515 212.281 247.515C212.656 247.515 213.005 247.422 213.328 247.234C213.652 247.047 213.911 246.775 214.107 246.417C214.311 246.051 214.414 245.626 214.414 245.14Z" fill="white"/>
</g>
<g opacity="0.45" clip-path="url(#clip0)">
<path d="M314.333 337.789L367.361 390.945C370.455 394.046 374.511 395.592 378.566 395.592C382.622 395.592 386.677 394.046 389.772 390.945C395.95 384.742 395.95 374.687 389.772 368.484L336.744 315.328C330.555 309.136 320.522 309.136 314.333 315.328V315.338C308.155 321.541 308.145 331.586 314.333 337.789Z" fill="#DFE7F4"/>
<path d="M314.333 337.789L367.361 390.945C370.455 394.046 374.511 395.592 378.566 395.592C382.622 395.592 386.677 394.046 389.771 390.945L314.333 315.339C308.155 321.541 308.145 331.586 314.333 337.789Z" fill="#C7CFE1"/>
<path d="M331.041 198.272C331.041 207.04 323.948 214.149 315.199 214.149C306.45 214.149 299.358 207.04 299.358 198.272C299.358 141.991 253.672 96.2033 197.517 96.2033C188.768 96.2033 181.675 89.0946 181.675 80.3262C181.675 71.5578 188.768 64.4492 197.517 64.4492C271.142 64.4492 331.041 124.481 331.041 198.272Z" fill="#F0F7FF"/>
<path d="M58.3629 58.7969C94.0067 23.063 143.232 0.930328 197.516 0.930328C306.095 0.930328 394.418 89.4502 394.418 198.25C394.418 238.335 382.484 276.927 359.915 309.845C353.018 319.911 345.277 329.257 336.744 337.799C328.21 346.362 318.906 354.1 308.873 361.012C276.017 383.631 237.511 395.592 197.516 395.592C88.9584 395.592 0.635742 307.072 0.635742 198.25C0.635742 143.856 22.7191 94.5309 58.3629 58.7969ZM197.516 363.838C231.08 363.838 263.375 353.814 290.94 334.836C299.368 329.035 307.173 322.526 314.333 315.339C321.504 308.173 328.01 300.329 333.797 291.872C352.733 264.257 362.735 231.889 362.735 198.25C362.735 106.957 288.617 32.6845 197.516 32.6845C151.966 32.6845 110.662 51.2606 80.763 81.2471C50.8433 111.223 32.3191 152.62 32.3191 198.25C32.3191 289.554 106.427 363.838 197.516 363.838Z" fill="#DAEBFC"/>
<path d="M0.636108 198.25C0.636108 307.072 88.9588 395.592 197.517 395.592C237.512 395.592 276.018 383.631 308.873 361.011C318.906 354.1 328.211 346.362 336.744 337.799L314.333 315.338C307.173 322.525 299.368 329.035 290.94 334.835C263.376 353.814 231.08 363.838 197.517 363.838C106.427 363.838 32.3195 289.554 32.3195 198.25C32.3195 152.62 50.8437 111.223 80.7634 81.247L58.3633 58.7968C22.7194 94.5308 0.636108 143.856 0.636108 198.25Z" fill="#D2ECFD"/>
<path d="M343.142 385.009L446.613 488.716C450.365 492.477 456.445 492.465 460.186 488.716L473.759 475.113L487.339 461.503C491.074 457.759 491.09 451.66 487.339 447.9L383.861 344.192C382.063 342.39 379.625 341.377 377.078 341.377C374.531 341.377 372.086 342.39 370.288 344.192L356.709 357.802L343.142 371.406C339.392 375.164 339.392 381.257 343.142 385.009Z" fill="#DAEBFC"/>
<path d="M343.141 385.009L446.575 488.68C450.327 492.44 456.408 492.429 460.149 488.68L473.722 475.077L356.707 357.802L343.141 371.406C339.391 375.164 339.391 381.257 343.141 385.009Z" fill="#D2ECFD"/>
</g>
<defs>
<filter id="filter0_d" x="-53.8105" y="61.4431" width="504.623" height="303.728" filterUnits="userSpaceOnUse" color-interpolation-filters="sRGB">
<feFlood flood-opacity="0" result="BackgroundImageFix"/>
<feColorMatrix in="SourceAlpha" type="matrix" values="0 0 0 0 0 0 0 0 0 0 0 0 0 0 0 0 0 0 127 0"/>
<feOffset dy="4"/>
<feGaussianBlur stdDeviation="21"/>
<feColorMatrix type="matrix" values="0 0 0 0 0.592157 0 0 0 0 0.592157 0 0 0 0 0.592157 0 0 0 0.1 0"/>
<feBlend mode="normal" in2="BackgroundImageFix" result="effect1_dropShadow"/>
<feBlend mode="normal" in="SourceGraphic" in2="effect1_dropShadow" result="shape"/>
</filter>
<clipPath id="clip0">
<rect width="540.73" height="541.937" fill="white" transform="matrix(-1 0 0 1 541.365 0.930328)"/>
</clipPath>
</defs>
</svg>
