<svg width="541" height="543" viewBox="0 0 541 543" fill="none" xmlns="http://www.w3.org/2000/svg">
<ellipse rx="168.978" ry="168.978" transform="matrix(-1 0 0 1 343.868 197.557)" fill="white"/>
<mask id="mask0" mask-type="alpha" maskUnits="userSpaceOnUse" x="185" y="36" width="317" height="324">
<ellipse cx="343.867" cy="197.557" rx="157.982" ry="161.472" fill="#C4C4C4"/>
</mask>
<g mask="url(#mask0)">
<g filter="url(#filter0_d)">
<rect x="134.189" y="98.4431" width="420.623" height="219.728" rx="5" fill="white"/>
</g>
<path d="M511.291 279.627H173.642" stroke="#B5B8C9" stroke-linecap="round" stroke-linejoin="round" stroke-dasharray="6.12 6.12"/>
<path d="M177.712 161.405H515.361" stroke="#B5B8C9" stroke-linecap="round" stroke-linejoin="round" stroke-dasharray="6.12 6.12"/>
<path d="M261.415 128.865C260.82 128.865 260.283 128.762 259.807 128.558C259.33 128.345 258.955 128.047 258.683 127.664C258.411 127.281 258.274 126.834 258.274 126.324H259.832C259.866 126.707 260.015 127.022 260.279 127.269C260.551 127.515 260.93 127.639 261.415 127.639C261.918 127.639 262.309 127.52 262.59 127.281C262.871 127.034 263.011 126.72 263.011 126.336C263.011 126.039 262.922 125.796 262.743 125.609C262.573 125.421 262.356 125.277 262.092 125.175C261.837 125.072 261.479 124.962 261.02 124.843C260.441 124.689 259.968 124.536 259.602 124.383C259.245 124.221 258.938 123.974 258.683 123.642C258.428 123.31 258.3 122.868 258.3 122.314C258.3 121.804 258.428 121.357 258.683 120.974C258.938 120.591 259.296 120.297 259.756 120.093C260.215 119.889 260.747 119.786 261.352 119.786C262.211 119.786 262.914 120.003 263.458 120.438C264.012 120.863 264.318 121.451 264.378 122.2H262.769C262.743 121.876 262.59 121.599 262.309 121.37C262.028 121.14 261.658 121.025 261.198 121.025C260.781 121.025 260.441 121.131 260.177 121.344C259.913 121.557 259.781 121.863 259.781 122.263C259.781 122.536 259.862 122.761 260.024 122.94C260.194 123.11 260.407 123.247 260.662 123.349C260.917 123.451 261.266 123.562 261.709 123.681C262.296 123.842 262.773 124.004 263.139 124.166C263.514 124.328 263.829 124.579 264.084 124.919C264.348 125.251 264.48 125.698 264.48 126.26C264.48 126.711 264.356 127.137 264.11 127.537C263.871 127.937 263.518 128.26 263.05 128.507C262.59 128.745 262.045 128.865 261.415 128.865Z" fill="#5A6170"/>
<path d="M272.645 125.085C272.645 125.349 272.628 125.587 272.594 125.8H267.219C267.261 126.362 267.47 126.813 267.844 127.154C268.219 127.494 268.679 127.664 269.223 127.664C270.007 127.664 270.56 127.337 270.883 126.681H272.454C272.241 127.328 271.854 127.86 271.292 128.277C270.739 128.686 270.049 128.89 269.223 128.89C268.551 128.89 267.947 128.741 267.41 128.443C266.883 128.137 266.465 127.711 266.159 127.166C265.861 126.613 265.712 125.975 265.712 125.251C265.712 124.528 265.857 123.894 266.146 123.349C266.444 122.795 266.857 122.37 267.385 122.072C267.921 121.774 268.534 121.625 269.223 121.625C269.887 121.625 270.479 121.77 270.998 122.059C271.517 122.349 271.922 122.757 272.211 123.285C272.501 123.804 272.645 124.404 272.645 125.085ZM271.126 124.626C271.117 124.089 270.926 123.659 270.551 123.336C270.177 123.012 269.713 122.851 269.16 122.851C268.657 122.851 268.227 123.012 267.87 123.336C267.512 123.651 267.3 124.081 267.232 124.626H271.126Z" fill="#5A6170"/>
<path d="M275.533 119.327V128.775H274.078V119.327H275.533Z" fill="#5A6170"/>
<path d="M283.892 125.085C283.892 125.349 283.875 125.587 283.841 125.8H278.466C278.508 126.362 278.717 126.813 279.091 127.154C279.466 127.494 279.926 127.664 280.47 127.664C281.254 127.664 281.807 127.337 282.13 126.681H283.701C283.488 127.328 283.101 127.86 282.539 128.277C281.986 128.686 281.296 128.89 280.47 128.89C279.798 128.89 279.194 128.741 278.657 128.443C278.13 128.137 277.713 127.711 277.406 127.166C277.108 126.613 276.959 125.975 276.959 125.251C276.959 124.528 277.104 123.894 277.393 123.349C277.691 122.795 278.104 122.37 278.632 122.072C279.168 121.774 279.781 121.625 280.47 121.625C281.134 121.625 281.726 121.77 282.245 122.059C282.765 122.349 283.169 122.757 283.458 123.285C283.748 123.804 283.892 124.404 283.892 125.085ZM282.373 124.626C282.364 124.089 282.173 123.659 281.798 123.336C281.424 123.012 280.96 122.851 280.407 122.851C279.904 122.851 279.475 123.012 279.117 123.336C278.76 123.651 278.547 124.081 278.479 124.626H282.373Z" fill="#5A6170"/>
<path d="M284.84 125.251C284.84 124.528 284.984 123.894 285.274 123.349C285.572 122.795 285.98 122.37 286.499 122.072C287.019 121.774 287.615 121.625 288.287 121.625C289.138 121.625 289.841 121.829 290.394 122.238C290.956 122.638 291.334 123.213 291.53 123.962H289.96C289.832 123.613 289.628 123.34 289.347 123.144C289.066 122.949 288.713 122.851 288.287 122.851C287.691 122.851 287.215 123.064 286.857 123.489C286.508 123.906 286.334 124.494 286.334 125.251C286.334 126.009 286.508 126.6 286.857 127.026C287.215 127.452 287.691 127.664 288.287 127.664C289.13 127.664 289.687 127.294 289.96 126.554H291.53C291.326 127.269 290.943 127.839 290.381 128.265C289.819 128.682 289.121 128.89 288.287 128.89C287.615 128.89 287.019 128.741 286.499 128.443C285.98 128.137 285.572 127.711 285.274 127.166C284.984 126.613 284.84 125.975 284.84 125.251Z" fill="#5A6170"/>
<path d="M293.721 120.808C293.457 120.808 293.236 120.718 293.057 120.54C292.879 120.361 292.789 120.14 292.789 119.876C292.789 119.612 292.879 119.391 293.057 119.212C293.236 119.033 293.457 118.944 293.721 118.944C293.977 118.944 294.194 119.033 294.373 119.212C294.551 119.391 294.641 119.612 294.641 119.876C294.641 120.14 294.551 120.361 294.373 120.54C294.194 120.718 293.977 120.808 293.721 120.808ZM294.436 121.74V128.775H292.981V121.74H294.436Z" fill="#5A6170"/>
<path d="M299.399 128.89C298.735 128.89 298.135 128.741 297.599 128.443C297.062 128.137 296.641 127.711 296.335 127.166C296.028 126.613 295.875 125.975 295.875 125.251C295.875 124.536 296.032 123.902 296.347 123.349C296.662 122.795 297.092 122.37 297.637 122.072C298.182 121.774 298.79 121.625 299.463 121.625C300.135 121.625 300.744 121.774 301.289 122.072C301.834 122.37 302.263 122.795 302.578 123.349C302.893 123.902 303.051 124.536 303.051 125.251C303.051 125.966 302.889 126.6 302.566 127.154C302.242 127.707 301.799 128.137 301.238 128.443C300.684 128.741 300.072 128.89 299.399 128.89ZM299.399 127.626C299.774 127.626 300.123 127.537 300.446 127.358C300.778 127.179 301.046 126.911 301.25 126.554C301.455 126.196 301.557 125.762 301.557 125.251C301.557 124.74 301.459 124.311 301.263 123.962C301.067 123.604 300.808 123.336 300.484 123.157C300.161 122.978 299.812 122.889 299.437 122.889C299.063 122.889 298.714 122.978 298.39 123.157C298.075 123.336 297.824 123.604 297.637 123.962C297.45 124.311 297.356 124.74 297.356 125.251C297.356 126.009 297.548 126.596 297.931 127.013C298.322 127.422 298.812 127.626 299.399 127.626Z" fill="#5A6170"/>
<path d="M308.039 121.625C308.593 121.625 309.086 121.74 309.52 121.97C309.963 122.2 310.308 122.54 310.555 122.991C310.801 123.442 310.925 123.987 310.925 124.626V128.775H309.482V124.843C309.482 124.213 309.325 123.732 309.01 123.4C308.695 123.059 308.265 122.889 307.72 122.889C307.175 122.889 306.741 123.059 306.418 123.4C306.103 123.732 305.945 124.213 305.945 124.843V128.775H304.49V121.74H305.945V122.544C306.184 122.255 306.486 122.029 306.852 121.868C307.226 121.706 307.622 121.625 308.039 121.625Z" fill="#5A6170"/>
<path d="M312.296 125.226C312.296 124.519 312.441 123.894 312.731 123.349C313.028 122.804 313.429 122.383 313.931 122.085C314.441 121.778 315.003 121.625 315.616 121.625C316.169 121.625 316.65 121.736 317.059 121.957C317.476 122.17 317.808 122.438 318.055 122.761V121.74H319.523V128.775H318.055V127.728C317.808 128.06 317.472 128.337 317.046 128.558C316.621 128.779 316.135 128.89 315.591 128.89C314.986 128.89 314.433 128.737 313.931 128.43C313.429 128.116 313.028 127.681 312.731 127.128C312.441 126.566 312.296 125.932 312.296 125.226ZM318.055 125.251C318.055 124.766 317.953 124.345 317.748 123.987C317.553 123.63 317.293 123.357 316.97 123.17C316.646 122.983 316.297 122.889 315.923 122.889C315.548 122.889 315.199 122.983 314.876 123.17C314.552 123.349 314.288 123.617 314.084 123.974C313.888 124.323 313.79 124.74 313.79 125.226C313.79 125.711 313.888 126.136 314.084 126.502C314.288 126.869 314.552 127.149 314.876 127.345C315.208 127.532 315.557 127.626 315.923 127.626C316.297 127.626 316.646 127.532 316.97 127.345C317.293 127.158 317.553 126.886 317.748 126.528C317.953 126.162 318.055 125.736 318.055 125.251Z" fill="#5A6170"/>
<path d="M328.391 121.625C328.927 121.625 329.404 121.74 329.821 121.97C330.246 122.2 330.578 122.54 330.817 122.991C331.064 123.442 331.187 123.987 331.187 124.626V128.775H329.744V124.843C329.744 124.213 329.587 123.732 329.272 123.4C328.957 123.059 328.527 122.889 327.982 122.889C327.437 122.889 327.003 123.059 326.68 123.4C326.365 123.732 326.207 124.213 326.207 124.843V128.775H324.752V119.327H326.207V122.557C326.454 122.259 326.765 122.029 327.14 121.868C327.523 121.706 327.94 121.625 328.391 121.625Z" fill="#5A6170"/>
<path d="M332.559 125.226C332.559 124.519 332.703 123.894 332.993 123.349C333.291 122.804 333.691 122.383 334.193 122.085C334.704 121.778 335.265 121.625 335.878 121.625C336.432 121.625 336.913 121.736 337.321 121.957C337.738 122.17 338.07 122.438 338.317 122.761V121.74H339.785V128.775H338.317V127.728C338.07 128.06 337.734 128.337 337.308 128.558C336.883 128.779 336.398 128.89 335.853 128.89C335.248 128.89 334.695 128.737 334.193 128.43C333.691 128.116 333.291 127.681 332.993 127.128C332.703 126.566 332.559 125.932 332.559 125.226ZM338.317 125.251C338.317 124.766 338.215 124.345 338.011 123.987C337.815 123.63 337.555 123.357 337.232 123.17C336.908 122.983 336.559 122.889 336.185 122.889C335.81 122.889 335.461 122.983 335.138 123.17C334.814 123.349 334.55 123.617 334.346 123.974C334.15 124.323 334.052 124.74 334.052 125.226C334.052 125.711 334.15 126.136 334.346 126.502C334.55 126.869 334.814 127.149 335.138 127.345C335.47 127.532 335.819 127.626 336.185 127.626C336.559 127.626 336.908 127.532 337.232 127.345C337.555 127.158 337.815 126.886 338.011 126.528C338.215 126.162 338.317 125.736 338.317 125.251Z" fill="#5A6170"/>
<path d="M344.251 128.89C343.698 128.89 343.2 128.792 342.757 128.596C342.323 128.392 341.978 128.12 341.723 127.779C341.467 127.43 341.331 127.043 341.314 126.617H342.821C342.846 126.915 342.987 127.166 343.242 127.371C343.506 127.567 343.834 127.664 344.225 127.664C344.634 127.664 344.949 127.588 345.17 127.435C345.4 127.273 345.515 127.069 345.515 126.822C345.515 126.558 345.387 126.362 345.132 126.234C344.885 126.107 344.489 125.966 343.944 125.813C343.417 125.668 342.987 125.528 342.655 125.392C342.323 125.255 342.033 125.047 341.787 124.766C341.548 124.485 341.429 124.115 341.429 123.655C341.429 123.281 341.54 122.94 341.761 122.634C341.982 122.319 342.297 122.072 342.706 121.893C343.123 121.714 343.6 121.625 344.136 121.625C344.936 121.625 345.579 121.829 346.064 122.238C346.558 122.638 346.822 123.187 346.856 123.885H345.4C345.375 123.57 345.247 123.319 345.017 123.132C344.787 122.944 344.476 122.851 344.085 122.851C343.702 122.851 343.408 122.923 343.204 123.068C343 123.213 342.897 123.404 342.897 123.642C342.897 123.83 342.966 123.987 343.102 124.115C343.238 124.243 343.404 124.345 343.6 124.421C343.796 124.489 344.085 124.579 344.468 124.689C344.979 124.826 345.396 124.966 345.719 125.111C346.051 125.247 346.336 125.451 346.575 125.724C346.813 125.996 346.937 126.358 346.945 126.809C346.945 127.209 346.834 127.567 346.613 127.881C346.392 128.196 346.077 128.443 345.668 128.622C345.268 128.801 344.796 128.89 344.251 128.89Z" fill="#5A6170"/>
<path d="M350.216 122.927V126.822C350.216 127.086 350.276 127.277 350.395 127.396C350.522 127.507 350.735 127.562 351.033 127.562H351.927V128.775H350.778C350.122 128.775 349.62 128.622 349.271 128.316C348.922 128.009 348.748 127.511 348.748 126.822V122.927H347.918V121.74H348.748V119.991H350.216V121.74H351.927V122.927H350.216Z" fill="#5A6170"/>
<path d="M352.783 125.226C352.783 124.519 352.928 123.894 353.217 123.349C353.515 122.804 353.915 122.383 354.418 122.085C354.928 121.778 355.49 121.625 356.103 121.625C356.656 121.625 357.137 121.736 357.546 121.957C357.963 122.17 358.295 122.438 358.542 122.761V121.74H360.01V128.775H358.542V127.728C358.295 128.06 357.959 128.337 357.533 128.558C357.108 128.779 356.622 128.89 356.078 128.89C355.473 128.89 354.92 128.737 354.418 128.43C353.915 128.116 353.515 127.681 353.217 127.128C352.928 126.566 352.783 125.932 352.783 125.226ZM358.542 125.251C358.542 124.766 358.44 124.345 358.235 123.987C358.04 123.63 357.78 123.357 357.457 123.17C357.133 122.983 356.784 122.889 356.41 122.889C356.035 122.889 355.686 122.983 355.363 123.17C355.039 123.349 354.775 123.617 354.571 123.974C354.375 124.323 354.277 124.74 354.277 125.226C354.277 125.711 354.375 126.136 354.571 126.502C354.775 126.869 355.039 127.149 355.363 127.345C355.694 127.532 356.043 127.626 356.41 127.626C356.784 127.626 357.133 127.532 357.457 127.345C357.78 127.158 358.04 126.886 358.235 126.528C358.44 126.162 358.542 125.736 358.542 125.251Z" fill="#5A6170"/>
<path d="M365.022 121.765C365.073 120.974 365.375 120.357 365.928 119.914C366.49 119.471 367.205 119.25 368.073 119.25C368.669 119.25 369.184 119.357 369.618 119.569C370.052 119.782 370.38 120.072 370.601 120.438C370.823 120.804 370.933 121.216 370.933 121.676C370.933 122.204 370.793 122.655 370.512 123.03C370.231 123.404 369.895 123.655 369.503 123.783V123.834C370.006 123.987 370.397 124.268 370.678 124.677C370.959 125.077 371.099 125.592 371.099 126.222C371.099 126.724 370.984 127.171 370.755 127.562C370.525 127.954 370.184 128.265 369.733 128.494C369.282 128.716 368.742 128.826 368.112 128.826C367.192 128.826 366.435 128.592 365.839 128.124C365.252 127.647 364.937 126.966 364.894 126.081H366.299C366.333 126.532 366.507 126.903 366.822 127.192C367.137 127.473 367.563 127.613 368.099 127.613C368.618 127.613 369.018 127.473 369.299 127.192C369.58 126.903 369.72 126.532 369.72 126.081C369.72 125.485 369.529 125.064 369.146 124.817C368.771 124.562 368.192 124.434 367.409 124.434H367.077V123.234H367.422C368.112 123.225 368.635 123.11 368.993 122.889C369.359 122.668 369.542 122.319 369.542 121.842C369.542 121.433 369.41 121.11 369.146 120.872C368.882 120.625 368.507 120.501 368.022 120.501C367.546 120.501 367.175 120.625 366.911 120.872C366.648 121.11 366.49 121.408 366.439 121.765H365.022Z" fill="#5A6170"/>
<path d="M378.69 128.89C378.137 128.89 377.639 128.792 377.196 128.596C376.762 128.392 376.418 128.12 376.162 127.779C375.907 127.43 375.771 127.043 375.754 126.617H377.26C377.286 126.915 377.426 127.166 377.682 127.371C377.946 127.567 378.273 127.664 378.665 127.664C379.073 127.664 379.388 127.588 379.61 127.435C379.839 127.273 379.954 127.069 379.954 126.822C379.954 126.558 379.827 126.362 379.571 126.234C379.325 126.107 378.929 125.966 378.384 125.813C377.856 125.668 377.426 125.528 377.094 125.392C376.762 125.255 376.473 125.047 376.226 124.766C375.988 124.485 375.869 124.115 375.869 123.655C375.869 123.281 375.979 122.94 376.201 122.634C376.422 122.319 376.737 122.072 377.145 121.893C377.562 121.714 378.039 121.625 378.575 121.625C379.376 121.625 380.018 121.829 380.503 122.238C380.997 122.638 381.261 123.187 381.295 123.885H379.839C379.814 123.57 379.686 123.319 379.456 123.132C379.227 122.944 378.916 122.851 378.524 122.851C378.141 122.851 377.848 122.923 377.643 123.068C377.439 123.213 377.337 123.404 377.337 123.642C377.337 123.83 377.405 123.987 377.541 124.115C377.677 124.243 377.843 124.345 378.039 124.421C378.235 124.489 378.524 124.579 378.907 124.689C379.418 124.826 379.835 124.966 380.159 125.111C380.491 125.247 380.776 125.451 381.014 125.724C381.253 125.996 381.376 126.358 381.384 126.809C381.384 127.209 381.274 127.567 381.052 127.881C380.831 128.196 380.516 128.443 380.108 128.622C379.708 128.801 379.235 128.89 378.69 128.89Z" fill="#5A6170"/>
<path d="M389.405 125.085C389.405 125.349 389.388 125.587 389.354 125.8H383.979C384.021 126.362 384.23 126.813 384.604 127.154C384.979 127.494 385.439 127.664 385.983 127.664C386.766 127.664 387.32 127.337 387.643 126.681H389.214C389.001 127.328 388.614 127.86 388.052 128.277C387.499 128.686 386.809 128.89 385.983 128.89C385.311 128.89 384.707 128.741 384.17 128.443C383.642 128.137 383.225 127.711 382.919 127.166C382.621 126.613 382.472 125.975 382.472 125.251C382.472 124.528 382.617 123.894 382.906 123.349C383.204 122.795 383.617 122.37 384.145 122.072C384.681 121.774 385.294 121.625 385.983 121.625C386.647 121.625 387.239 121.77 387.758 122.059C388.277 122.349 388.682 122.757 388.971 123.285C389.261 123.804 389.405 124.404 389.405 125.085ZM387.886 124.626C387.877 124.089 387.686 123.659 387.311 123.336C386.937 123.012 386.473 122.851 385.919 122.851C385.417 122.851 384.987 123.012 384.63 123.336C384.272 123.651 384.06 124.081 383.991 124.626H387.886Z" fill="#5A6170"/>
<path d="M392.293 122.761C392.506 122.404 392.787 122.127 393.136 121.931C393.493 121.727 393.915 121.625 394.4 121.625V123.132H394.03C393.459 123.132 393.025 123.276 392.727 123.566C392.438 123.855 392.293 124.357 392.293 125.072V128.775H390.838V121.74H392.293V122.761Z" fill="#5A6170"/>
<path d="M398.458 127.473L400.449 121.74H401.994L399.313 128.775H397.577L394.908 121.74H396.466L398.458 127.473Z" fill="#5A6170"/>
<path d="M403.835 120.808C403.571 120.808 403.35 120.718 403.171 120.54C402.993 120.361 402.903 120.14 402.903 119.876C402.903 119.612 402.993 119.391 403.171 119.212C403.35 119.033 403.571 118.944 403.835 118.944C404.091 118.944 404.308 119.033 404.486 119.212C404.665 119.391 404.755 119.612 404.755 119.876C404.755 120.14 404.665 120.361 404.486 120.54C404.308 120.718 404.091 120.808 403.835 120.808ZM404.55 121.74V128.775H403.095V121.74H404.55Z" fill="#5A6170"/>
<path d="M405.976 125.251C405.976 124.528 406.121 123.894 406.41 123.349C406.708 122.795 407.117 122.37 407.636 122.072C408.155 121.774 408.751 121.625 409.424 121.625C410.275 121.625 410.977 121.829 411.53 122.238C412.092 122.638 412.471 123.213 412.667 123.962H411.096C410.969 123.613 410.764 123.34 410.483 123.144C410.202 122.949 409.849 122.851 409.424 122.851C408.828 122.851 408.351 123.064 407.994 123.489C407.645 123.906 407.47 124.494 407.47 125.251C407.47 126.009 407.645 126.6 407.994 127.026C408.351 127.452 408.828 127.664 409.424 127.664C410.266 127.664 410.824 127.294 411.096 126.554H412.667C412.462 127.269 412.079 127.839 411.518 128.265C410.956 128.682 410.258 128.89 409.424 128.89C408.751 128.89 408.155 128.741 407.636 128.443C407.117 128.137 406.708 127.711 406.41 127.166C406.121 126.613 405.976 125.975 405.976 125.251Z" fill="#5A6170"/>
<path d="M414.858 120.808C414.594 120.808 414.373 120.718 414.194 120.54C414.015 120.361 413.926 120.14 413.926 119.876C413.926 119.612 414.015 119.391 414.194 119.212C414.373 119.033 414.594 118.944 414.858 118.944C415.113 118.944 415.33 119.033 415.509 119.212C415.688 119.391 415.777 119.612 415.777 119.876C415.777 120.14 415.688 120.361 415.509 120.54C415.33 120.718 415.113 120.808 414.858 120.808ZM415.573 121.74V128.775H414.117V121.74H415.573Z" fill="#5A6170"/>
<path d="M420.536 128.89C419.872 128.89 419.272 128.741 418.735 128.443C418.199 128.137 417.778 127.711 417.471 127.166C417.165 126.613 417.012 125.975 417.012 125.251C417.012 124.536 417.169 123.902 417.484 123.349C417.799 122.795 418.229 122.37 418.774 122.072C419.318 121.774 419.927 121.625 420.599 121.625C421.272 121.625 421.881 121.774 422.425 122.072C422.97 122.37 423.4 122.795 423.715 123.349C424.03 123.902 424.187 124.536 424.187 125.251C424.187 125.966 424.026 126.6 423.702 127.154C423.379 127.707 422.936 128.137 422.374 128.443C421.821 128.741 421.208 128.89 420.536 128.89ZM420.536 127.626C420.91 127.626 421.259 127.537 421.583 127.358C421.915 127.179 422.183 126.911 422.387 126.554C422.591 126.196 422.693 125.762 422.693 125.251C422.693 124.74 422.596 124.311 422.4 123.962C422.204 123.604 421.944 123.336 421.621 123.157C421.297 122.978 420.948 122.889 420.574 122.889C420.199 122.889 419.85 122.978 419.527 123.157C419.212 123.336 418.961 123.604 418.774 123.962C418.586 124.311 418.493 124.74 418.493 125.251C418.493 126.009 418.684 126.596 419.067 127.013C419.459 127.422 419.948 127.626 420.536 127.626Z" fill="#5A6170"/>
<path d="M428.18 128.89C427.627 128.89 427.129 128.792 426.686 128.596C426.252 128.392 425.907 128.12 425.652 127.779C425.396 127.43 425.26 127.043 425.243 126.617H426.75C426.775 126.915 426.916 127.166 427.171 127.371C427.435 127.567 427.763 127.664 428.154 127.664C428.563 127.664 428.878 127.588 429.099 127.435C429.329 127.273 429.444 127.069 429.444 126.822C429.444 126.558 429.316 126.362 429.061 126.234C428.814 126.107 428.418 125.966 427.873 125.813C427.346 125.668 426.916 125.528 426.584 125.392C426.252 125.255 425.962 125.047 425.716 124.766C425.477 124.485 425.358 124.115 425.358 123.655C425.358 123.281 425.469 122.94 425.69 122.634C425.911 122.319 426.226 122.072 426.635 121.893C427.052 121.714 427.529 121.625 428.065 121.625C428.865 121.625 429.508 121.829 429.993 122.238C430.487 122.638 430.751 123.187 430.785 123.885H429.329C429.304 123.57 429.176 123.319 428.946 123.132C428.716 122.944 428.405 122.851 428.014 122.851C427.631 122.851 427.337 122.923 427.133 123.068C426.929 123.213 426.826 123.404 426.826 123.642C426.826 123.83 426.895 123.987 427.031 124.115C427.167 124.243 427.333 124.345 427.529 124.421C427.725 124.489 428.014 124.579 428.397 124.689C428.908 124.826 429.325 124.966 429.648 125.111C429.98 125.247 430.265 125.451 430.504 125.724C430.742 125.996 430.865 126.358 430.874 126.809C430.874 127.209 430.763 127.567 430.542 127.881C430.321 128.196 430.006 128.443 429.597 128.622C429.197 128.801 428.725 128.89 428.18 128.89Z" fill="#5A6170"/>
<path d="M293.064 137.327C293.064 137.837 292.896 138.249 292.562 138.561C292.227 138.873 291.724 139.029 291.055 139.029H289.855V141.566H289.259V135.616H291.055C291.719 135.616 292.218 135.772 292.553 136.084C292.893 136.396 293.064 136.81 293.064 137.327ZM291.055 138.518C291.986 138.518 292.451 138.121 292.451 137.327C292.451 136.929 292.34 136.629 292.119 136.424C291.898 136.22 291.543 136.118 291.055 136.118H289.855V138.518H291.055Z" fill="#5A6170"/>
<path d="M298.09 136.918V141.566H297.494V140.748C297.358 141.038 297.148 141.259 296.864 141.412C296.58 141.566 296.263 141.642 295.911 141.642C295.355 141.642 294.901 141.472 294.549 141.131C294.197 140.785 294.021 140.286 294.021 139.633V136.918H294.608V139.565C294.608 140.07 294.733 140.456 294.983 140.723C295.238 140.99 295.584 141.123 296.021 141.123C296.47 141.123 296.827 140.981 297.094 140.697C297.361 140.414 297.494 139.997 297.494 139.446V136.918H298.09Z" fill="#5A6170"/>
<path d="M303.655 139.003C303.655 139.208 303.649 139.364 303.638 139.472H299.782C299.799 139.823 299.884 140.124 300.037 140.374C300.191 140.624 300.392 140.814 300.642 140.944C300.892 141.069 301.164 141.131 301.459 141.131C301.845 141.131 302.168 141.038 302.429 140.851C302.696 140.663 302.872 140.411 302.957 140.093H303.587C303.474 140.547 303.23 140.919 302.855 141.208C302.486 141.492 302.021 141.634 301.459 141.634C301.022 141.634 300.63 141.537 300.284 141.344C299.938 141.146 299.666 140.868 299.467 140.51C299.274 140.147 299.178 139.724 299.178 139.242C299.178 138.759 299.274 138.337 299.467 137.973C299.66 137.61 299.93 137.332 300.276 137.139C300.622 136.946 301.016 136.85 301.459 136.85C301.902 136.85 302.288 136.946 302.617 137.139C302.951 137.332 303.207 137.593 303.383 137.922C303.564 138.246 303.655 138.606 303.655 139.003ZM303.051 138.986C303.056 138.64 302.986 138.345 302.838 138.101C302.696 137.857 302.5 137.673 302.251 137.548C302.001 137.423 301.729 137.361 301.433 137.361C300.991 137.361 300.613 137.502 300.301 137.786C299.989 138.07 299.816 138.47 299.782 138.986H303.051Z" fill="#5A6170"/>
<path d="M304.473 139.233C304.473 138.757 304.569 138.339 304.762 137.982C304.955 137.619 305.219 137.341 305.554 137.148C305.894 136.949 306.278 136.85 306.703 136.85C307.112 136.85 307.481 136.949 307.81 137.148C308.139 137.346 308.38 137.605 308.533 137.922V135.267H309.129V141.566H308.533V140.527C308.391 140.851 308.159 141.117 307.835 141.327C307.512 141.532 307.132 141.634 306.695 141.634C306.269 141.634 305.886 141.534 305.545 141.336C305.211 141.137 304.947 140.856 304.754 140.493C304.567 140.13 304.473 139.71 304.473 139.233ZM308.533 139.242C308.533 138.867 308.457 138.538 308.303 138.254C308.15 137.971 307.94 137.752 307.674 137.599C307.412 137.446 307.123 137.369 306.805 137.369C306.476 137.369 306.181 137.443 305.92 137.59C305.659 137.738 305.452 137.954 305.299 138.237C305.151 138.515 305.077 138.847 305.077 139.233C305.077 139.613 305.151 139.948 305.299 140.238C305.452 140.521 305.659 140.74 305.92 140.893C306.181 141.041 306.476 141.114 306.805 141.114C307.123 141.114 307.412 141.038 307.674 140.885C307.94 140.731 308.15 140.513 308.303 140.229C308.457 139.945 308.533 139.616 308.533 139.242Z" fill="#5A6170"/>
<path d="M314.694 139.003C314.694 139.208 314.689 139.364 314.677 139.472H310.821C310.838 139.823 310.923 140.124 311.077 140.374C311.23 140.624 311.431 140.814 311.681 140.944C311.931 141.069 312.203 141.131 312.498 141.131C312.884 141.131 313.208 141.038 313.469 140.851C313.735 140.663 313.911 140.411 313.996 140.093H314.626C314.513 140.547 314.269 140.919 313.894 141.208C313.525 141.492 313.06 141.634 312.498 141.634C312.061 141.634 311.67 141.537 311.324 141.344C310.977 141.146 310.705 140.868 310.506 140.51C310.313 140.147 310.217 139.724 310.217 139.242C310.217 138.759 310.313 138.337 310.506 137.973C310.699 137.61 310.969 137.332 311.315 137.139C311.661 136.946 312.056 136.85 312.498 136.85C312.941 136.85 313.327 136.946 313.656 137.139C313.991 137.332 314.246 137.593 314.422 137.922C314.604 138.246 314.694 138.606 314.694 139.003ZM314.09 138.986C314.096 138.64 314.025 138.345 313.877 138.101C313.735 137.857 313.54 137.673 313.29 137.548C313.04 137.423 312.768 137.361 312.473 137.361C312.03 137.361 311.653 137.502 311.341 137.786C311.028 138.07 310.855 138.47 310.821 138.986H314.09Z" fill="#5A6170"/>
<path d="M317.385 141.634C316.851 141.634 316.414 141.512 316.074 141.268C315.739 141.018 315.552 140.68 315.512 140.255H316.125C316.153 140.516 316.275 140.729 316.491 140.893C316.712 141.052 317.007 141.131 317.376 141.131C317.7 141.131 317.952 141.055 318.134 140.902C318.321 140.748 318.415 140.558 318.415 140.331C318.415 140.172 318.364 140.042 318.262 139.94C318.159 139.838 318.029 139.758 317.87 139.701C317.717 139.639 317.507 139.574 317.24 139.506C316.894 139.415 316.613 139.324 316.397 139.233C316.182 139.142 315.997 139.009 315.844 138.833C315.697 138.652 315.623 138.41 315.623 138.11C315.623 137.883 315.691 137.673 315.827 137.48C315.963 137.287 316.156 137.134 316.406 137.02C316.656 136.907 316.939 136.85 317.257 136.85C317.757 136.85 318.159 136.978 318.466 137.233C318.772 137.483 318.937 137.829 318.96 138.271H318.364C318.347 137.999 318.239 137.781 318.04 137.616C317.847 137.446 317.581 137.361 317.24 137.361C316.939 137.361 316.695 137.432 316.508 137.573C316.321 137.715 316.227 137.891 316.227 138.101C316.227 138.283 316.281 138.433 316.389 138.552C316.502 138.666 316.641 138.757 316.806 138.825C316.971 138.887 317.192 138.958 317.47 139.037C317.805 139.128 318.071 139.216 318.27 139.301C318.469 139.386 318.639 139.511 318.781 139.676C318.923 139.84 318.996 140.059 319.002 140.331C319.002 140.581 318.934 140.805 318.798 141.004C318.662 141.197 318.472 141.35 318.228 141.463C317.984 141.577 317.703 141.634 317.385 141.634Z" fill="#5A6170"/>
<path d="M326.665 139.003C326.665 139.208 326.659 139.364 326.648 139.472H322.792C322.809 139.823 322.894 140.124 323.047 140.374C323.2 140.624 323.402 140.814 323.651 140.944C323.901 141.069 324.173 141.131 324.469 141.131C324.854 141.131 325.178 141.038 325.439 140.851C325.706 140.663 325.882 140.411 325.967 140.093H326.597C326.483 140.547 326.239 140.919 325.865 141.208C325.496 141.492 325.03 141.634 324.469 141.634C324.032 141.634 323.64 141.537 323.294 141.344C322.948 141.146 322.675 140.868 322.477 140.51C322.284 140.147 322.187 139.724 322.187 139.242C322.187 138.759 322.284 138.337 322.477 137.973C322.67 137.61 322.939 137.332 323.285 137.139C323.631 136.946 324.026 136.85 324.469 136.85C324.911 136.85 325.297 136.946 325.626 137.139C325.961 137.332 326.216 137.593 326.392 137.922C326.574 138.246 326.665 138.606 326.665 139.003ZM326.06 138.986C326.066 138.64 325.995 138.345 325.847 138.101C325.706 137.857 325.51 137.673 325.26 137.548C325.01 137.423 324.738 137.361 324.443 137.361C324 137.361 323.623 137.502 323.311 137.786C322.999 138.07 322.826 138.47 322.792 138.986H326.06Z" fill="#5A6170"/>
<path d="M328.351 135.267V141.566H327.755V135.267H328.351Z" fill="#5A6170"/>
<path d="M329.998 136.041C329.879 136.041 329.777 135.999 329.691 135.914C329.606 135.828 329.564 135.723 329.564 135.599C329.564 135.474 329.606 135.372 329.691 135.292C329.777 135.207 329.879 135.164 329.998 135.164C330.117 135.164 330.219 135.207 330.304 135.292C330.389 135.372 330.432 135.474 330.432 135.599C330.432 135.723 330.389 135.828 330.304 135.914C330.219 135.999 330.117 136.041 329.998 136.041ZM330.296 136.918V141.566H329.7V136.918H330.296Z" fill="#5A6170"/>
<path d="M337.178 136.833C337.723 136.833 338.165 137.006 338.506 137.352C338.852 137.693 339.025 138.189 339.025 138.842V141.566H338.438V138.91C338.438 138.405 338.316 138.019 338.072 137.752C337.828 137.485 337.496 137.352 337.076 137.352C336.639 137.352 336.29 137.497 336.029 137.786C335.768 138.076 335.637 138.496 335.637 139.046V141.566H335.05V138.91C335.05 138.405 334.928 138.019 334.684 137.752C334.44 137.485 334.105 137.352 333.68 137.352C333.243 137.352 332.894 137.497 332.633 137.786C332.372 138.076 332.241 138.496 332.241 139.046V141.566H331.645V136.918H332.241V137.718C332.389 137.429 332.599 137.21 332.871 137.063C333.143 136.909 333.447 136.833 333.782 136.833C334.185 136.833 334.536 136.929 334.837 137.122C335.144 137.315 335.365 137.599 335.501 137.973C335.626 137.605 335.839 137.324 336.14 137.131C336.446 136.932 336.792 136.833 337.178 136.833Z" fill="#5A6170"/>
<path d="M340.646 136.041C340.527 136.041 340.425 135.999 340.34 135.914C340.255 135.828 340.212 135.723 340.212 135.599C340.212 135.474 340.255 135.372 340.34 135.292C340.425 135.207 340.527 135.164 340.646 135.164C340.766 135.164 340.868 135.207 340.953 135.292C341.038 135.372 341.081 135.474 341.081 135.599C341.081 135.723 341.038 135.828 340.953 135.914C340.868 135.999 340.766 136.041 340.646 136.041ZM340.944 136.918V141.566H340.349V136.918H340.944Z" fill="#5A6170"/>
<path d="M344.473 136.833C345.029 136.833 345.483 137.006 345.835 137.352C346.187 137.693 346.363 138.189 346.363 138.842V141.566H345.775V138.91C345.775 138.405 345.648 138.019 345.392 137.752C345.142 137.485 344.799 137.352 344.362 137.352C343.914 137.352 343.556 137.494 343.29 137.778C343.023 138.061 342.89 138.479 342.89 139.029V141.566H342.294V136.918H342.89V137.71C343.037 137.426 343.25 137.21 343.528 137.063C343.806 136.909 344.121 136.833 344.473 136.833Z" fill="#5A6170"/>
<path d="M347.408 139.233C347.408 138.757 347.502 138.339 347.689 137.982C347.882 137.619 348.146 137.341 348.48 137.148C348.821 136.949 349.204 136.85 349.63 136.85C350.072 136.85 350.452 136.952 350.77 137.156C351.094 137.361 351.326 137.622 351.468 137.939V136.918H352.064V141.566H351.468V140.536C351.321 140.853 351.085 141.117 350.762 141.327C350.444 141.532 350.064 141.634 349.621 141.634C349.201 141.634 348.821 141.534 348.48 141.336C348.146 141.137 347.882 140.856 347.689 140.493C347.502 140.13 347.408 139.71 347.408 139.233ZM351.468 139.242C351.468 138.867 351.392 138.538 351.238 138.254C351.085 137.971 350.875 137.752 350.609 137.599C350.347 137.446 350.058 137.369 349.74 137.369C349.411 137.369 349.116 137.443 348.855 137.59C348.594 137.738 348.387 137.954 348.234 138.237C348.086 138.515 348.012 138.847 348.012 139.233C348.012 139.613 348.086 139.948 348.234 140.238C348.387 140.521 348.594 140.74 348.855 140.893C349.116 141.041 349.411 141.114 349.74 141.114C350.058 141.114 350.347 141.038 350.609 140.885C350.875 140.731 351.085 140.513 351.238 140.229C351.392 139.945 351.468 139.616 351.468 139.242Z" fill="#5A6170"/>
<path d="M354.02 137.744C354.151 137.454 354.349 137.23 354.616 137.071C354.888 136.912 355.22 136.833 355.612 136.833V137.454H355.45C355.019 137.454 354.673 137.571 354.412 137.803C354.151 138.036 354.02 138.425 354.02 138.969V141.566H353.424V136.918H354.02V137.744Z" fill="#5A6170"/>
<path d="M360.879 141.634C360.442 141.634 360.047 141.537 359.695 141.344C359.349 141.146 359.074 140.868 358.87 140.51C358.671 140.147 358.572 139.724 358.572 139.242C358.572 138.759 358.674 138.339 358.878 137.982C359.083 137.619 359.361 137.341 359.712 137.148C360.064 136.949 360.459 136.85 360.896 136.85C361.333 136.85 361.727 136.949 362.079 137.148C362.436 137.341 362.714 137.619 362.913 137.982C363.117 138.339 363.22 138.759 363.22 139.242C363.22 139.718 363.117 140.138 362.913 140.502C362.709 140.865 362.428 141.146 362.07 141.344C361.713 141.537 361.316 141.634 360.879 141.634ZM360.879 141.114C361.185 141.114 361.469 141.046 361.73 140.91C361.991 140.768 362.201 140.558 362.36 140.28C362.524 139.997 362.607 139.65 362.607 139.242C362.607 138.833 362.527 138.49 362.368 138.212C362.209 137.928 361.999 137.718 361.738 137.582C361.477 137.44 361.194 137.369 360.887 137.369C360.581 137.369 360.297 137.44 360.036 137.582C359.775 137.718 359.565 137.928 359.406 138.212C359.253 138.49 359.176 138.833 359.176 139.242C359.176 139.65 359.253 139.997 359.406 140.28C359.565 140.558 359.772 140.768 360.027 140.91C360.288 141.046 360.572 141.114 360.879 141.114Z" fill="#5A6170"/>
<path d="M366.369 139.233C366.369 138.757 366.463 138.339 366.65 137.982C366.843 137.619 367.107 137.341 367.442 137.148C367.782 136.949 368.165 136.85 368.591 136.85C369.033 136.85 369.414 136.952 369.731 137.156C370.055 137.361 370.288 137.622 370.429 137.939V136.918H371.025V141.566H370.429V140.536C370.282 140.853 370.046 141.117 369.723 141.327C369.405 141.532 369.025 141.634 368.582 141.634C368.162 141.634 367.782 141.534 367.442 141.336C367.107 141.137 366.843 140.856 366.65 140.493C366.463 140.13 366.369 139.71 366.369 139.233ZM370.429 139.242C370.429 138.867 370.353 138.538 370.2 138.254C370.046 137.971 369.836 137.752 369.57 137.599C369.309 137.446 369.019 137.369 368.701 137.369C368.372 137.369 368.077 137.443 367.816 137.59C367.555 137.738 367.348 137.954 367.195 138.237C367.047 138.515 366.974 138.847 366.974 139.233C366.974 139.613 367.047 139.948 367.195 140.238C367.348 140.521 367.555 140.74 367.816 140.893C368.077 141.041 368.372 141.114 368.701 141.114C369.019 141.114 369.309 141.038 369.57 140.885C369.836 140.731 370.046 140.513 370.2 140.229C370.353 139.945 370.429 139.616 370.429 139.242Z" fill="#5A6170"/>
<path d="M374.335 136.85C374.772 136.85 375.152 136.952 375.476 137.156C375.799 137.361 376.032 137.619 376.174 137.931V136.918H376.769V141.685C376.769 142.11 376.676 142.488 376.488 142.817C376.307 143.146 376.052 143.399 375.722 143.574C375.393 143.756 375.019 143.847 374.599 143.847C374.003 143.847 373.506 143.705 373.109 143.421C372.718 143.138 372.474 142.752 372.377 142.264H372.964C373.067 142.587 373.26 142.845 373.543 143.038C373.833 143.231 374.185 143.328 374.599 143.328C374.9 143.328 375.169 143.262 375.407 143.132C375.646 143.007 375.833 142.82 375.969 142.57C376.105 142.32 376.174 142.025 376.174 141.685V140.536C376.026 140.853 375.79 141.117 375.467 141.327C375.149 141.532 374.772 141.634 374.335 141.634C373.909 141.634 373.526 141.534 373.186 141.336C372.851 141.137 372.587 140.856 372.394 140.493C372.207 140.13 372.113 139.71 372.113 139.233C372.113 138.757 372.207 138.339 372.394 137.982C372.587 137.619 372.851 137.341 373.186 137.148C373.526 136.949 373.909 136.85 374.335 136.85ZM376.174 139.242C376.174 138.867 376.097 138.538 375.944 138.254C375.79 137.971 375.581 137.752 375.314 137.599C375.053 137.446 374.763 137.369 374.446 137.369C374.116 137.369 373.821 137.443 373.56 137.59C373.299 137.738 373.092 137.954 372.939 138.237C372.791 138.515 372.718 138.847 372.718 139.233C372.718 139.613 372.791 139.948 372.939 140.238C373.092 140.521 373.299 140.74 373.56 140.893C373.821 141.041 374.116 141.114 374.446 141.114C374.763 141.114 375.053 141.038 375.314 140.885C375.581 140.731 375.79 140.513 375.944 140.229C376.097 139.945 376.174 139.616 376.174 139.242Z" fill="#5A6170"/>
<path d="M378.726 137.744C378.856 137.454 379.055 137.23 379.321 137.071C379.594 136.912 379.926 136.833 380.317 136.833V137.454H380.156C379.724 137.454 379.378 137.571 379.117 137.803C378.856 138.036 378.726 138.425 378.726 138.969V141.566H378.13V136.918H378.726V137.744Z" fill="#5A6170"/>
<path d="M385.419 139.003C385.419 139.208 385.413 139.364 385.402 139.472H381.546C381.563 139.823 381.648 140.124 381.801 140.374C381.954 140.624 382.156 140.814 382.405 140.944C382.655 141.069 382.927 141.131 383.223 141.131C383.608 141.131 383.932 141.038 384.193 140.851C384.46 140.663 384.636 140.411 384.721 140.093H385.351C385.237 140.547 384.993 140.919 384.619 141.208C384.25 141.492 383.784 141.634 383.223 141.634C382.786 141.634 382.394 141.537 382.048 141.344C381.702 141.146 381.429 140.868 381.231 140.51C381.038 140.147 380.941 139.724 380.941 139.242C380.941 138.759 381.038 138.337 381.231 137.973C381.424 137.61 381.693 137.332 382.039 137.139C382.386 136.946 382.78 136.85 383.223 136.85C383.665 136.85 384.051 136.946 384.38 137.139C384.715 137.332 384.97 137.593 385.146 137.922C385.328 138.246 385.419 138.606 385.419 139.003ZM384.814 138.986C384.82 138.64 384.749 138.345 384.602 138.101C384.46 137.857 384.264 137.673 384.014 137.548C383.764 137.423 383.492 137.361 383.197 137.361C382.754 137.361 382.377 137.502 382.065 137.786C381.753 138.07 381.58 138.47 381.546 138.986H384.814Z" fill="#5A6170"/>
<path d="M388.458 136.85C388.895 136.85 389.275 136.952 389.599 137.156C389.922 137.361 390.155 137.619 390.297 137.931V136.918H390.893V141.685C390.893 142.11 390.799 142.488 390.612 142.817C390.43 143.146 390.175 143.399 389.846 143.574C389.516 143.756 389.142 143.847 388.722 143.847C388.126 143.847 387.63 143.705 387.232 143.421C386.841 143.138 386.597 142.752 386.5 142.264H387.088C387.19 142.587 387.383 142.845 387.667 143.038C387.956 143.231 388.308 143.328 388.722 143.328C389.023 143.328 389.292 143.262 389.531 143.132C389.769 143.007 389.956 142.82 390.092 142.57C390.229 142.32 390.297 142.025 390.297 141.685V140.536C390.149 140.853 389.914 141.117 389.59 141.327C389.272 141.532 388.895 141.634 388.458 141.634C388.033 141.634 387.649 141.534 387.309 141.336C386.974 141.137 386.71 140.856 386.517 140.493C386.33 140.13 386.236 139.71 386.236 139.233C386.236 138.757 386.33 138.339 386.517 137.982C386.71 137.619 386.974 137.341 387.309 137.148C387.649 136.949 388.033 136.85 388.458 136.85ZM390.297 139.242C390.297 138.867 390.22 138.538 390.067 138.254C389.914 137.971 389.704 137.752 389.437 137.599C389.176 137.446 388.887 137.369 388.569 137.369C388.24 137.369 387.945 137.443 387.684 137.59C387.423 137.738 387.215 137.954 387.062 138.237C386.915 138.515 386.841 138.847 386.841 139.233C386.841 139.613 386.915 139.948 387.062 140.238C387.215 140.521 387.423 140.74 387.684 140.893C387.945 141.041 388.24 141.114 388.569 141.114C388.887 141.114 389.176 141.038 389.437 140.885C389.704 140.731 389.914 140.513 390.067 140.229C390.22 139.945 390.297 139.616 390.297 139.242Z" fill="#5A6170"/>
<path d="M391.981 139.233C391.981 138.757 392.074 138.339 392.261 137.982C392.454 137.619 392.718 137.341 393.053 137.148C393.394 136.949 393.777 136.85 394.202 136.85C394.645 136.85 395.025 136.952 395.343 137.156C395.666 137.361 395.899 137.622 396.041 137.939V136.918H396.637V141.566H396.041V140.536C395.893 140.853 395.658 141.117 395.334 141.327C395.017 141.532 394.636 141.634 394.194 141.634C393.774 141.634 393.394 141.534 393.053 141.336C392.718 141.137 392.454 140.856 392.261 140.493C392.074 140.13 391.981 139.71 391.981 139.233ZM396.041 139.242C396.041 138.867 395.964 138.538 395.811 138.254C395.658 137.971 395.448 137.752 395.181 137.599C394.92 137.446 394.631 137.369 394.313 137.369C393.984 137.369 393.689 137.443 393.428 137.59C393.167 137.738 392.959 137.954 392.806 138.237C392.659 138.515 392.585 138.847 392.585 139.233C392.585 139.613 392.659 139.948 392.806 140.238C392.959 140.521 393.167 140.74 393.428 140.893C393.689 141.041 393.984 141.114 394.313 141.114C394.631 141.114 394.92 141.038 395.181 140.885C395.448 140.731 395.658 140.513 395.811 140.229C395.964 139.945 396.041 139.616 396.041 139.242Z" fill="#5A6170"/>
<path d="M398.593 137.744C398.723 137.454 398.922 137.23 399.189 137.071C399.461 136.912 399.793 136.833 400.185 136.833V137.454H400.023C399.592 137.454 399.245 137.571 398.984 137.803C398.723 138.036 398.593 138.425 398.593 138.969V141.566H397.997V136.918H398.593V137.744Z" fill="#5A6170"/>
<rect x="208.623" y="183.204" width="126.303" height="27.9601" rx="4" fill="#FF6900"/>
<path d="M235.6 196.544C235.6 195.676 235.8 194.897 236.2 194.207C236.608 193.518 237.157 192.982 237.847 192.599C238.545 192.207 239.307 192.011 240.132 192.011C241.077 192.011 241.916 192.245 242.648 192.713C243.388 193.173 243.925 193.829 244.257 194.68H242.507C242.277 194.212 241.958 193.863 241.55 193.633C241.141 193.403 240.669 193.288 240.132 193.288C239.545 193.288 239.022 193.42 238.562 193.684C238.102 193.948 237.74 194.327 237.477 194.82C237.221 195.314 237.093 195.889 237.093 196.544C237.093 197.199 237.221 197.774 237.477 198.268C237.74 198.761 238.102 199.144 238.562 199.417C239.022 199.681 239.545 199.813 240.132 199.813C240.669 199.813 241.141 199.698 241.55 199.468C241.958 199.238 242.277 198.889 242.507 198.421H244.257C243.925 199.272 243.388 199.928 242.648 200.387C241.916 200.847 241.077 201.077 240.132 201.077C239.298 201.077 238.536 200.885 237.847 200.502C237.157 200.111 236.608 199.57 236.2 198.881C235.8 198.191 235.6 197.412 235.6 196.544Z" fill="white"/>
<path d="M245.475 197.451C245.475 196.744 245.62 196.118 245.909 195.574C246.207 195.029 246.607 194.607 247.109 194.31C247.62 194.003 248.182 193.85 248.795 193.85C249.348 193.85 249.829 193.961 250.238 194.182C250.655 194.395 250.987 194.663 251.234 194.986V193.965H252.702V201H251.234V199.953C250.987 200.285 250.65 200.562 250.225 200.783C249.799 201.004 249.314 201.115 248.769 201.115C248.165 201.115 247.612 200.962 247.109 200.655C246.607 200.34 246.207 199.906 245.909 199.353C245.62 198.791 245.475 198.157 245.475 197.451ZM251.234 197.476C251.234 196.991 251.131 196.57 250.927 196.212C250.731 195.854 250.472 195.582 250.148 195.395C249.825 195.208 249.476 195.114 249.101 195.114C248.727 195.114 248.378 195.208 248.054 195.395C247.731 195.574 247.467 195.842 247.263 196.199C247.067 196.548 246.969 196.965 246.969 197.451C246.969 197.936 247.067 198.361 247.263 198.727C247.467 199.093 247.731 199.374 248.054 199.57C248.386 199.757 248.735 199.851 249.101 199.851C249.476 199.851 249.825 199.757 250.148 199.57C250.472 199.383 250.731 199.11 250.927 198.753C251.131 198.387 251.234 197.961 251.234 197.476Z" fill="white"/>
<path d="M256.069 194.986C256.282 194.629 256.563 194.352 256.912 194.156C257.27 193.952 257.691 193.85 258.176 193.85V195.357H257.806C257.236 195.357 256.801 195.501 256.503 195.791C256.214 196.08 256.069 196.582 256.069 197.297V201H254.614V193.965H256.069V194.986Z" fill="white"/>
<path d="M260.97 194.999C261.217 194.676 261.553 194.403 261.978 194.182C262.404 193.961 262.885 193.85 263.421 193.85C264.034 193.85 264.592 194.003 265.094 194.31C265.605 194.607 266.005 195.029 266.294 195.574C266.583 196.118 266.728 196.744 266.728 197.451C266.728 198.157 266.583 198.791 266.294 199.353C266.005 199.906 265.605 200.34 265.094 200.655C264.592 200.962 264.034 201.115 263.421 201.115C262.885 201.115 262.408 201.009 261.991 200.796C261.574 200.574 261.234 200.302 260.97 199.979V204.345H259.514V193.965H260.97V194.999ZM265.247 197.451C265.247 196.965 265.145 196.548 264.941 196.199C264.745 195.842 264.481 195.574 264.149 195.395C263.826 195.208 263.477 195.114 263.102 195.114C262.736 195.114 262.387 195.208 262.055 195.395C261.732 195.582 261.468 195.854 261.263 196.212C261.068 196.57 260.97 196.991 260.97 197.476C260.97 197.961 261.068 198.387 261.263 198.753C261.468 199.11 261.732 199.383 262.055 199.57C262.387 199.757 262.736 199.851 263.102 199.851C263.477 199.851 263.826 199.757 264.149 199.57C264.481 199.374 264.745 199.093 264.941 198.727C265.145 198.361 265.247 197.936 265.247 197.451Z" fill="white"/>
<path d="M268.908 193.033C268.644 193.033 268.423 192.943 268.244 192.765C268.065 192.586 267.976 192.364 267.976 192.101C267.976 191.837 268.065 191.615 268.244 191.437C268.423 191.258 268.644 191.169 268.908 191.169C269.164 191.169 269.381 191.258 269.559 191.437C269.738 191.615 269.827 191.837 269.827 192.101C269.827 192.364 269.738 192.586 269.559 192.765C269.381 192.943 269.164 193.033 268.908 193.033ZM269.623 193.965V201H268.168V193.965H269.623Z" fill="white"/>
<path d="M275.084 193.85C275.637 193.85 276.131 193.965 276.565 194.195C277.008 194.424 277.352 194.765 277.599 195.216C277.846 195.667 277.969 196.212 277.969 196.85V201H276.527V197.067C276.527 196.438 276.369 195.957 276.054 195.625C275.739 195.284 275.309 195.114 274.765 195.114C274.22 195.114 273.786 195.284 273.462 195.625C273.147 195.957 272.99 196.438 272.99 197.067V201H271.534V193.965H272.99V194.769C273.228 194.48 273.53 194.254 273.896 194.092C274.271 193.931 274.667 193.85 275.084 193.85Z" fill="white"/>
<path d="M281.524 195.152V199.047C281.524 199.31 281.584 199.502 281.703 199.621C281.831 199.732 282.044 199.787 282.341 199.787H283.235V201H282.086C281.431 201 280.928 200.847 280.579 200.54C280.23 200.234 280.056 199.736 280.056 199.047V195.152H279.226V193.965H280.056V192.216H281.524V193.965H283.235V195.152H281.524Z" fill="white"/>
<path d="M291.025 197.31C291.025 197.574 291.008 197.812 290.974 198.025H285.598C285.641 198.587 285.849 199.038 286.224 199.379C286.598 199.719 287.058 199.889 287.603 199.889C288.386 199.889 288.939 199.562 289.263 198.906H290.833C290.62 199.553 290.233 200.085 289.671 200.502C289.118 200.911 288.429 201.115 287.603 201.115C286.93 201.115 286.326 200.966 285.79 200.668C285.262 200.362 284.845 199.936 284.539 199.391C284.241 198.838 284.092 198.2 284.092 197.476C284.092 196.753 284.236 196.118 284.526 195.574C284.824 195.02 285.237 194.595 285.764 194.297C286.301 193.999 286.913 193.85 287.603 193.85C288.267 193.85 288.858 193.995 289.378 194.284C289.897 194.573 290.301 194.982 290.591 195.51C290.88 196.029 291.025 196.629 291.025 197.31ZM289.505 196.85C289.497 196.314 289.305 195.884 288.931 195.561C288.556 195.237 288.092 195.076 287.539 195.076C287.037 195.076 286.607 195.237 286.249 195.561C285.892 195.876 285.679 196.306 285.611 196.85H289.505Z" fill="white"/>
<path d="M293.913 194.986C294.126 194.629 294.407 194.352 294.756 194.156C295.113 193.952 295.534 193.85 296.02 193.85V195.357H295.649C295.079 195.357 294.645 195.501 294.347 195.791C294.058 196.08 293.913 196.582 293.913 197.297V201H292.457V193.965H293.913V194.986Z" fill="white"/>
<path d="M298.813 193.965V201H297.358V193.965H298.813ZM299.401 192.075L296.579 193.467V192.394L299.401 190.837V192.075Z" fill="white"/>
<path d="M300.239 197.451C300.239 196.744 300.384 196.118 300.673 195.574C300.971 195.029 301.371 194.607 301.873 194.31C302.384 194.003 302.946 193.85 303.559 193.85C304.112 193.85 304.593 193.961 305.002 194.182C305.419 194.395 305.751 194.663 305.998 194.986V193.965H307.466V201H305.998V199.953C305.751 200.285 305.414 200.562 304.989 200.783C304.563 201.004 304.078 201.115 303.533 201.115C302.929 201.115 302.376 200.962 301.873 200.655C301.371 200.34 300.971 199.906 300.673 199.353C300.384 198.791 300.239 198.157 300.239 197.451ZM305.998 197.476C305.998 196.991 305.895 196.57 305.691 196.212C305.495 195.854 305.236 195.582 304.912 195.395C304.589 195.208 304.24 195.114 303.865 195.114C303.491 195.114 303.142 195.208 302.818 195.395C302.495 195.574 302.231 195.842 302.027 196.199C301.831 196.548 301.733 196.965 301.733 197.451C301.733 197.936 301.831 198.361 302.027 198.727C302.231 199.093 302.495 199.374 302.818 199.57C303.15 199.757 303.499 199.851 303.865 199.851C304.24 199.851 304.589 199.757 304.912 199.57C305.236 199.383 305.495 199.11 305.691 198.753C305.895 198.387 305.998 197.961 305.998 197.476Z" fill="white"/>
<rect x="354.076" y="183.204" width="126.303" height="27.9601" rx="4" fill="#FCB900"/>
<path d="M393.353 194.68C393.123 194.237 392.804 193.905 392.395 193.684C391.987 193.454 391.514 193.339 390.978 193.339C390.391 193.339 389.867 193.471 389.408 193.735C388.948 193.999 388.586 194.373 388.322 194.859C388.067 195.344 387.939 195.906 387.939 196.544C387.939 197.182 388.067 197.748 388.322 198.242C388.586 198.727 388.948 199.102 389.408 199.366C389.867 199.63 390.391 199.762 390.978 199.762C391.77 199.762 392.412 199.54 392.906 199.098C393.4 198.655 393.702 198.055 393.813 197.297H390.48V196.135H395.37V197.272C395.277 197.961 395.03 198.595 394.63 199.174C394.238 199.753 393.723 200.217 393.085 200.566C392.455 200.906 391.753 201.077 390.978 201.077C390.144 201.077 389.382 200.885 388.693 200.502C388.003 200.111 387.454 199.57 387.045 198.881C386.645 198.191 386.445 197.412 386.445 196.544C386.445 195.676 386.645 194.897 387.045 194.207C387.454 193.518 388.003 192.982 388.693 192.599C389.391 192.207 390.152 192.011 390.978 192.011C391.923 192.011 392.761 192.245 393.493 192.713C394.234 193.173 394.77 193.829 395.102 194.68H393.353Z" fill="white"/>
<path d="M396.321 197.451C396.321 196.744 396.465 196.118 396.755 195.574C397.053 195.029 397.453 194.607 397.955 194.31C398.466 194.003 399.028 193.85 399.641 193.85C400.194 193.85 400.675 193.961 401.083 194.182C401.5 194.395 401.832 194.663 402.079 194.986V193.965H403.548V201H402.079V199.953C401.832 200.285 401.496 200.562 401.071 200.783C400.645 201.004 400.16 201.115 399.615 201.115C399.011 201.115 398.457 200.962 397.955 200.655C397.453 200.34 397.053 199.906 396.755 199.353C396.465 198.791 396.321 198.157 396.321 197.451ZM402.079 197.476C402.079 196.991 401.977 196.57 401.773 196.212C401.577 195.854 401.317 195.582 400.994 195.395C400.671 195.208 400.322 195.114 399.947 195.114C399.572 195.114 399.223 195.208 398.9 195.395C398.577 195.574 398.313 195.842 398.108 196.199C397.913 196.548 397.815 196.965 397.815 197.451C397.815 197.936 397.913 198.361 398.108 198.727C398.313 199.093 398.577 199.374 398.9 199.57C399.232 199.757 399.581 199.851 399.947 199.851C400.322 199.851 400.671 199.757 400.994 199.57C401.317 199.383 401.577 199.11 401.773 198.753C401.977 198.387 402.079 197.961 402.079 197.476Z" fill="white"/>
<path d="M408.013 201.115C407.46 201.115 406.962 201.017 406.519 200.821C406.085 200.617 405.74 200.345 405.485 200.004C405.23 199.655 405.093 199.268 405.076 198.842H406.583C406.609 199.14 406.749 199.391 407.004 199.596C407.268 199.791 407.596 199.889 407.988 199.889C408.396 199.889 408.711 199.813 408.932 199.659C409.162 199.498 409.277 199.293 409.277 199.047C409.277 198.783 409.15 198.587 408.894 198.459C408.647 198.332 408.251 198.191 407.707 198.038C407.179 197.893 406.749 197.753 406.417 197.617C406.085 197.48 405.796 197.272 405.549 196.991C405.311 196.71 405.191 196.34 405.191 195.88C405.191 195.505 405.302 195.165 405.523 194.859C405.745 194.544 406.06 194.297 406.468 194.118C406.885 193.939 407.362 193.85 407.898 193.85C408.698 193.85 409.341 194.054 409.826 194.463C410.32 194.863 410.584 195.412 410.618 196.11H409.162C409.137 195.795 409.009 195.544 408.779 195.357C408.549 195.169 408.239 195.076 407.847 195.076C407.464 195.076 407.17 195.148 406.966 195.293C406.762 195.437 406.66 195.629 406.66 195.867C406.66 196.055 406.728 196.212 406.864 196.34C407 196.467 407.166 196.57 407.362 196.646C407.558 196.714 407.847 196.804 408.23 196.914C408.741 197.05 409.158 197.191 409.481 197.336C409.813 197.472 410.099 197.676 410.337 197.948C410.575 198.221 410.699 198.583 410.707 199.034C410.707 199.434 410.597 199.791 410.375 200.106C410.154 200.421 409.839 200.668 409.43 200.847C409.03 201.026 408.558 201.115 408.013 201.115Z" fill="white"/>
<path d="M415.23 195.152H413.927V201H412.459V195.152H411.629V193.965H412.459V193.467C412.459 192.658 412.672 192.071 413.097 191.705C413.531 191.33 414.208 191.143 415.127 191.143V192.356C414.685 192.356 414.374 192.441 414.195 192.611C414.017 192.773 413.927 193.058 413.927 193.467V193.965H415.23V195.152Z" fill="white"/>
<path d="M417.26 193.033C416.996 193.033 416.775 192.943 416.596 192.765C416.417 192.586 416.328 192.364 416.328 192.101C416.328 191.837 416.417 191.615 416.596 191.437C416.775 191.258 416.996 191.169 417.26 191.169C417.515 191.169 417.732 191.258 417.911 191.437C418.09 191.615 418.179 191.837 418.179 192.101C418.179 192.364 418.09 192.586 417.911 192.765C417.732 192.943 417.515 193.033 417.26 193.033ZM417.975 193.965V201H416.519V193.965H417.975Z" fill="white"/>
<path d="M421.584 195.152V199.047C421.584 199.31 421.644 199.502 421.763 199.621C421.891 199.732 422.104 199.787 422.401 199.787H423.295V201H422.146C421.491 201 420.988 200.847 420.639 200.54C420.29 200.234 420.116 199.736 420.116 199.047V195.152H419.286V193.965H420.116V192.216H421.584V193.965H423.295V195.152H421.584Z" fill="white"/>
<path d="M431.085 197.31C431.085 197.574 431.068 197.812 431.034 198.025H425.658C425.701 198.587 425.909 199.038 426.284 199.379C426.658 199.719 427.118 199.889 427.663 199.889C428.446 199.889 428.999 199.562 429.323 198.906H430.893C430.68 199.553 430.293 200.085 429.731 200.502C429.178 200.911 428.489 201.115 427.663 201.115C426.99 201.115 426.386 200.966 425.85 200.668C425.322 200.362 424.905 199.936 424.599 199.391C424.301 198.838 424.152 198.2 424.152 197.476C424.152 196.753 424.296 196.118 424.586 195.574C424.884 195.02 425.297 194.595 425.824 194.297C426.361 193.999 426.973 193.85 427.663 193.85C428.327 193.85 428.918 193.995 429.438 194.284C429.957 194.573 430.361 194.982 430.651 195.51C430.94 196.029 431.085 196.629 431.085 197.31ZM429.565 196.85C429.557 196.314 429.365 195.884 428.991 195.561C428.616 195.237 428.152 195.076 427.599 195.076C427.097 195.076 426.667 195.237 426.309 195.561C425.952 195.876 425.739 196.306 425.671 196.85H429.565Z" fill="white"/>
<path d="M433.973 194.986C434.186 194.629 434.467 194.352 434.816 194.156C435.173 193.952 435.594 193.85 436.08 193.85V195.357H435.709C435.139 195.357 434.705 195.501 434.407 195.791C434.118 196.08 433.973 196.582 433.973 197.297V201H432.517V193.965H433.973V194.986Z" fill="white"/>
<path d="M438.873 193.965V201H437.418V193.965H438.873ZM439.461 192.075L436.639 193.467V192.394L439.461 190.837V192.075Z" fill="white"/>
<path d="M440.299 197.451C440.299 196.744 440.444 196.118 440.733 195.574C441.031 195.029 441.431 194.607 441.933 194.31C442.444 194.003 443.006 193.85 443.619 193.85C444.172 193.85 444.653 193.961 445.062 194.182C445.479 194.395 445.811 194.663 446.058 194.986V193.965H447.526V201H446.058V199.953C445.811 200.285 445.474 200.562 445.049 200.783C444.623 201.004 444.138 201.115 443.593 201.115C442.989 201.115 442.436 200.962 441.933 200.655C441.431 200.34 441.031 199.906 440.733 199.353C440.444 198.791 440.299 198.157 440.299 197.451ZM446.058 197.476C446.058 196.991 445.955 196.57 445.751 196.212C445.555 195.854 445.296 195.582 444.972 195.395C444.649 195.208 444.3 195.114 443.925 195.114C443.551 195.114 443.202 195.208 442.878 195.395C442.555 195.574 442.291 195.842 442.087 196.199C441.891 196.548 441.793 196.965 441.793 197.451C441.793 197.936 441.891 198.361 442.087 198.727C442.291 199.093 442.555 199.374 442.878 199.57C443.21 199.757 443.559 199.851 443.925 199.851C444.3 199.851 444.649 199.757 444.972 199.57C445.296 199.383 445.555 199.11 445.751 198.753C445.955 198.387 446.058 197.961 446.058 197.476Z" fill="white"/>
<rect x="281.35" y="229.868" width="126.303" height="27.9601" rx="4" fill="#8ED1FC"/>
<path d="M330.046 247.754C329.45 247.754 328.914 247.652 328.437 247.447C327.961 247.235 327.586 246.937 327.314 246.554C327.041 246.171 326.905 245.724 326.905 245.213H328.463C328.497 245.596 328.646 245.911 328.91 246.158C329.182 246.405 329.561 246.528 330.046 246.528C330.548 246.528 330.94 246.409 331.221 246.171C331.502 245.924 331.642 245.609 331.642 245.226C331.642 244.928 331.553 244.685 331.374 244.498C331.204 244.311 330.987 244.166 330.723 244.064C330.468 243.962 330.11 243.851 329.65 243.732C329.072 243.579 328.599 243.425 328.233 243.272C327.876 243.11 327.569 242.864 327.314 242.532C327.058 242.2 326.931 241.757 326.931 241.204C326.931 240.693 327.058 240.246 327.314 239.863C327.569 239.48 327.927 239.186 328.386 238.982C328.846 238.778 329.378 238.676 329.982 238.676C330.842 238.676 331.544 238.893 332.089 239.327C332.642 239.752 332.949 240.34 333.009 241.089H331.4C331.374 240.765 331.221 240.489 330.94 240.259C330.659 240.029 330.289 239.914 329.829 239.914C329.412 239.914 329.072 240.02 328.808 240.233C328.544 240.446 328.412 240.753 328.412 241.153C328.412 241.425 328.493 241.651 328.655 241.829C328.825 242 329.038 242.136 329.293 242.238C329.548 242.34 329.897 242.451 330.34 242.57C330.927 242.732 331.404 242.893 331.77 243.055C332.145 243.217 332.459 243.468 332.715 243.808C332.979 244.14 333.111 244.587 333.111 245.149C333.111 245.6 332.987 246.026 332.74 246.426C332.502 246.826 332.149 247.149 331.681 247.396C331.221 247.635 330.676 247.754 330.046 247.754Z" fill="white"/>
<path d="M334.343 244.115C334.343 243.408 334.488 242.783 334.777 242.238C335.075 241.693 335.475 241.272 335.977 240.974C336.488 240.667 337.05 240.514 337.663 240.514C338.216 240.514 338.697 240.625 339.106 240.846C339.523 241.059 339.855 241.327 340.101 241.651V240.629H341.57V247.664H340.101V246.617C339.855 246.949 339.518 247.226 339.093 247.447C338.667 247.669 338.182 247.779 337.637 247.779C337.033 247.779 336.48 247.626 335.977 247.32C335.475 247.005 335.075 246.571 334.777 246.017C334.488 245.455 334.343 244.821 334.343 244.115ZM340.101 244.14C340.101 243.655 339.999 243.234 339.795 242.876C339.599 242.519 339.34 242.246 339.016 242.059C338.693 241.872 338.344 241.778 337.969 241.778C337.595 241.778 337.246 241.872 336.922 242.059C336.599 242.238 336.335 242.506 336.131 242.864C335.935 243.213 335.837 243.63 335.837 244.115C335.837 244.6 335.935 245.026 336.131 245.392C336.335 245.758 336.599 246.039 336.922 246.234C337.254 246.422 337.603 246.515 337.969 246.515C338.344 246.515 338.693 246.422 339.016 246.234C339.34 246.047 339.599 245.775 339.795 245.417C339.999 245.051 340.101 244.626 340.101 244.14Z" fill="white"/>
<path d="M344.937 238.216V247.664H343.482V238.216H344.937Z" fill="white"/>
<path d="M353.22 240.629V247.664H351.764V246.834C351.534 247.124 351.232 247.354 350.858 247.524C350.492 247.686 350.1 247.767 349.683 247.767C349.13 247.767 348.632 247.652 348.189 247.422C347.755 247.192 347.41 246.851 347.155 246.4C346.908 245.949 346.784 245.404 346.784 244.766V240.629H348.227V244.549C348.227 245.179 348.385 245.664 348.7 246.005C349.015 246.337 349.445 246.502 349.989 246.502C350.534 246.502 350.964 246.337 351.279 246.005C351.602 245.664 351.764 245.179 351.764 244.549V240.629H353.22Z" fill="white"/>
<path d="M354.655 244.115C354.655 243.408 354.8 242.783 355.089 242.238C355.387 241.693 355.787 241.272 356.289 240.974C356.8 240.667 357.366 240.514 357.988 240.514C358.447 240.514 358.898 240.616 359.341 240.821C359.792 241.016 360.15 241.28 360.414 241.612V238.216H361.882V247.664H360.414V246.605C360.175 246.945 359.843 247.226 359.418 247.447C359.001 247.669 358.52 247.779 357.975 247.779C357.362 247.779 356.8 247.626 356.289 247.32C355.787 247.005 355.387 246.571 355.089 246.017C354.8 245.455 354.655 244.821 354.655 244.115ZM360.414 244.14C360.414 243.655 360.311 243.234 360.107 242.876C359.911 242.519 359.652 242.246 359.328 242.059C359.005 241.872 358.656 241.778 358.281 241.778C357.907 241.778 357.558 241.872 357.234 242.059C356.911 242.238 356.647 242.506 356.443 242.864C356.247 243.213 356.149 243.63 356.149 244.115C356.149 244.6 356.247 245.026 356.443 245.392C356.647 245.758 356.911 246.039 357.234 246.234C357.566 246.422 357.915 246.515 358.281 246.515C358.656 246.515 359.005 246.422 359.328 246.234C359.652 246.047 359.911 245.775 360.107 245.417C360.311 245.051 360.414 244.626 360.414 244.14Z" fill="white"/>
</g>
<g opacity="0.45" clip-path="url(#clip0)">
<path d="M227.12 336.971L174.092 390.128C170.998 393.229 166.942 394.774 162.887 394.774C158.831 394.774 154.776 393.229 151.682 390.128C145.503 383.925 145.503 373.869 151.682 367.667L204.709 314.51C210.898 308.318 220.931 308.318 227.12 314.51V314.521C233.298 320.724 233.309 330.769 227.12 336.971V336.971Z" fill="#DFE7F4"/>
<path d="M227.12 336.971L174.092 390.128C170.998 393.229 166.942 394.774 162.887 394.774C158.832 394.774 154.776 393.229 151.682 390.128L227.12 314.521C233.298 320.724 233.309 330.769 227.12 336.971Z" fill="#C7CFE1"/>
<path d="M210.412 197.454C210.412 206.223 217.505 213.331 226.254 213.331C235.003 213.331 242.095 206.223 242.095 197.454C242.095 141.173 287.781 95.3862 343.936 95.3862C352.685 95.3862 359.778 88.2775 359.778 79.5092C359.778 70.7408 352.685 63.6321 343.936 63.6321C270.311 63.6321 210.412 123.664 210.412 197.454Z" fill="#F0F7FF"/>
<path d="M483.09 57.9799C447.446 22.246 398.221 0.113403 343.937 0.113403C235.358 0.113403 147.035 88.6332 147.035 197.433C147.035 237.518 158.969 276.109 181.538 309.028C188.435 319.094 196.176 328.44 204.709 336.982C213.243 345.545 222.547 353.282 232.58 360.194C265.436 382.814 303.942 394.774 343.937 394.774C452.495 394.774 540.817 306.255 540.817 197.433C540.817 143.039 518.734 93.7139 483.09 57.9799V57.9799ZM343.937 363.02C310.374 363.02 278.078 352.997 250.513 334.018C242.085 328.218 234.281 321.708 227.12 314.521C219.949 307.355 213.444 299.512 207.656 291.055C188.72 263.439 178.719 231.071 178.719 197.433C178.719 106.14 252.837 31.8675 343.937 31.8675C389.487 31.8675 430.792 50.4436 460.69 80.4301C490.61 110.406 509.134 151.803 509.134 197.433C509.134 288.737 435.027 363.02 343.937 363.02V363.02Z" fill="#DAEBFC"/>
<path d="M540.816 197.433C540.816 306.254 452.493 394.774 343.935 394.774C303.94 394.774 265.435 382.814 232.579 360.194C222.546 353.282 213.241 345.545 204.708 336.982L227.119 314.521C234.279 321.708 242.084 328.218 250.512 334.018C278.076 352.996 310.372 363.02 343.935 363.02C435.025 363.02 509.133 288.737 509.133 197.433C509.133 151.803 490.608 110.406 460.689 80.4301L483.089 57.9799C518.733 93.7138 540.816 143.039 540.816 197.433V197.433Z" fill="#D2ECFD"/>
<path d="M198.311 384.192L94.8403 487.899C91.0884 491.659 85.0077 491.648 81.2672 487.899L67.6941 474.296L54.1146 460.686C50.3787 456.941 50.3627 450.843 54.1146 447.082L157.592 343.375C159.39 341.573 161.828 340.56 164.375 340.56C166.922 340.56 169.367 341.573 171.165 343.375L184.744 356.985L198.311 370.588C202.061 374.347 202.061 380.44 198.311 384.192Z" fill="#DAEBFC"/>
<path d="M198.313 384.192L94.8786 487.863C91.1267 491.623 85.046 491.611 81.3055 487.863L67.7324 474.259L184.747 356.985L198.313 370.588C202.063 374.347 202.063 380.44 198.313 384.192Z" fill="#D2ECFD"/>
</g>
<defs>
<filter id="filter0_d" x="92.1895" y="60.4431" width="504.623" height="303.728" filterUnits="userSpaceOnUse" color-interpolation-filters="sRGB">
<feFlood flood-opacity="0" result="BackgroundImageFix"/>
<feColorMatrix in="SourceAlpha" type="matrix" values="0 0 0 0 0 0 0 0 0 0 0 0 0 0 0 0 0 0 127 0"/>
<feOffset dy="4"/>
<feGaussianBlur stdDeviation="21"/>
<feColorMatrix type="matrix" values="0 0 0 0 0.592157 0 0 0 0 0.592157 0 0 0 0 0.592157 0 0 0 0.1 0"/>
<feBlend mode="normal" in2="BackgroundImageFix" result="effect1_dropShadow"/>
<feBlend mode="normal" in="SourceGraphic" in2="effect1_dropShadow" result="shape"/>
</filter>
<clipPath id="clip0">
<rect width="540.73" height="541.936" fill="white" transform="translate(0.0869141 0.113403)"/>
</clipPath>
</defs>
</svg>
