<svg width="16" height="15" viewBox="0 0 16 15" fill="none" xmlns="http://www.w3.org/2000/svg">
<path d="M7.85982 0C4.27506 0 1.35864 2.79847 1.35864 6.23833C1.35864 10.9067 7.3236 14.7563 7.5777 14.9178C7.66374 14.9727 7.76168 15 7.85982 15C7.95779 15 8.05591 14.9725 8.14195 14.9178C8.39605 14.7563 14.361 10.9067 14.361 6.23833C14.361 2.79847 11.4448 0 7.85982 0ZM7.85965 13.8396C6.70503 13.0356 2.41005 9.80309 2.41005 6.23833C2.41005 3.37816 4.85473 1.05141 7.85982 1.05141C10.8649 1.05141 13.3096 3.37816 13.3096 6.23833C13.3096 9.79731 9.01374 13.0346 7.85965 13.8396Z" fill="#F99704"/>
<path d="M7.85988 2.85645C6.22687 2.85645 4.89844 4.18488 4.89844 5.81789C4.89844 7.45072 6.22687 8.77916 7.85988 8.77916C9.49289 8.77916 10.8213 7.45072 10.8213 5.81789C10.8213 4.18509 9.49289 2.85645 7.85988 2.85645ZM7.85988 7.72761C6.80672 7.72761 5.94984 6.87088 5.94984 5.81774C5.94984 4.76458 6.80675 3.90771 7.85988 3.90771C8.91305 3.90771 9.76992 4.76443 9.76992 5.81774C9.76992 6.87088 8.91305 7.72761 7.85988 7.72761Z" fill="#F99704"/>
</svg>
