<svg width="15" height="16" viewBox="0 0 15 16" fill="none" xmlns="http://www.w3.org/2000/svg">
<g clip-path="url(#clip0)">
<path d="M13.4264 2.55835H2.18858C1.52864 2.55835 0.990234 3.15003 0.990234 3.87671V12.6658C0.990234 13.39 1.52624 13.9841 2.18858 13.9841H13.4264C14.0847 13.9841 14.6247 13.3944 14.6247 12.6658V3.87671C14.6247 3.15249 14.0887 2.55835 13.4264 2.55835ZM13.2609 3.43726L7.8329 9.40893L2.35792 3.43726H13.2609ZM1.78913 12.4838V4.05451L5.63659 8.251L1.78913 12.4838ZM2.35403 13.1052L6.20392 8.86978L7.55291 10.3411C7.70907 10.5115 7.96107 10.5109 8.11658 10.3398L9.43192 8.89272L13.261 13.1052H2.35403ZM13.8259 12.4837L9.99682 8.27124L13.8259 4.0587V12.4837Z" fill="#FA5805"/>
</g>
<defs>
<clipPath id="clip0">
<rect width="13.6345" height="15" fill="white" transform="translate(0.990234 0.77124)"/>
</clipPath>
</defs>
</svg>
