<svg width="17" height="16" viewBox="0 0 17 16" fill="none" xmlns="http://www.w3.org/2000/svg">
<g clip-path="url(#clip0)">
<path d="M16.0697 12.9606L12.8816 9.8137C12.798 9.7312 12.6846 9.68485 12.5663 9.68485C12.4481 9.68485 12.3347 9.7312 12.2511 9.8137L10.7797 11.2661C10.7328 11.3123 10.6706 11.3378 10.6045 11.3378C10.5383 11.3378 10.4761 11.3123 10.4292 11.2661L5.73951 6.6371C5.64257 6.54142 5.64257 6.3857 5.73948 6.28999L7.21091 4.8376C7.38477 4.66604 7.38477 4.38798 7.21091 4.21642L4.02283 1.06952C3.93926 0.987021 3.82583 0.940674 3.70756 0.940674C3.5893 0.940674 3.4759 0.987021 3.3923 1.06952L2.13554 2.31007C0.609768 3.8161 0.609768 6.26658 2.13554 7.77262L9.26428 14.8091C9.99802 15.5334 10.9736 15.9353 12.0113 15.9406C12.0184 15.9407 12.0254 15.9407 12.0325 15.9407C13.0623 15.9407 14.0339 15.5494 14.7703 14.8378L16.0664 13.5851C16.1513 13.503 16.1995 13.3908 16.2001 13.2735C16.2007 13.1562 16.1538 13.0436 16.0697 12.9606V12.9606ZM3.70756 2.00189L6.26577 4.52702L5.64884 5.13596L3.09067 2.61083L3.70756 2.00189ZM12.016 15.0617C11.2147 15.0576 10.4614 14.7473 9.89475 14.188L2.76604 7.15144C1.69095 6.09024 1.5966 4.42217 2.48265 3.25422L5.02413 5.76282C4.66739 6.20368 4.69555 6.85012 5.10903 7.25828L9.79873 11.8873C10.0139 12.0997 10.3001 12.2167 10.6045 12.2167C10.8657 12.2167 11.1133 12.1303 11.3143 11.9717L13.8428 14.4674C13.3184 14.8561 12.6834 15.0648 12.016 15.0617V15.0617ZM14.4978 13.8704L11.9494 11.355L12.5663 10.746L15.1212 13.2679L14.4978 13.8704Z" fill="#FA5805"/>
<path d="M9.73567 2.06055C12.6792 2.06055 15.074 4.42454 15.074 7.33026C15.074 7.57296 15.2735 7.76972 15.5196 7.76972C15.7658 7.76972 15.9653 7.57296 15.9653 7.33026C15.9653 3.93988 13.1707 1.18164 9.73567 1.18164C9.48956 1.18164 9.29004 1.3784 9.29004 1.62109C9.29004 1.86379 9.48956 2.06055 9.73567 2.06055V2.06055Z" fill="#FA5805"/>
<path d="M9.73567 3.82007C11.6964 3.82007 13.2915 5.39475 13.2915 7.33033C13.2915 7.57303 13.491 7.76979 13.7371 7.76979C13.9832 7.76979 14.1828 7.57303 14.1828 7.33033C14.1828 4.91015 12.1878 2.94116 9.73567 2.94116C9.48956 2.94116 9.29004 3.13792 9.29004 3.38062C9.29004 3.62331 9.48956 3.82007 9.73567 3.82007V3.82007Z" fill="#FA5805"/>
<path d="M9.73567 5.57935C10.7135 5.57935 11.509 6.36477 11.509 7.33016C11.509 7.57285 11.7085 7.76961 11.9546 7.76961C12.2007 7.76961 12.4003 7.57285 12.4003 7.33016C12.4003 5.88011 11.2049 4.70044 9.73567 4.70044C9.48956 4.70044 9.29004 4.8972 9.29004 5.13989C9.29004 5.38259 9.48956 5.57935 9.73567 5.57935V5.57935Z" fill="#FA5805"/>
</g>
<defs>
<clipPath id="clip0">
<rect width="15.2108" height="15" fill="white" transform="translate(0.990234 0.940674)"/>
</clipPath>
</defs>
</svg>
