<svg width="50" height="50" viewBox="0 0 50 50" fill="none" xmlns="http://www.w3.org/2000/svg">
<path d="M50 25C50 38.8066 38.8066 50 25 50C20.3906 50 16.0723 48.752 12.3643 46.5752C11.2016 45.8933 10.3454 43.7464 9.31289 42.8914C7.86426 41.692 6.30674 41.7056 5.16016 40.2129C1.92383 35.999 0 30.7236 0 25C0 11.1934 11.1934 0 25 0C29.6094 0 33.9277 1.24805 37.6357 3.4248C39.0327 4.24414 39.8646 6.90527 41.0708 7.97139C42.2771 9.0375 43.8579 8.50879 44.8398 9.78711C48.0762 14.001 50 19.2764 50 25Z" fill="#7584F2"/>
<path d="M49.9987 24.9992C49.9987 19.2756 48.0749 14.0002 44.8386 9.78633C44.1293 8.86299 43.1076 8.88223 42.1403 8.5625C39.3184 12.0346 29.9431 23.5856 29.9702 23.7626L23.0046 16.7854L8.09863 42.118C8.504 42.3213 8.91191 42.5597 9.31162 42.8906C10.3442 43.7456 11.2003 45.8925 12.363 46.5744C16.071 48.7512 20.3894 49.9992 24.9987 49.9992C38.8054 49.9992 49.9987 38.8059 49.9987 24.9992V24.9992Z" fill="#4855B7"/>
<path d="M34.6778 11.9005L30.7084 11.7549C30.369 12.2422 30.1479 12.8019 30.0621 13.3895L28.8121 21.9611C28.6387 23.1505 29.4622 24.2553 30.6516 24.4287C31.8409 24.6021 32.9457 23.7786 33.1191 22.5893L34.6778 11.9005Z" fill="#FFA99B"/>
<path d="M44.8423 9.78516L39.9429 14.1855L38.6548 23.0186C38.3394 25.1836 37.3286 27.1875 35.7739 28.7275L31.2368 33.2295C30.6519 33.8096 29.8892 34.0986 29.1255 34.0986C28.354 34.0986 27.5825 33.8027 26.9966 33.2119C25.8316 32.0361 25.8394 30.1387 27.0142 28.9736L32.3394 23.6914L33.5191 16.0381C33.5493 15.8418 33.564 15.6465 33.564 15.4531C33.564 13.7402 32.4126 12.2021 30.7105 11.7529L37.6382 3.42285C40.4322 5.06152 42.8784 7.22852 44.8423 9.78516V9.78516Z" fill="#FFCCC3"/>
<path d="M15.3223 38.0962L19.2917 38.2418C19.6311 37.7545 19.8522 37.1948 19.938 36.6072L21.188 28.0356C21.3614 26.8462 20.5379 25.7414 19.3485 25.568C18.1592 25.3945 17.0544 26.2181 16.881 27.4074L15.3223 38.0962Z" fill="#FFA99B"/>
<path d="M16.4844 33.957C16.4541 34.1533 16.4395 34.3486 16.4395 34.542C16.4395 36.2549 17.5908 37.793 19.293 38.2422L12.3652 46.5723C9.57129 44.9336 7.125 42.7666 5.16113 40.21L10.0605 35.8096L11.3486 26.9766C11.6641 24.8115 12.6748 22.8076 14.2295 21.2676L18.7666 16.7656C19.3516 16.1855 20.1143 15.8965 20.8779 15.8965C21.6494 15.8965 22.4209 16.1924 23.0068 16.7832C24.1719 17.959 24.1641 19.8564 22.9893 21.0215L17.6641 26.3037L16.4844 33.957Z" fill="#FFCCC3"/>
</svg>
