<svg width="46" height="46" viewBox="0 0 46 46" fill="none" xmlns="http://www.w3.org/2000/svg">
<path d="M43.3004 17.045H27.745C27.3328 17.0463 26.9379 17.2106 26.6464 17.502C26.355 17.7935 26.1907 18.1884 26.1895 18.6006V41.4151C26.1907 41.8273 26.355 42.2222 26.6464 42.5137C26.9379 42.8051 27.3328 42.9694 27.745 42.9707H43.3004C43.7125 42.9694 44.1075 42.8051 44.3989 42.5137C44.6904 42.2222 44.8547 41.8273 44.8559 41.4151V18.6006C44.8547 18.1884 44.6904 17.7935 44.3989 17.502C44.1075 17.2106 43.7125 17.0463 43.3004 17.045ZM30.8561 21.1931H40.1893C40.3268 21.1931 40.4587 21.2478 40.5559 21.345C40.6532 21.4422 40.7078 21.5741 40.7078 21.7117C40.7078 21.8492 40.6532 21.9811 40.5559 22.0783C40.4587 22.1755 40.3268 22.2302 40.1893 22.2302H30.8561C30.7185 22.2302 30.5867 22.1755 30.4894 22.0783C30.3922 21.9811 30.3376 21.8492 30.3376 21.7117C30.3376 21.5741 30.3922 21.4422 30.4894 21.345C30.5867 21.2478 30.7185 21.1931 30.8561 21.1931ZM30.8561 25.3412H40.1893C40.3268 25.3412 40.4587 25.3959 40.5559 25.4931C40.6532 25.5903 40.7078 25.7222 40.7078 25.8598C40.7078 25.9973 40.6532 26.1292 40.5559 26.2264C40.4587 26.3236 40.3268 26.3783 40.1893 26.3783H30.8561C30.7185 26.3783 30.5867 26.3236 30.4894 26.2264C30.3922 26.1292 30.3376 25.9973 30.3376 25.8598C30.3376 25.7222 30.3922 25.5903 30.4894 25.4931C30.5867 25.3959 30.7185 25.3412 30.8561 25.3412ZM30.8561 29.4893H40.1893C40.3268 29.4893 40.4587 29.544 40.5559 29.6412C40.6532 29.7384 40.7078 29.8703 40.7078 30.0078C40.7078 30.1454 40.6532 30.2773 40.5559 30.3745C40.4587 30.4717 40.3268 30.5264 40.1893 30.5264H30.8561C30.7185 30.5264 30.5867 30.4717 30.4894 30.3745C30.3922 30.2773 30.3376 30.1454 30.3376 30.0078C30.3376 29.8703 30.3922 29.7384 30.4894 29.6412C30.5867 29.544 30.7185 29.4893 30.8561 29.4893ZM40.1893 34.6745H30.8561C30.7185 34.6745 30.5867 34.6198 30.4894 34.5226C30.3922 34.4254 30.3376 34.2935 30.3376 34.1559C30.3376 34.0184 30.3922 33.8865 30.4894 33.7893C30.5867 33.6921 30.7185 33.6374 30.8561 33.6374H40.1893C40.3268 33.6374 40.4587 33.6921 40.5559 33.7893C40.6532 33.8865 40.7078 34.0184 40.7078 34.1559C40.7078 34.2935 40.6532 34.4254 40.5559 34.5226C40.4587 34.6198 40.3268 34.6745 40.1893 34.6745ZM43.8189 41.4151C43.8189 41.5526 43.7642 41.6845 43.667 41.7818C43.5698 41.879 43.4379 41.9336 43.3004 41.9336H40.7078V39.3411C40.7078 39.2036 40.7624 39.0717 40.8597 38.9744C40.9569 38.8772 41.0888 38.8226 41.2263 38.8226H43.8189V41.4151Z" fill="#FA5805"/>
<path d="M34.3086 6.40814H25.168V3.59564H26.5742C26.7607 3.59564 26.9395 3.52156 27.0714 3.3897C27.2033 3.25784 27.2773 3.079 27.2773 2.89252C27.2773 2.70604 27.2033 2.52719 27.0714 2.39533C26.9395 2.26347 26.7607 2.18939 26.5742 2.18939H11.1055C10.919 2.18939 10.7401 2.26347 10.6083 2.39533C10.4764 2.52719 10.4023 2.70604 10.4023 2.89252C10.4023 3.079 10.4764 3.25784 10.6083 3.3897C10.7401 3.52156 10.919 3.59564 11.1055 3.59564H12.5117V6.40814H3.37109C2.81165 6.40814 2.27512 6.63038 1.87954 7.02596C1.48396 7.42155 1.26172 7.95808 1.26172 8.51752V16.955C1.26234 17.8433 1.45056 18.7214 1.81406 19.5319C2.17757 20.3424 2.70816 21.067 3.37109 21.6582V32.4238C3.37109 32.9832 3.59333 33.5197 3.98892 33.9153C4.3845 34.3109 4.92103 34.5331 5.48047 34.5331H32.1992C32.7587 34.5331 33.2952 34.3109 33.6908 33.9153C34.0864 33.5197 34.3086 32.9832 34.3086 32.4238V21.6582C34.9715 21.067 35.5021 20.3424 35.8656 19.5319C36.2291 18.7214 36.4174 17.8433 36.418 16.955V8.51752C36.418 7.95808 36.1957 7.42155 35.8001 7.02596C35.4046 6.63038 34.868 6.40814 34.3086 6.40814ZM13.918 3.59564H23.7617V6.40814H13.918V3.59564ZM32.9023 32.4238C32.9023 32.6102 32.8283 32.7891 32.6964 32.921C32.5645 33.0528 32.3857 33.1269 32.1992 33.1269H5.48047C5.29399 33.1269 5.11515 33.0528 4.98328 32.921C4.85142 32.7891 4.77734 32.6102 4.77734 32.4238V22.6152C5.65005 23.0538 6.61312 23.2825 7.58984 23.2831H12.5117V27.5019H11.8086C11.6221 27.5019 11.4433 27.576 11.3114 27.7078C11.1795 27.8397 11.1055 28.0185 11.1055 28.205C11.1055 28.3915 11.1795 28.5703 11.3114 28.7022C11.4433 28.8341 11.6221 28.9081 11.8086 28.9081H14.6211C14.8076 28.9081 14.9864 28.8341 15.1183 28.7022C15.2501 28.5703 15.3242 28.3915 15.3242 28.205C15.3242 28.0185 15.2501 27.8397 15.1183 27.7078C14.9864 27.576 14.8076 27.5019 14.6211 27.5019H13.918V23.2831H23.7617V27.5019H23.0586C22.8721 27.5019 22.6933 27.576 22.5614 27.7078C22.4295 27.8397 22.3555 28.0185 22.3555 28.205C22.3555 28.3915 22.4295 28.5703 22.5614 28.7022C22.6933 28.8341 22.8721 28.9081 23.0586 28.9081H25.8711C26.0576 28.9081 26.2364 28.8341 26.3683 28.7022C26.5001 28.5703 26.5742 28.3915 26.5742 28.205C26.5742 28.0185 26.5001 27.8397 26.3683 27.7078C26.2364 27.576 26.0576 27.5019 25.8711 27.5019H25.168V23.2831H30.0898C31.0666 23.2825 32.0296 23.0538 32.9023 22.6152V32.4238ZM35.0117 16.955C35.0102 18.2599 34.4912 19.511 33.5685 20.4337C32.6458 21.3564 31.3947 21.8754 30.0898 21.8769H25.168V17.6581H25.8711C26.0576 17.6581 26.2364 17.5841 26.3683 17.4522C26.5001 17.3203 26.5742 17.1415 26.5742 16.955C26.5742 16.7685 26.5001 16.5897 26.3683 16.4578C26.2364 16.326 26.0576 16.2519 25.8711 16.2519H23.0586C22.8721 16.2519 22.6933 16.326 22.5614 16.4578C22.4295 16.5897 22.3555 16.7685 22.3555 16.955C22.3555 17.1415 22.4295 17.3203 22.5614 17.4522C22.6933 17.5841 22.8721 17.6581 23.0586 17.6581H23.7617V21.8769H13.918V17.6581H14.6211C14.8076 17.6581 14.9864 17.5841 15.1183 17.4522C15.2501 17.3203 15.3242 17.1415 15.3242 16.955C15.3242 16.7685 15.2501 16.5897 15.1183 16.4578C14.9864 16.326 14.8076 16.2519 14.6211 16.2519H11.8086C11.6221 16.2519 11.4433 16.326 11.3114 16.4578C11.1795 16.5897 11.1055 16.7685 11.1055 16.955C11.1055 17.1415 11.1795 17.3203 11.3114 17.4522C11.4433 17.5841 11.6221 17.6581 11.8086 17.6581H12.5117V21.8769H7.58984C6.28494 21.8754 5.03391 21.3564 4.1112 20.4337C3.18849 19.511 2.66946 18.2599 2.66797 16.955V8.51752C2.66797 8.33104 2.74205 8.15219 2.87391 8.02033C3.00577 7.88847 3.18461 7.81439 3.37109 7.81439H34.3086C34.4951 7.81439 34.6739 7.88847 34.8058 8.02033C34.9376 8.15219 35.0117 8.33104 35.0117 8.51752V16.955Z" fill="black"/>
</svg>
