<svg width="51" height="51" viewBox="0 0 51 51" fill="none" xmlns="http://www.w3.org/2000/svg">
<g clip-path="url(#clip0)">
<path d="M48.125 40.2233L38.2758 30.3718L45.8281 24.8327C45.951 24.7424 46.0447 24.6181 46.0977 24.4752C46.1508 24.3323 46.1608 24.177 46.1267 24.0284C46.0926 23.8798 46.0157 23.7445 45.9056 23.6391C45.7955 23.5336 45.657 23.4627 45.5071 23.4351L18.4321 18.4632C18.3082 18.4411 18.1808 18.4493 18.0607 18.487C17.9406 18.5247 17.8315 18.5909 17.7425 18.6799C17.6535 18.7689 17.5873 18.878 17.5496 18.9981C17.5119 19.1181 17.5037 19.2455 17.5258 19.3694L22.4946 46.4413C22.5221 46.5914 22.593 46.7302 22.6985 46.8404C22.8039 46.9507 22.9394 47.0277 23.0882 47.0618C23.2369 47.096 23.3924 47.0858 23.5354 47.0326C23.6784 46.9794 23.8027 46.8855 23.893 46.7624L29.4344 39.2132L39.2867 49.0624C39.4332 49.2089 39.6319 49.2911 39.8391 49.2911C40.0462 49.2911 40.2449 49.2089 40.3914 49.0624L48.1258 41.328C48.2722 41.1814 48.3543 40.9827 48.3542 40.7755C48.354 40.5684 48.2716 40.3697 48.125 40.2233V40.2233Z" fill="#FA5805"/>
<path d="M32.7285 0.853821H4.60352C3.98191 0.853821 3.38577 1.10075 2.94623 1.54029C2.5067 1.97983 2.25977 2.57597 2.25977 3.19757V25.0726C2.25977 25.6942 2.5067 26.2903 2.94623 26.7299C3.38577 27.1694 3.98191 27.4163 4.60352 27.4163H14.7207C14.5424 29.1293 13.8783 30.7556 12.8066 32.1038H10.8535C10.6463 32.1038 10.4476 32.1861 10.3011 32.3326C10.1546 32.4792 10.0723 32.6779 10.0723 32.8851C10.0723 33.0923 10.1546 33.291 10.3011 33.4375C10.4476 33.584 10.6463 33.6663 10.8535 33.6663H26.4785C26.6857 33.6663 26.8844 33.584 27.0309 33.4375C27.1775 33.291 27.2598 33.0923 27.2598 32.8851C27.2598 32.6779 27.1775 32.4792 27.0309 32.3326C26.8844 32.1861 26.6857 32.1038 26.4785 32.1038H24.5254C23.4095 30.782 22.7396 29.1414 22.6113 27.4163H32.7285C33.3501 27.4163 33.9463 27.1694 34.3858 26.7299C34.8253 26.2903 35.0723 25.6942 35.0723 25.0726V3.19757C35.0723 2.57597 34.8253 1.97983 34.3858 1.54029C33.9463 1.10075 33.3501 0.853821 32.7285 0.853821V0.853821ZM4.60352 2.41632H32.7285C32.9357 2.41632 33.1344 2.49863 33.2809 2.64514C33.4275 2.79166 33.5098 2.99037 33.5098 3.19757V21.1663H3.82227V3.19757C3.82227 2.99037 3.90458 2.79166 4.05109 2.64514C4.1976 2.49863 4.39632 2.41632 4.60352 2.41632ZM22.6082 32.1038H14.7238C15.6212 30.6927 16.1595 29.0834 16.2918 27.4163H21.0402C21.1726 29.0834 21.7109 30.6927 22.6082 32.1038V32.1038ZM32.7285 25.8538H4.60352C4.39632 25.8538 4.1976 25.7715 4.05109 25.625C3.90458 25.4785 3.82227 25.2798 3.82227 25.0726V22.7288H33.5098V25.0726C33.5098 25.2798 33.4275 25.4785 33.2809 25.625C33.1344 25.7715 32.9357 25.8538 32.7285 25.8538Z" fill="black"/>
<path d="M9.29102 8.66632H15.541C15.7482 8.66632 15.9469 8.58401 16.0934 8.4375C16.24 8.29099 16.3223 8.09227 16.3223 7.88507C16.3223 7.67787 16.24 7.47916 16.0934 7.33264C15.9469 7.18613 15.7482 7.10382 15.541 7.10382H9.29102C9.08382 7.10382 8.8851 7.18613 8.73859 7.33264C8.59208 7.47916 8.50977 7.67787 8.50977 7.88507C8.50977 8.09227 8.59208 8.29099 8.73859 8.4375C8.8851 8.58401 9.08382 8.66632 9.29102 8.66632V8.66632Z" fill="black"/>
<path d="M9.29102 12.5726H28.041C28.2482 12.5726 28.4469 12.4903 28.5934 12.3437C28.74 12.1972 28.8223 11.9985 28.8223 11.7913C28.8223 11.5841 28.74 11.3854 28.5934 11.2389C28.4469 11.0924 28.2482 11.0101 28.041 11.0101H9.29102C9.08382 11.0101 8.8851 11.0924 8.73859 11.2389C8.59208 11.3854 8.50977 11.5841 8.50977 11.7913C8.50977 11.9985 8.59208 12.1972 8.73859 12.3437C8.8851 12.4903 9.08382 12.5726 9.29102 12.5726V12.5726Z" fill="black"/>
<path d="M9.29102 16.4788H28.041C28.2482 16.4788 28.4469 16.3965 28.5934 16.25C28.74 16.1035 28.8223 15.9048 28.8223 15.6976C28.8223 15.4904 28.74 15.2917 28.5934 15.1451C28.4469 14.9986 28.2482 14.9163 28.041 14.9163H9.29102C9.08382 14.9163 8.8851 14.9986 8.73859 15.1451C8.59208 15.2917 8.50977 15.4904 8.50977 15.6976C8.50977 15.9048 8.59208 16.1035 8.73859 16.25C8.8851 16.3965 9.08382 16.4788 9.29102 16.4788V16.4788Z" fill="black"/>
</g>
<defs>
<clipPath id="clip0">
<rect width="50" height="50" fill="white" transform="translate(0.306641 0.0725708)"/>
</clipPath>
</defs>
</svg>
