<svg width="50" height="50" viewBox="0 0 50 50" fill="none" xmlns="http://www.w3.org/2000/svg">
<path d="M25 50C38.8071 50 50 38.8071 50 25C50 11.1929 38.8071 0 25 0C11.1929 0 0 11.1929 0 25C0 38.8071 11.1929 50 25 50Z" fill="#7584F2"/>
<path d="M30.0441 11.5581L35.4959 17.3024L38.3343 24.0957L32.1096 17.871L31.7276 18.6904L25.8515 12.6458L6.80273 26.3181L29.991 49.5019C41.4065 47.1889 49.9997 37.0981 49.9997 25.0002C49.9997 24.7885 49.997 24.5774 49.9918 24.367L37.4393 11.8146L30.0441 11.5581Z" fill="#4855B7"/>
<path d="M27.5637 28.1346C30.9539 28.1346 33.7023 25.3863 33.7023 21.996C33.7023 18.6056 30.954 15.8573 27.5637 15.8573C27.5634 15.8573 27.5631 15.8573 27.5628 15.8573C26.5587 12.273 23.2678 9.64453 19.3629 9.64453C15.458 9.64453 12.1671 12.2731 11.163 15.8573C11.1627 15.8573 11.1624 15.8573 11.1621 15.8573C7.77188 15.8573 5.02344 18.6056 5.02344 21.996C5.02344 25.3863 7.77178 28.1346 11.1621 28.1346H27.5637Z" fill="white"/>
<path d="M27.5637 15.8573C27.5634 15.8573 27.5631 15.8573 27.5628 15.8573C26.5587 12.273 23.2678 9.64453 19.3629 9.64453C19.3617 9.64453 19.3605 9.64453 19.3594 9.64453V28.1345H27.5637C30.9539 28.1345 33.7023 25.3862 33.7023 21.9958C33.7022 18.6056 30.9539 15.8573 27.5637 15.8573Z" fill="#E9EDF5"/>
<path d="M42.0471 17.2995L40.2357 19.1118V18.8203C40.2357 13.2004 35.6638 8.62842 30.0439 8.62842V11.5581C34.0482 11.5581 37.3061 14.816 37.3061 18.8203V19.1123L35.4957 17.3023L33.4243 19.3743L38.772 24.7207L44.1192 19.3706L42.0471 17.2995Z" fill="#FFA300"/>
<path d="M14.2742 24.9309V24.7857L16.0864 26.5974L18.1578 24.5255L12.8102 19.1792L7.46289 24.5293L9.53506 26.6003L11.3446 24.7898V24.931C11.3446 30.5508 15.9166 35.1228 21.5364 35.1228V32.1931C17.5319 32.193 14.2742 28.9353 14.2742 24.9309Z" fill="#FFCE00"/>
<path d="M23.4365 26.7134H40.7833V38.735H23.4365V26.7134Z" fill="#CFD5DA"/>
<path d="M32.1104 26.7134H40.7837V38.735H32.1104V26.7134Z" fill="#B1B9C7"/>
<path d="M40.7833 26.7134L32.11 34.7278L23.4365 26.7134H40.7833Z" fill="#C5C9CC"/>
<path d="M40.7836 26.7134L32.1104 34.7278V26.7134H40.7836Z" fill="#9DA6B8"/>
</svg>
