<svg width="46" height="46" viewBox="0 0 46 46" fill="none" xmlns="http://www.w3.org/2000/svg">
<g clip-path="url(#clip0)">
<path d="M33.5982 17.5558C31.8616 17.5562 30.1461 17.9357 28.5713 18.6677C26.9965 19.3996 25.6004 20.4665 24.4805 21.7937C26.8316 20.9206 29.3839 20.7409 31.8342 21.2757C34.2845 21.8106 36.5298 23.0377 38.3032 24.8111C40.0766 26.5845 41.3037 28.8298 41.8386 31.2801C42.3734 33.7304 42.1937 36.2827 41.3206 38.6338C43.1918 37.0528 44.5319 34.9348 45.1594 32.5668C45.7869 30.1988 45.6715 27.6951 44.8287 25.3949C43.986 23.0947 42.4567 21.109 40.4479 19.7068C38.4391 18.3047 36.048 17.5537 33.5982 17.5558V17.5558Z" fill="#FA5805"/>
<path d="M30.222 34.5332C29.9783 34.4472 29.7476 34.3623 29.5283 34.2814V40.019C30.1539 39.9023 30.7283 39.5953 31.173 39.1401C31.6177 38.6849 31.9111 38.1036 32.0132 37.4754C32.1362 36.8499 32.0205 36.201 31.689 35.6564C31.3575 35.1119 30.8342 34.7112 30.222 34.5332V34.5332Z" fill="#FA5805"/>
<path d="M29.0424 22.1121C26.6768 22.1121 24.3644 22.8136 22.3976 24.1278C20.4307 25.442 18.8977 27.3099 17.9925 29.4954C17.0872 31.6809 16.8504 34.0857 17.3119 36.4058C17.7733 38.7258 18.9125 40.857 20.5851 42.5296C22.2578 44.2023 24.3889 45.3414 26.709 45.8029C29.0291 46.2644 31.4339 46.0276 33.6194 45.1223C35.8048 44.2171 37.6728 42.6841 38.987 40.7172C40.3012 38.7503 41.0027 36.4379 41.0027 34.0724C40.9992 30.9014 39.738 27.8613 37.4958 25.619C35.2535 23.3768 32.2134 22.1156 29.0424 22.1121V22.1121ZM33.1362 37.6639C32.9925 38.5593 32.5638 39.3844 31.9138 40.0168C31.2638 40.6491 30.4272 41.0549 29.5282 41.174V42.5796C29.5282 42.7307 29.4682 42.8755 29.3614 42.9823C29.2546 43.0891 29.1097 43.1492 28.9586 43.1492C28.8076 43.1492 28.6627 43.0891 28.5559 42.9823C28.4491 42.8755 28.3891 42.7307 28.3891 42.5796V41.2127C27.2257 41.2319 26.0879 40.8703 25.149 40.183C25.0226 40.1003 24.9342 39.9708 24.9032 39.8229C24.8723 39.675 24.9014 39.5209 24.9841 39.3945C25.0668 39.268 25.1963 39.1796 25.3442 39.1487C25.4921 39.1178 25.6462 39.1469 25.7726 39.2296C26.5264 39.7945 27.4473 40.0914 28.3891 40.0731V33.8275C27.6483 33.533 26.9489 33.1434 26.3086 32.6685C25.8926 32.3118 25.5823 31.8478 25.4116 31.327C25.2409 30.8063 25.2163 30.2487 25.3404 29.7149C25.4674 28.9711 25.8336 28.2891 26.3832 27.7722C26.9329 27.2554 27.6361 26.9318 28.3862 26.8507V25.5652C28.3862 25.4904 28.401 25.4164 28.4296 25.3473C28.4582 25.2782 28.5002 25.2154 28.5531 25.1625C28.6059 25.1096 28.6687 25.0676 28.7378 25.039C28.8069 25.0104 28.881 24.9957 28.9558 24.9957C29.0306 24.9957 29.1046 25.0104 29.1737 25.039C29.2428 25.0676 29.3056 25.1096 29.3585 25.1625C29.4114 25.2154 29.4534 25.2782 29.482 25.3473C29.5106 25.4164 29.5253 25.4904 29.5253 25.5652V26.7994C30.4558 26.8668 31.3421 27.2226 32.0609 27.8172C32.1722 27.9193 32.2383 28.0615 32.2447 28.2125C32.2511 28.3634 32.1973 28.5107 32.0951 28.6219C31.9929 28.7332 31.8507 28.7993 31.6998 28.8057C31.5489 28.8121 31.4016 28.7583 31.2903 28.6561C30.7851 28.2513 30.1722 28.0035 29.5276 27.9436V33.0615C29.8534 33.1879 30.2048 33.3195 30.6006 33.4602C31.4671 33.7252 32.2051 34.3008 32.6731 35.0767C33.141 35.8526 33.306 36.7739 33.1362 37.6639V37.6639Z" fill="#FA5805"/>
<path d="M26.4623 29.9255C26.3777 30.2542 26.3842 30.5997 26.481 30.925C26.5778 31.2503 26.7614 31.5431 27.0119 31.772C27.4385 32.0932 27.9004 32.3648 28.3885 32.5813V28.0034C27.9061 28.0805 27.4603 28.3078 27.1145 28.6529C26.7687 28.998 26.5405 29.4433 26.4623 29.9255Z" fill="#FA5805"/>
<path d="M35.7148 18.6794V11.5188C35.7148 10.9593 35.4926 10.4228 35.097 10.0272C34.7014 9.63162 34.1649 9.40939 33.6055 9.40939H29.4697L30.016 8.31743C30.0992 8.15062 30.1128 7.95759 30.0537 7.78077C29.9947 7.60396 29.8678 7.45784 29.701 7.37454L18.451 1.74954C18.289 1.66855 18.1021 1.65317 17.929 1.70661C17.756 1.76005 17.6103 1.87819 17.5222 2.03642L13.4258 9.40939H4.07422C3.51478 9.40939 2.97825 9.63162 2.58267 10.0272C2.18708 10.4228 1.96484 10.9593 1.96484 11.5188V32.6125C1.96484 33.172 2.18708 33.7085 2.58267 34.1041C2.97825 34.4996 3.51478 34.7219 4.07422 34.7219H33.6055C34.1649 34.7219 34.7014 34.4996 35.097 34.1041C35.4926 33.7085 35.7148 33.172 35.7148 32.6125V25.4519C36.1247 25.307 36.4798 25.039 36.7315 24.6846C36.9832 24.3301 37.1193 23.9066 37.1211 23.4719V20.6594C37.1193 20.2247 36.9832 19.8011 36.7315 19.4467C36.4798 19.0923 36.1247 18.8243 35.7148 18.6794V18.6794ZM18.4243 3.30837L28.4431 8.31743L25.4366 14.3313H12.3008L18.4243 3.30837ZM3.37109 32.6125V25.5813H4.77734C6.8918 25.5845 8.92809 26.3809 10.4837 27.813C12.0394 29.2451 13.0012 31.2087 13.179 33.3156H4.07422C3.88774 33.3156 3.7089 33.2416 3.57703 33.1097C3.44517 32.9778 3.37109 32.799 3.37109 32.6125V32.6125ZM33.6055 33.3156H14.5852C14.4065 30.8352 13.296 28.5143 11.4767 26.8188C9.65746 25.1234 7.26417 24.1789 4.77734 24.175H3.37109V11.5188C3.37109 11.3323 3.44517 11.1534 3.57703 11.0216C3.7089 10.8897 3.88774 10.8156 4.07422 10.8156H12.6446L10.692 14.3313H8.29297C8.10649 14.3313 7.92765 14.4053 7.79578 14.5372C7.66392 14.6691 7.58984 14.8479 7.58984 15.0344C7.58984 15.2209 7.66392 15.3997 7.79578 15.5316C7.92765 15.6634 8.10649 15.7375 8.29297 15.7375H30.793C30.9794 15.7375 31.1583 15.6634 31.2902 15.5316C31.422 15.3997 31.4961 15.2209 31.4961 15.0344C31.4961 14.8479 31.422 14.6691 31.2902 14.5372C31.1583 14.4053 30.9794 14.3313 30.793 14.3313H27.0088L28.7666 10.8156H33.6055C33.7919 10.8156 33.9708 10.8897 34.1027 11.0216C34.2345 11.1534 34.3086 11.3323 34.3086 11.5188V18.55H30.793C29.8606 18.55 28.9664 18.9204 28.307 19.5797C27.6477 20.239 27.2773 21.1332 27.2773 22.0656C27.2773 22.998 27.6477 23.8923 28.307 24.5516C28.9664 25.2109 29.8606 25.5813 30.793 25.5813H34.3086V32.6125C34.3086 32.799 34.2345 32.9778 34.1027 33.1097C33.9708 33.2416 33.7919 33.3156 33.6055 33.3156ZM35.7148 23.4719C35.7148 23.6584 35.6408 23.8372 35.5089 23.9691C35.377 24.1009 35.1982 24.175 35.0117 24.175H30.793C30.2335 24.175 29.697 23.9528 29.3014 23.5572C28.9058 23.1616 28.6836 22.6251 28.6836 22.0656C28.6836 21.5062 28.9058 20.9697 29.3014 20.5741C29.697 20.1785 30.2335 19.9563 30.793 19.9563H35.0117C35.1982 19.9563 35.377 20.0303 35.5089 20.1622C35.6408 20.2941 35.7148 20.4729 35.7148 20.6594V23.4719Z" fill="black"/>
<path d="M31.4961 23.1203C32.0786 23.1203 32.5508 22.6481 32.5508 22.0656C32.5508 21.4831 32.0786 21.0109 31.4961 21.0109C30.9136 21.0109 30.4414 21.4831 30.4414 22.0656C30.4414 22.6481 30.9136 23.1203 31.4961 23.1203Z" fill="black"/>
</g>
<defs>
<clipPath id="clip0">
<rect width="45" height="45" fill="white" transform="translate(0.558594 0.971863)"/>
</clipPath>
</defs>
</svg>
