<svg width="50" height="50" viewBox="0 0 50 50" fill="none" xmlns="http://www.w3.org/2000/svg">
<g clip-path="url(#clip0_1401_2)">
<path d="M25 50C38.8071 50 50 38.8071 50 25C50 11.1929 38.8071 0 25 0C11.1929 0 0 11.1929 0 25C0 38.8071 11.1929 50 25 50Z" fill="#7584F2"/>
<path d="M49.9967 25.385L41.9721 17.3604L41.0884 18.0132L33.1694 9.87305L8.40234 28.5672L20.0407 40.2056L16.982 42.7763L24.193 49.9872C24.4608 49.9957 24.7297 49.9999 24.9996 49.9999C38.6782 50 49.7909 39.0146 49.9967 25.385Z" fill="#4855B7"/>
<path d="M35.8812 30.9106C40.3795 30.9106 44.026 27.264 44.026 22.7658C44.026 18.2675 40.3794 14.621 35.8812 14.621C35.8809 14.621 35.8805 14.621 35.8801 14.621C34.5478 9.86552 30.1813 6.37793 25.0003 6.37793C19.8192 6.37793 15.4528 9.86552 14.1205 14.621C14.1201 14.621 14.1197 14.621 14.1193 14.621C9.62109 14.621 5.97461 18.2675 5.97461 22.7658C5.97461 27.264 9.62119 30.9106 14.1193 30.9106H35.8812Z" fill="white"/>
<path d="M35.8806 14.621C35.8802 14.621 35.8798 14.621 35.8794 14.621C34.5471 9.86552 30.1807 6.37793 24.9996 6.37793C24.988 6.37793 24.9765 6.37861 24.9648 6.37861V30.9106H35.8806C40.3788 30.9106 44.0253 27.264 44.0253 22.7658C44.0253 18.2675 40.3787 14.621 35.8806 14.621Z" fill="#E9EDF5"/>
<path d="M30.1498 31.9432H18.5205V25.5892C18.5205 22.0065 21.4352 19.0918 25.0179 19.0918C28.6005 19.0918 31.5152 22.0065 31.5152 25.5892H28.7846C28.7846 23.5122 27.0949 21.8225 25.0179 21.8225C22.9409 21.8225 21.2511 23.5122 21.2511 25.5892V29.2125H30.1498V31.9432Z" fill="#FFCE00"/>
<path d="M19.8859 31.9432H31.5151V25.5892C31.5151 22.0065 28.6005 19.0918 25.0179 19.0918C21.4352 19.0918 18.5205 22.0065 18.5205 25.5892H21.2512C21.2512 23.5122 22.9409 21.8225 25.0179 21.8225C27.0949 21.8225 28.7846 23.5122 28.7846 25.5892V29.2125H19.8859V31.9432Z" fill="#FFCE00"/>
<path d="M25.0173 21.8225C27.0942 21.8225 28.784 23.7072 28.784 25.7842H31.5147C31.5147 22.2016 28.6 19.0918 25.0173 19.0918C25.0063 19.0918 24.9954 19.0922 24.9844 19.0922V21.8233C24.9954 21.8232 25.0063 21.8225 25.0173 21.8225Z" fill="#FDBA12"/>
<path d="M24.9844 29.2134H30.1494V31.944H24.9844V29.2134Z" fill="white"/>
<path d="M17.0176 28.728H33.0176V42.7293H17.0176V28.728Z" fill="#9DA6B8"/>
<path d="M24.9844 28.728H33.0173V42.7292H24.9844V28.728Z" fill="#CFD5DA"/>
<path d="M26.9071 34.3452C26.9071 33.3013 26.0608 32.4551 25.017 32.4551C23.9732 32.4551 23.127 33.3013 23.127 34.3452C23.127 34.9793 23.4392 35.5404 23.9183 35.8833V39.2804H26.1158V35.8833C26.5948 35.5404 26.9071 34.9793 26.9071 34.3452Z" fill="#414952"/>
<path d="M25.0173 32.4551C25.0063 32.4551 24.9954 32.4557 24.9844 32.456V39.2804H26.116V35.8833C26.5952 35.5405 26.9074 34.9793 26.9074 34.3452C26.9074 33.3013 26.0613 32.4551 25.0173 32.4551Z" fill="#414952"/>
</g>
<defs>
<clipPath id="clip0_1401_2">
<rect width="50" height="50" fill="white"/>
</clipPath>
</defs>
</svg>
