<svg width="51" height="51" viewBox="0 0 51 51" fill="none" xmlns="http://www.w3.org/2000/svg">
<g clip-path="url(#clip0)">
<path d="M44.7484 35.5125C45.0992 33.8116 45.0992 32.0571 44.7484 30.3562L47.9515 28.0742C48.1097 27.9615 48.2203 27.7939 48.2616 27.6041C48.3029 27.4143 48.272 27.2159 48.175 27.0476L45.05 21.6351C44.9528 21.4667 44.7964 21.3405 44.6111 21.2812C44.4259 21.222 44.2253 21.234 44.0484 21.3148L40.4703 22.95C39.1641 21.8056 37.6468 20.9274 36.0039 20.3648L35.632 16.4539C35.6135 16.2598 35.5231 16.0796 35.3785 15.9488C35.2339 15.818 35.0457 15.746 34.8507 15.7468H28.6007C28.4058 15.746 28.2175 15.818 28.073 15.9488C27.9284 16.0796 27.838 16.2598 27.8195 16.4539L27.4468 20.3648C25.8041 20.9274 24.2871 21.8056 22.9812 22.95L19.4007 21.314C19.2239 21.2332 19.0232 21.2212 18.838 21.2805C18.6528 21.3397 18.4963 21.4659 18.3992 21.6343L15.2742 27.0468C15.1772 27.2152 15.1465 27.4136 15.1879 27.6034C15.2294 27.7932 15.3401 27.9608 15.4984 28.0734L18.7015 30.3554C18.3507 32.0563 18.3507 33.8108 18.7015 35.5117L15.4984 37.7937C15.3401 37.9063 15.2294 38.0739 15.1879 38.2637C15.1465 38.4535 15.1772 38.6519 15.2742 38.8203L18.3992 44.2328C18.4964 44.4011 18.653 44.5271 18.8382 44.5862C19.0234 44.6453 19.224 44.6332 19.4007 44.5523L22.9812 42.9164C24.2871 44.061 25.8041 44.9394 27.4468 45.5023L27.8195 49.4132C27.838 49.6073 27.9284 49.7875 28.073 49.9183C28.2175 50.0491 28.4058 50.1211 28.6007 50.1203H34.8507C35.0457 50.1211 35.2339 50.0491 35.3785 49.9183C35.5231 49.7875 35.6135 49.6073 35.632 49.4132L36.0039 45.5023C37.6467 44.9399 39.164 44.062 40.4703 42.9179L44.05 44.5539C44.2267 44.6348 44.4273 44.6469 44.6125 44.5878C44.7977 44.5287 44.9543 44.4027 45.0515 44.2343L48.1765 38.8218C48.2736 38.6536 48.3044 38.4552 48.2631 38.2654C48.2218 38.0756 48.1113 37.908 47.9531 37.7953L44.7484 35.5125ZM31.7304 38.4031C30.6488 38.4031 29.5915 38.0823 28.6921 37.4814C27.7928 36.8805 27.0919 36.0264 26.678 35.0271C26.264 34.0278 26.1557 32.9283 26.3668 31.8674C26.5778 30.8066 27.0986 29.8322 27.8634 29.0673C28.6283 28.3025 29.6027 27.7817 30.6635 27.5707C31.7244 27.3596 32.8239 27.468 33.8232 27.8819C34.8225 28.2958 35.6766 28.9967 36.2775 29.8961C36.8784 30.7954 37.1992 31.8527 37.1992 32.9343C37.1992 34.3847 36.623 35.7757 35.5974 36.8013C34.5718 37.8269 33.1808 38.4031 31.7304 38.4031Z" fill="#FA5805"/>
<path d="M24.5957 1.68433H5.8457C5.2241 1.68433 4.62796 1.93126 4.18842 2.37079C3.74888 2.81033 3.50195 3.40648 3.50195 4.02808V38.4031C3.50195 39.0247 3.74888 39.6208 4.18842 40.0604C4.62796 40.4999 5.2241 40.7468 5.8457 40.7468H24.5957C25.2173 40.7468 25.8134 40.4999 26.253 40.0604C26.6925 39.6208 26.9395 39.0247 26.9395 38.4031V4.02808C26.9395 3.40648 26.6925 2.81033 26.253 2.37079C25.8134 1.93126 25.2173 1.68433 24.5957 1.68433V1.68433ZM5.06445 7.93433H25.377V34.4968H5.06445V7.93433ZM5.8457 3.24683H24.5957C24.8029 3.24683 25.0016 3.32914 25.1481 3.47565C25.2946 3.62216 25.377 3.82088 25.377 4.02808V6.37183H5.06445V4.02808C5.06445 3.82088 5.14676 3.62216 5.29328 3.47565C5.43979 3.32914 5.6385 3.24683 5.8457 3.24683ZM24.5957 39.1843H5.8457C5.6385 39.1843 5.43979 39.102 5.29328 38.9555C5.14676 38.809 5.06445 38.6103 5.06445 38.4031V36.0593H25.377V38.4031C25.377 38.6103 25.2946 38.809 25.1481 38.9555C25.0016 39.102 24.8029 39.1843 24.5957 39.1843Z" fill="black"/>
<path d="M12.0957 14.1843H10.5332C9.9116 14.1843 9.31546 14.4313 8.87592 14.8708C8.43638 15.3103 8.18945 15.9065 8.18945 16.5281V18.0906C8.18945 18.7122 8.43638 19.3083 8.87592 19.7479C9.31546 20.1874 9.9116 20.4343 10.5332 20.4343H12.0957C12.7173 20.4343 13.3134 20.1874 13.753 19.7479C14.1925 19.3083 14.4395 18.7122 14.4395 18.0906V16.5281C14.4395 15.9065 14.1925 15.3103 13.753 14.8708C13.3134 14.4313 12.7173 14.1843 12.0957 14.1843ZM12.877 18.0906C12.877 18.2978 12.7946 18.4965 12.6481 18.643C12.5016 18.7895 12.3029 18.8718 12.0957 18.8718H10.5332C10.326 18.8718 10.1273 18.7895 9.98078 18.643C9.83426 18.4965 9.75195 18.2978 9.75195 18.0906V16.5281C9.75195 16.3209 9.83426 16.1222 9.98078 15.9756C10.1273 15.8291 10.326 15.7468 10.5332 15.7468H12.0957C12.3029 15.7468 12.5016 15.8291 12.6481 15.9756C12.7946 16.1222 12.877 16.3209 12.877 16.5281V18.0906Z" fill="black"/>
<path d="M12.0957 21.9968H10.5332C9.9116 21.9968 9.31546 22.2438 8.87592 22.6833C8.43638 23.1228 8.18945 23.719 8.18945 24.3406V25.9031C8.18945 26.5247 8.43638 27.1208 8.87592 27.5604C9.31546 27.9999 9.9116 28.2468 10.5332 28.2468H12.0957C12.7173 28.2468 13.3134 27.9999 13.753 27.5604C14.1925 27.1208 14.4395 26.5247 14.4395 25.9031V24.3406C14.4395 23.719 14.1925 23.1228 13.753 22.6833C13.3134 22.2438 12.7173 21.9968 12.0957 21.9968ZM12.877 25.9031C12.877 26.1103 12.7946 26.309 12.6481 26.4555C12.5016 26.602 12.3029 26.6843 12.0957 26.6843H10.5332C10.326 26.6843 10.1273 26.602 9.98078 26.4555C9.83426 26.309 9.75195 26.1103 9.75195 25.9031V24.3406C9.75195 24.1334 9.83426 23.9347 9.98078 23.7881C10.1273 23.6416 10.326 23.5593 10.5332 23.5593H12.0957C12.3029 23.5593 12.5016 23.6416 12.6481 23.7881C12.7946 23.9347 12.877 24.1334 12.877 24.3406V25.9031Z" fill="black"/>
<path d="M19.9082 14.1843H18.3457C17.7241 14.1843 17.128 14.4313 16.6884 14.8708C16.2489 15.3103 16.002 15.9065 16.002 16.5281V18.0906C16.002 18.7122 16.2489 19.3083 16.6884 19.7479C17.128 20.1874 17.7241 20.4343 18.3457 20.4343H19.9082C20.5298 20.4343 21.1259 20.1874 21.5655 19.7479C22.005 19.3083 22.252 18.7122 22.252 18.0906V16.5281C22.252 15.9065 22.005 15.3103 21.5655 14.8708C21.1259 14.4313 20.5298 14.1843 19.9082 14.1843ZM20.6895 18.0906C20.6895 18.2978 20.6071 18.4965 20.4606 18.643C20.3141 18.7895 20.1154 18.8718 19.9082 18.8718H18.3457C18.1385 18.8718 17.9398 18.7895 17.7933 18.643C17.6468 18.4965 17.5645 18.2978 17.5645 18.0906V16.5281C17.5645 16.3209 17.6468 16.1222 17.7933 15.9756C17.9398 15.8291 18.1385 15.7468 18.3457 15.7468H19.9082C20.1154 15.7468 20.3141 15.8291 20.4606 15.9756C20.6071 16.1222 20.6895 16.3209 20.6895 16.5281V18.0906Z" fill="black"/>
<path d="M19.9082 21.9968H18.3457C17.7241 21.9968 17.128 22.2438 16.6884 22.6833C16.2489 23.1228 16.002 23.719 16.002 24.3406V25.9031C16.002 26.5247 16.2489 27.1208 16.6884 27.5604C17.128 27.9999 17.7241 28.2468 18.3457 28.2468H19.9082C20.5298 28.2468 21.1259 27.9999 21.5655 27.5604C22.005 27.1208 22.252 26.5247 22.252 25.9031V24.3406C22.252 23.719 22.005 23.1228 21.5655 22.6833C21.1259 22.2438 20.5298 21.9968 19.9082 21.9968ZM20.6895 25.9031C20.6895 26.1103 20.6071 26.309 20.4606 26.4555C20.3141 26.602 20.1154 26.6843 19.9082 26.6843H18.3457C18.1385 26.6843 17.9398 26.602 17.7933 26.4555C17.6468 26.309 17.5645 26.1103 17.5645 25.9031V24.3406C17.5645 24.1334 17.6468 23.9347 17.7933 23.7881C17.9398 23.6416 18.1385 23.5593 18.3457 23.5593H19.9082C20.1154 23.5593 20.3141 23.6416 20.4606 23.7881C20.6071 23.9347 20.6895 24.1334 20.6895 24.3406V25.9031Z" fill="black"/>
</g>
<defs>
<clipPath id="clip0">
<rect width="50" height="50" fill="white" transform="translate(0.767578 0.903076)"/>
</clipPath>
</defs>
</svg>
