<svg width="51" height="51" viewBox="0 0 51 51" fill="none" xmlns="http://www.w3.org/2000/svg">
<g clip-path="url(#clip0)">
<path d="M47.7119 17.9211H19.5869C18.9653 17.9211 18.3692 18.1681 17.9296 18.6076C17.4901 19.0471 17.2432 19.6433 17.2432 20.2649V37.4524H50.0557V20.2649C50.0557 19.6433 49.8087 19.0471 49.3692 18.6076C48.9297 18.1681 48.3335 17.9211 47.7119 17.9211Z" fill="#FA5805"/>
<path d="M17.2432 41.3586C17.2432 41.9802 17.4901 42.5764 17.9296 43.0159C18.3692 43.4555 18.9653 43.7024 19.5869 43.7024H47.7119C48.3335 43.7024 48.9297 43.4555 49.3692 43.0159C49.8087 42.5764 50.0557 41.9802 50.0557 41.3586V39.0149H17.2432V41.3586Z" fill="#FA5805"/>
<path d="M41.4619 47.6086H38.8213C38.4273 46.8592 38.1042 46.0745 37.8564 45.2649H29.4424C29.1946 46.0745 28.8716 46.8592 28.4775 47.6086H25.8369C25.6297 47.6086 25.431 47.691 25.2845 47.8375C25.138 47.984 25.0557 48.1827 25.0557 48.3899C25.0557 48.5971 25.138 48.7958 25.2845 48.9423C25.431 49.0888 25.6297 49.1711 25.8369 49.1711H41.4619C41.6691 49.1711 41.8678 49.0888 42.0143 48.9423C42.1609 48.7958 42.2432 48.5971 42.2432 48.3899C42.2432 48.1827 42.1609 47.984 42.0143 47.8375C41.8678 47.691 41.6691 47.6086 41.4619 47.6086Z" fill="#FA5805"/>
<path d="M32.0957 18.7024H31.3145V17.1399C31.3145 16.5183 31.0675 15.9221 30.628 15.4826C30.1884 15.0431 29.5923 14.7961 28.9707 14.7961H24.5074L18.8145 11.2375V9.32739H21.9395C22.5611 9.32739 23.1572 9.08046 23.5967 8.64092C24.0363 8.20139 24.2832 7.60524 24.2832 6.98364V3.85864C24.2832 3.23704 24.0363 2.6409 23.5967 2.20136C23.1572 1.76182 22.5611 1.51489 21.9395 1.51489H14.127C13.5054 1.51489 12.9092 1.76182 12.4697 2.20136C12.0301 2.6409 11.7832 3.23704 11.7832 3.85864V6.98364C11.7832 7.60524 12.0301 8.20139 12.4697 8.64092C12.9092 9.08046 13.5054 9.32739 14.127 9.32739H17.252V11.2375L11.559 14.7961H7.0957C6.4741 14.7961 5.87796 15.0431 5.43842 15.4826C4.99888 15.9221 4.75195 16.5183 4.75195 17.1399V18.7024H3.9707C3.3491 18.7024 2.75296 18.9493 2.31342 19.3889C1.87388 19.8284 1.62695 20.4245 1.62695 21.0461V24.1711C1.62695 24.7927 1.87388 25.3889 2.31342 25.8284C2.75296 26.268 3.3491 26.5149 3.9707 26.5149H7.0957C7.7173 26.5149 8.31345 26.268 8.75298 25.8284C9.19252 25.3889 9.43945 24.7927 9.43945 24.1711V21.0461C9.43945 20.4245 9.19252 19.8284 8.75298 19.3889C8.31345 18.9493 7.7173 18.7024 7.0957 18.7024H6.31445V17.1399C6.31445 16.9327 6.39676 16.734 6.54328 16.5875C6.68979 16.441 6.8885 16.3586 7.0957 16.3586H11.559L17.252 19.9172V31.9836H14.127C13.5054 31.9836 12.9092 32.2306 12.4697 32.6701C12.0301 33.1097 11.7832 33.7058 11.7832 34.3274V37.4524C11.7832 38.074 12.0301 38.6701 12.4697 39.1097C12.9092 39.5492 13.5054 39.7961 14.127 39.7961H21.9395C22.5611 39.7961 23.1572 39.5492 23.5967 39.1097C24.0363 38.6701 24.2832 38.074 24.2832 37.4524V34.3274C24.2832 33.7058 24.0363 33.1097 23.5967 32.6701C23.1572 32.2306 22.5611 31.9836 21.9395 31.9836H18.8145V30.4211H28.9707C29.5923 30.4211 30.1884 30.1742 30.628 29.7347C31.0675 29.2951 31.3145 28.699 31.3145 28.0774V26.5149H32.0957C32.7173 26.5149 33.3134 26.268 33.753 25.8284C34.1925 25.3889 34.4395 24.7927 34.4395 24.1711V21.0461C34.4395 20.4245 34.1925 19.8284 33.753 19.3889C33.3134 18.9493 32.7173 18.7024 32.0957 18.7024ZM13.3457 6.98364V3.85864C13.3457 3.65144 13.428 3.45273 13.5745 3.30622C13.721 3.1597 13.9198 3.07739 14.127 3.07739H21.9395C22.1467 3.07739 22.3454 3.1597 22.4919 3.30622C22.6384 3.45273 22.7207 3.65144 22.7207 3.85864V6.98364C22.7207 7.19084 22.6384 7.38956 22.4919 7.53607C22.3454 7.68258 22.1467 7.76489 21.9395 7.76489H14.127C13.9198 7.76489 13.721 7.68258 13.5745 7.53607C13.428 7.38956 13.3457 7.19084 13.3457 6.98364V6.98364ZM7.87695 21.0461V24.1711C7.87695 24.3783 7.79464 24.5771 7.64813 24.7236C7.50162 24.8701 7.3029 24.9524 7.0957 24.9524H3.9707C3.7635 24.9524 3.56479 24.8701 3.41828 24.7236C3.27176 24.5771 3.18945 24.3783 3.18945 24.1711V21.0461C3.18945 20.8389 3.27176 20.6402 3.41828 20.4937C3.56479 20.3472 3.7635 20.2649 3.9707 20.2649H7.0957C7.3029 20.2649 7.50162 20.3472 7.64813 20.4937C7.79464 20.6402 7.87695 20.8389 7.87695 21.0461ZM22.7207 34.3274V37.4524C22.7207 37.6596 22.6384 37.8583 22.4919 38.0048C22.3454 38.1513 22.1467 38.2336 21.9395 38.2336H14.127C13.9198 38.2336 13.721 38.1513 13.5745 38.0048C13.428 37.8583 13.3457 37.6596 13.3457 37.4524V34.3274C13.3457 34.1202 13.428 33.9215 13.5745 33.775C13.721 33.6285 13.9198 33.5461 14.127 33.5461H21.9395C22.1467 33.5461 22.3454 33.6285 22.4919 33.775C22.6384 33.9215 22.7207 34.1202 22.7207 34.3274ZM18.0332 12.5922L22.809 15.5774L18.0332 18.5625L13.2574 15.5774L18.0332 12.5922ZM29.752 28.0774C29.752 28.2846 29.6696 28.4833 29.5231 28.6298C29.3766 28.7763 29.1779 28.8586 28.9707 28.8586H18.8145V19.9172L24.5074 16.3586H28.9707C29.1779 16.3586 29.3766 16.441 29.5231 16.5875C29.6696 16.734 29.752 16.9327 29.752 17.1399V18.7024H28.9707C28.3491 18.7024 27.753 18.9493 27.3134 19.3889C26.8739 19.8284 26.627 20.4245 26.627 21.0461V24.1711C26.627 24.7927 26.8739 25.3889 27.3134 25.8284C27.753 26.268 28.3491 26.5149 28.9707 26.5149H29.752V28.0774ZM32.877 24.1711C32.877 24.3783 32.7946 24.5771 32.6481 24.7236C32.5016 24.8701 32.3029 24.9524 32.0957 24.9524H28.9707C28.7635 24.9524 28.5648 24.8701 28.4183 24.7236C28.2718 24.5771 28.1895 24.3783 28.1895 24.1711V21.0461C28.1895 20.8389 28.2718 20.6402 28.4183 20.4937C28.5648 20.3472 28.7635 20.2649 28.9707 20.2649H32.0957C32.3029 20.2649 32.5016 20.3472 32.6481 20.4937C32.7946 20.6402 32.877 20.8389 32.877 21.0461V24.1711Z" fill="black"/>
</g>
<defs>
<clipPath id="clip0">
<rect width="50" height="50" fill="white" transform="translate(0.845703 0.733643)"/>
</clipPath>
</defs>
</svg>
