<svg width="46" height="46" viewBox="0 0 46 46" fill="none" xmlns="http://www.w3.org/2000/svg">
<mask id="mask0" mask-type="alpha" maskUnits="userSpaceOnUse" x="15" y="15" width="31" height="30">
<path d="M30.2393 33.4794C27.6294 33.4822 25.1272 34.5202 23.2818 36.3657C21.4363 38.2111 20.3983 40.7133 20.3955 43.3232V44.7294H40.083V43.3232C40.0802 40.7133 39.0422 38.2111 37.1968 36.3657C35.3513 34.5202 32.8491 33.4822 30.2393 33.4794V33.4794Z" fill="#C4A2FC"/>
<path d="M30.2393 28.5576C32.9575 28.5576 35.1611 26.354 35.1611 23.6357C35.1611 20.9174 32.9575 18.7138 30.2393 18.7138C27.521 18.7138 25.3174 20.9174 25.3174 23.6357C25.3174 26.354 27.521 28.5576 30.2393 28.5576Z" fill="#C4A2FC"/>
<path d="M42.8955 15.1982H17.583C17.0236 15.1982 16.487 15.4204 16.0915 15.816C15.6959 16.2116 15.4736 16.7481 15.4736 17.3076V42.6201C15.4736 43.1795 15.6959 43.716 16.0915 44.1116C16.487 44.5072 17.0236 44.7294 17.583 44.7294H18.9893V43.3232C18.9893 40.3395 20.1745 37.478 22.2843 35.3682C24.3941 33.2584 27.2556 32.0732 30.2393 32.0732C33.2229 32.0732 36.0844 33.2584 38.1942 35.3682C40.304 37.478 41.4893 40.3395 41.4893 43.3232V44.7294H42.8955C43.4549 44.7294 43.9915 44.5072 44.3871 44.1116C44.7826 43.716 45.0049 43.1795 45.0049 42.6201V17.3076C45.0049 16.7481 44.7826 16.2116 44.3871 15.816C43.9915 15.4204 43.4549 15.1982 42.8955 15.1982ZM30.2393 29.9638C28.9877 29.9638 27.7642 29.5927 26.7235 28.8973C25.6829 28.202 24.8718 27.2137 24.3928 26.0573C23.9139 24.901 23.7886 23.6287 24.0327 22.4011C24.2769 21.1736 24.8796 20.046 25.7646 19.161C26.6496 18.276 27.7772 17.6733 29.0047 17.4291C30.2322 17.185 31.5046 17.3103 32.6609 17.7893C33.8172 18.2682 34.8056 19.0793 35.5009 20.12C36.1962 21.1606 36.5674 22.3841 36.5674 23.6357C36.5655 25.3134 35.8982 26.9219 34.7119 28.1083C33.5255 29.2946 31.917 29.9619 30.2393 29.9638Z" fill="#C4A2FC"/>
</mask>
<g mask="url(#mask0)">
<circle cx="30.2396" cy="29.9638" r="13.6292" fill="#FA5805"/>
</g>
<path d="M22.0039 1.44922H5.12891C4.56947 1.44922 4.03294 1.67146 3.63735 2.06704C3.24177 2.46262 3.01953 2.99915 3.01953 3.55859V34.4961C3.01953 35.0555 3.24177 35.5921 3.63735 35.9876C4.03294 36.3832 4.56947 36.6055 5.12891 36.6055H22.0039C22.5633 36.6055 23.0999 36.3832 23.4955 35.9876C23.891 35.5921 24.1133 35.0555 24.1133 34.4961V3.55859C24.1133 2.99915 23.891 2.46262 23.4955 2.06704C23.0999 1.67146 22.5633 1.44922 22.0039 1.44922V1.44922ZM4.42578 7.07422H22.707V30.9805H4.42578V7.07422ZM5.12891 2.85547H22.0039C22.1904 2.85547 22.3692 2.92955 22.5011 3.06141C22.633 3.19327 22.707 3.37211 22.707 3.55859V5.66797H4.42578V3.55859C4.42578 3.37211 4.49986 3.19327 4.63172 3.06141C4.76358 2.92955 4.94243 2.85547 5.12891 2.85547ZM22.0039 35.1992H5.12891C4.94243 35.1992 4.76358 35.1251 4.63172 34.9933C4.49986 34.8614 4.42578 34.6826 4.42578 34.4961V32.3867H22.707V34.4961C22.707 34.6826 22.633 34.8614 22.5011 34.9933C22.3692 35.1251 22.1904 35.1992 22.0039 35.1992Z" fill="black"/>
<path d="M10.7539 12.6992H9.34766C8.78822 12.6992 8.25169 12.9215 7.8561 13.317C7.46052 13.7126 7.23828 14.2492 7.23828 14.8086V16.2148C7.23828 16.7743 7.46052 17.3108 7.8561 17.7064C8.25169 18.102 8.78822 18.3242 9.34766 18.3242H10.7539C11.3133 18.3242 11.8499 18.102 12.2455 17.7064C12.641 17.3108 12.8633 16.7743 12.8633 16.2148V14.8086C12.8633 14.2492 12.641 13.7126 12.2455 13.317C11.8499 12.9215 11.3133 12.6992 10.7539 12.6992ZM11.457 16.2148C11.457 16.4013 11.383 16.5802 11.2511 16.712C11.1192 16.8439 10.9404 16.918 10.7539 16.918H9.34766C9.16118 16.918 8.98233 16.8439 8.85047 16.712C8.71861 16.5802 8.64453 16.4013 8.64453 16.2148V14.8086C8.64453 14.6221 8.71861 14.4433 8.85047 14.3114C8.98233 14.1795 9.16118 14.1055 9.34766 14.1055H10.7539C10.9404 14.1055 11.1192 14.1795 11.2511 14.3114C11.383 14.4433 11.457 14.6221 11.457 14.8086V16.2148Z" fill="black"/>
<path d="M10.7539 19.7305H9.34766C8.78822 19.7305 8.25169 19.9527 7.8561 20.3483C7.46052 20.7439 7.23828 21.2804 7.23828 21.8398V23.2461C7.23828 23.8055 7.46052 24.3421 7.8561 24.7376C8.25169 25.1332 8.78822 25.3555 9.34766 25.3555H10.7539C11.3133 25.3555 11.8499 25.1332 12.2455 24.7376C12.641 24.3421 12.8633 23.8055 12.8633 23.2461V21.8398C12.8633 21.2804 12.641 20.7439 12.2455 20.3483C11.8499 19.9527 11.3133 19.7305 10.7539 19.7305ZM11.457 23.2461C11.457 23.4326 11.383 23.6114 11.2511 23.7433C11.1192 23.8751 10.9404 23.9492 10.7539 23.9492H9.34766C9.16118 23.9492 8.98233 23.8751 8.85047 23.7433C8.71861 23.6114 8.64453 23.4326 8.64453 23.2461V21.8398C8.64453 21.6534 8.71861 21.4745 8.85047 21.3427C8.98233 21.2108 9.16118 21.1367 9.34766 21.1367H10.7539C10.9404 21.1367 11.1192 21.2108 11.2511 21.3427C11.383 21.4745 11.457 21.6534 11.457 21.8398V23.2461Z" fill="black"/>
<path d="M17.7852 12.6992H16.3789C15.8195 12.6992 15.2829 12.9215 14.8874 13.317C14.4918 13.7126 14.2695 14.2492 14.2695 14.8086V16.2148C14.2695 16.7743 14.4918 17.3108 14.8874 17.7064C15.2829 18.102 15.8195 18.3242 16.3789 18.3242H17.7852C18.3446 18.3242 18.8811 18.102 19.2767 17.7064C19.6723 17.3108 19.8945 16.7743 19.8945 16.2148V14.8086C19.8945 14.2492 19.6723 13.7126 19.2767 13.317C18.8811 12.9215 18.3446 12.6992 17.7852 12.6992ZM18.4883 16.2148C18.4883 16.4013 18.4142 16.5802 18.2823 16.712C18.1505 16.8439 17.9716 16.918 17.7852 16.918H16.3789C16.1924 16.918 16.0136 16.8439 15.8817 16.712C15.7499 16.5802 15.6758 16.4013 15.6758 16.2148V14.8086C15.6758 14.6221 15.7499 14.4433 15.8817 14.3114C16.0136 14.1795 16.1924 14.1055 16.3789 14.1055H17.7852C17.9716 14.1055 18.1505 14.1795 18.2823 14.3114C18.4142 14.4433 18.4883 14.6221 18.4883 14.8086V16.2148Z" fill="black"/>
<path d="M17.7852 19.7305H16.3789C15.8195 19.7305 15.2829 19.9527 14.8874 20.3483C14.4918 20.7439 14.2695 21.2804 14.2695 21.8398V23.2461C14.2695 23.8055 14.4918 24.3421 14.8874 24.7376C15.2829 25.1332 15.8195 25.3555 16.3789 25.3555H17.7852C18.3446 25.3555 18.8811 25.1332 19.2767 24.7376C19.6723 24.3421 19.8945 23.8055 19.8945 23.2461V21.8398C19.8945 21.2804 19.6723 20.7439 19.2767 20.3483C18.8811 19.9527 18.3446 19.7305 17.7852 19.7305ZM18.4883 23.2461C18.4883 23.4326 18.4142 23.6114 18.2823 23.7433C18.1505 23.8751 17.9716 23.9492 17.7852 23.9492H16.3789C16.1924 23.9492 16.0136 23.8751 15.8817 23.7433C15.7499 23.6114 15.6758 23.4326 15.6758 23.2461V21.8398C15.6758 21.6534 15.7499 21.4745 15.8817 21.3427C16.0136 21.2108 16.1924 21.1367 16.3789 21.1367H17.7852C17.9716 21.1367 18.1505 21.2108 18.2823 21.3427C18.4142 21.4745 18.4883 21.6534 18.4883 21.8398V23.2461Z" fill="black"/>
</svg>
