<svg width="50" height="50" viewBox="0 0 50 50" fill="none" xmlns="http://www.w3.org/2000/svg">
<g clip-path="url(#clip0_1376_51)">
<path d="M50 25C50 38.8073 38.8073 50 25 50C11.1927 50 0 38.8073 0 25C0 11.1927 11.1927 0 25 0C38.8073 0 50 11.1927 50 25Z" fill="#7584F2"/>
<path d="M49.5066 29.9619L31.6442 12.0996L11.3604 38.653L22.592 49.8842C23.3847 49.9601 24.1873 50.0002 24.9998 50.0002C37.108 50.0002 47.2048 41.3919 49.5066 29.9619V29.9619Z" fill="#4855B7"/>
<path d="M29.901 11.3477C28.5769 11.3477 27.5035 12.4211 27.5035 13.7452C27.5035 17.5393 24.6375 20.6734 20.9502 21.0713L30.3862 24.2677V21.0713C31.6344 18.8527 32.2985 16.364 32.2985 13.7452C32.2985 12.4211 31.2255 11.3477 29.901 11.3477V11.3477Z" fill="#FFCCC3"/>
<path d="M38.6394 31.9751C38.6394 31.05 38.1152 30.2481 37.3485 29.8484L17.7539 28.25L20.9506 38.626H36.2415C37.5659 38.626 38.639 37.5525 38.639 36.2284C38.639 35.3034 38.1152 34.5015 37.3481 34.1017C38.1152 33.7016 38.6394 32.8997 38.6394 31.9751V31.9751Z" fill="#FFA99B"/>
<path d="M38.6394 27.7222C38.6394 26.7971 38.1152 25.9953 37.3485 25.5955C38.1152 25.1954 38.6394 24.3935 38.6394 23.4688C38.6394 22.1447 37.5659 21.0713 36.2418 21.0713H20.9506L17.7539 29.8489H37.3485C38.1152 29.4487 38.6394 28.6469 38.6394 27.7222V27.7222Z" fill="#FFCCC3"/>
<path d="M32.6465 25.0664H34.2448V26.6648H32.6465V25.0664Z" fill="#FFA99B"/>
<path d="M32.6465 29.0625H34.2448V30.6609H32.6465V29.0625Z" fill="#FF7F67"/>
<path d="M32.6465 33.0586H34.2448V34.657H32.6465V33.0586Z" fill="#FF7F67"/>
<path d="M15.3594 28.25L16.9551 38.6527H20.951V29.8484L15.3594 28.25Z" fill="#D2ECFD"/>
<path d="M20.951 21.0713H16.9551L15.3594 29.8489H20.951V21.0713Z" fill="#EAF7FF"/>
<path d="M11.3604 29.8484V38.6527H16.9546V29.8484L14.1577 28.25L11.3604 29.8484Z" fill="#203F49"/>
<path d="M11.3604 21.0713H16.9546V29.8489H11.3604V21.0713Z" fill="#2B5C74"/>
</g>
<defs>
<clipPath id="clip0_1376_51">
<rect width="50" height="50" fill="white"/>
</clipPath>
</defs>
</svg>
